G04 ================== begin FILE IDENTIFICATION RECORD ==================*
G04 Layout Name:  laser_driver2.brd*
G04 Film Name:    PASTEMASK_TOP*
G04 File Format:  Gerber RS274X*
G04 File Origin:  Cadence Allegro 16.6-2015-S058*
G04 Origin Date:  Tue Jul 12 09:25:14 2016*
G04 *
G04 Layer:  PIN/PASTEMASK_TOP*
G04 Layer:  BOARD GEOMETRY/OUTLINE*
G04 *
G04 Offset:    (0.0000 0.0000)*
G04 Mirror:    No*
G04 Mode:      Positive*
G04 Rotation:  0*
G04 FullContactRelief:  No*
G04 UndefLineWidth:     0.0000*
G04 ================== end FILE IDENTIFICATION RECORD ====================*
%FSLAX25Y25*MOMM*%
%IR0*IPPOS*OFA0.00000B0.00000*MIA0B0*SFA1.00000B1.00000*%
%ADD10R,1.016X.635*%
%ADD18R,2.032X.6096*%
%ADD14R,.635X1.778*%
%ADD16R,1.016X2.032*%
%ADD11R,1.016X1.27*%
%ADD17R,1.27X1.016*%
%ADD12R,1.143X1.651*%
%ADD15R,.6604X.9652*%
%ADD13R,2.9972X1.651*%
%LPD*%
G75*
G54D10*
X-2607950Y-393980D03*
Y-206020D03*
X-2392050Y-300000D03*
X-2007950Y706020D03*
Y893980D03*
X-1792050Y800000D03*
X907950Y-400000D03*
X692050Y-493980D03*
Y-306020D03*
G54D11*
X-2411100Y-900000D03*
X-2588900D03*
X-2411100Y-600000D03*
X-2588900D03*
X-1988900Y0D03*
X-2411100D03*
X-2588900D03*
X-1988900Y300000D03*
X-2588900Y900000D03*
X-2411100D03*
Y300000D03*
X-2588900D03*
Y600000D03*
X-2411100D03*
X-1211100Y0D03*
X-1388900D03*
X-1811100D03*
Y300000D03*
X-1211100D03*
X-1388900D03*
X-1211100Y600000D03*
X-1388900D03*
X-1211100Y900000D03*
X-1388900D03*
X-688900Y-600000D03*
X-511100D03*
Y900000D03*
X-688900D03*
X211100Y-600000D03*
X388900D03*
Y-300000D03*
X211100D03*
X388900Y0D03*
X211100D03*
Y600000D03*
X388900D03*
X211100Y300000D03*
X388900D03*
X888900Y0D03*
X711100D03*
Y300000D03*
X888900D03*
X1811100Y900000D03*
X1988900D03*
X2488900D03*
X2311100D03*
X3088900D03*
X2911100D03*
X3088900Y600000D03*
X2911100D03*
G54D12*
X-1930150Y-281590D03*
X-1699010D03*
X-1467870D03*
G54D13*
X-1699010Y-916590D03*
G54D14*
X-436500Y-179400D03*
X-563500D03*
X-690500D03*
Y379400D03*
X-563500D03*
X-436500D03*
X-309500Y-179400D03*
Y379400D03*
G54D15*
X1400000Y426240D03*
Y773760D03*
G54D16*
X1798400Y300000D03*
X2001600D03*
G54D17*
X2900000Y-88900D03*
Y88900D03*
G54D18*
X3500000Y-100000D03*
Y0D03*
Y100000D03*
M02*
