G04 ================== begin FILE IDENTIFICATION RECORD ==================*
G04 Layout Name:  laser_driver2.brd*
G04 Film Name:    SOLDERMASK_TOP*
G04 File Format:  Gerber RS274X*
G04 File Origin:  Cadence Allegro 16.6-2015-S058*
G04 Origin Date:  Tue Jul 12 09:25:14 2016*
G04 *
G04 Layer:  VIA CLASS/SOLDERMASK_TOP*
G04 Layer:  PIN/SOLDERMASK_TOP*
G04 Layer:  PACKAGE GEOMETRY/SOLDERMASK_TOP*
G04 Layer:  BOARD GEOMETRY/OUTLINE*
G04 Layer:  BOARD GEOMETRY/SOLDERMASK_TOP*
G04 *
G04 Offset:    (0.0000 0.0000)*
G04 Mirror:    No*
G04 Mode:      Positive*
G04 Rotation:  0*
G04 FullContactRelief:  No*
G04 UndefLineWidth:     0.0000*
G04 ================== end FILE IDENTIFICATION RECORD ====================*
%FSLAX25Y25*MOMM*%
%IR0*IPPOS*OFA0.00000B0.00000*MIA0B0*SFA1.00000B1.00000*%
%ADD12R,1.143X.7112*%
%ADD18R,.762X1.0668*%
%ADD23R,2.1082X.6858*%
%ADD20R,.6858X1.0668*%
%AMMACRO21*
4,1,8,-.381,-2.1844,
-.381,-1.3716,
-.9906,-1.3716,
-.9906,2.1844,
.9906,2.1844,
.9906,-1.3716,
.381,-1.3716,
.381,-2.1844,
-.381,-2.1844,
0.0*
%
%ADD21MACRO21*%
%ADD17R,.7366X1.8796*%
%ADD19R,1.016X2.032*%
%ADD15C,1.1176*%
%ADD10C,1.8034*%
%ADD13R,1.0668X1.3208*%
%ADD22R,1.3208X1.0668*%
%ADD11R,1.8034X1.8034*%
%ADD14R,1.2954X1.8034*%
%ADD16R,3.1496X1.8034*%
G75*
%LPD*%
G75*
G36*
G01X-3408410Y-900000D02*
G03I-91590J0D01*
G37*
G36*
G01Y900000D02*
G03I-91590J0D01*
G37*
G36*
G01X3591590Y-900000D02*
G03I-91590J0D01*
G37*
G36*
G01Y900000D02*
G03I-91590J0D01*
G37*
G54D10*
X-3300000Y119000D03*
Y-130990D03*
Y369010D03*
G54D11*
Y-381000D03*
G54D20*
X2599720Y630200D03*
X2300000D03*
X2599720Y300000D03*
X2300000D03*
G54D21*
X2449860Y465100D03*
G54D12*
X-2607950Y-393980D03*
Y-206020D03*
X-2392050Y-300000D03*
X-2007950Y706020D03*
Y893980D03*
X-1792050Y800000D03*
X907950Y-400000D03*
X692050Y-493980D03*
Y-306020D03*
G54D22*
X2900000Y-88900D03*
Y88900D03*
G54D13*
X-2411100Y-900000D03*
X-2588900D03*
X-2411100Y-600000D03*
X-2588900D03*
X-1988900Y0D03*
X-2411100D03*
X-2588900D03*
X-1988900Y300000D03*
X-2588900Y900000D03*
X-2411100D03*
Y300000D03*
X-2588900D03*
Y600000D03*
X-2411100D03*
X-1211100Y0D03*
X-1388900D03*
X-1811100D03*
Y300000D03*
X-1211100D03*
X-1388900D03*
X-1211100Y600000D03*
X-1388900D03*
X-1211100Y900000D03*
X-1388900D03*
X-688900Y-600000D03*
X-511100D03*
Y900000D03*
X-688900D03*
X211100Y-600000D03*
X388900D03*
Y-300000D03*
X211100D03*
X388900Y0D03*
X211100D03*
Y600000D03*
X388900D03*
X211100Y300000D03*
X388900D03*
X888900Y0D03*
X711100D03*
Y300000D03*
X888900D03*
X1811100Y900000D03*
X1988900D03*
X2488900D03*
X2311100D03*
X3088900D03*
X2911100D03*
X3088900Y600000D03*
X2911100D03*
G54D14*
X-1930150Y-281590D03*
X-1699010D03*
X-1467870D03*
G54D23*
X3500000Y-100000D03*
Y0D03*
Y100000D03*
G54D15*
X-2100000Y300000D03*
X-1211100Y-188900D03*
X-1600000Y600000D03*
X-1792050Y992050D03*
X-1000000Y900000D03*
X-800000Y700000D03*
X-100000Y-200000D03*
X0Y500000D03*
X500000Y-300000D03*
X600000Y700000D03*
X1400000Y900000D03*
X2690780Y-9220D03*
X2449860Y714020D03*
X1988900Y711100D03*
X2200000Y900000D03*
X2690780Y800000D03*
X3300000Y-100000D03*
X3100000Y0D03*
X3300000Y100000D03*
X3200000Y900000D03*
G54D16*
X-1699010Y-916590D03*
G54D17*
X-436500Y-179400D03*
X-563500D03*
X-690500D03*
Y379400D03*
X-563500D03*
X-436500D03*
X-309500Y-179400D03*
Y379400D03*
G54D18*
X1400000Y426240D03*
Y773760D03*
G54D19*
X1798400Y300000D03*
X2001600D03*
M02*
