G04 ================== begin FILE IDENTIFICATION RECORD ==================*
G04 Layout Name:  laser_driver2.brd*
G04 Film Name:    TOP*
G04 File Format:  Gerber RS274X*
G04 File Origin:  Cadence Allegro 16.6-2015-S058*
G04 Origin Date:  Tue Jul 12 12:56:47 2016*
G04 *
G04 Layer:  VIA CLASS/TOP*
G04 Layer:  PIN/TOP*
G04 Layer:  ETCH/TOP*
G04 Layer:  BOARD GEOMETRY/OUTLINE*
G04 *
G04 Offset:    (0.0000 0.0000)*
G04 Mirror:    No*
G04 Mode:      Positive*
G04 Rotation:  0*
G04 FullContactRelief:  No*
G04 UndefLineWidth:     0.0000*
G04 ================== end FILE IDENTIFICATION RECORD ====================*
%FSLAX25Y25*MOMM*%
%IR0*IPPOS*OFA0.00000B0.00000*MIA0B0*SFA1.00000B1.00000*%
%AMMACRO21*
4,1,8,-.254,-2.0574,
-.254,-1.2446,
-.8636,-1.2446,
-.8636,2.0574,
.8636,2.0574,
.8636,-1.2446,
.254,-1.2446,
.254,-2.0574,
-.254,-2.0574,
0.0*
%
%ADD21MACRO21*%
%ADD12R,1.016X.635*%
%ADD23R,2.032X.6096*%
%ADD15C,.6096*%
%ADD17R,.635X1.778*%
%ADD19R,1.016X2.032*%
%ADD13R,1.016X1.27*%
%ADD22R,1.27X1.016*%
%ADD14R,1.143X1.651*%
%ADD10C,1.651*%
%ADD11R,1.651X1.651*%
%ADD20R,.4318X.8128*%
%ADD18R,.6604X.9652*%
%ADD16R,2.9972X1.651*%
%ADD24C,.254*%
%ADD25C,.508*%
G75*
%LPD*%
G75*
G36*
G01X-3410210Y-900000D02*
G03I-89790J0D01*
G37*
G36*
G01Y900000D02*
G03I-89790J0D01*
G37*
G36*
G01X3589790Y-900000D02*
G03I-89790J0D01*
G37*
G36*
G01Y900000D02*
G03I-89790J0D01*
G37*
G54D10*
X-3300000Y119000D03*
Y-130990D03*
Y369010D03*
G54D20*
X2599720Y630200D03*
X2300000D03*
X2599720Y300000D03*
X2300000D03*
G54D11*
X-3300000Y-381000D03*
G54D12*
X-2607950Y-393980D03*
Y-206020D03*
X-2392050Y-300000D03*
X-2007950Y706020D03*
Y893980D03*
X-1792050Y800000D03*
X907950Y-400000D03*
X692050Y-493980D03*
Y-306020D03*
G54D21*
X2449860Y465100D03*
G54D22*
X2900000Y-88900D03*
Y88900D03*
G54D13*
X-2411100Y-900000D03*
X-2588900D03*
X-2411100Y-600000D03*
X-2588900D03*
X-1988900Y0D03*
X-2411100D03*
X-2588900D03*
X-1988900Y300000D03*
X-2588900Y900000D03*
X-2411100D03*
Y300000D03*
X-2588900D03*
Y600000D03*
X-2411100D03*
X-1211100Y0D03*
X-1388900D03*
X-1811100D03*
Y300000D03*
X-1211100D03*
X-1388900D03*
X-1211100Y600000D03*
X-1388900D03*
X-1211100Y900000D03*
X-1388900D03*
X-688900Y-600000D03*
X-511100D03*
Y900000D03*
X-688900D03*
X211100Y-600000D03*
X388900D03*
Y-300000D03*
X211100D03*
X388900Y0D03*
X211100D03*
Y600000D03*
X388900D03*
X211100Y300000D03*
X388900D03*
X888900Y0D03*
X711100D03*
Y300000D03*
X888900D03*
X1811100Y900000D03*
X1988900D03*
X2488900D03*
X2311100D03*
X3088900D03*
X2911100D03*
X3088900Y600000D03*
X2911100D03*
G54D14*
X-1930150Y-281590D03*
X-1699010D03*
X-1467870D03*
G54D23*
X3500000Y-100000D03*
Y0D03*
Y100000D03*
G54D24*
G01X-2607950Y-206020D02*
X-2706030D01*
X-2800000Y-299990D01*
Y-500000D01*
X-2700000Y-600000D01*
X-2588900D01*
G01Y-900000D02*
X-2673050D01*
X-3192050Y-381000D01*
X-3300000D01*
G01X-2588900Y-600000D02*
Y-709500D01*
X-2411100Y-887300D01*
Y-900000D01*
G01X-2588900Y0D02*
Y109500D01*
X-2411100Y287300D01*
Y300000D01*
G01X-2392050Y-300000D02*
Y-107950D01*
X-2411100Y-88900D01*
Y0D01*
G01Y300000D02*
Y600000D01*
G01X-2007950Y893980D02*
Y893970D01*
X-1932740Y818760D01*
X-1919050Y805060D01*
Y658480D01*
X-1941360Y636170D01*
X-2136170D01*
X-2298400Y798400D01*
X-2500000D01*
X-2588900Y887300D01*
G01Y900000D02*
Y887300D01*
G01D02*
Y600000D01*
G01X-1211100Y900000D02*
X-1000000D01*
G01X-1388900Y600000D02*
Y511100D01*
X-1279400Y401600D01*
X-1144510D01*
X-690500Y-52410D01*
Y-179400D01*
G01X-1211100Y600000D02*
Y709500D01*
X-1388900Y887300D01*
Y900000D01*
G01X-436500Y379400D02*
Y263500D01*
X-500000Y200000D01*
X-700000D01*
X-1100000Y600000D01*
X-1211100D01*
G01X-688900Y-600000D02*
Y-295300D01*
X-690500Y-293700D01*
Y-179400D01*
G01X-563500D02*
Y-458700D01*
X-511100Y-511100D01*
Y-600000D01*
G01X2911100Y900000D02*
Y912700D01*
X2822200Y1001600D01*
X1744510D01*
X1742910Y1000000D01*
X1100000D01*
X1000000Y900000D01*
X-511100D01*
G01X-1000000D02*
X-688900D01*
G01X-563500Y379400D02*
Y663500D01*
X-688900Y788900D01*
Y900000D01*
G01X211100Y300000D02*
Y0D01*
G01Y300000D02*
X-172950D01*
X-252350Y379400D01*
X-309500D01*
G01X388900Y600000D02*
Y300000D01*
G01X711100D02*
X388900D01*
G01X888900Y0D02*
Y-245610D01*
X800000Y-334510D01*
Y-405080D01*
X711100Y-493980D01*
X692050D01*
G01X711100Y0D02*
Y300000D01*
G01X692050Y-306020D02*
Y-107950D01*
X711100Y-88900D01*
Y0D01*
G01X2599720Y300000D02*
X2700000D01*
X2911100Y511100D01*
Y600000D01*
G01Y900000D02*
Y600000D01*
G54D15*
X-2100000Y300000D03*
X-1211100Y-188900D03*
X-1600000Y600000D03*
X-1792050Y992050D03*
X-1000000Y900000D03*
X-800000Y700000D03*
X-100000Y-200000D03*
X0Y500000D03*
X500000Y-300000D03*
X600000Y700000D03*
X1400000Y900000D03*
X2690780Y-9220D03*
X2449860Y714020D03*
X1988900Y711100D03*
X2200000Y900000D03*
X2690780Y800000D03*
X3300000Y-100000D03*
X3100000Y0D03*
X3300000Y100000D03*
X3200000Y900000D03*
G54D25*
G01X-2869010Y300000D02*
X-3300000Y-130990D01*
G01X-2411100Y900000D02*
Y912700D01*
X-2512700Y1014300D01*
X-2785700D01*
X-2869010Y930990D01*
Y300000D01*
G01X-2588900D02*
X-2869010D01*
G01X-1988900Y0D02*
Y-12700D01*
X-2200000Y-223800D01*
Y-376200D01*
X-2411100Y-587300D01*
G01D02*
Y-600000D01*
G01Y-587300D02*
Y-571780D01*
X-2588900Y-393980D01*
X-2607950D01*
G01X-1988900Y0D02*
Y300000D01*
G01X-1930150Y-281590D02*
Y-131750D01*
X-1811100Y-12700D01*
Y0D01*
G01X-1988900Y300000D02*
X-2100000D01*
G01X-2411100Y900000D02*
X-2220980D01*
X-2027000Y706020D01*
X-2007950D01*
G01X-1699010Y-281590D02*
Y-916590D01*
G01X-1211100Y300000D02*
Y0D01*
G01D02*
Y-188900D01*
G01X-1467870Y-281590D02*
X-1303790D01*
X-1211100Y-188900D01*
G01X-1811100Y0D02*
Y300000D01*
G01X-1388900Y0D02*
Y-12700D01*
X-1476200Y-100000D01*
X-1638070D01*
X-1699010Y-160940D01*
Y-281590D01*
G01X-1388900Y0D02*
Y300000D01*
G01X-1792050Y800000D02*
Y420650D01*
X-1811100Y401600D01*
Y300000D01*
G01X-1792050Y800000D02*
Y992050D01*
G01X-1600000Y600000D02*
Y523800D01*
X-1388900Y312700D01*
Y300000D01*
G01X211100Y-312700D02*
X133350Y-390450D01*
X120650D01*
X111100Y-400000D01*
X-342900D01*
X-436500Y-306400D01*
Y-179400D01*
G01X-690500Y379400D02*
Y590500D01*
X-800000Y700000D01*
G01X388900Y-600000D02*
X777800D01*
X907950Y-469850D01*
Y-400000D01*
G01X388900Y-300000D02*
Y-600000D01*
G01X211100Y-312700D02*
Y-600000D01*
G01D02*
Y-749200D01*
X261900Y-800000D01*
X2900000D01*
X3500000Y-200000D01*
Y-100000D01*
G01X388900Y-300000D02*
Y0D01*
G01Y-300000D02*
X500000D01*
G01X-309500Y-179400D02*
X-120600D01*
X-100000Y-200000D01*
G01X211100Y-312700D02*
Y-300000D01*
G01Y600000D02*
X100000D01*
X0Y500000D01*
G01X888900Y300000D02*
Y411100D01*
X600000Y700000D01*
G01X1798400Y300000D02*
X1511000D01*
X1400000Y411000D01*
Y426240D01*
G01X1798400Y300000D02*
Y439700D01*
X1800000Y441300D01*
Y449200D01*
X1850800Y500000D01*
X2092230D01*
X2224640Y367590D01*
X2251460D01*
X2300000Y319050D01*
Y300000D01*
G01X1400000Y900000D02*
Y773760D01*
G01D02*
X1697560D01*
X1811100Y887300D01*
Y900000D01*
G01X2449860Y465100D02*
Y250800D01*
X2500660Y200000D01*
X2900000D01*
X3088900Y388900D01*
Y600000D01*
G01X2690780Y-9220D02*
X2770460Y-88900D01*
X2900000D01*
G01Y88900D02*
X2798400D01*
X2787300Y100000D01*
X2061900D01*
X2001600Y160300D01*
Y300000D01*
G01X1988900Y900000D02*
Y711100D01*
G01D02*
X2234900Y465100D01*
X2449860D01*
G01D02*
Y714020D01*
G01X2300000Y630200D02*
Y787300D01*
X2311100Y798400D01*
Y900000D01*
G01X2200000D02*
X2311100D01*
G01X2690780Y791640D02*
X2666480D01*
X2599720Y724880D01*
Y630200D01*
G01X2488900Y900000D02*
X2582420D01*
X2690780Y791640D01*
G01D02*
Y800000D01*
G01X3300000Y-100000D02*
X3500000D01*
G01X3100000Y0D02*
X3011100Y-88900D01*
X2900000D01*
G01X3300000Y100000D02*
X3012700D01*
X3001600Y88900D01*
X2900000D01*
G01X3088900Y900000D02*
Y600000D01*
G01Y900000D02*
X3200000D01*
G54D16*
X-1699010Y-916590D03*
G54D17*
X-436500Y-179400D03*
X-563500D03*
X-690500D03*
Y379400D03*
X-563500D03*
X-436500D03*
X-309500Y-179400D03*
Y379400D03*
G54D18*
X1400000Y426240D03*
Y773760D03*
G54D19*
X1798400Y300000D03*
X2001600D03*
M02*
