G04 CAM350 V10.7 (Build 560) Date:  Tue Jul 12 16:13:38 2016 *
G04 Database: d:\mywork\immunofluorescenceapparatus\laser\hardware\laser_driver\orcad\artwork\module4.cam *
G04 Layer 1: BOTTOM.art *
%FSLAX25Y25*%
%MOMM*%
%SFA1.000B1.000*%

%MIA0B0*%
%IPPOS*%
%ADD10C,1.65100*%
%ADD11R,1.65100X1.65100*%
%ADD12C,0.60960*%
%ADD13R,2.03200X0.60960*%
%ADD14C,0.25400*%
%ADD15C,0.50800*%
%LNBOTTOM.art*%
%LPD*%
G36*
X-3649990Y-699998D02*
G01X-3649988Y500000D01*
X-3300008Y500001*
X-3299993Y500006*
X-2800006Y999995*
X-2800000Y1000009*
X-2799998Y1099990*
X3200000Y1099988*
X3200001Y1000008*
X3200006Y999993*
X3299997Y900002*
X3300000Y899995*
X3300001Y700008*
X3300006Y699993*
X3399995Y600006*
X3400009Y600000*
X3499997Y599999*
X3500004Y599997*
X3649987Y450012*
X3649990Y450005*
X3649988Y-100000*
X3614320Y-99998*
X3614318Y-56820*
X3614312Y-56806*
X3614298Y-56800*
X3385700Y-56802*
X3385686Y-56808*
X3385680Y-56822*
X3385678Y-100000*
X3343440Y-99998*
X3342960Y-95450*
X3340973Y-86308*
X3337065Y-77808*
X3331418Y-70349*
X3324298Y-64280*
X3316038Y-59887*
X3307026Y-57374*
X3302979Y-56902*
X3300000Y-56800*
X3290699Y-57813*
X3281835Y-60804*
X3273822Y-65634*
X3267038Y-72076*
X3261799Y-79827*
X3258352Y-88524*
X3257040Y-95450*
X3256558Y-100000*
X3200020Y-100002*
X3200006Y-100008*
X3200000Y-100022*
X3199999Y-299997*
X3199997Y-300004*
X2800002Y-699997*
X2799995Y-700000*
X500003Y-699999*
X499996Y-699997*
X300003Y-500002*
X300000Y-499995*
X299999Y-300008*
X299994Y-299993*
X200005Y-200006*
X199991Y-200000*
X8Y-200001*
X-7Y-200006*
X-99998Y-299997*
X-100005Y-300000*
X-299997Y-299999*
X-300004Y-299997*
X-399997Y-200002*
X-400000Y-199995*
X-399998Y-100000*
X-200008Y-99999*
X-199993Y-99994*
X-100006Y-5*
X-100000Y9*
X-100001Y399992*
X-100006Y400007*
X-199995Y499994*
X-200009Y500000*
X-699992Y499999*
X-700007Y499994*
X-1099994Y100005*
X-1100000Y99991*
X-1100001Y-699987*
X-1100003Y-699994*
X-1499998Y-1099987*
X-1500005Y-1099990*
X-2999998*
X-3000001Y-900008*
X-3000006Y-899993*
X-3199995Y-700006*
X-3200009Y-700000*
X-3649990Y-699998*
G37*
G36*
Y-3099998D02*
G01X-3649988Y-1900000D01*
X-3300008Y-1899999*
X-3299993Y-1899994*
X-2800006Y-1400005*
X-2800000Y-1399991*
X-2799998Y-1300010*
X3200000Y-1300012*
X3200001Y-1399992*
X3200006Y-1400007*
X3299997Y-1499998*
X3300000Y-1500005*
X3300001Y-1699992*
X3300006Y-1700007*
X3399995Y-1799994*
X3400009Y-1800000*
X3499997Y-1800001*
X3500004Y-1800003*
X3649987Y-1949988*
X3649990Y-1949995*
X3649988Y-2500000*
X3614320Y-2499998*
X3614318Y-2456820*
X3614312Y-2456806*
X3614298Y-2456800*
X3385700Y-2456802*
X3385686Y-2456808*
X3385680Y-2456822*
X3385678Y-2500000*
X3343440Y-2499998*
X3342960Y-2495450*
X3340973Y-2486308*
X3337065Y-2477808*
X3331418Y-2470349*
X3324298Y-2464280*
X3316038Y-2459887*
X3307026Y-2457374*
X3302979Y-2456902*
X3300000Y-2456800*
X3290699Y-2457813*
X3281835Y-2460804*
X3273822Y-2465634*
X3267038Y-2472076*
X3261799Y-2479827*
X3258352Y-2488524*
X3257040Y-2495450*
X3256558Y-2500000*
X3200020Y-2500002*
X3200006Y-2500008*
X3200000Y-2500022*
X3199999Y-2699997*
X3199997Y-2700004*
X2800002Y-3099997*
X2799995Y-3100000*
X500003Y-3099999*
X499996Y-3099997*
X300003Y-2900002*
X300000Y-2899995*
X299999Y-2700008*
X299994Y-2699993*
X200005Y-2600006*
X199991Y-2600000*
X8Y-2600001*
X-7Y-2600006*
X-99998Y-2699997*
X-100005Y-2700000*
X-299997Y-2699999*
X-300004Y-2699997*
X-399997Y-2600002*
X-400000Y-2599995*
X-399998Y-2500000*
X-200008Y-2499999*
X-199993Y-2499994*
X-100006Y-2400005*
X-100000Y-2399991*
X-100001Y-2000008*
X-100006Y-1999993*
X-199995Y-1900006*
X-200009Y-1900000*
X-699992Y-1900001*
X-700007Y-1900006*
X-1099994Y-2299995*
X-1100000Y-2300009*
X-1100001Y-3099987*
X-1100003Y-3099994*
X-1499998Y-3499987*
X-1500005Y-3499990*
X-2999998*
X-3000001Y-3300008*
X-3000006Y-3299993*
X-3199995Y-3100006*
X-3200009Y-3100000*
X-3649990Y-3099998*
G37*
G36*
Y-5499998D02*
G01X-3649988Y-4300000D01*
X-3300008Y-4299999*
X-3299993Y-4299994*
X-2800006Y-3800005*
X-2800000Y-3799991*
X-2799998Y-3700010*
X3200000Y-3700012*
X3200001Y-3799992*
X3200006Y-3800007*
X3299997Y-3899998*
X3300000Y-3900005*
X3300001Y-4099992*
X3300006Y-4100007*
X3399995Y-4199994*
X3400009Y-4200000*
X3499997Y-4200001*
X3500004Y-4200003*
X3649987Y-4349988*
X3649990Y-4349995*
X3649988Y-4900000*
X3614320Y-4899998*
X3614318Y-4856820*
X3614312Y-4856806*
X3614298Y-4856800*
X3385700Y-4856802*
X3385686Y-4856808*
X3385680Y-4856822*
X3385678Y-4900000*
X3343440Y-4899998*
X3342960Y-4895450*
X3340973Y-4886308*
X3337065Y-4877808*
X3331418Y-4870349*
X3324298Y-4864280*
X3316038Y-4859887*
X3307026Y-4857374*
X3302979Y-4856902*
X3300000Y-4856800*
X3290699Y-4857813*
X3281835Y-4860804*
X3273822Y-4865634*
X3267038Y-4872076*
X3261799Y-4879827*
X3258352Y-4888524*
X3257040Y-4895450*
X3256558Y-4900000*
X3200020Y-4900002*
X3200006Y-4900008*
X3200000Y-4900022*
X3199999Y-5099997*
X3199997Y-5100004*
X2800002Y-5499997*
X2799995Y-5500000*
X500003Y-5499999*
X499996Y-5499997*
X300003Y-5300002*
X300000Y-5299995*
X299999Y-5100008*
X299994Y-5099993*
X200005Y-5000006*
X199991Y-5000000*
X8Y-5000001*
X-7Y-5000006*
X-99998Y-5099997*
X-100005Y-5100000*
X-299997Y-5099999*
X-300004Y-5099997*
X-399997Y-5000002*
X-400000Y-4999995*
X-399998Y-4900000*
X-200008Y-4899999*
X-199993Y-4899994*
X-100006Y-4800005*
X-100000Y-4799991*
X-100001Y-4400008*
X-100006Y-4399993*
X-199995Y-4300006*
X-200009Y-4300000*
X-699992Y-4300001*
X-700007Y-4300006*
X-1099994Y-4699995*
X-1100000Y-4700009*
X-1100001Y-5499987*
X-1100003Y-5499994*
X-1499998Y-5899987*
X-1500005Y-5899990*
X-2999998*
X-3000001Y-5700008*
X-3000006Y-5699993*
X-3199995Y-5500006*
X-3200009Y-5500000*
X-3649990Y-5499998*
G37*
G36*
Y-7899998D02*
G01X-3649988Y-6700000D01*
X-3300008Y-6699999*
X-3299993Y-6699994*
X-2800006Y-6200005*
X-2800000Y-6199991*
X-2799998Y-6100010*
X3200000Y-6100012*
X3200001Y-6199992*
X3200006Y-6200007*
X3299997Y-6299998*
X3300000Y-6300005*
X3300001Y-6499992*
X3300006Y-6500007*
X3399995Y-6599994*
X3400009Y-6600000*
X3499997Y-6600001*
X3500004Y-6600003*
X3649987Y-6749988*
X3649990Y-6749995*
X3649988Y-7300000*
X3614320Y-7299998*
X3614318Y-7256820*
X3614312Y-7256806*
X3614298Y-7256800*
X3385700Y-7256802*
X3385686Y-7256808*
X3385680Y-7256822*
X3385678Y-7300000*
X3343440Y-7299998*
X3342960Y-7295450*
X3340973Y-7286308*
X3337065Y-7277808*
X3331418Y-7270349*
X3324298Y-7264280*
X3316038Y-7259887*
X3307026Y-7257374*
X3302979Y-7256902*
X3300000Y-7256800*
X3290699Y-7257813*
X3281835Y-7260804*
X3273822Y-7265634*
X3267038Y-7272076*
X3261799Y-7279827*
X3258352Y-7288524*
X3257040Y-7295450*
X3256558Y-7300000*
X3200020Y-7300002*
X3200006Y-7300008*
X3200000Y-7300022*
X3199999Y-7499997*
X3199997Y-7500004*
X2800002Y-7899997*
X2799995Y-7900000*
X500003Y-7899999*
X499996Y-7899997*
X300003Y-7700002*
X300000Y-7699995*
X299999Y-7500008*
X299994Y-7499993*
X200005Y-7400006*
X199991Y-7400000*
X8Y-7400001*
X-7Y-7400006*
X-99998Y-7499997*
X-100005Y-7500000*
X-299997Y-7499999*
X-300004Y-7499997*
X-399997Y-7400002*
X-400000Y-7399995*
X-399998Y-7300000*
X-200008Y-7299999*
X-199993Y-7299994*
X-100006Y-7200005*
X-100000Y-7199991*
X-100001Y-6800008*
X-100006Y-6799993*
X-199995Y-6700006*
X-200009Y-6700000*
X-699992Y-6700001*
X-700007Y-6700006*
X-1099994Y-7099995*
X-1100000Y-7100009*
X-1100001Y-7899987*
X-1100003Y-7899994*
X-1499998Y-8299987*
X-1500005Y-8299990*
X-2999998*
X-3000001Y-8100008*
X-3000006Y-8099993*
X-3199995Y-7900006*
X-3200009Y-7900000*
X-3649990Y-7899998*
G37*
%LPC*%
G36*
X-3394255Y-144857D02*
G01X-3391233Y-158429D01*
X-3386267Y-171417*
X-3379464Y-183543*
X-3370968Y-194550*
X-3360961Y-204203*
X-3349655Y-212296*
X-3337291Y-218658*
X-3324133Y-223153*
X-3310461Y-225684*
X-3300000Y-226260*
X-3286133Y-225245*
X-3272561Y-222223*
X-3259573Y-217257*
X-3247447Y-210454*
X-3236440Y-201958*
X-3226787Y-191951*
X-3218693Y-180645*
X-3212332Y-168281*
X-3207837Y-155123*
X-3205306Y-141451*
X-3204730Y-130990*
X-3205745Y-117123*
X-3208767Y-103551*
X-3213732Y-90563*
X-3220536Y-78437*
X-3229031Y-67430*
X-3239039Y-57777*
X-3250345Y-49683*
X-3262708Y-43322*
X-3275866Y-38827*
X-3289538Y-36296*
X-3300000Y-35720*
X-3313867Y-36735*
X-3327439Y-39757*
X-3340426Y-44723*
X-3352553Y-51526*
X-3363560Y-60022*
X-3373213Y-70029*
X-3381306Y-81335*
X-3387668Y-93698*
X-3392162Y-106856*
X-3394694Y-120528*
X-3395270Y-130990*
X-3394255Y-144857*
G37*
G36*
Y105133D02*
G01X-3391233Y91561D01*
X-3386267Y78573*
X-3379464Y66447*
X-3370968Y55440*
X-3360961Y45787*
X-3349655Y37693*
X-3337291Y31332*
X-3324133Y26837*
X-3310461Y24306*
X-3300000Y23730*
X-3286133Y24745*
X-3272561Y27767*
X-3259573Y32732*
X-3247447Y39536*
X-3236440Y48031*
X-3226787Y58039*
X-3218693Y69345*
X-3212332Y81708*
X-3207837Y94866*
X-3205306Y108538*
X-3204730Y119000*
X-3205745Y132867*
X-3208767Y146439*
X-3213733Y159426*
X-3220536Y171553*
X-3229032Y182560*
X-3239039Y192213*
X-3250345Y200306*
X-3262708Y206668*
X-3275866Y211162*
X-3289538Y213694*
X-3300000Y214270*
X-3313867Y213255*
X-3327439Y210233*
X-3340427Y205267*
X-3352553Y198464*
X-3363560Y189968*
X-3373213Y179961*
X-3381306Y168655*
X-3387668Y156291*
X-3392163Y143133*
X-3394694Y129461*
X-3395270Y119000*
X-3394255Y105133*
G37*
G36*
X-3394665Y358342D02*
G01X-3392104Y344676D01*
X-3387581Y331528*
X-3381192Y319179*
X-3373074Y307891*
X-3363399Y297905*
X-3352374Y289435*
X-3340233Y282658*
X-3327235Y277722*
X-3313657Y274729*
X-3300000Y273745*
X-3286133Y274760*
X-3272561Y277782*
X-3259574Y282748*
X-3247448Y289551*
X-3236285Y298188*
X-3226654Y308217*
X-3218586Y319541*
X-3212253Y331918*
X-3207788Y345086*
X-3205288Y358763*
X-3204805Y372659*
X-3206350Y386477*
X-3209890Y399923*
X-3215350Y412710*
X-3217049Y416009*
X-2758484Y874577*
X-2758477Y874579*
X-1034931Y874580*
X-1028639Y867656*
X-1025420Y865070*
X-1017304Y860416*
X-1008376Y857619*
X-1000000Y856799*
X-990699Y857812*
X-981835Y860804*
X-973823Y865634*
X-967038Y872075*
X-965070Y874580*
X-960416Y882696*
X-957619Y891623*
X-956810Y900944*
X-958026Y910220*
X-961210Y919017*
X-966214Y926922*
X-972802Y933564*
X-974580Y934930*
X-982696Y939583*
X-991624Y942381*
X-1000000Y943201*
X-1009300Y942187*
X-1018165Y939196*
X-1026177Y934366*
X-1032962Y927924*
X-1034930Y925421*
X-2779531Y925420*
X-2779545Y925414*
X-3252996Y451964*
X-3253001Y451962*
X-3256300Y453660*
X-3269087Y459119*
X-3282533Y462659*
X-3293341Y464041*
X-3300000Y464274*
X-3313867Y463259*
X-3327439Y460237*
X-3340426Y455271*
X-3352552Y448468*
X-3363558Y439972*
X-3373211Y429964*
X-3381304Y418658*
X-3387665Y406295*
X-3390246Y399522*
X-3393726Y386060*
X-3395210Y372236*
X-3394665Y358342*
G37*
G36*
X-1834849Y986194D02*
G01X-1832584Y977117D01*
X-1828419Y968740*
X-1826062Y965419*
X-1819531Y958721*
X-1811711Y953586*
X-1802969Y950255*
X-1793715Y948884*
X-1792050Y948852*
X-1782750Y949865*
X-1773886Y952857*
X-1771733Y953929*
X-1771728Y953930*
X1292155*
X1292162Y953927*
X1358650Y887438*
X1359030Y886310*
X1362938Y877810*
X1368585Y870351*
X1375704Y864283*
X1383964Y859890*
X1392975Y857378*
X1400000Y856803*
X1401148Y856818*
X1410418Y858078*
X1419199Y861304*
X1427080Y866345*
X1433690Y872964*
X1438721Y880852*
X1441935Y889637*
X1442725Y893632*
X1443094Y902980*
X1441441Y912188*
X1437845Y920824*
X1432474Y928484*
X1425580Y934808*
X1417486Y939499*
X1413690Y940970*
X1412563Y941349*
X1408650Y945260*
X1407448Y947176*
X1407391Y950348*
X1409227Y952936*
X1412240Y953930*
X1992155*
X1992162Y953927*
X2084203Y861886*
X2084218Y861881*
X2179677Y861880*
X2179682Y861879*
X2188366Y858398*
X2197595Y856869*
X2200000Y856802*
X2209300Y857815*
X2218164Y860807*
X2226176Y865637*
X2232132Y871129*
X2237594Y878723*
X2241293Y887316*
X2243056Y896504*
X2242799Y905856*
X2240534Y914933*
X2236369Y923309*
X2234012Y926631*
X2227481Y933329*
X2219661Y938464*
X2210919Y941795*
X2201664Y943165*
X2200000Y943198*
X2190699Y942184*
X2181835Y939193*
X2179683Y938121*
X2179678Y938120*
X2115795*
X2115788Y938123*
X2023747Y1030164*
X2023732Y1030169*
X-1771727Y1030170*
X-1771732Y1030171*
X-1780416Y1033651*
X-1789645Y1035180*
X-1792050Y1035248*
X-1801350Y1034234*
X-1810214Y1031243*
X-1818226Y1026413*
X-1824182Y1020921*
X-1829644Y1013326*
X-1833343Y1004733*
X-1835106Y995545*
X-1834849Y986194*
G37*
G36*
X-1641921Y589582D02*
G01X-1638695Y580801D01*
X-1633654Y572920*
X-1627035Y566309*
X-1619147Y561279*
X-1610362Y558064*
X-1606368Y557275*
X-1603192Y556921*
X-1600000Y556803*
X-1590700Y557816*
X-1581836Y560808*
X-1573824Y565637*
X-1567040Y572079*
X-1561802Y579830*
X-1559030Y586310*
X-1558651Y587437*
X-1484214Y661877*
X-1484207Y661879*
X-820323Y661880*
X-820318Y661879*
X-811634Y658398*
X-802404Y656869*
X-800000Y656802*
X-790700Y657815*
X-781836Y660807*
X-779683Y661879*
X-779678Y661880*
X579677*
X579682Y661879*
X588366Y658398*
X597595Y656869*
X600000Y656802*
X609300Y657815*
X618164Y660807*
X626176Y665637*
X632132Y671129*
X637594Y678723*
X641293Y687316*
X643056Y696504*
X642799Y705856*
X640534Y714933*
X636369Y723309*
X634012Y726631*
X627481Y733329*
X619661Y738464*
X610919Y741795*
X601664Y743165*
X600000Y743198*
X590699Y742184*
X581835Y739193*
X579683Y738121*
X579678Y738120*
X-779677*
X-779682Y738121*
X-788366Y741601*
X-797595Y743130*
X-800000Y743198*
X-809300Y742184*
X-818164Y739193*
X-820317Y738121*
X-820322Y738120*
X-1515781*
X-1515795Y738114*
X-1612562Y641350*
X-1613690Y640970*
X-1622190Y637062*
X-1629648Y631415*
X-1635717Y624295*
X-1640110Y616035*
X-1642622Y607024*
X-1643181Y598852*
X-1641921Y589582*
G37*
G36*
X2648595Y-18520D02*
G01X2651587Y-27384D01*
X2656417Y-35396*
X2661909Y-41352*
X2669504Y-46814*
X2678096Y-50513*
X2687284Y-52276*
X2690780Y-52417*
X2700080Y-51404*
X2708944Y-48413*
X2717411Y-43232*
X2724109Y-36701*
X2729244Y-28881*
X2732575Y-20139*
X2733945Y-10884*
X2733978Y-9220*
X2732964Y80*
X2729973Y8944*
X2728901Y11097*
X2728900Y11102*
Y779677*
X2728901Y779682*
X2732381Y788366*
X2733910Y797595*
X2733978Y800000*
X2732964Y809300*
X2729973Y818164*
X2725143Y826176*
X2719651Y832132*
X2712056Y837594*
X2703463Y841294*
X2694276Y843056*
X2690780Y843198*
X2681480Y842184*
X2672616Y839193*
X2664149Y834012*
X2657451Y827481*
X2652316Y819661*
X2648985Y810919*
X2647614Y801665*
X2647582Y800000*
X2648595Y790700*
X2651587Y781836*
X2652659Y779683*
X2652660Y779678*
Y11103*
X2652659Y11098*
X2649178Y2414*
X2647649Y-6815*
X2647582Y-9220*
X2648595Y-18520*
G37*
G36*
X3057201Y-5856D02*
G01X3059465Y-14933D01*
X3063631Y-23309*
X3065988Y-26631*
X3072519Y-33329*
X3080338Y-38464*
X3089080Y-41795*
X3098335Y-43165*
X3100000Y-43198*
X3109300Y-42184*
X3118164Y-39193*
X3120317Y-38121*
X3120322Y-38120*
X3385678*
X3385680Y-43178*
X3385686Y-43192*
X3385700Y-43198*
X3614298Y-43200*
X3614312Y-43194*
X3614318Y-43180*
X3614320Y43178*
X3614314Y43192*
X3614300Y43198*
X3385702Y43200*
X3385688Y43194*
X3385682Y43180*
X3385680Y38122*
X3120323Y38120*
X3120318Y38121*
X3111634Y41601*
X3102404Y43131*
X3100000Y43198*
X3090700Y42184*
X3081836Y39193*
X3073824Y34363*
X3067868Y28871*
X3062405Y21276*
X3058706Y12683*
X3056944Y3496*
X3057201Y-5856*
G37*
G36*
X3257201Y94144D02*
G01X3259465Y85067D01*
X3263631Y76690*
X3265988Y73369*
X3272519Y66671*
X3280339Y61536*
X3289081Y58205*
X3298335Y56834*
X3300000Y56802*
X3309300Y57815*
X3318164Y60807*
X3320317Y61879*
X3320322Y61880*
X3385678*
X3385680Y56822*
X3385686Y56808*
X3385700Y56802*
X3614298Y56800*
X3614312Y56806*
X3614318Y56820*
X3614320Y143178*
X3614314Y143192*
X3614300Y143198*
X3385702Y143200*
X3385688Y143194*
X3385682Y143180*
X3385680Y138122*
X3320323Y138120*
X3320318Y138121*
X3311634Y141601*
X3302404Y143131*
X3300000Y143198*
X3290700Y142184*
X3281836Y139193*
X3273823Y134363*
X3267868Y128871*
X3262405Y121276*
X3258706Y112683*
X3256944Y103496*
X3257201Y94144*
G37*
G36*
X-3204730Y-476270D02*
G01Y-285730D01*
X-3395270*
Y-476270*
X-3204730*
G37*
G36*
X-3394255Y-2544857D02*
G01X-3391233Y-2558429D01*
X-3386267Y-2571417*
X-3379464Y-2583543*
X-3370968Y-2594550*
X-3360961Y-2604203*
X-3349655Y-2612296*
X-3337291Y-2618658*
X-3324133Y-2623153*
X-3310461Y-2625684*
X-3300000Y-2626260*
X-3286133Y-2625245*
X-3272561Y-2622223*
X-3259573Y-2617257*
X-3247447Y-2610454*
X-3236440Y-2601958*
X-3226787Y-2591951*
X-3218693Y-2580645*
X-3212332Y-2568281*
X-3207837Y-2555123*
X-3205306Y-2541451*
X-3204730Y-2530990*
X-3205745Y-2517123*
X-3208767Y-2503551*
X-3213732Y-2490563*
X-3220536Y-2478437*
X-3229031Y-2467430*
X-3239039Y-2457777*
X-3250345Y-2449683*
X-3262708Y-2443322*
X-3275866Y-2438827*
X-3289538Y-2436296*
X-3300000Y-2435720*
X-3313867Y-2436735*
X-3327439Y-2439757*
X-3340426Y-2444723*
X-3352553Y-2451526*
X-3363560Y-2460022*
X-3373213Y-2470029*
X-3381306Y-2481335*
X-3387668Y-2493698*
X-3392162Y-2506856*
X-3394694Y-2520528*
X-3395270Y-2530990*
X-3394255Y-2544857*
G37*
G36*
Y-2294867D02*
G01X-3391233Y-2308439D01*
X-3386267Y-2321427*
X-3379464Y-2333553*
X-3370968Y-2344560*
X-3360961Y-2354213*
X-3349655Y-2362307*
X-3337291Y-2368668*
X-3324133Y-2373163*
X-3310461Y-2375694*
X-3300000Y-2376270*
X-3286133Y-2375255*
X-3272561Y-2372233*
X-3259573Y-2367268*
X-3247447Y-2360464*
X-3236440Y-2351969*
X-3226787Y-2341961*
X-3218693Y-2330655*
X-3212332Y-2318292*
X-3207837Y-2305134*
X-3205306Y-2291462*
X-3204730Y-2281000*
X-3205745Y-2267133*
X-3208767Y-2253561*
X-3213733Y-2240574*
X-3220536Y-2228447*
X-3229032Y-2217440*
X-3239039Y-2207787*
X-3250345Y-2199694*
X-3262708Y-2193332*
X-3275866Y-2188838*
X-3289538Y-2186306*
X-3300000Y-2185730*
X-3313867Y-2186745*
X-3327439Y-2189767*
X-3340427Y-2194733*
X-3352553Y-2201536*
X-3363560Y-2210032*
X-3373213Y-2220039*
X-3381306Y-2231345*
X-3387668Y-2243709*
X-3392163Y-2256867*
X-3394694Y-2270539*
X-3395270Y-2281000*
X-3394255Y-2294867*
G37*
G36*
X-3394665Y-2041658D02*
G01X-3392104Y-2055324D01*
X-3387581Y-2068472*
X-3381192Y-2080821*
X-3373074Y-2092109*
X-3363399Y-2102095*
X-3352374Y-2110565*
X-3340233Y-2117342*
X-3327235Y-2122278*
X-3313657Y-2125271*
X-3300000Y-2126255*
X-3286133Y-2125240*
X-3272561Y-2122218*
X-3259574Y-2117252*
X-3247448Y-2110449*
X-3236285Y-2101812*
X-3226654Y-2091783*
X-3218586Y-2080459*
X-3212253Y-2068082*
X-3207788Y-2054914*
X-3205288Y-2041237*
X-3204805Y-2027341*
X-3206350Y-2013523*
X-3209890Y-2000077*
X-3215350Y-1987290*
X-3217049Y-1983991*
X-2758484Y-1525423*
X-2758477Y-1525421*
X-1034931Y-1525420*
X-1028639Y-1532344*
X-1025420Y-1534930*
X-1017304Y-1539584*
X-1008376Y-1542381*
X-1000000Y-1543201*
X-990699Y-1542188*
X-981835Y-1539196*
X-973823Y-1534366*
X-967038Y-1527925*
X-965070Y-1525420*
X-960416Y-1517304*
X-957619Y-1508377*
X-956810Y-1499056*
X-958026Y-1489780*
X-961210Y-1480983*
X-966214Y-1473078*
X-972802Y-1466436*
X-974580Y-1465070*
X-982696Y-1460417*
X-991624Y-1457619*
X-1000000Y-1456799*
X-1009300Y-1457813*
X-1018165Y-1460804*
X-1026177Y-1465634*
X-1032962Y-1472076*
X-1034930Y-1474579*
X-2779531Y-1474580*
X-2779545Y-1474586*
X-3252996Y-1948036*
X-3253001Y-1948038*
X-3256300Y-1946340*
X-3269087Y-1940881*
X-3282533Y-1937341*
X-3293341Y-1935959*
X-3300000Y-1935726*
X-3313867Y-1936741*
X-3327439Y-1939763*
X-3340426Y-1944729*
X-3352552Y-1951532*
X-3363558Y-1960028*
X-3373211Y-1970036*
X-3381304Y-1981342*
X-3387665Y-1993705*
X-3390246Y-2000478*
X-3393726Y-2013940*
X-3395210Y-2027764*
X-3394665Y-2041658*
G37*
G36*
X-1834849Y-1413806D02*
G01X-1832584Y-1422883D01*
X-1828419Y-1431260*
X-1826062Y-1434581*
X-1819531Y-1441279*
X-1811711Y-1446414*
X-1802969Y-1449745*
X-1793715Y-1451116*
X-1792050Y-1451148*
X-1782750Y-1450135*
X-1773886Y-1447143*
X-1771733Y-1446071*
X-1771728Y-1446070*
X1292155*
X1292162Y-1446073*
X1358650Y-1512562*
X1359030Y-1513690*
X1362938Y-1522190*
X1368585Y-1529649*
X1375704Y-1535717*
X1383964Y-1540110*
X1392975Y-1542622*
X1400000Y-1543197*
X1401148Y-1543182*
X1410418Y-1541922*
X1419199Y-1538696*
X1427080Y-1533655*
X1433690Y-1527036*
X1438721Y-1519148*
X1441935Y-1510363*
X1442725Y-1506368*
X1443094Y-1497020*
X1441441Y-1487812*
X1437845Y-1479176*
X1432474Y-1471516*
X1425580Y-1465192*
X1417486Y-1460501*
X1413690Y-1459030*
X1412563Y-1458651*
X1408650Y-1454740*
X1407448Y-1452824*
X1407391Y-1449652*
X1409227Y-1447064*
X1412240Y-1446070*
X1992155*
X1992162Y-1446073*
X2084203Y-1538114*
X2084218Y-1538119*
X2179677Y-1538120*
X2179682Y-1538121*
X2188366Y-1541602*
X2197595Y-1543131*
X2200000Y-1543198*
X2209300Y-1542185*
X2218164Y-1539193*
X2226176Y-1534363*
X2232132Y-1528871*
X2237594Y-1521277*
X2241293Y-1512684*
X2243056Y-1503496*
X2242799Y-1494144*
X2240534Y-1485067*
X2236369Y-1476691*
X2234012Y-1473369*
X2227481Y-1466671*
X2219661Y-1461536*
X2210919Y-1458205*
X2201664Y-1456835*
X2200000Y-1456802*
X2190699Y-1457816*
X2181835Y-1460807*
X2179683Y-1461879*
X2179678Y-1461880*
X2115795*
X2115788Y-1461877*
X2023747Y-1369836*
X2023732Y-1369831*
X-1771727Y-1369830*
X-1771732Y-1369829*
X-1780416Y-1366349*
X-1789645Y-1364820*
X-1792050Y-1364752*
X-1801350Y-1365766*
X-1810214Y-1368757*
X-1818226Y-1373587*
X-1824182Y-1379079*
X-1829644Y-1386674*
X-1833343Y-1395267*
X-1835106Y-1404455*
X-1834849Y-1413806*
G37*
G36*
X-1641921Y-1810418D02*
G01X-1638695Y-1819199D01*
X-1633654Y-1827080*
X-1627035Y-1833691*
X-1619147Y-1838721*
X-1610362Y-1841936*
X-1606368Y-1842725*
X-1603192Y-1843079*
X-1600000Y-1843197*
X-1590700Y-1842184*
X-1581836Y-1839192*
X-1573824Y-1834363*
X-1567040Y-1827921*
X-1561802Y-1820170*
X-1559030Y-1813690*
X-1558651Y-1812563*
X-1484214Y-1738123*
X-1484207Y-1738121*
X-820323Y-1738120*
X-820318Y-1738121*
X-811634Y-1741602*
X-802404Y-1743131*
X-800000Y-1743198*
X-790700Y-1742185*
X-781836Y-1739193*
X-779683Y-1738121*
X-779678Y-1738120*
X579677*
X579682Y-1738121*
X588366Y-1741602*
X597595Y-1743131*
X600000Y-1743198*
X609300Y-1742185*
X618164Y-1739193*
X626176Y-1734363*
X632132Y-1728871*
X637594Y-1721277*
X641293Y-1712684*
X643056Y-1703496*
X642799Y-1694144*
X640534Y-1685067*
X636369Y-1676691*
X634012Y-1673369*
X627481Y-1666671*
X619661Y-1661536*
X610919Y-1658205*
X601664Y-1656835*
X600000Y-1656802*
X590699Y-1657816*
X581835Y-1660807*
X579683Y-1661879*
X579678Y-1661880*
X-779677*
X-779682Y-1661879*
X-788366Y-1658399*
X-797595Y-1656870*
X-800000Y-1656802*
X-809300Y-1657816*
X-818164Y-1660807*
X-820317Y-1661879*
X-820322Y-1661880*
X-1515781*
X-1515795Y-1661886*
X-1612562Y-1758650*
X-1613690Y-1759030*
X-1622190Y-1762938*
X-1629648Y-1768585*
X-1635717Y-1775705*
X-1640110Y-1783965*
X-1642622Y-1792976*
X-1643181Y-1801148*
X-1641921Y-1810418*
G37*
G36*
X2648595Y-2418520D02*
G01X2651587Y-2427384D01*
X2656417Y-2435396*
X2661909Y-2441352*
X2669504Y-2446814*
X2678096Y-2450513*
X2687284Y-2452276*
X2690780Y-2452417*
X2700080Y-2451404*
X2708944Y-2448413*
X2717411Y-2443232*
X2724109Y-2436701*
X2729244Y-2428881*
X2732575Y-2420139*
X2733945Y-2410884*
X2733978Y-2409220*
X2732964Y-2399920*
X2729973Y-2391056*
X2728901Y-2388903*
X2728900Y-2388898*
Y-1620323*
X2728901Y-1620318*
X2732381Y-1611634*
X2733910Y-1602405*
X2733978Y-1600000*
X2732964Y-1590700*
X2729973Y-1581836*
X2725143Y-1573824*
X2719651Y-1567868*
X2712056Y-1562406*
X2703463Y-1558706*
X2694276Y-1556944*
X2690780Y-1556802*
X2681480Y-1557816*
X2672616Y-1560807*
X2664149Y-1565988*
X2657451Y-1572519*
X2652316Y-1580339*
X2648985Y-1589081*
X2647614Y-1598335*
X2647582Y-1600000*
X2648595Y-1609300*
X2651587Y-1618164*
X2652659Y-1620317*
X2652660Y-1620322*
Y-2388897*
X2652659Y-2388902*
X2649178Y-2397586*
X2647649Y-2406815*
X2647582Y-2409220*
X2648595Y-2418520*
G37*
G36*
X3057201Y-2405856D02*
G01X3059465Y-2414933D01*
X3063631Y-2423309*
X3065988Y-2426631*
X3072519Y-2433329*
X3080338Y-2438464*
X3089080Y-2441795*
X3098335Y-2443165*
X3100000Y-2443198*
X3109300Y-2442184*
X3118164Y-2439193*
X3120317Y-2438121*
X3120322Y-2438120*
X3385678*
X3385680Y-2443178*
X3385686Y-2443192*
X3385700Y-2443198*
X3614298Y-2443200*
X3614312Y-2443194*
X3614318Y-2443180*
X3614320Y-2356822*
X3614314Y-2356808*
X3614300Y-2356802*
X3385702Y-2356800*
X3385688Y-2356806*
X3385682Y-2356820*
X3385680Y-2361878*
X3120323Y-2361880*
X3120318Y-2361879*
X3111634Y-2358399*
X3102404Y-2356869*
X3100000Y-2356802*
X3090700Y-2357816*
X3081836Y-2360807*
X3073824Y-2365637*
X3067868Y-2371129*
X3062405Y-2378724*
X3058706Y-2387317*
X3056944Y-2396504*
X3057201Y-2405856*
G37*
G36*
X3257201Y-2305856D02*
G01X3259465Y-2314933D01*
X3263631Y-2323310*
X3265988Y-2326631*
X3272519Y-2333329*
X3280339Y-2338464*
X3289081Y-2341795*
X3298335Y-2343166*
X3300000Y-2343198*
X3309300Y-2342185*
X3318164Y-2339193*
X3320317Y-2338121*
X3320322Y-2338120*
X3385678*
X3385680Y-2343178*
X3385686Y-2343192*
X3385700Y-2343198*
X3614298Y-2343200*
X3614312Y-2343194*
X3614318Y-2343180*
X3614320Y-2256822*
X3614314Y-2256808*
X3614300Y-2256802*
X3385702Y-2256800*
X3385688Y-2256806*
X3385682Y-2256820*
X3385680Y-2261878*
X3320323Y-2261880*
X3320318Y-2261879*
X3311634Y-2258399*
X3302404Y-2256869*
X3300000Y-2256802*
X3290700Y-2257816*
X3281836Y-2260807*
X3273823Y-2265637*
X3267868Y-2271129*
X3262405Y-2278724*
X3258706Y-2287317*
X3256944Y-2296504*
X3257201Y-2305856*
G37*
G36*
X-3204730Y-2876270D02*
G01Y-2685730D01*
X-3395270*
Y-2876270*
X-3204730*
G37*
G36*
X-3394255Y-4944857D02*
G01X-3391233Y-4958429D01*
X-3386267Y-4971417*
X-3379464Y-4983543*
X-3370968Y-4994550*
X-3360961Y-5004203*
X-3349655Y-5012296*
X-3337291Y-5018658*
X-3324133Y-5023153*
X-3310461Y-5025684*
X-3300000Y-5026260*
X-3286133Y-5025245*
X-3272561Y-5022223*
X-3259573Y-5017257*
X-3247447Y-5010454*
X-3236440Y-5001958*
X-3226787Y-4991951*
X-3218693Y-4980645*
X-3212332Y-4968281*
X-3207837Y-4955123*
X-3205306Y-4941451*
X-3204730Y-4930990*
X-3205745Y-4917123*
X-3208767Y-4903551*
X-3213732Y-4890563*
X-3220536Y-4878437*
X-3229031Y-4867430*
X-3239039Y-4857777*
X-3250345Y-4849683*
X-3262708Y-4843322*
X-3275866Y-4838827*
X-3289538Y-4836296*
X-3300000Y-4835720*
X-3313867Y-4836735*
X-3327439Y-4839757*
X-3340426Y-4844723*
X-3352553Y-4851526*
X-3363560Y-4860022*
X-3373213Y-4870029*
X-3381306Y-4881335*
X-3387668Y-4893698*
X-3392162Y-4906856*
X-3394694Y-4920528*
X-3395270Y-4930990*
X-3394255Y-4944857*
G37*
G36*
Y-4694867D02*
G01X-3391233Y-4708439D01*
X-3386267Y-4721427*
X-3379464Y-4733553*
X-3370968Y-4744560*
X-3360961Y-4754213*
X-3349655Y-4762307*
X-3337291Y-4768668*
X-3324133Y-4773163*
X-3310461Y-4775694*
X-3300000Y-4776270*
X-3286133Y-4775255*
X-3272561Y-4772233*
X-3259573Y-4767268*
X-3247447Y-4760464*
X-3236440Y-4751969*
X-3226787Y-4741961*
X-3218693Y-4730655*
X-3212332Y-4718292*
X-3207837Y-4705134*
X-3205306Y-4691462*
X-3204730Y-4681000*
X-3205745Y-4667133*
X-3208767Y-4653561*
X-3213733Y-4640574*
X-3220536Y-4628447*
X-3229032Y-4617440*
X-3239039Y-4607787*
X-3250345Y-4599694*
X-3262708Y-4593332*
X-3275866Y-4588838*
X-3289538Y-4586306*
X-3300000Y-4585730*
X-3313867Y-4586745*
X-3327439Y-4589767*
X-3340427Y-4594733*
X-3352553Y-4601536*
X-3363560Y-4610032*
X-3373213Y-4620039*
X-3381306Y-4631345*
X-3387668Y-4643709*
X-3392163Y-4656867*
X-3394694Y-4670539*
X-3395270Y-4681000*
X-3394255Y-4694867*
G37*
G36*
X-3394665Y-4441658D02*
G01X-3392104Y-4455324D01*
X-3387581Y-4468472*
X-3381192Y-4480821*
X-3373074Y-4492109*
X-3363399Y-4502095*
X-3352374Y-4510565*
X-3340233Y-4517342*
X-3327235Y-4522278*
X-3313657Y-4525271*
X-3300000Y-4526255*
X-3286133Y-4525240*
X-3272561Y-4522218*
X-3259574Y-4517252*
X-3247448Y-4510449*
X-3236285Y-4501812*
X-3226654Y-4491783*
X-3218586Y-4480459*
X-3212253Y-4468082*
X-3207788Y-4454914*
X-3205288Y-4441237*
X-3204805Y-4427341*
X-3206350Y-4413523*
X-3209890Y-4400077*
X-3215350Y-4387290*
X-3217049Y-4383991*
X-2758484Y-3925423*
X-2758477Y-3925421*
X-1034931Y-3925420*
X-1028639Y-3932344*
X-1025420Y-3934930*
X-1017304Y-3939584*
X-1008376Y-3942381*
X-1000000Y-3943201*
X-990699Y-3942188*
X-981835Y-3939196*
X-973823Y-3934366*
X-967038Y-3927925*
X-965070Y-3925420*
X-960416Y-3917304*
X-957619Y-3908377*
X-956810Y-3899056*
X-958026Y-3889780*
X-961210Y-3880983*
X-966214Y-3873078*
X-972802Y-3866436*
X-974580Y-3865070*
X-982696Y-3860417*
X-991624Y-3857619*
X-1000000Y-3856799*
X-1009300Y-3857813*
X-1018165Y-3860804*
X-1026177Y-3865634*
X-1032962Y-3872076*
X-1034930Y-3874579*
X-2779531Y-3874580*
X-2779545Y-3874586*
X-3252996Y-4348036*
X-3253001Y-4348038*
X-3256300Y-4346340*
X-3269087Y-4340881*
X-3282533Y-4337341*
X-3293341Y-4335959*
X-3300000Y-4335726*
X-3313867Y-4336741*
X-3327439Y-4339763*
X-3340426Y-4344729*
X-3352552Y-4351532*
X-3363558Y-4360028*
X-3373211Y-4370036*
X-3381304Y-4381342*
X-3387665Y-4393705*
X-3390246Y-4400478*
X-3393726Y-4413940*
X-3395210Y-4427764*
X-3394665Y-4441658*
G37*
G36*
X-1834849Y-3813806D02*
G01X-1832584Y-3822883D01*
X-1828419Y-3831260*
X-1826062Y-3834581*
X-1819531Y-3841279*
X-1811711Y-3846414*
X-1802969Y-3849745*
X-1793715Y-3851116*
X-1792050Y-3851148*
X-1782750Y-3850135*
X-1773886Y-3847143*
X-1771733Y-3846071*
X-1771728Y-3846070*
X1292155*
X1292162Y-3846073*
X1358650Y-3912562*
X1359030Y-3913690*
X1362938Y-3922190*
X1368585Y-3929649*
X1375704Y-3935717*
X1383964Y-3940110*
X1392975Y-3942622*
X1400000Y-3943197*
X1401148Y-3943182*
X1410418Y-3941922*
X1419199Y-3938696*
X1427080Y-3933655*
X1433690Y-3927036*
X1438721Y-3919148*
X1441935Y-3910363*
X1442725Y-3906368*
X1443094Y-3897020*
X1441441Y-3887812*
X1437845Y-3879176*
X1432474Y-3871516*
X1425580Y-3865192*
X1417486Y-3860501*
X1413690Y-3859030*
X1412563Y-3858651*
X1408650Y-3854740*
X1407448Y-3852824*
X1407391Y-3849652*
X1409227Y-3847064*
X1412240Y-3846070*
X1992155*
X1992162Y-3846073*
X2084203Y-3938114*
X2084218Y-3938119*
X2179677Y-3938120*
X2179682Y-3938121*
X2188366Y-3941602*
X2197595Y-3943131*
X2200000Y-3943198*
X2209300Y-3942185*
X2218164Y-3939193*
X2226176Y-3934363*
X2232132Y-3928871*
X2237594Y-3921277*
X2241293Y-3912684*
X2243056Y-3903496*
X2242799Y-3894144*
X2240534Y-3885067*
X2236369Y-3876691*
X2234012Y-3873369*
X2227481Y-3866671*
X2219661Y-3861536*
X2210919Y-3858205*
X2201664Y-3856835*
X2200000Y-3856802*
X2190699Y-3857816*
X2181835Y-3860807*
X2179683Y-3861879*
X2179678Y-3861880*
X2115795*
X2115788Y-3861877*
X2023747Y-3769836*
X2023732Y-3769831*
X-1771727Y-3769830*
X-1771732Y-3769829*
X-1780416Y-3766349*
X-1789645Y-3764820*
X-1792050Y-3764752*
X-1801350Y-3765766*
X-1810214Y-3768757*
X-1818226Y-3773587*
X-1824182Y-3779079*
X-1829644Y-3786674*
X-1833343Y-3795267*
X-1835106Y-3804455*
X-1834849Y-3813806*
G37*
G36*
X-1641921Y-4210418D02*
G01X-1638695Y-4219199D01*
X-1633654Y-4227080*
X-1627035Y-4233691*
X-1619147Y-4238721*
X-1610362Y-4241936*
X-1606368Y-4242725*
X-1603192Y-4243079*
X-1600000Y-4243197*
X-1590700Y-4242184*
X-1581836Y-4239192*
X-1573824Y-4234363*
X-1567040Y-4227921*
X-1561802Y-4220170*
X-1559030Y-4213690*
X-1558651Y-4212563*
X-1484214Y-4138123*
X-1484207Y-4138121*
X-820323Y-4138120*
X-820318Y-4138121*
X-811634Y-4141602*
X-802404Y-4143131*
X-800000Y-4143198*
X-790700Y-4142185*
X-781836Y-4139193*
X-779683Y-4138121*
X-779678Y-4138120*
X579677*
X579682Y-4138121*
X588366Y-4141602*
X597595Y-4143131*
X600000Y-4143198*
X609300Y-4142185*
X618164Y-4139193*
X626176Y-4134363*
X632132Y-4128871*
X637594Y-4121277*
X641293Y-4112684*
X643056Y-4103496*
X642799Y-4094144*
X640534Y-4085067*
X636369Y-4076691*
X634012Y-4073369*
X627481Y-4066671*
X619661Y-4061536*
X610919Y-4058205*
X601664Y-4056835*
X600000Y-4056802*
X590699Y-4057816*
X581835Y-4060807*
X579683Y-4061879*
X579678Y-4061880*
X-779677*
X-779682Y-4061879*
X-788366Y-4058399*
X-797595Y-4056870*
X-800000Y-4056802*
X-809300Y-4057816*
X-818164Y-4060807*
X-820317Y-4061879*
X-820322Y-4061880*
X-1515781*
X-1515795Y-4061886*
X-1612562Y-4158650*
X-1613690Y-4159030*
X-1622190Y-4162938*
X-1629648Y-4168585*
X-1635717Y-4175705*
X-1640110Y-4183965*
X-1642622Y-4192976*
X-1643181Y-4201148*
X-1641921Y-4210418*
G37*
G36*
X2648595Y-4818520D02*
G01X2651587Y-4827384D01*
X2656417Y-4835396*
X2661909Y-4841352*
X2669504Y-4846814*
X2678096Y-4850513*
X2687284Y-4852276*
X2690780Y-4852417*
X2700080Y-4851404*
X2708944Y-4848413*
X2717411Y-4843232*
X2724109Y-4836701*
X2729244Y-4828881*
X2732575Y-4820139*
X2733945Y-4810884*
X2733978Y-4809220*
X2732964Y-4799920*
X2729973Y-4791056*
X2728901Y-4788903*
X2728900Y-4788898*
Y-4020323*
X2728901Y-4020318*
X2732381Y-4011634*
X2733910Y-4002405*
X2733978Y-4000000*
X2732964Y-3990700*
X2729973Y-3981836*
X2725143Y-3973824*
X2719651Y-3967868*
X2712056Y-3962406*
X2703463Y-3958706*
X2694276Y-3956944*
X2690780Y-3956802*
X2681480Y-3957816*
X2672616Y-3960807*
X2664149Y-3965988*
X2657451Y-3972519*
X2652316Y-3980339*
X2648985Y-3989081*
X2647614Y-3998335*
X2647582Y-4000000*
X2648595Y-4009300*
X2651587Y-4018164*
X2652659Y-4020317*
X2652660Y-4020322*
Y-4788897*
X2652659Y-4788902*
X2649178Y-4797586*
X2647649Y-4806815*
X2647582Y-4809220*
X2648595Y-4818520*
G37*
G36*
X3057201Y-4805856D02*
G01X3059465Y-4814933D01*
X3063631Y-4823309*
X3065988Y-4826631*
X3072519Y-4833329*
X3080338Y-4838464*
X3089080Y-4841795*
X3098335Y-4843165*
X3100000Y-4843198*
X3109300Y-4842184*
X3118164Y-4839193*
X3120317Y-4838121*
X3120322Y-4838120*
X3385678*
X3385680Y-4843178*
X3385686Y-4843192*
X3385700Y-4843198*
X3614298Y-4843200*
X3614312Y-4843194*
X3614318Y-4843180*
X3614320Y-4756822*
X3614314Y-4756808*
X3614300Y-4756802*
X3385702Y-4756800*
X3385688Y-4756806*
X3385682Y-4756820*
X3385680Y-4761878*
X3120323Y-4761880*
X3120318Y-4761879*
X3111634Y-4758399*
X3102404Y-4756869*
X3100000Y-4756802*
X3090700Y-4757816*
X3081836Y-4760807*
X3073824Y-4765637*
X3067868Y-4771129*
X3062405Y-4778724*
X3058706Y-4787317*
X3056944Y-4796504*
X3057201Y-4805856*
G37*
G36*
X3257201Y-4705856D02*
G01X3259465Y-4714933D01*
X3263631Y-4723310*
X3265988Y-4726631*
X3272519Y-4733329*
X3280339Y-4738464*
X3289081Y-4741795*
X3298335Y-4743166*
X3300000Y-4743198*
X3309300Y-4742185*
X3318164Y-4739193*
X3320317Y-4738121*
X3320322Y-4738120*
X3385678*
X3385680Y-4743178*
X3385686Y-4743192*
X3385700Y-4743198*
X3614298Y-4743200*
X3614312Y-4743194*
X3614318Y-4743180*
X3614320Y-4656822*
X3614314Y-4656808*
X3614300Y-4656802*
X3385702Y-4656800*
X3385688Y-4656806*
X3385682Y-4656820*
X3385680Y-4661878*
X3320323Y-4661880*
X3320318Y-4661879*
X3311634Y-4658399*
X3302404Y-4656869*
X3300000Y-4656802*
X3290700Y-4657816*
X3281836Y-4660807*
X3273823Y-4665637*
X3267868Y-4671129*
X3262405Y-4678724*
X3258706Y-4687317*
X3256944Y-4696504*
X3257201Y-4705856*
G37*
G36*
X-3204730Y-5276270D02*
G01Y-5085730D01*
X-3395270*
Y-5276270*
X-3204730*
G37*
G36*
X-3394255Y-7344857D02*
G01X-3391233Y-7358429D01*
X-3386267Y-7371417*
X-3379464Y-7383543*
X-3370968Y-7394550*
X-3360961Y-7404203*
X-3349655Y-7412296*
X-3337291Y-7418658*
X-3324133Y-7423153*
X-3310461Y-7425684*
X-3300000Y-7426260*
X-3286133Y-7425245*
X-3272561Y-7422223*
X-3259573Y-7417257*
X-3247447Y-7410454*
X-3236440Y-7401958*
X-3226787Y-7391951*
X-3218693Y-7380645*
X-3212332Y-7368281*
X-3207837Y-7355123*
X-3205306Y-7341451*
X-3204730Y-7330990*
X-3205745Y-7317123*
X-3208767Y-7303551*
X-3213732Y-7290563*
X-3220536Y-7278437*
X-3229031Y-7267430*
X-3239039Y-7257777*
X-3250345Y-7249683*
X-3262708Y-7243322*
X-3275866Y-7238827*
X-3289538Y-7236296*
X-3300000Y-7235720*
X-3313867Y-7236735*
X-3327439Y-7239757*
X-3340426Y-7244723*
X-3352553Y-7251526*
X-3363560Y-7260022*
X-3373213Y-7270029*
X-3381306Y-7281335*
X-3387668Y-7293698*
X-3392162Y-7306856*
X-3394694Y-7320528*
X-3395270Y-7330990*
X-3394255Y-7344857*
G37*
G36*
Y-7094867D02*
G01X-3391233Y-7108439D01*
X-3386267Y-7121427*
X-3379464Y-7133553*
X-3370968Y-7144560*
X-3360961Y-7154213*
X-3349655Y-7162307*
X-3337291Y-7168668*
X-3324133Y-7173163*
X-3310461Y-7175694*
X-3300000Y-7176270*
X-3286133Y-7175255*
X-3272561Y-7172233*
X-3259573Y-7167268*
X-3247447Y-7160464*
X-3236440Y-7151969*
X-3226787Y-7141961*
X-3218693Y-7130655*
X-3212332Y-7118292*
X-3207837Y-7105134*
X-3205306Y-7091462*
X-3204730Y-7081000*
X-3205745Y-7067133*
X-3208767Y-7053561*
X-3213733Y-7040574*
X-3220536Y-7028447*
X-3229032Y-7017440*
X-3239039Y-7007787*
X-3250345Y-6999694*
X-3262708Y-6993332*
X-3275866Y-6988838*
X-3289538Y-6986306*
X-3300000Y-6985730*
X-3313867Y-6986745*
X-3327439Y-6989767*
X-3340427Y-6994733*
X-3352553Y-7001536*
X-3363560Y-7010032*
X-3373213Y-7020039*
X-3381306Y-7031345*
X-3387668Y-7043709*
X-3392163Y-7056867*
X-3394694Y-7070539*
X-3395270Y-7081000*
X-3394255Y-7094867*
G37*
G36*
X-3394665Y-6841658D02*
G01X-3392104Y-6855324D01*
X-3387581Y-6868472*
X-3381192Y-6880821*
X-3373074Y-6892109*
X-3363399Y-6902095*
X-3352374Y-6910565*
X-3340233Y-6917342*
X-3327235Y-6922278*
X-3313657Y-6925271*
X-3300000Y-6926255*
X-3286133Y-6925240*
X-3272561Y-6922218*
X-3259574Y-6917252*
X-3247448Y-6910449*
X-3236285Y-6901812*
X-3226654Y-6891783*
X-3218586Y-6880459*
X-3212253Y-6868082*
X-3207788Y-6854914*
X-3205288Y-6841237*
X-3204805Y-6827341*
X-3206350Y-6813523*
X-3209890Y-6800077*
X-3215350Y-6787290*
X-3217049Y-6783991*
X-2758484Y-6325423*
X-2758477Y-6325421*
X-1034931Y-6325420*
X-1028639Y-6332344*
X-1025420Y-6334930*
X-1017304Y-6339584*
X-1008376Y-6342381*
X-1000000Y-6343201*
X-990699Y-6342188*
X-981835Y-6339196*
X-973823Y-6334366*
X-967038Y-6327925*
X-965070Y-6325420*
X-960416Y-6317304*
X-957619Y-6308377*
X-956810Y-6299056*
X-958026Y-6289780*
X-961210Y-6280983*
X-966214Y-6273078*
X-972802Y-6266436*
X-974580Y-6265070*
X-982696Y-6260417*
X-991624Y-6257619*
X-1000000Y-6256799*
X-1009300Y-6257813*
X-1018165Y-6260804*
X-1026177Y-6265634*
X-1032962Y-6272076*
X-1034930Y-6274579*
X-2779531Y-6274580*
X-2779545Y-6274586*
X-3252996Y-6748036*
X-3253001Y-6748038*
X-3256300Y-6746340*
X-3269087Y-6740881*
X-3282533Y-6737341*
X-3293341Y-6735959*
X-3300000Y-6735726*
X-3313867Y-6736741*
X-3327439Y-6739763*
X-3340426Y-6744729*
X-3352552Y-6751532*
X-3363558Y-6760028*
X-3373211Y-6770036*
X-3381304Y-6781342*
X-3387665Y-6793705*
X-3390246Y-6800478*
X-3393726Y-6813940*
X-3395210Y-6827764*
X-3394665Y-6841658*
G37*
G36*
X-1834849Y-6213806D02*
G01X-1832584Y-6222883D01*
X-1828419Y-6231260*
X-1826062Y-6234581*
X-1819531Y-6241279*
X-1811711Y-6246414*
X-1802969Y-6249745*
X-1793715Y-6251116*
X-1792050Y-6251148*
X-1782750Y-6250135*
X-1773886Y-6247143*
X-1771733Y-6246071*
X-1771728Y-6246070*
X1292155*
X1292162Y-6246073*
X1358650Y-6312562*
X1359030Y-6313690*
X1362938Y-6322190*
X1368585Y-6329649*
X1375704Y-6335717*
X1383964Y-6340110*
X1392975Y-6342622*
X1400000Y-6343197*
X1401148Y-6343182*
X1410418Y-6341922*
X1419199Y-6338696*
X1427080Y-6333655*
X1433690Y-6327036*
X1438721Y-6319148*
X1441935Y-6310363*
X1442725Y-6306368*
X1443094Y-6297020*
X1441441Y-6287812*
X1437845Y-6279176*
X1432474Y-6271516*
X1425580Y-6265192*
X1417486Y-6260501*
X1413690Y-6259030*
X1412563Y-6258651*
X1408650Y-6254740*
X1407448Y-6252824*
X1407391Y-6249652*
X1409227Y-6247064*
X1412240Y-6246070*
X1992155*
X1992162Y-6246073*
X2084203Y-6338114*
X2084218Y-6338119*
X2179677Y-6338120*
X2179682Y-6338121*
X2188366Y-6341602*
X2197595Y-6343131*
X2200000Y-6343198*
X2209300Y-6342185*
X2218164Y-6339193*
X2226176Y-6334363*
X2232132Y-6328871*
X2237594Y-6321277*
X2241293Y-6312684*
X2243056Y-6303496*
X2242799Y-6294144*
X2240534Y-6285067*
X2236369Y-6276691*
X2234012Y-6273369*
X2227481Y-6266671*
X2219661Y-6261536*
X2210919Y-6258205*
X2201664Y-6256835*
X2200000Y-6256802*
X2190699Y-6257816*
X2181835Y-6260807*
X2179683Y-6261879*
X2179678Y-6261880*
X2115795*
X2115788Y-6261877*
X2023747Y-6169836*
X2023732Y-6169831*
X-1771727Y-6169830*
X-1771732Y-6169829*
X-1780416Y-6166349*
X-1789645Y-6164820*
X-1792050Y-6164752*
X-1801350Y-6165766*
X-1810214Y-6168757*
X-1818226Y-6173587*
X-1824182Y-6179079*
X-1829644Y-6186674*
X-1833343Y-6195267*
X-1835106Y-6204455*
X-1834849Y-6213806*
G37*
G36*
X-1641921Y-6610418D02*
G01X-1638695Y-6619199D01*
X-1633654Y-6627080*
X-1627035Y-6633691*
X-1619147Y-6638721*
X-1610362Y-6641936*
X-1606368Y-6642725*
X-1603192Y-6643079*
X-1600000Y-6643197*
X-1590700Y-6642184*
X-1581836Y-6639192*
X-1573824Y-6634363*
X-1567040Y-6627921*
X-1561802Y-6620170*
X-1559030Y-6613690*
X-1558651Y-6612563*
X-1484214Y-6538123*
X-1484207Y-6538121*
X-820323Y-6538120*
X-820318Y-6538121*
X-811634Y-6541602*
X-802404Y-6543131*
X-800000Y-6543198*
X-790700Y-6542185*
X-781836Y-6539193*
X-779683Y-6538121*
X-779678Y-6538120*
X579677*
X579682Y-6538121*
X588366Y-6541602*
X597595Y-6543131*
X600000Y-6543198*
X609300Y-6542185*
X618164Y-6539193*
X626176Y-6534363*
X632132Y-6528871*
X637594Y-6521277*
X641293Y-6512684*
X643056Y-6503496*
X642799Y-6494144*
X640534Y-6485067*
X636369Y-6476691*
X634012Y-6473369*
X627481Y-6466671*
X619661Y-6461536*
X610919Y-6458205*
X601664Y-6456835*
X600000Y-6456802*
X590699Y-6457816*
X581835Y-6460807*
X579683Y-6461879*
X579678Y-6461880*
X-779677*
X-779682Y-6461879*
X-788366Y-6458399*
X-797595Y-6456870*
X-800000Y-6456802*
X-809300Y-6457816*
X-818164Y-6460807*
X-820317Y-6461879*
X-820322Y-6461880*
X-1515781*
X-1515795Y-6461886*
X-1612562Y-6558650*
X-1613690Y-6559030*
X-1622190Y-6562938*
X-1629648Y-6568585*
X-1635717Y-6575705*
X-1640110Y-6583965*
X-1642622Y-6592976*
X-1643181Y-6601148*
X-1641921Y-6610418*
G37*
G36*
X2648595Y-7218520D02*
G01X2651587Y-7227384D01*
X2656417Y-7235396*
X2661909Y-7241352*
X2669504Y-7246814*
X2678096Y-7250513*
X2687284Y-7252276*
X2690780Y-7252417*
X2700080Y-7251404*
X2708944Y-7248413*
X2717411Y-7243232*
X2724109Y-7236701*
X2729244Y-7228881*
X2732575Y-7220139*
X2733945Y-7210884*
X2733978Y-7209220*
X2732964Y-7199920*
X2729973Y-7191056*
X2728901Y-7188903*
X2728900Y-7188898*
Y-6420323*
X2728901Y-6420318*
X2732381Y-6411634*
X2733910Y-6402405*
X2733978Y-6400000*
X2732964Y-6390700*
X2729973Y-6381836*
X2725143Y-6373824*
X2719651Y-6367868*
X2712056Y-6362406*
X2703463Y-6358706*
X2694276Y-6356944*
X2690780Y-6356802*
X2681480Y-6357816*
X2672616Y-6360807*
X2664149Y-6365988*
X2657451Y-6372519*
X2652316Y-6380339*
X2648985Y-6389081*
X2647614Y-6398335*
X2647582Y-6400000*
X2648595Y-6409300*
X2651587Y-6418164*
X2652659Y-6420317*
X2652660Y-6420322*
Y-7188897*
X2652659Y-7188902*
X2649178Y-7197586*
X2647649Y-7206815*
X2647582Y-7209220*
X2648595Y-7218520*
G37*
G36*
X3057201Y-7205856D02*
G01X3059465Y-7214933D01*
X3063631Y-7223309*
X3065988Y-7226631*
X3072519Y-7233329*
X3080338Y-7238464*
X3089080Y-7241795*
X3098335Y-7243165*
X3100000Y-7243198*
X3109300Y-7242184*
X3118164Y-7239193*
X3120317Y-7238121*
X3120322Y-7238120*
X3385678*
X3385680Y-7243178*
X3385686Y-7243192*
X3385700Y-7243198*
X3614298Y-7243200*
X3614312Y-7243194*
X3614318Y-7243180*
X3614320Y-7156822*
X3614314Y-7156808*
X3614300Y-7156802*
X3385702Y-7156800*
X3385688Y-7156806*
X3385682Y-7156820*
X3385680Y-7161878*
X3120323Y-7161880*
X3120318Y-7161879*
X3111634Y-7158399*
X3102404Y-7156869*
X3100000Y-7156802*
X3090700Y-7157816*
X3081836Y-7160807*
X3073824Y-7165637*
X3067868Y-7171129*
X3062405Y-7178724*
X3058706Y-7187317*
X3056944Y-7196504*
X3057201Y-7205856*
G37*
G36*
X3257201Y-7105856D02*
G01X3259465Y-7114933D01*
X3263631Y-7123310*
X3265988Y-7126631*
X3272519Y-7133329*
X3280339Y-7138464*
X3289081Y-7141795*
X3298335Y-7143166*
X3300000Y-7143198*
X3309300Y-7142185*
X3318164Y-7139193*
X3320317Y-7138121*
X3320322Y-7138120*
X3385678*
X3385680Y-7143178*
X3385686Y-7143192*
X3385700Y-7143198*
X3614298Y-7143200*
X3614312Y-7143194*
X3614318Y-7143180*
X3614320Y-7056822*
X3614314Y-7056808*
X3614300Y-7056802*
X3385702Y-7056800*
X3385688Y-7056806*
X3385682Y-7056820*
X3385680Y-7061878*
X3320323Y-7061880*
X3320318Y-7061879*
X3311634Y-7058399*
X3302404Y-7056869*
X3300000Y-7056802*
X3290700Y-7057816*
X3281836Y-7060807*
X3273823Y-7065637*
X3267868Y-7071129*
X3262405Y-7078724*
X3258706Y-7087317*
X3256944Y-7096504*
X3257201Y-7105856*
G37*
G36*
X-3204730Y-7676270D02*
G01Y-7485730D01*
X-3395270*
Y-7676270*
X-3204730*
G37*
%LPD*%
G54D10*
X-3300000Y119000D03*
Y-130990D03*
Y369010D03*
G54D11*
Y-381000D03*
G54D12*
X-2100000Y300000D03*
X-1211100Y-188900D03*
X-1600000Y600000D03*
X-1792050Y992050D03*
X-1000000Y900000D03*
X-800000Y700000D03*
X-100000Y-200000D03*
X0Y500000D03*
X500000Y-300000D03*
X600000Y700000D03*
X1400000Y900000D03*
X2690780Y-9220D03*
X2449860Y714020D03*
X1988900Y711100D03*
X2200000Y900000D03*
X2690780Y800000D03*
X3300000Y-100000D03*
X3100000Y0D03*
X3300000Y100000D03*
X3200000Y900000D03*
G54D13*
X3500000Y-100000D03*
Y0D03*
Y100000D03*
G54D10*
X-3300000Y-2281000D03*
Y-2530990D03*
Y-2030990D03*
G54D11*
Y-2781000D03*
G54D12*
X-2100000Y-2100000D03*
X-1211100Y-2588900D03*
X-1600000Y-1800000D03*
X-1792050Y-1407950D03*
X-1000000Y-1500000D03*
X-800000Y-1700000D03*
X-100000Y-2600000D03*
X0Y-1900000D03*
X500000Y-2700000D03*
X600000Y-1700000D03*
X1400000Y-1500000D03*
X2690780Y-2409220D03*
X2449860Y-1685980D03*
X1988900Y-1688900D03*
X2200000Y-1500000D03*
X2690780Y-1600000D03*
X3300000Y-2500000D03*
X3100000Y-2400000D03*
X3300000Y-2300000D03*
X3200000Y-1500000D03*
G54D13*
X3500000Y-2500000D03*
Y-2400000D03*
Y-2300000D03*
G54D10*
X-3300000Y-4681000D03*
Y-4930990D03*
Y-4430990D03*
G54D11*
Y-5181000D03*
G54D12*
X-2100000Y-4500000D03*
X-1211100Y-4988900D03*
X-1600000Y-4200000D03*
X-1792050Y-3807950D03*
X-1000000Y-3900000D03*
X-800000Y-4100000D03*
X-100000Y-5000000D03*
X0Y-4300000D03*
X500000Y-5100000D03*
X600000Y-4100000D03*
X1400000Y-3900000D03*
X2690780Y-4809220D03*
X2449860Y-4085980D03*
X1988900Y-4088900D03*
X2200000Y-3900000D03*
X2690780Y-4000000D03*
X3300000Y-4900000D03*
X3100000Y-4800000D03*
X3300000Y-4700000D03*
X3200000Y-3900000D03*
G54D13*
X3500000Y-4900000D03*
Y-4800000D03*
Y-4700000D03*
G54D14*
X-1000000Y900000D02*
G01X-2769010D01*
X-3300000Y369010*
G54D15*
X-3400350Y119000D02*
G01X-3300000D01*
Y18650D02*
G01Y119000D01*
Y119000D02*
G01Y219350D01*
Y119000D02*
G01X-3199650D01*
X-800000Y700000D02*
G01X-1500000D01*
X-1600000Y600000*
X-1792050Y992050D02*
G01X1307950D01*
X600000Y700000D02*
G01X-800000D01*
X1307950Y992050D02*
G01X1400000Y900000D01*
X2200000D02*
G01X2100000D01*
X2007950Y992050*
X1307950*
X2690780Y-9220D02*
G01Y800000D01*
X3100000Y0D02*
G01X3500000D01*
Y100000D02*
G01X3300000D01*
G54D14*
X-1000000Y-1500000D02*
G01X-2769010D01*
X-3300000Y-2030990*
G54D15*
X-3400350Y-2281000D02*
G01X-3300000D01*
Y-2381350D02*
G01Y-2281000D01*
Y-2281000D02*
G01Y-2180650D01*
Y-2281000D02*
G01X-3199650D01*
X-800000Y-1700000D02*
G01X-1500000D01*
X-1600000Y-1800000*
X-1792050Y-1407950D02*
G01X1307950D01*
X600000Y-1700000D02*
G01X-800000D01*
X1307950Y-1407950D02*
G01X1400000Y-1500000D01*
X2200000D02*
G01X2100000D01*
X2007950Y-1407950*
X1307950*
X2690780Y-2409220D02*
G01Y-1600000D01*
X3100000Y-2400000D02*
G01X3500000D01*
Y-2300000D02*
G01X3300000D01*
G54D14*
X-1000000Y-3900000D02*
G01X-2769010D01*
X-3300000Y-4430990*
G54D15*
X-3400350Y-4681000D02*
G01X-3300000D01*
Y-4781350D02*
G01Y-4681000D01*
Y-4681000D02*
G01Y-4580650D01*
Y-4681000D02*
G01X-3199650D01*
X-800000Y-4100000D02*
G01X-1500000D01*
X-1600000Y-4200000*
X-1792050Y-3807950D02*
G01X1307950D01*
X600000Y-4100000D02*
G01X-800000D01*
X1307950Y-3807950D02*
G01X1400000Y-3900000D01*
X2200000D02*
G01X2100000D01*
X2007950Y-3807950*
X1307950*
X2690780Y-4809220D02*
G01Y-4000000D01*
X3100000Y-4800000D02*
G01X3500000D01*
Y-4700000D02*
G01X3300000D01*
G54D14*
X-1000000Y-6300000D02*
G01X-2769010D01*
X-3300000Y-6830990*
G54D15*
X-3400350Y-7081000D02*
G01X-3300000D01*
Y-7181350D02*
G01Y-7081000D01*
Y-7081000D02*
G01Y-6980650D01*
Y-7081000D02*
G01X-3199650D01*
X-800000Y-6500000D02*
G01X-1500000D01*
X-1600000Y-6600000*
X-1792050Y-6207950D02*
G01X1307950D01*
X600000Y-6500000D02*
G01X-800000D01*
X1307950Y-6207950D02*
G01X1400000Y-6300000D01*
X2200000D02*
G01X2100000D01*
X2007950Y-6207950*
X1307950*
X2690780Y-7209220D02*
G01Y-6400000D01*
X3100000Y-7200000D02*
G01X3500000D01*
Y-7100000D02*
G01X3300000D01*
M02*
