G04 CAM350 V10.7 (Build 560) Date:  Tue Jul 12 16:13:38 2016 *
G04 Database: d:\mywork\immunofluorescenceapparatus\laser\hardware\laser_driver\orcad\artwork\module4.cam *
G04 Layer 4: PASTEMASK_TOP.art *
%FSLAX25Y25*%
%MOMM*%
%SFA1.000B1.000*%

%MIA0B0*%
%IPPOS*%
%ADD13R,2.03200X0.60960*%
%ADD20R,1.01600X0.63500*%
%ADD21R,0.63500X1.77800*%
%ADD22R,1.01600X2.03200*%
%ADD23R,1.01600X1.27000*%
%ADD24R,1.27000X1.01600*%
%ADD25R,1.14300X1.65100*%
%ADD26R,0.66040X0.96520*%
%ADD27R,2.99720X1.65100*%
%LNPASTEMASK_TOP.art*%
%LPD*%
G54D20*
X-2607950Y-393980D03*
Y-206020D03*
X-2392050Y-300000D03*
X-2007950Y706020D03*
Y893980D03*
X-1792050Y800000D03*
X907950Y-400000D03*
X692050Y-493980D03*
Y-306020D03*
G54D23*
X-2411100Y-900000D03*
X-2588900D03*
X-2411100Y-600000D03*
X-2588900D03*
X-1988900Y0D03*
X-2411100D03*
X-2588900D03*
X-1988900Y300000D03*
X-2588900Y900000D03*
X-2411100D03*
Y300000D03*
X-2588900D03*
Y600000D03*
X-2411100D03*
X-1211100Y0D03*
X-1388900D03*
X-1811100D03*
Y300000D03*
X-1211100D03*
X-1388900D03*
X-1211100Y600000D03*
X-1388900D03*
X-1211100Y900000D03*
X-1388900D03*
X-688900Y-600000D03*
X-511100D03*
Y900000D03*
X-688900D03*
X211100Y-600000D03*
X388900D03*
Y-300000D03*
X211100D03*
X388900Y0D03*
X211100D03*
Y600000D03*
X388900D03*
X211100Y300000D03*
X388900D03*
X888900Y0D03*
X711100D03*
Y300000D03*
X888900D03*
X1811100Y900000D03*
X1988900D03*
X2488900D03*
X2311100D03*
X3088900D03*
X2911100D03*
X3088900Y600000D03*
X2911100D03*
G54D25*
X-1930150Y-281590D03*
X-1699010D03*
X-1467870D03*
G54D27*
X-1699010Y-916590D03*
G54D21*
X-436500Y-179400D03*
X-563500D03*
X-690500D03*
Y379400D03*
X-563500D03*
X-436500D03*
X-309500Y-179400D03*
Y379400D03*
G54D26*
X1400000Y426240D03*
Y773760D03*
G54D22*
X1798400Y300000D03*
X2001600D03*
G54D24*
X2900000Y-88900D03*
Y88900D03*
G54D13*
X3500000Y-100000D03*
Y0D03*
Y100000D03*
G54D20*
X-2607950Y-2793980D03*
Y-2606020D03*
X-2392050Y-2700000D03*
X-2007950Y-1693980D03*
Y-1506020D03*
X-1792050Y-1600000D03*
X907950Y-2800000D03*
X692050Y-2893980D03*
Y-2706020D03*
G54D23*
X-2411100Y-3300000D03*
X-2588900D03*
X-2411100Y-3000000D03*
X-2588900D03*
X-1988900Y-2400000D03*
X-2411100D03*
X-2588900D03*
X-1988900Y-2100000D03*
X-2588900Y-1500000D03*
X-2411100D03*
Y-2100000D03*
X-2588900D03*
Y-1800000D03*
X-2411100D03*
X-1211100Y-2400000D03*
X-1388900D03*
X-1811100D03*
Y-2100000D03*
X-1211100D03*
X-1388900D03*
X-1211100Y-1800000D03*
X-1388900D03*
X-1211100Y-1500000D03*
X-1388900D03*
X-688900Y-3000000D03*
X-511100D03*
Y-1500000D03*
X-688900D03*
X211100Y-3000000D03*
X388900D03*
Y-2700000D03*
X211100D03*
X388900Y-2400000D03*
X211100D03*
Y-1800000D03*
X388900D03*
X211100Y-2100000D03*
X388900D03*
X888900Y-2400000D03*
X711100D03*
Y-2100000D03*
X888900D03*
X1811100Y-1500000D03*
X1988900D03*
X2488900D03*
X2311100D03*
X3088900D03*
X2911100D03*
X3088900Y-1800000D03*
X2911100D03*
G54D25*
X-1930150Y-2681590D03*
X-1699010D03*
X-1467870D03*
G54D27*
X-1699010Y-3316590D03*
G54D21*
X-436500Y-2579400D03*
X-563500D03*
X-690500D03*
Y-2020600D03*
X-563500D03*
X-436500D03*
X-309500Y-2579400D03*
Y-2020600D03*
G54D26*
X1400000Y-1973760D03*
Y-1626240D03*
G54D22*
X1798400Y-2100000D03*
X2001600D03*
G54D24*
X2900000Y-2488900D03*
Y-2311100D03*
G54D13*
X3500000Y-2500000D03*
Y-2400000D03*
Y-2300000D03*
G54D20*
X-2607950Y-5193980D03*
Y-5006020D03*
X-2392050Y-5100000D03*
X-2007950Y-4093980D03*
Y-3906020D03*
X-1792050Y-4000000D03*
X907950Y-5200000D03*
X692050Y-5293980D03*
Y-5106020D03*
G54D23*
X-2411100Y-5700000D03*
X-2588900D03*
X-2411100Y-5400000D03*
X-2588900D03*
X-1988900Y-4800000D03*
X-2411100D03*
X-2588900D03*
X-1988900Y-4500000D03*
X-2588900Y-3900000D03*
X-2411100D03*
Y-4500000D03*
X-2588900D03*
Y-4200000D03*
X-2411100D03*
X-1211100Y-4800000D03*
X-1388900D03*
X-1811100D03*
Y-4500000D03*
X-1211100D03*
X-1388900D03*
X-1211100Y-4200000D03*
X-1388900D03*
X-1211100Y-3900000D03*
X-1388900D03*
X-688900Y-5400000D03*
X-511100D03*
Y-3900000D03*
X-688900D03*
X211100Y-5400000D03*
X388900D03*
Y-5100000D03*
X211100D03*
X388900Y-4800000D03*
X211100D03*
Y-4200000D03*
X388900D03*
X211100Y-4500000D03*
X388900D03*
X888900Y-4800000D03*
X711100D03*
Y-4500000D03*
X888900D03*
X1811100Y-3900000D03*
X1988900D03*
X2488900D03*
X2311100D03*
X3088900D03*
X2911100D03*
X3088900Y-4200000D03*
X2911100D03*
G54D25*
X-1930150Y-5081590D03*
X-1699010D03*
X-1467870D03*
G54D27*
X-1699010Y-5716590D03*
G54D21*
X-436500Y-4979400D03*
X-563500D03*
X-690500D03*
Y-4420600D03*
X-563500D03*
X-436500D03*
X-309500Y-4979400D03*
Y-4420600D03*
G54D26*
X1400000Y-4373760D03*
Y-4026240D03*
G54D22*
X1798400Y-4500000D03*
X2001600D03*
G54D24*
X2900000Y-4888900D03*
Y-4711100D03*
G54D13*
X3500000Y-4900000D03*
Y-4800000D03*
Y-4700000D03*
M02*
