G04 CAM350 V10.7 (Build 560) Date:  Tue Jul 12 16:13:38 2016 *
G04 Database: d:\mywork\immunofluorescenceapparatus\laser\hardware\laser_driver\orcad\artwork\module4.cam *
G04 Layer 8: TOP.art *
%FSLAX25Y25*%
%MOMM*%
%SFA1.000B1.000*%

%MIA0B0*%
%IPPOS*%
%AMMACRO21_1*
4,1,8,-0.25400,-2.05740,-0.25400,-1.24460,-0.86360,-1.24460,-0.86360,2.05740,0.86360,2.05740,0.86360,-1.24460,0.25400,-1.24460,0.25400,-2.05740,-0.25400,-2.05740,0.00000*
%
%ADD10C,1.65100*%
%ADD11R,1.65100X1.65100*%
%ADD12C,0.60960*%
%ADD13R,2.03200X0.60960*%
%ADD14C,0.25400*%
%ADD15C,0.50800*%
%ADD20R,1.01600X0.63500*%
%ADD21R,0.63500X1.77800*%
%ADD22R,1.01600X2.03200*%
%ADD23R,1.01600X1.27000*%
%ADD24R,1.27000X1.01600*%
%ADD25R,1.14300X1.65100*%
%ADD26R,0.66040X0.96520*%
%ADD27R,2.99720X1.65100*%
%ADD45MACRO21_1*%
%ADD46R,0.43180X0.81280*%
%LNTOP.art*%
%LPD*%
G36*
X-3504291Y-989687D02*
G01X-3517687Y-988031D01*
X-3532220Y-983809*
X-3544420Y-978032*
X-3555615Y-970492*
X-3565554Y-961359*
X-3574011Y-950838*
X-3580796Y-939169*
X-3585754Y-926615*
X-3588775Y-913460*
X-3589790Y-900000*
X-3589594Y-894069*
X-3589007Y-888165*
X-3586227Y-874957*
X-3581498Y-862314*
X-3574928Y-850523*
X-3566665Y-839850*
X-3556895Y-830536*
X-3545839Y-822792*
X-3533748Y-816793*
X-3520893Y-812675*
X-3507567Y-810529*
X-3494070Y-810406*
X-3480706Y-812307*
X-3467779Y-816191*
X-3455580Y-821968*
X-3444384Y-829508*
X-3434446Y-838642*
X-3425989Y-849162*
X-3419204Y-860831*
X-3414245Y-873385*
X-3411224Y-886541*
X-3410210Y-900001*
X-3410792Y-910205*
X-3413330Y-923463*
X-3417826Y-936190*
X-3424179Y-948099*
X-3432246Y-958921*
X-3441844Y-968412*
X-3452757Y-976357*
X-3464737Y-982576*
X-3477513Y-986929*
X-3490798Y-989317*
X-3504291Y-989687*
G37*
G36*
Y-3389687D02*
G01X-3517687Y-3388031D01*
X-3532220Y-3383809*
X-3544420Y-3378032*
X-3555615Y-3370492*
X-3565554Y-3361359*
X-3574011Y-3350838*
X-3580796Y-3339169*
X-3585754Y-3326615*
X-3588775Y-3313460*
X-3589790Y-3300000*
X-3589594Y-3294069*
X-3589007Y-3288165*
X-3586227Y-3274957*
X-3581498Y-3262314*
X-3574928Y-3250523*
X-3566665Y-3239850*
X-3556895Y-3230536*
X-3545839Y-3222792*
X-3533748Y-3216793*
X-3520893Y-3212675*
X-3507567Y-3210529*
X-3494070Y-3210406*
X-3480706Y-3212307*
X-3467779Y-3216191*
X-3455580Y-3221968*
X-3444384Y-3229508*
X-3434446Y-3238642*
X-3425989Y-3249162*
X-3419204Y-3260831*
X-3414245Y-3273385*
X-3411224Y-3286541*
X-3410210Y-3300001*
X-3410792Y-3310205*
X-3413330Y-3323463*
X-3417826Y-3336190*
X-3424179Y-3348099*
X-3432246Y-3358921*
X-3441844Y-3368412*
X-3452757Y-3376357*
X-3464737Y-3382576*
X-3477513Y-3386929*
X-3490798Y-3389317*
X-3504291Y-3389687*
G37*
G36*
Y-5789687D02*
G01X-3517687Y-5788031D01*
X-3532220Y-5783809*
X-3544420Y-5778032*
X-3555615Y-5770492*
X-3565554Y-5761359*
X-3574011Y-5750838*
X-3580796Y-5739169*
X-3585754Y-5726615*
X-3588775Y-5713460*
X-3589790Y-5700000*
X-3589594Y-5694069*
X-3589007Y-5688165*
X-3586227Y-5674957*
X-3581498Y-5662314*
X-3574928Y-5650523*
X-3566665Y-5639850*
X-3556895Y-5630536*
X-3545839Y-5622792*
X-3533748Y-5616793*
X-3520893Y-5612675*
X-3507567Y-5610529*
X-3494070Y-5610406*
X-3480706Y-5612307*
X-3467779Y-5616191*
X-3455580Y-5621968*
X-3444384Y-5629508*
X-3434446Y-5638642*
X-3425989Y-5649162*
X-3419204Y-5660831*
X-3414245Y-5673385*
X-3411224Y-5686541*
X-3410210Y-5700001*
X-3410792Y-5710205*
X-3413330Y-5723463*
X-3417826Y-5736190*
X-3424179Y-5748099*
X-3432246Y-5758921*
X-3441844Y-5768412*
X-3452757Y-5776357*
X-3464737Y-5782576*
X-3477513Y-5786929*
X-3490798Y-5789317*
X-3504291Y-5789687*
G37*
G36*
Y-8189687D02*
G01X-3517687Y-8188031D01*
X-3532220Y-8183809*
X-3544420Y-8178032*
X-3555615Y-8170492*
X-3565554Y-8161359*
X-3574011Y-8150838*
X-3580796Y-8139169*
X-3585754Y-8126615*
X-3588775Y-8113460*
X-3589790Y-8100000*
X-3589594Y-8094069*
X-3589007Y-8088165*
X-3586227Y-8074957*
X-3581498Y-8062314*
X-3574928Y-8050523*
X-3566665Y-8039850*
X-3556895Y-8030536*
X-3545839Y-8022792*
X-3533748Y-8016793*
X-3520893Y-8012675*
X-3507567Y-8010529*
X-3494070Y-8010406*
X-3480706Y-8012307*
X-3467779Y-8016191*
X-3455580Y-8021968*
X-3444384Y-8029508*
X-3434446Y-8038642*
X-3425989Y-8049162*
X-3419204Y-8060831*
X-3414245Y-8073385*
X-3411224Y-8086541*
X-3410210Y-8100001*
X-3410792Y-8110205*
X-3413330Y-8123463*
X-3417826Y-8136190*
X-3424179Y-8148099*
X-3432246Y-8158921*
X-3441844Y-8168412*
X-3452757Y-8176357*
X-3464737Y-8182576*
X-3477513Y-8186929*
X-3490798Y-8189317*
X-3504291Y-8189687*
G37*
G36*
Y810312D02*
G01X-3517687Y811969D01*
X-3532221Y816190*
X-3544420Y821967*
X-3555615Y829508*
X-3565554Y838641*
X-3574011Y849161*
X-3580796Y860830*
X-3585754Y873384*
X-3588775Y886540*
X-3589790Y900000*
X-3589594Y905930*
X-3589007Y911835*
X-3586227Y925043*
X-3581498Y937685*
X-3574928Y949477*
X-3566665Y960150*
X-3556895Y969463*
X-3545839Y977207*
X-3533748Y983206*
X-3520893Y987325*
X-3507567Y989470*
X-3494070Y989594*
X-3480707Y987692*
X-3467779Y983809*
X-3455580Y978032*
X-3444384Y970491*
X-3434446Y961358*
X-3425989Y950838*
X-3419204Y939169*
X-3414245Y926615*
X-3411225Y913459*
X-3410210Y899999*
X-3410792Y889794*
X-3413330Y876537*
X-3417826Y863810*
X-3424180Y851900*
X-3432246Y841078*
X-3441845Y831588*
X-3452757Y823643*
X-3464737Y817424*
X-3477514Y813071*
X-3490799Y810682*
X-3504291Y810312*
G37*
G36*
Y-1589688D02*
G01X-3517687Y-1588031D01*
X-3532221Y-1583810*
X-3544420Y-1578033*
X-3555615Y-1570492*
X-3565554Y-1561359*
X-3574011Y-1550839*
X-3580796Y-1539170*
X-3585754Y-1526616*
X-3588775Y-1513460*
X-3589790Y-1500000*
X-3589594Y-1494070*
X-3589007Y-1488165*
X-3586227Y-1474957*
X-3581498Y-1462315*
X-3574928Y-1450523*
X-3566665Y-1439850*
X-3556895Y-1430537*
X-3545839Y-1422793*
X-3533748Y-1416794*
X-3520893Y-1412675*
X-3507567Y-1410530*
X-3494070Y-1410406*
X-3480707Y-1412308*
X-3467779Y-1416191*
X-3455580Y-1421968*
X-3444384Y-1429509*
X-3434446Y-1438642*
X-3425989Y-1449162*
X-3419204Y-1460831*
X-3414245Y-1473385*
X-3411225Y-1486541*
X-3410210Y-1500001*
X-3410792Y-1510206*
X-3413330Y-1523463*
X-3417826Y-1536190*
X-3424180Y-1548100*
X-3432246Y-1558922*
X-3441845Y-1568412*
X-3452757Y-1576357*
X-3464737Y-1582576*
X-3477514Y-1586929*
X-3490799Y-1589318*
X-3504291Y-1589688*
G37*
G36*
Y-3989688D02*
G01X-3517687Y-3988031D01*
X-3532221Y-3983810*
X-3544420Y-3978033*
X-3555615Y-3970492*
X-3565554Y-3961359*
X-3574011Y-3950839*
X-3580796Y-3939170*
X-3585754Y-3926616*
X-3588775Y-3913460*
X-3589790Y-3900000*
X-3589594Y-3894070*
X-3589007Y-3888165*
X-3586227Y-3874957*
X-3581498Y-3862315*
X-3574928Y-3850523*
X-3566665Y-3839850*
X-3556895Y-3830537*
X-3545839Y-3822793*
X-3533748Y-3816794*
X-3520893Y-3812675*
X-3507567Y-3810530*
X-3494070Y-3810406*
X-3480707Y-3812308*
X-3467779Y-3816191*
X-3455580Y-3821968*
X-3444384Y-3829509*
X-3434446Y-3838642*
X-3425989Y-3849162*
X-3419204Y-3860831*
X-3414245Y-3873385*
X-3411225Y-3886541*
X-3410210Y-3900001*
X-3410792Y-3910206*
X-3413330Y-3923463*
X-3417826Y-3936190*
X-3424180Y-3948100*
X-3432246Y-3958922*
X-3441845Y-3968412*
X-3452757Y-3976357*
X-3464737Y-3982576*
X-3477514Y-3986929*
X-3490799Y-3989318*
X-3504291Y-3989688*
G37*
G36*
Y-6389688D02*
G01X-3517687Y-6388031D01*
X-3532221Y-6383810*
X-3544420Y-6378033*
X-3555615Y-6370492*
X-3565554Y-6361359*
X-3574011Y-6350839*
X-3580796Y-6339170*
X-3585754Y-6326616*
X-3588775Y-6313460*
X-3589790Y-6300000*
X-3589594Y-6294070*
X-3589007Y-6288165*
X-3586227Y-6274957*
X-3581498Y-6262315*
X-3574928Y-6250523*
X-3566665Y-6239850*
X-3556895Y-6230537*
X-3545839Y-6222793*
X-3533748Y-6216794*
X-3520893Y-6212675*
X-3507567Y-6210530*
X-3494070Y-6210406*
X-3480707Y-6212308*
X-3467779Y-6216191*
X-3455580Y-6221968*
X-3444384Y-6229509*
X-3434446Y-6238642*
X-3425989Y-6249162*
X-3419204Y-6260831*
X-3414245Y-6273385*
X-3411225Y-6286541*
X-3410210Y-6300001*
X-3410792Y-6310206*
X-3413330Y-6323463*
X-3417826Y-6336190*
X-3424180Y-6348100*
X-3432246Y-6358922*
X-3441845Y-6368412*
X-3452757Y-6376357*
X-3464737Y-6382576*
X-3477514Y-6386929*
X-3490799Y-6389318*
X-3504291Y-6389688*
G37*
G36*
X3500000Y810210D02*
G01X3495708Y810312D01*
X3482312Y811969*
X3467779Y816190*
X3455579Y821967*
X3444384Y829508*
X3434445Y838641*
X3425988Y849161*
X3419204Y860830*
X3414245Y873385*
X3411224Y886540*
X3410210Y900000*
X3410406Y905930*
X3410993Y911835*
X3412307Y919293*
X3416190Y932221*
X3421967Y944420*
X3429508Y955615*
X3438641Y965554*
X3449161Y974011*
X3460830Y980796*
X3473384Y985754*
X3486540Y988775*
X3500000Y989790*
X3505930Y989594*
X3519293Y987692*
X3532221Y983809*
X3544420Y978032*
X3555615Y970492*
X3565554Y961358*
X3574011Y950838*
X3580796Y939169*
X3585754Y926615*
X3588775Y913459*
X3589790Y900000*
X3589208Y889794*
X3586670Y876537*
X3583809Y867779*
X3578032Y855580*
X3570492Y844384*
X3561358Y834446*
X3550838Y825988*
X3539169Y819204*
X3526615Y814245*
X3513460Y811224*
X3500000Y810210*
G37*
G36*
Y-989790D02*
G01X3495708Y-989687D01*
X3482312Y-988031*
X3467779Y-983809*
X3455580Y-978032*
X3444384Y-970492*
X3434446Y-961358*
X3425988Y-950838*
X3419204Y-939169*
X3414245Y-926615*
X3411224Y-913459*
X3410210Y-900000*
X3410406Y-894069*
X3410993Y-888165*
X3412307Y-880706*
X3416190Y-867779*
X3421967Y-855579*
X3429508Y-844384*
X3438641Y-834446*
X3449161Y-825988*
X3460830Y-819204*
X3473384Y-814245*
X3486540Y-811224*
X3500000Y-810210*
X3505930Y-810406*
X3519294Y-812307*
X3532221Y-816190*
X3544420Y-821967*
X3555616Y-829508*
X3565554Y-838641*
X3574011Y-849161*
X3580796Y-860830*
X3585755Y-873385*
X3588775Y-886540*
X3589790Y-900000*
X3589208Y-910206*
X3586670Y-923463*
X3583809Y-932221*
X3578032Y-944420*
X3570492Y-955615*
X3561358Y-965554*
X3550838Y-974011*
X3539169Y-980796*
X3526615Y-985754*
X3513460Y-988775*
X3500000Y-989790*
G37*
G36*
Y-1589790D02*
G01X3495708Y-1589688D01*
X3482312Y-1588031*
X3467779Y-1583810*
X3455579Y-1578033*
X3444384Y-1570492*
X3434445Y-1561359*
X3425988Y-1550839*
X3419204Y-1539170*
X3414245Y-1526615*
X3411224Y-1513460*
X3410210Y-1500000*
X3410406Y-1494070*
X3410993Y-1488165*
X3412307Y-1480707*
X3416190Y-1467779*
X3421967Y-1455580*
X3429508Y-1444385*
X3438641Y-1434446*
X3449161Y-1425989*
X3460830Y-1419204*
X3473384Y-1414246*
X3486540Y-1411225*
X3500000Y-1410210*
X3505930Y-1410406*
X3519293Y-1412308*
X3532221Y-1416191*
X3544420Y-1421968*
X3555615Y-1429508*
X3565554Y-1438642*
X3574011Y-1449162*
X3580796Y-1460831*
X3585754Y-1473385*
X3588775Y-1486541*
X3589790Y-1500000*
X3589208Y-1510206*
X3586670Y-1523463*
X3583809Y-1532221*
X3578032Y-1544420*
X3570492Y-1555616*
X3561358Y-1565554*
X3550838Y-1574012*
X3539169Y-1580796*
X3526615Y-1585755*
X3513460Y-1588776*
X3500000Y-1589790*
G37*
G36*
Y-3389790D02*
G01X3495708Y-3389687D01*
X3482312Y-3388031*
X3467779Y-3383809*
X3455580Y-3378032*
X3444384Y-3370492*
X3434446Y-3361358*
X3425988Y-3350838*
X3419204Y-3339169*
X3414245Y-3326615*
X3411224Y-3313459*
X3410210Y-3300000*
X3410406Y-3294069*
X3410993Y-3288165*
X3412307Y-3280706*
X3416190Y-3267779*
X3421967Y-3255579*
X3429508Y-3244384*
X3438641Y-3234446*
X3449161Y-3225988*
X3460830Y-3219204*
X3473384Y-3214245*
X3486540Y-3211224*
X3500000Y-3210210*
X3505930Y-3210406*
X3519294Y-3212307*
X3532221Y-3216190*
X3544420Y-3221967*
X3555616Y-3229508*
X3565554Y-3238641*
X3574011Y-3249161*
X3580796Y-3260830*
X3585755Y-3273385*
X3588775Y-3286540*
X3589790Y-3300000*
X3589208Y-3310206*
X3586670Y-3323463*
X3583809Y-3332221*
X3578032Y-3344420*
X3570492Y-3355615*
X3561358Y-3365554*
X3550838Y-3374011*
X3539169Y-3380796*
X3526615Y-3385754*
X3513460Y-3388775*
X3500000Y-3389790*
G37*
G36*
Y-3989790D02*
G01X3495708Y-3989688D01*
X3482312Y-3988031*
X3467779Y-3983810*
X3455579Y-3978033*
X3444384Y-3970492*
X3434445Y-3961359*
X3425988Y-3950839*
X3419204Y-3939170*
X3414245Y-3926615*
X3411224Y-3913460*
X3410210Y-3900000*
X3410406Y-3894070*
X3410993Y-3888165*
X3412307Y-3880707*
X3416190Y-3867779*
X3421967Y-3855580*
X3429508Y-3844385*
X3438641Y-3834446*
X3449161Y-3825989*
X3460830Y-3819204*
X3473384Y-3814246*
X3486540Y-3811225*
X3500000Y-3810210*
X3505930Y-3810406*
X3519293Y-3812308*
X3532221Y-3816191*
X3544420Y-3821968*
X3555615Y-3829508*
X3565554Y-3838642*
X3574011Y-3849162*
X3580796Y-3860831*
X3585754Y-3873385*
X3588775Y-3886541*
X3589790Y-3900000*
X3589208Y-3910206*
X3586670Y-3923463*
X3583809Y-3932221*
X3578032Y-3944420*
X3570492Y-3955616*
X3561358Y-3965554*
X3550838Y-3974012*
X3539169Y-3980796*
X3526615Y-3985755*
X3513460Y-3988776*
X3500000Y-3989790*
G37*
G36*
Y-5789790D02*
G01X3495708Y-5789687D01*
X3482312Y-5788031*
X3467779Y-5783809*
X3455580Y-5778032*
X3444384Y-5770492*
X3434446Y-5761358*
X3425988Y-5750838*
X3419204Y-5739169*
X3414245Y-5726615*
X3411224Y-5713459*
X3410210Y-5700000*
X3410406Y-5694069*
X3410993Y-5688165*
X3412307Y-5680706*
X3416190Y-5667779*
X3421967Y-5655579*
X3429508Y-5644384*
X3438641Y-5634446*
X3449161Y-5625988*
X3460830Y-5619204*
X3473384Y-5614245*
X3486540Y-5611224*
X3500000Y-5610210*
X3505930Y-5610406*
X3519294Y-5612307*
X3532221Y-5616190*
X3544420Y-5621967*
X3555616Y-5629508*
X3565554Y-5638641*
X3574011Y-5649161*
X3580796Y-5660830*
X3585755Y-5673385*
X3588775Y-5686540*
X3589790Y-5700000*
X3589208Y-5710206*
X3586670Y-5723463*
X3583809Y-5732221*
X3578032Y-5744420*
X3570492Y-5755615*
X3561358Y-5765554*
X3550838Y-5774011*
X3539169Y-5780796*
X3526615Y-5785754*
X3513460Y-5788775*
X3500000Y-5789790*
G37*
G36*
Y-6389790D02*
G01X3495708Y-6389688D01*
X3482312Y-6388031*
X3467779Y-6383810*
X3455579Y-6378033*
X3444384Y-6370492*
X3434445Y-6361359*
X3425988Y-6350839*
X3419204Y-6339170*
X3414245Y-6326615*
X3411224Y-6313460*
X3410210Y-6300000*
X3410406Y-6294070*
X3410993Y-6288165*
X3412307Y-6280707*
X3416190Y-6267779*
X3421967Y-6255580*
X3429508Y-6244385*
X3438641Y-6234446*
X3449161Y-6225989*
X3460830Y-6219204*
X3473384Y-6214246*
X3486540Y-6211225*
X3500000Y-6210210*
X3505930Y-6210406*
X3519293Y-6212308*
X3532221Y-6216191*
X3544420Y-6221968*
X3555615Y-6229508*
X3565554Y-6238642*
X3574011Y-6249162*
X3580796Y-6260831*
X3585754Y-6273385*
X3588775Y-6286541*
X3589790Y-6300000*
X3589208Y-6310206*
X3586670Y-6323463*
X3583809Y-6332221*
X3578032Y-6344420*
X3570492Y-6355616*
X3561358Y-6365554*
X3550838Y-6374012*
X3539169Y-6380796*
X3526615Y-6385755*
X3513460Y-6388776*
X3500000Y-6389790*
G37*
G36*
Y-8189790D02*
G01X3495708Y-8189687D01*
X3482312Y-8188031*
X3467779Y-8183809*
X3455580Y-8178032*
X3444384Y-8170492*
X3434446Y-8161358*
X3425988Y-8150838*
X3419204Y-8139169*
X3414245Y-8126615*
X3411224Y-8113459*
X3410210Y-8100000*
X3410406Y-8094069*
X3410993Y-8088165*
X3412307Y-8080706*
X3416190Y-8067779*
X3421967Y-8055579*
X3429508Y-8044384*
X3438641Y-8034446*
X3449161Y-8025988*
X3460830Y-8019204*
X3473384Y-8014245*
X3486540Y-8011224*
X3500000Y-8010210*
X3505930Y-8010406*
X3519294Y-8012307*
X3532221Y-8016190*
X3544420Y-8021967*
X3555616Y-8029508*
X3565554Y-8038641*
X3574011Y-8049161*
X3580796Y-8060830*
X3585755Y-8073385*
X3588775Y-8086540*
X3589790Y-8100000*
X3589208Y-8110206*
X3586670Y-8123463*
X3583809Y-8132221*
X3578032Y-8144420*
X3570492Y-8155615*
X3561358Y-8165554*
X3550838Y-8174011*
X3539169Y-8180796*
X3526615Y-8185754*
X3513460Y-8188775*
X3500000Y-8189790*
G37*
G54D10*
X-3300000Y119000D03*
Y-130990D03*
Y369010D03*
G54D46*
X2599720Y630200D03*
X2300000D03*
X2599720Y300000D03*
X2300000D03*
G54D11*
X-3300000Y-381000D03*
G54D20*
X-2607950Y-393980D03*
Y-206020D03*
X-2392050Y-300000D03*
X-2007950Y706020D03*
Y893980D03*
X-1792050Y800000D03*
X907950Y-400000D03*
X692050Y-493980D03*
Y-306020D03*
G54D45*
X2449860Y465100D03*
G54D24*
X2900000Y-88900D03*
Y88900D03*
G54D23*
X-2411100Y-900000D03*
X-2588900D03*
X-2411100Y-600000D03*
X-2588900D03*
X-1988900Y0D03*
X-2411100D03*
X-2588900D03*
X-1988900Y300000D03*
X-2588900Y900000D03*
X-2411100D03*
Y300000D03*
X-2588900D03*
Y600000D03*
X-2411100D03*
X-1211100Y0D03*
X-1388900D03*
X-1811100D03*
Y300000D03*
X-1211100D03*
X-1388900D03*
X-1211100Y600000D03*
X-1388900D03*
X-1211100Y900000D03*
X-1388900D03*
X-688900Y-600000D03*
X-511100D03*
Y900000D03*
X-688900D03*
X211100Y-600000D03*
X388900D03*
Y-300000D03*
X211100D03*
X388900Y0D03*
X211100D03*
Y600000D03*
X388900D03*
X211100Y300000D03*
X388900D03*
X888900Y0D03*
X711100D03*
Y300000D03*
X888900D03*
X1811100Y900000D03*
X1988900D03*
X2488900D03*
X2311100D03*
X3088900D03*
X2911100D03*
X3088900Y600000D03*
X2911100D03*
G54D25*
X-1930150Y-281590D03*
X-1699010D03*
X-1467870D03*
G54D13*
X3500000Y-100000D03*
Y0D03*
Y100000D03*
G54D12*
X-2100000Y300000D03*
X-1211100Y-188900D03*
X-1600000Y600000D03*
X-1792050Y992050D03*
X-1000000Y900000D03*
X-800000Y700000D03*
X-100000Y-200000D03*
X0Y500000D03*
X500000Y-300000D03*
X600000Y700000D03*
X1400000Y900000D03*
X2690780Y-9220D03*
X2449860Y714020D03*
X1988900Y711100D03*
X2200000Y900000D03*
X2690780Y800000D03*
X3300000Y-100000D03*
X3100000Y0D03*
X3300000Y100000D03*
X3200000Y900000D03*
G54D27*
X-1699010Y-916590D03*
G54D21*
X-436500Y-179400D03*
X-563500D03*
X-690500D03*
Y379400D03*
X-563500D03*
X-436500D03*
X-309500Y-179400D03*
Y379400D03*
G54D26*
X1400000Y426240D03*
Y773760D03*
G54D22*
X1798400Y300000D03*
X2001600D03*
G54D10*
X-3300000Y-2281000D03*
Y-2530990D03*
Y-2030990D03*
G54D46*
X2599720Y-1769800D03*
X2300000D03*
X2599720Y-2100000D03*
X2300000D03*
G54D11*
X-3300000Y-2781000D03*
G54D20*
X-2607950Y-2793980D03*
Y-2606020D03*
X-2392050Y-2700000D03*
X-2007950Y-1693980D03*
Y-1506020D03*
X-1792050Y-1600000D03*
X907950Y-2800000D03*
X692050Y-2893980D03*
Y-2706020D03*
G54D45*
X2449860Y-1934900D03*
G54D24*
X2900000Y-2488900D03*
Y-2311100D03*
G54D23*
X-2411100Y-3300000D03*
X-2588900D03*
X-2411100Y-3000000D03*
X-2588900D03*
X-1988900Y-2400000D03*
X-2411100D03*
X-2588900D03*
X-1988900Y-2100000D03*
X-2588900Y-1500000D03*
X-2411100D03*
Y-2100000D03*
X-2588900D03*
Y-1800000D03*
X-2411100D03*
X-1211100Y-2400000D03*
X-1388900D03*
X-1811100D03*
Y-2100000D03*
X-1211100D03*
X-1388900D03*
X-1211100Y-1800000D03*
X-1388900D03*
X-1211100Y-1500000D03*
X-1388900D03*
X-688900Y-3000000D03*
X-511100D03*
Y-1500000D03*
X-688900D03*
X211100Y-3000000D03*
X388900D03*
Y-2700000D03*
X211100D03*
X388900Y-2400000D03*
X211100D03*
Y-1800000D03*
X388900D03*
X211100Y-2100000D03*
X388900D03*
X888900Y-2400000D03*
X711100D03*
Y-2100000D03*
X888900D03*
X1811100Y-1500000D03*
X1988900D03*
X2488900D03*
X2311100D03*
X3088900D03*
X2911100D03*
X3088900Y-1800000D03*
X2911100D03*
G54D25*
X-1930150Y-2681590D03*
X-1699010D03*
X-1467870D03*
G54D13*
X3500000Y-2500000D03*
Y-2400000D03*
Y-2300000D03*
G54D12*
X-2100000Y-2100000D03*
X-1211100Y-2588900D03*
X-1600000Y-1800000D03*
X-1792050Y-1407950D03*
X-1000000Y-1500000D03*
X-800000Y-1700000D03*
X-100000Y-2600000D03*
X0Y-1900000D03*
X500000Y-2700000D03*
X600000Y-1700000D03*
X1400000Y-1500000D03*
X2690780Y-2409220D03*
X2449860Y-1685980D03*
X1988900Y-1688900D03*
X2200000Y-1500000D03*
X2690780Y-1600000D03*
X3300000Y-2500000D03*
X3100000Y-2400000D03*
X3300000Y-2300000D03*
X3200000Y-1500000D03*
G54D27*
X-1699010Y-3316590D03*
G54D21*
X-436500Y-2579400D03*
X-563500D03*
X-690500D03*
Y-2020600D03*
X-563500D03*
X-436500D03*
X-309500Y-2579400D03*
Y-2020600D03*
G54D26*
X1400000Y-1973760D03*
Y-1626240D03*
G54D22*
X1798400Y-2100000D03*
X2001600D03*
G54D10*
X-3300000Y-4681000D03*
Y-4930990D03*
Y-4430990D03*
G54D46*
X2599720Y-4169800D03*
X2300000D03*
X2599720Y-4500000D03*
X2300000D03*
G54D11*
X-3300000Y-5181000D03*
G54D20*
X-2607950Y-5193980D03*
Y-5006020D03*
X-2392050Y-5100000D03*
X-2007950Y-4093980D03*
Y-3906020D03*
X-1792050Y-4000000D03*
X907950Y-5200000D03*
X692050Y-5293980D03*
Y-5106020D03*
G54D45*
X2449860Y-4334900D03*
G54D24*
X2900000Y-4888900D03*
Y-4711100D03*
G54D23*
X-2411100Y-5700000D03*
X-2588900D03*
X-2411100Y-5400000D03*
X-2588900D03*
X-1988900Y-4800000D03*
X-2411100D03*
X-2588900D03*
X-1988900Y-4500000D03*
X-2588900Y-3900000D03*
X-2411100D03*
Y-4500000D03*
X-2588900D03*
Y-4200000D03*
X-2411100D03*
X-1211100Y-4800000D03*
X-1388900D03*
X-1811100D03*
Y-4500000D03*
X-1211100D03*
X-1388900D03*
X-1211100Y-4200000D03*
X-1388900D03*
X-1211100Y-3900000D03*
X-1388900D03*
X-688900Y-5400000D03*
X-511100D03*
Y-3900000D03*
X-688900D03*
X211100Y-5400000D03*
X388900D03*
Y-5100000D03*
X211100D03*
X388900Y-4800000D03*
X211100D03*
Y-4200000D03*
X388900D03*
X211100Y-4500000D03*
X388900D03*
X888900Y-4800000D03*
X711100D03*
Y-4500000D03*
X888900D03*
X1811100Y-3900000D03*
X1988900D03*
X2488900D03*
X2311100D03*
X3088900D03*
X2911100D03*
X3088900Y-4200000D03*
X2911100D03*
G54D25*
X-1930150Y-5081590D03*
X-1699010D03*
X-1467870D03*
G54D13*
X3500000Y-4900000D03*
Y-4800000D03*
Y-4700000D03*
G54D12*
X-2100000Y-4500000D03*
X-1211100Y-4988900D03*
X-1600000Y-4200000D03*
X-1792050Y-3807950D03*
X-1000000Y-3900000D03*
X-800000Y-4100000D03*
X-100000Y-5000000D03*
X0Y-4300000D03*
X500000Y-5100000D03*
X600000Y-4100000D03*
X1400000Y-3900000D03*
X2690780Y-4809220D03*
X2449860Y-4085980D03*
X1988900Y-4088900D03*
X2200000Y-3900000D03*
X2690780Y-4000000D03*
X3300000Y-4900000D03*
X3100000Y-4800000D03*
X3300000Y-4700000D03*
X3200000Y-3900000D03*
G54D27*
X-1699010Y-5716590D03*
G54D21*
X-436500Y-4979400D03*
X-563500D03*
X-690500D03*
Y-4420600D03*
X-563500D03*
X-436500D03*
X-309500Y-4979400D03*
Y-4420600D03*
G54D26*
X1400000Y-4373760D03*
Y-4026240D03*
G54D22*
X1798400Y-4500000D03*
X2001600D03*
G54D14*
X-2607950Y-206020D02*
G01X-2706030D01*
X-2800000Y-299990*
Y-500000*
X-2700000Y-600000*
X-2588900*
Y-900000D02*
G01X-2673050D01*
X-3192050Y-381000*
X-3300000*
X-2588900Y-600000D02*
G01Y-709500D01*
X-2411100Y-887300*
Y-900000*
X-2588900Y0D02*
G01Y109500D01*
X-2411100Y287300*
Y300000*
X-2392050Y-300000D02*
G01Y-107950D01*
X-2411100Y-88900*
Y0*
Y300000D02*
G01Y600000D01*
X-2007950Y893980D02*
G01Y893970D01*
X-1932740Y818760*
X-1919050Y805060*
Y658480*
X-1941360Y636170*
X-2136170*
X-2298400Y798400*
X-2500000*
X-2588900Y887300*
Y900000D02*
G01Y887300D01*
Y887300D02*
G01Y600000D01*
X-1211100Y900000D02*
G01X-1000000D01*
X-1388900Y600000D02*
G01Y511100D01*
X-1279400Y401600*
X-1144510*
X-690500Y-52410*
Y-179400*
X-1211100Y600000D02*
G01Y709500D01*
X-1388900Y887300*
Y900000*
X-436500Y379400D02*
G01Y263500D01*
X-500000Y200000*
X-700000*
X-1100000Y600000*
X-1211100*
X-688900Y-600000D02*
G01Y-295300D01*
X-690500Y-293700*
Y-179400*
X-563500D02*
G01Y-458700D01*
X-511100Y-511100*
Y-600000*
X2911100Y900000D02*
G01Y912700D01*
X2822200Y1001600*
X1744510*
X1742910Y1000000*
X1100000*
X1000000Y900000*
X-511100*
X-1000000D02*
G01X-688900D01*
X-563500Y379400D02*
G01Y663500D01*
X-688900Y788900*
Y900000*
X211100Y300000D02*
G01Y0D01*
Y300000D02*
G01X-172950D01*
X-252350Y379400*
X-309500*
X388900Y600000D02*
G01Y300000D01*
X711100D02*
G01X388900D01*
X888900Y0D02*
G01Y-245610D01*
X800000Y-334510*
Y-405080*
X711100Y-493980*
X692050*
X711100Y0D02*
G01Y300000D01*
X692050Y-306020D02*
G01Y-107950D01*
X711100Y-88900*
Y0*
X2599720Y300000D02*
G01X2700000D01*
X2911100Y511100*
Y600000*
Y900000D02*
G01Y600000D01*
G54D15*
X-2869010Y300000D02*
G01X-3300000Y-130990D01*
X-2411100Y900000D02*
G01Y912700D01*
X-2512700Y1014300*
X-2785700*
X-2869010Y930990*
Y300000*
X-2588900D02*
G01X-2869010D01*
X-1988900Y0D02*
G01Y-12700D01*
X-2200000Y-223800*
Y-376200*
X-2411100Y-587300*
Y-587300D02*
G01Y-600000D01*
Y-587300D02*
G01Y-571780D01*
X-2588900Y-393980*
X-2607950*
X-1988900Y0D02*
G01Y300000D01*
X-1930150Y-281590D02*
G01Y-131750D01*
X-1811100Y-12700*
Y0*
X-1988900Y300000D02*
G01X-2100000D01*
X-2411100Y900000D02*
G01X-2220980D01*
X-2027000Y706020*
X-2007950*
X-1699010Y-281590D02*
G01Y-916590D01*
X-1211100Y300000D02*
G01Y0D01*
Y0D02*
G01Y-188900D01*
X-1467870Y-281590D02*
G01X-1303790D01*
X-1211100Y-188900*
X-1811100Y0D02*
G01Y300000D01*
X-1388900Y0D02*
G01Y-12700D01*
X-1476200Y-100000*
X-1638070*
X-1699010Y-160940*
Y-281590*
X-1388900Y0D02*
G01Y300000D01*
X-1792050Y800000D02*
G01Y420650D01*
X-1811100Y401600*
Y300000*
X-1792050Y800000D02*
G01Y992050D01*
X-1600000Y600000D02*
G01Y523800D01*
X-1388900Y312700*
Y300000*
X211100Y-312700D02*
G01X133350Y-390450D01*
X120650*
X111100Y-400000*
X-342900*
X-436500Y-306400*
Y-179400*
X-690500Y379400D02*
G01Y590500D01*
X-800000Y700000*
X388900Y-600000D02*
G01X777800D01*
X907950Y-469850*
Y-400000*
X388900Y-300000D02*
G01Y-600000D01*
X211100Y-312700D02*
G01Y-600000D01*
Y-600000D02*
G01Y-749200D01*
X261900Y-800000*
X2900000*
X3500000Y-200000*
Y-100000*
X388900Y-300000D02*
G01Y0D01*
Y-300000D02*
G01X500000D01*
X-309500Y-179400D02*
G01X-120600D01*
X-100000Y-200000*
X211100Y-312700D02*
G01Y-300000D01*
Y600000D02*
G01X100000D01*
X0Y500000*
X888900Y300000D02*
G01Y411100D01*
X600000Y700000*
X1798400Y300000D02*
G01X1511000D01*
X1400000Y411000*
Y426240*
X1798400Y300000D02*
G01Y439700D01*
X1800000Y441300*
Y449200*
X1850800Y500000*
X2092230*
X2224640Y367590*
X2251460*
X2300000Y319050*
Y300000*
X1400000Y900000D02*
G01Y773760D01*
Y773760D02*
G01X1697560D01*
X1811100Y887300*
Y900000*
X2449860Y465100D02*
G01Y250800D01*
X2500660Y200000*
X2900000*
X3088900Y388900*
Y600000*
X2690780Y-9220D02*
G01X2770460Y-88900D01*
X2900000*
Y88900D02*
G01X2798400D01*
X2787300Y100000*
X2061900*
X2001600Y160300*
Y300000*
X1988900Y900000D02*
G01Y711100D01*
Y711100D02*
G01X2234900Y465100D01*
X2449860*
Y465100D02*
G01Y714020D01*
X2300000Y630200D02*
G01Y787300D01*
X2311100Y798400*
Y900000*
X2200000D02*
G01X2311100D01*
X2690780Y791640D02*
G01X2666480D01*
X2599720Y724880*
Y630200*
X2488900Y900000D02*
G01X2582420D01*
X2690780Y791640*
Y791640D02*
G01Y800000D01*
X3300000Y-100000D02*
G01X3500000D01*
X3100000Y0D02*
G01X3011100Y-88900D01*
X2900000*
X3300000Y100000D02*
G01X3012700D01*
X3001600Y88900*
X2900000*
X3088900Y900000D02*
G01Y600000D01*
Y900000D02*
G01X3200000D01*
G54D14*
X-2607950Y-2606020D02*
G01X-2706030D01*
X-2800000Y-2699990*
Y-2900000*
X-2700000Y-3000000*
X-2588900*
Y-3300000D02*
G01X-2673050D01*
X-3192050Y-2781000*
X-3300000*
X-2588900Y-3000000D02*
G01Y-3109500D01*
X-2411100Y-3287300*
Y-3300000*
X-2588900Y-2400000D02*
G01Y-2290500D01*
X-2411100Y-2112700*
Y-2100000*
X-2392050Y-2700000D02*
G01Y-2507950D01*
X-2411100Y-2488900*
Y-2400000*
Y-2100000D02*
G01Y-1800000D01*
X-2007950Y-1506020D02*
G01Y-1506030D01*
X-1932740Y-1581240*
X-1919050Y-1594940*
Y-1741520*
X-1941360Y-1763830*
X-2136170*
X-2298400Y-1601600*
X-2500000*
X-2588900Y-1512700*
Y-1500000D02*
G01Y-1512700D01*
Y-1512700D02*
G01Y-1800000D01*
X-1211100Y-1500000D02*
G01X-1000000D01*
X-1388900Y-1800000D02*
G01Y-1888900D01*
X-1279400Y-1998400*
X-1144510*
X-690500Y-2452410*
Y-2579400*
X-1211100Y-1800000D02*
G01Y-1690500D01*
X-1388900Y-1512700*
Y-1500000*
X-436500Y-2020600D02*
G01Y-2136500D01*
X-500000Y-2200000*
X-700000*
X-1100000Y-1800000*
X-1211100*
X-688900Y-3000000D02*
G01Y-2695300D01*
X-690500Y-2693700*
Y-2579400*
X-563500D02*
G01Y-2858700D01*
X-511100Y-2911100*
Y-3000000*
X2911100Y-1500000D02*
G01Y-1487300D01*
X2822200Y-1398400*
X1744510*
X1742910Y-1400000*
X1100000*
X1000000Y-1500000*
X-511100*
X-1000000D02*
G01X-688900D01*
X-563500Y-2020600D02*
G01Y-1736500D01*
X-688900Y-1611100*
Y-1500000*
X211100Y-2100000D02*
G01Y-2400000D01*
Y-2100000D02*
G01X-172950D01*
X-252350Y-2020600*
X-309500*
X388900Y-1800000D02*
G01Y-2100000D01*
X711100D02*
G01X388900D01*
X888900Y-2400000D02*
G01Y-2645610D01*
X800000Y-2734510*
Y-2805080*
X711100Y-2893980*
X692050*
X711100Y-2400000D02*
G01Y-2100000D01*
X692050Y-2706020D02*
G01Y-2507950D01*
X711100Y-2488900*
Y-2400000*
X2599720Y-2100000D02*
G01X2700000D01*
X2911100Y-1888900*
Y-1800000*
Y-1500000D02*
G01Y-1800000D01*
G54D15*
X-2869010Y-2100000D02*
G01X-3300000Y-2530990D01*
X-2411100Y-1500000D02*
G01Y-1487300D01*
X-2512700Y-1385700*
X-2785700*
X-2869010Y-1469010*
Y-2100000*
X-2588900D02*
G01X-2869010D01*
X-1988900Y-2400000D02*
G01Y-2412700D01*
X-2200000Y-2623800*
Y-2776200*
X-2411100Y-2987300*
Y-2987300D02*
G01Y-3000000D01*
Y-2987300D02*
G01Y-2971780D01*
X-2588900Y-2793980*
X-2607950*
X-1988900Y-2400000D02*
G01Y-2100000D01*
X-1930150Y-2681590D02*
G01Y-2531750D01*
X-1811100Y-2412700*
Y-2400000*
X-1988900Y-2100000D02*
G01X-2100000D01*
X-2411100Y-1500000D02*
G01X-2220980D01*
X-2027000Y-1693980*
X-2007950*
X-1699010Y-2681590D02*
G01Y-3316590D01*
X-1211100Y-2100000D02*
G01Y-2400000D01*
Y-2400000D02*
G01Y-2588900D01*
X-1467870Y-2681590D02*
G01X-1303790D01*
X-1211100Y-2588900*
X-1811100Y-2400000D02*
G01Y-2100000D01*
X-1388900Y-2400000D02*
G01Y-2412700D01*
X-1476200Y-2500000*
X-1638070*
X-1699010Y-2560940*
Y-2681590*
X-1388900Y-2400000D02*
G01Y-2100000D01*
X-1792050Y-1600000D02*
G01Y-1979350D01*
X-1811100Y-1998400*
Y-2100000*
X-1792050Y-1600000D02*
G01Y-1407950D01*
X-1600000Y-1800000D02*
G01Y-1876200D01*
X-1388900Y-2087300*
Y-2100000*
X211100Y-2712700D02*
G01X133350Y-2790450D01*
X120650*
X111100Y-2800000*
X-342900*
X-436500Y-2706400*
Y-2579400*
X-690500Y-2020600D02*
G01Y-1809500D01*
X-800000Y-1700000*
X388900Y-3000000D02*
G01X777800D01*
X907950Y-2869850*
Y-2800000*
X388900Y-2700000D02*
G01Y-3000000D01*
X211100Y-2712700D02*
G01Y-3000000D01*
Y-3000000D02*
G01Y-3149200D01*
X261900Y-3200000*
X2900000*
X3500000Y-2600000*
Y-2500000*
X388900Y-2700000D02*
G01Y-2400000D01*
Y-2700000D02*
G01X500000D01*
X-309500Y-2579400D02*
G01X-120600D01*
X-100000Y-2600000*
X211100Y-2712700D02*
G01Y-2700000D01*
Y-1800000D02*
G01X100000D01*
X0Y-1900000*
X888900Y-2100000D02*
G01Y-1988900D01*
X600000Y-1700000*
X1798400Y-2100000D02*
G01X1511000D01*
X1400000Y-1989000*
Y-1973760*
X1798400Y-2100000D02*
G01Y-1960300D01*
X1800000Y-1958700*
Y-1950800*
X1850800Y-1900000*
X2092230*
X2224640Y-2032410*
X2251460*
X2300000Y-2080950*
Y-2100000*
X1400000Y-1500000D02*
G01Y-1626240D01*
Y-1626240D02*
G01X1697560D01*
X1811100Y-1512700*
Y-1500000*
X2449860Y-1934900D02*
G01Y-2149200D01*
X2500660Y-2200000*
X2900000*
X3088900Y-2011100*
Y-1800000*
X2690780Y-2409220D02*
G01X2770460Y-2488900D01*
X2900000*
Y-2311100D02*
G01X2798400D01*
X2787300Y-2300000*
X2061900*
X2001600Y-2239700*
Y-2100000*
X1988900Y-1500000D02*
G01Y-1688900D01*
Y-1688900D02*
G01X2234900Y-1934900D01*
X2449860*
Y-1934900D02*
G01Y-1685980D01*
X2300000Y-1769800D02*
G01Y-1612700D01*
X2311100Y-1601600*
Y-1500000*
X2200000D02*
G01X2311100D01*
X2690780Y-1608360D02*
G01X2666480D01*
X2599720Y-1675120*
Y-1769800*
X2488900Y-1500000D02*
G01X2582420D01*
X2690780Y-1608360*
Y-1608360D02*
G01Y-1600000D01*
X3300000Y-2500000D02*
G01X3500000D01*
X3100000Y-2400000D02*
G01X3011100Y-2488900D01*
X2900000*
X3300000Y-2300000D02*
G01X3012700D01*
X3001600Y-2311100*
X2900000*
X3088900Y-1500000D02*
G01Y-1800000D01*
Y-1500000D02*
G01X3200000D01*
G54D14*
X-2607950Y-5006020D02*
G01X-2706030D01*
X-2800000Y-5099990*
Y-5300000*
X-2700000Y-5400000*
X-2588900*
Y-5700000D02*
G01X-2673050D01*
X-3192050Y-5181000*
X-3300000*
X-2588900Y-5400000D02*
G01Y-5509500D01*
X-2411100Y-5687300*
Y-5700000*
X-2588900Y-4800000D02*
G01Y-4690500D01*
X-2411100Y-4512700*
Y-4500000*
X-2392050Y-5100000D02*
G01Y-4907950D01*
X-2411100Y-4888900*
Y-4800000*
Y-4500000D02*
G01Y-4200000D01*
X-2007950Y-3906020D02*
G01Y-3906030D01*
X-1932740Y-3981240*
X-1919050Y-3994940*
Y-4141520*
X-1941360Y-4163830*
X-2136170*
X-2298400Y-4001600*
X-2500000*
X-2588900Y-3912700*
Y-3900000D02*
G01Y-3912700D01*
Y-3912700D02*
G01Y-4200000D01*
X-1211100Y-3900000D02*
G01X-1000000D01*
X-1388900Y-4200000D02*
G01Y-4288900D01*
X-1279400Y-4398400*
X-1144510*
X-690500Y-4852410*
Y-4979400*
X-1211100Y-4200000D02*
G01Y-4090500D01*
X-1388900Y-3912700*
Y-3900000*
X-436500Y-4420600D02*
G01Y-4536500D01*
X-500000Y-4600000*
X-700000*
X-1100000Y-4200000*
X-1211100*
X-688900Y-5400000D02*
G01Y-5095300D01*
X-690500Y-5093700*
Y-4979400*
X-563500D02*
G01Y-5258700D01*
X-511100Y-5311100*
Y-5400000*
X2911100Y-3900000D02*
G01Y-3887300D01*
X2822200Y-3798400*
X1744510*
X1742910Y-3800000*
X1100000*
X1000000Y-3900000*
X-511100*
X-1000000D02*
G01X-688900D01*
X-563500Y-4420600D02*
G01Y-4136500D01*
X-688900Y-4011100*
Y-3900000*
X211100Y-4500000D02*
G01Y-4800000D01*
Y-4500000D02*
G01X-172950D01*
X-252350Y-4420600*
X-309500*
X388900Y-4200000D02*
G01Y-4500000D01*
X711100D02*
G01X388900D01*
X888900Y-4800000D02*
G01Y-5045610D01*
X800000Y-5134510*
Y-5205080*
X711100Y-5293980*
X692050*
X711100Y-4800000D02*
G01Y-4500000D01*
X692050Y-5106020D02*
G01Y-4907950D01*
X711100Y-4888900*
Y-4800000*
X2599720Y-4500000D02*
G01X2700000D01*
X2911100Y-4288900*
Y-4200000*
Y-3900000D02*
G01Y-4200000D01*
G54D15*
X-2869010Y-4500000D02*
G01X-3300000Y-4930990D01*
X-2411100Y-3900000D02*
G01Y-3887300D01*
X-2512700Y-3785700*
X-2785700*
X-2869010Y-3869010*
Y-4500000*
X-2588900D02*
G01X-2869010D01*
X-1988900Y-4800000D02*
G01Y-4812700D01*
X-2200000Y-5023800*
Y-5176200*
X-2411100Y-5387300*
Y-5387300D02*
G01Y-5400000D01*
Y-5387300D02*
G01Y-5371780D01*
X-2588900Y-5193980*
X-2607950*
X-1988900Y-4800000D02*
G01Y-4500000D01*
X-1930150Y-5081590D02*
G01Y-4931750D01*
X-1811100Y-4812700*
Y-4800000*
X-1988900Y-4500000D02*
G01X-2100000D01*
X-2411100Y-3900000D02*
G01X-2220980D01*
X-2027000Y-4093980*
X-2007950*
X-1699010Y-5081590D02*
G01Y-5716590D01*
X-1211100Y-4500000D02*
G01Y-4800000D01*
Y-4800000D02*
G01Y-4988900D01*
X-1467870Y-5081590D02*
G01X-1303790D01*
X-1211100Y-4988900*
X-1811100Y-4800000D02*
G01Y-4500000D01*
X-1388900Y-4800000D02*
G01Y-4812700D01*
X-1476200Y-4900000*
X-1638070*
X-1699010Y-4960940*
Y-5081590*
X-1388900Y-4800000D02*
G01Y-4500000D01*
X-1792050Y-4000000D02*
G01Y-4379350D01*
X-1811100Y-4398400*
Y-4500000*
X-1792050Y-4000000D02*
G01Y-3807950D01*
X-1600000Y-4200000D02*
G01Y-4276200D01*
X-1388900Y-4487300*
Y-4500000*
X211100Y-5112700D02*
G01X133350Y-5190450D01*
X120650*
X111100Y-5200000*
X-342900*
X-436500Y-5106400*
Y-4979400*
X-690500Y-4420600D02*
G01Y-4209500D01*
X-800000Y-4100000*
X388900Y-5400000D02*
G01X777800D01*
X907950Y-5269850*
Y-5200000*
X388900Y-5100000D02*
G01Y-5400000D01*
X211100Y-5112700D02*
G01Y-5400000D01*
Y-5400000D02*
G01Y-5549200D01*
X261900Y-5600000*
X2900000*
X3500000Y-5000000*
Y-4900000*
X388900Y-5100000D02*
G01Y-4800000D01*
Y-5100000D02*
G01X500000D01*
X-309500Y-4979400D02*
G01X-120600D01*
X-100000Y-5000000*
X211100Y-5112700D02*
G01Y-5100000D01*
Y-4200000D02*
G01X100000D01*
X0Y-4300000*
X888900Y-4500000D02*
G01Y-4388900D01*
X600000Y-4100000*
X1798400Y-4500000D02*
G01X1511000D01*
X1400000Y-4389000*
Y-4373760*
X1798400Y-4500000D02*
G01Y-4360300D01*
X1800000Y-4358700*
Y-4350800*
X1850800Y-4300000*
X2092230*
X2224640Y-4432410*
X2251460*
X2300000Y-4480950*
Y-4500000*
X1400000Y-3900000D02*
G01Y-4026240D01*
Y-4026240D02*
G01X1697560D01*
X1811100Y-3912700*
Y-3900000*
X2449860Y-4334900D02*
G01Y-4549200D01*
X2500660Y-4600000*
X2900000*
X3088900Y-4411100*
Y-4200000*
X2690780Y-4809220D02*
G01X2770460Y-4888900D01*
X2900000*
Y-4711100D02*
G01X2798400D01*
X2787300Y-4700000*
X2061900*
X2001600Y-4639700*
Y-4500000*
X1988900Y-3900000D02*
G01Y-4088900D01*
Y-4088900D02*
G01X2234900Y-4334900D01*
X2449860*
Y-4334900D02*
G01Y-4085980D01*
X2300000Y-4169800D02*
G01Y-4012700D01*
X2311100Y-4001600*
Y-3900000*
X2200000D02*
G01X2311100D01*
X2690780Y-4008360D02*
G01X2666480D01*
X2599720Y-4075120*
Y-4169800*
X2488900Y-3900000D02*
G01X2582420D01*
X2690780Y-4008360*
Y-4008360D02*
G01Y-4000000D01*
X3300000Y-4900000D02*
G01X3500000D01*
X3100000Y-4800000D02*
G01X3011100Y-4888900D01*
X2900000*
X3300000Y-4700000D02*
G01X3012700D01*
X3001600Y-4711100*
X2900000*
X3088900Y-3900000D02*
G01Y-4200000D01*
Y-3900000D02*
G01X3200000D01*
G54D14*
X-2607950Y-7406020D02*
G01X-2706030D01*
X-2800000Y-7499990*
Y-7700000*
X-2700000Y-7800000*
X-2588900*
Y-8100000D02*
G01X-2673050D01*
X-3192050Y-7581000*
X-3300000*
X-2588900Y-7800000D02*
G01Y-7909500D01*
X-2411100Y-8087300*
Y-8100000*
X-2588900Y-7200000D02*
G01Y-7090500D01*
X-2411100Y-6912700*
Y-6900000*
X-2392050Y-7500000D02*
G01Y-7307950D01*
X-2411100Y-7288900*
Y-7200000*
Y-6900000D02*
G01Y-6600000D01*
X-2007950Y-6306020D02*
G01Y-6306030D01*
X-1932740Y-6381240*
X-1919050Y-6394940*
Y-6541520*
X-1941360Y-6563830*
X-2136170*
X-2298400Y-6401600*
X-2500000*
X-2588900Y-6312700*
Y-6300000D02*
G01Y-6312700D01*
Y-6312700D02*
G01Y-6600000D01*
X-1211100Y-6300000D02*
G01X-1000000D01*
X-1388900Y-6600000D02*
G01Y-6688900D01*
X-1279400Y-6798400*
X-1144510*
X-690500Y-7252410*
Y-7379400*
X-1211100Y-6600000D02*
G01Y-6490500D01*
X-1388900Y-6312700*
Y-6300000*
X-436500Y-6820600D02*
G01Y-6936500D01*
X-500000Y-7000000*
X-700000*
X-1100000Y-6600000*
X-1211100*
X-688900Y-7800000D02*
G01Y-7495300D01*
X-690500Y-7493700*
Y-7379400*
X-563500D02*
G01Y-7658700D01*
X-511100Y-7711100*
Y-7800000*
X2911100Y-6300000D02*
G01Y-6287300D01*
X2822200Y-6198400*
X1744510*
X1742910Y-6200000*
X1100000*
X1000000Y-6300000*
X-511100*
X-1000000D02*
G01X-688900D01*
X-563500Y-6820600D02*
G01Y-6536500D01*
X-688900Y-6411100*
Y-6300000*
X211100Y-6900000D02*
G01Y-7200000D01*
Y-6900000D02*
G01X-172950D01*
X-252350Y-6820600*
X-309500*
X388900Y-6600000D02*
G01Y-6900000D01*
X711100D02*
G01X388900D01*
X888900Y-7200000D02*
G01Y-7445610D01*
X800000Y-7534510*
Y-7605080*
X711100Y-7693980*
X692050*
X711100Y-7200000D02*
G01Y-6900000D01*
X692050Y-7506020D02*
G01Y-7307950D01*
X711100Y-7288900*
Y-7200000*
X2599720Y-6900000D02*
G01X2700000D01*
X2911100Y-6688900*
Y-6600000*
Y-6300000D02*
G01Y-6600000D01*
G54D15*
X-2869010Y-6900000D02*
G01X-3300000Y-7330990D01*
X-2411100Y-6300000D02*
G01Y-6287300D01*
X-2512700Y-6185700*
X-2785700*
X-2869010Y-6269010*
Y-6900000*
X-2588900D02*
G01X-2869010D01*
X-1988900Y-7200000D02*
G01Y-7212700D01*
X-2200000Y-7423800*
Y-7576200*
X-2411100Y-7787300*
Y-7787300D02*
G01Y-7800000D01*
Y-7787300D02*
G01Y-7771780D01*
X-2588900Y-7593980*
X-2607950*
X-1988900Y-7200000D02*
G01Y-6900000D01*
X-1930150Y-7481590D02*
G01Y-7331750D01*
X-1811100Y-7212700*
Y-7200000*
X-1988900Y-6900000D02*
G01X-2100000D01*
X-2411100Y-6300000D02*
G01X-2220980D01*
X-2027000Y-6493980*
X-2007950*
X-1699010Y-7481590D02*
G01Y-8116590D01*
X-1211100Y-6900000D02*
G01Y-7200000D01*
Y-7200000D02*
G01Y-7388900D01*
X-1467870Y-7481590D02*
G01X-1303790D01*
X-1211100Y-7388900*
X-1811100Y-7200000D02*
G01Y-6900000D01*
X-1388900Y-7200000D02*
G01Y-7212700D01*
X-1476200Y-7300000*
X-1638070*
X-1699010Y-7360940*
Y-7481590*
X-1388900Y-7200000D02*
G01Y-6900000D01*
X-1792050Y-6400000D02*
G01Y-6779350D01*
X-1811100Y-6798400*
Y-6900000*
X-1792050Y-6400000D02*
G01Y-6207950D01*
X-1600000Y-6600000D02*
G01Y-6676200D01*
X-1388900Y-6887300*
Y-6900000*
X211100Y-7512700D02*
G01X133350Y-7590450D01*
X120650*
X111100Y-7600000*
X-342900*
X-436500Y-7506400*
Y-7379400*
X-690500Y-6820600D02*
G01Y-6609500D01*
X-800000Y-6500000*
X388900Y-7800000D02*
G01X777800D01*
X907950Y-7669850*
Y-7600000*
X388900Y-7500000D02*
G01Y-7800000D01*
X211100Y-7512700D02*
G01Y-7800000D01*
Y-7800000D02*
G01Y-7949200D01*
X261900Y-8000000*
X2900000*
X3500000Y-7400000*
Y-7300000*
X388900Y-7500000D02*
G01Y-7200000D01*
Y-7500000D02*
G01X500000D01*
X-309500Y-7379400D02*
G01X-120600D01*
X-100000Y-7400000*
X211100Y-7512700D02*
G01Y-7500000D01*
Y-6600000D02*
G01X100000D01*
X0Y-6700000*
X888900Y-6900000D02*
G01Y-6788900D01*
X600000Y-6500000*
X1798400Y-6900000D02*
G01X1511000D01*
X1400000Y-6789000*
Y-6773760*
X1798400Y-6900000D02*
G01Y-6760300D01*
X1800000Y-6758700*
Y-6750800*
X1850800Y-6700000*
X2092230*
X2224640Y-6832410*
X2251460*
X2300000Y-6880950*
Y-6900000*
X1400000Y-6300000D02*
G01Y-6426240D01*
Y-6426240D02*
G01X1697560D01*
X1811100Y-6312700*
Y-6300000*
X2449860Y-6734900D02*
G01Y-6949200D01*
X2500660Y-7000000*
X2900000*
X3088900Y-6811100*
Y-6600000*
X2690780Y-7209220D02*
G01X2770460Y-7288900D01*
X2900000*
Y-7111100D02*
G01X2798400D01*
X2787300Y-7100000*
X2061900*
X2001600Y-7039700*
Y-6900000*
X1988900Y-6300000D02*
G01Y-6488900D01*
Y-6488900D02*
G01X2234900Y-6734900D01*
X2449860*
Y-6734900D02*
G01Y-6485980D01*
X2300000Y-6569800D02*
G01Y-6412700D01*
X2311100Y-6401600*
Y-6300000*
X2200000D02*
G01X2311100D01*
X2690780Y-6408360D02*
G01X2666480D01*
X2599720Y-6475120*
Y-6569800*
X2488900Y-6300000D02*
G01X2582420D01*
X2690780Y-6408360*
Y-6408360D02*
G01Y-6400000D01*
X3300000Y-7300000D02*
G01X3500000D01*
X3100000Y-7200000D02*
G01X3011100Y-7288900D01*
X2900000*
X3300000Y-7100000D02*
G01X3012700D01*
X3001600Y-7111100*
X2900000*
X3088900Y-6300000D02*
G01Y-6600000D01*
Y-6300000D02*
G01X3200000D01*
M02*
