G04 Layer_Color=8388736*
%FSLAX25Y25*%
%MOIN*%
G70*
G01*
G75*
%ADD21C,0.01000*%
%ADD22C,0.00100*%
%ADD42C,0.01600*%
%ADD43C,0.00500*%
%ADD44C,0.01200*%
%ADD45C,0.00787*%
%ADD46C,0.00600*%
%ADD47C,0.00230*%
D21*
X505256Y99800D02*
X530256D01*
X505256D02*
Y112800D01*
X530256D01*
Y99800D02*
Y112800D01*
X614642Y119638D02*
X617642D01*
X614642Y108638D02*
Y119638D01*
Y108638D02*
X617642D01*
Y119638D01*
X484721Y123575D02*
X487720D01*
X484721Y112575D02*
Y123575D01*
Y112575D02*
X487720D01*
Y123575D01*
X508343Y166882D02*
X511342D01*
X508343Y155882D02*
Y166882D01*
Y155882D02*
X511342D01*
Y166882D01*
X505256Y194300D02*
X530256D01*
X505256D02*
Y207300D01*
X530256D01*
Y194300D02*
Y207300D01*
X614642Y214138D02*
X617642D01*
X614642Y203138D02*
Y214138D01*
Y203138D02*
X617642D01*
Y214138D01*
X484721Y218075D02*
X487720D01*
X484721Y207075D02*
Y218075D01*
Y207075D02*
X487720D01*
Y218075D01*
X508343Y261382D02*
X511342D01*
X508343Y250382D02*
Y261382D01*
Y250382D02*
X511342D01*
Y261382D01*
X505256Y288800D02*
X530256D01*
X505256D02*
Y301800D01*
X530256D01*
Y288800D02*
Y301800D01*
X614642Y308638D02*
X617642D01*
X614642Y297638D02*
Y308638D01*
Y297638D02*
X617642D01*
Y308638D01*
X484721Y312575D02*
X487720D01*
X484721Y301575D02*
Y312575D01*
Y301575D02*
X487720D01*
Y312575D01*
X508343Y355882D02*
X511342D01*
X508343Y344882D02*
Y355882D01*
Y344882D02*
X511342D01*
Y355882D01*
X508343Y450382D02*
X511342D01*
X508343Y439382D02*
Y450382D01*
Y439382D02*
X511342D01*
Y450382D01*
X484721Y407075D02*
X487720D01*
X484721Y396075D02*
Y407075D01*
Y396075D02*
X487720D01*
Y407075D01*
X614642Y403138D02*
X617642D01*
X614642Y392138D02*
Y403138D01*
Y392138D02*
X617642D01*
Y403138D01*
X505256Y383300D02*
X530256D01*
X505256D02*
Y396300D01*
X530256D01*
Y383300D02*
Y396300D01*
D22*
X684497Y143297D02*
X690097D01*
X672097Y153297D02*
X674347D01*
X672097Y143297D02*
Y153297D01*
Y143297D02*
X677697D01*
X676047Y153297D02*
X677697D01*
X684497D02*
X686147D01*
X690097Y143297D02*
Y153297D01*
X687847D02*
X690097D01*
X684497Y237797D02*
X690097D01*
X672097Y247797D02*
X674347D01*
X672097Y237797D02*
Y247797D01*
Y237797D02*
X677697D01*
X676047Y247797D02*
X677697D01*
X684497D02*
X686147D01*
X690097Y237797D02*
Y247797D01*
X687847D02*
X690097D01*
X684497Y332297D02*
X690097D01*
X672097Y342297D02*
X674347D01*
X672097Y332297D02*
Y342297D01*
Y332297D02*
X677697D01*
X676047Y342297D02*
X677697D01*
X684497D02*
X686147D01*
X690097Y332297D02*
Y342297D01*
X687847D02*
X690097D01*
X684497Y426797D02*
X690097D01*
X672097Y436797D02*
X674347D01*
X672097Y426797D02*
Y436797D01*
Y426797D02*
X677697D01*
X676047Y436797D02*
X677697D01*
X684497D02*
X686147D01*
X690097Y426797D02*
Y436797D01*
X687847D02*
X690097D01*
X437008Y82642D02*
X732283D01*
Y177130D01*
X437008D02*
X732283D01*
X437008Y82642D02*
Y177130D01*
Y177142D02*
X732283D01*
Y271630D01*
X437008D02*
X732283D01*
X437008Y177142D02*
Y271630D01*
Y271642D02*
X732283D01*
Y366130D01*
X437008D02*
X732283D01*
X437008Y271642D02*
Y366130D01*
Y366142D02*
Y460630D01*
X732283D01*
Y366142D02*
Y460630D01*
X437008Y366142D02*
X732283D01*
D42*
X527656Y125250D02*
G03*
X527656Y125250I-800J0D01*
G01*
Y219750D02*
G03*
X527656Y219750I-800J0D01*
G01*
Y314250D02*
G03*
X527656Y314250I-800J0D01*
G01*
Y408750D02*
G03*
X527656Y408750I-800J0D01*
G01*
D43*
X653649Y146497D02*
G03*
X652649Y145497I0J-1000D01*
G01*
Y137897D02*
G03*
X653649Y136897I1000J0D01*
G01*
X665249D02*
G03*
X666249Y137897I0J1000D01*
G01*
Y145497D02*
G03*
X665249Y146497I-1000J0D01*
G01*
X653649Y240997D02*
G03*
X652649Y239997I0J-1000D01*
G01*
Y232397D02*
G03*
X653649Y231397I1000J0D01*
G01*
X665249D02*
G03*
X666249Y232397I0J1000D01*
G01*
Y239997D02*
G03*
X665249Y240997I-1000J0D01*
G01*
X653649Y335497D02*
G03*
X652649Y334497I0J-1000D01*
G01*
Y326897D02*
G03*
X653649Y325897I1000J0D01*
G01*
X665249D02*
G03*
X666249Y326897I0J1000D01*
G01*
Y334497D02*
G03*
X665249Y335497I-1000J0D01*
G01*
X653649Y429997D02*
G03*
X652649Y428997I0J-1000D01*
G01*
Y421397D02*
G03*
X653649Y420397I1000J0D01*
G01*
X665249D02*
G03*
X666249Y421397I0J1000D01*
G01*
Y428997D02*
G03*
X665249Y429997I-1000J0D01*
G01*
X701569Y135536D02*
X702269Y134836D01*
X696169Y135635D02*
X696869Y136336D01*
X700769D01*
X701469Y135635D01*
X695369Y124936D02*
X696069Y124235D01*
X695369Y124936D02*
Y134836D01*
X696069Y135536D01*
X700769Y123436D02*
X701469Y124136D01*
X696869Y123436D02*
X700769D01*
X696169Y124136D02*
X696869Y123436D01*
X702269Y124936D02*
Y134836D01*
X701569Y124235D02*
X702269Y124936D01*
X653798Y168069D02*
X654499Y168769D01*
X652999Y163369D02*
X653699Y162669D01*
X652999Y163369D02*
Y167269D01*
X653699Y167969D01*
X664399Y161869D02*
X665099Y162569D01*
X654499Y161869D02*
X664399D01*
X653798Y162569D02*
X654499Y161869D01*
X665198Y167969D02*
X665899Y167269D01*
Y163369D02*
Y167269D01*
X665198Y162669D02*
X665899Y163369D01*
X654499Y168769D02*
X664399D01*
X665099Y168069D01*
X514792Y138247D02*
X515493Y138947D01*
X515592Y144347D02*
X516292Y143647D01*
Y139747D02*
Y143647D01*
X515592Y139047D02*
X516292Y139747D01*
X504192Y144447D02*
X504892Y145147D01*
X514792D01*
X515493Y144447D01*
X503393Y141969D02*
Y143647D01*
X504093Y144347D01*
X503393Y139747D02*
X504093Y139047D01*
X503393Y139747D02*
Y141425D01*
X504892Y138247D02*
X514792D01*
X504192Y138947D02*
X504892Y138247D01*
X590806Y120824D02*
X591507Y121525D01*
X590007Y116125D02*
X590707Y115424D01*
X590007Y116125D02*
Y120025D01*
X590707Y120725D01*
X601407Y114625D02*
X602107Y115325D01*
X591507Y114625D02*
X601407D01*
X590806Y115325D02*
X591507Y114625D01*
X602907Y116125D02*
Y117803D01*
X602206Y115424D02*
X602907Y116125D01*
X602206Y120725D02*
X602907Y120025D01*
Y118347D02*
Y120025D01*
X591507Y121525D02*
X601407D01*
X602107Y120824D01*
X527814Y144447D02*
X528515Y145147D01*
X527015Y139747D02*
X527715Y139047D01*
X527015Y139747D02*
Y143647D01*
X527715Y144347D01*
X538415Y138247D02*
X539115Y138947D01*
X528515Y138247D02*
X538415D01*
X527814Y138947D02*
X528515Y138247D01*
X539214Y144347D02*
X539915Y143647D01*
Y139747D02*
Y143647D01*
X539214Y139047D02*
X539915Y139747D01*
X528515Y145147D02*
X538415D01*
X539115Y144447D01*
X697106Y168069D02*
X697806Y168769D01*
X696306Y163369D02*
X697006Y162669D01*
X696306Y163369D02*
Y167269D01*
X697006Y167969D01*
X707706Y161869D02*
X708406Y162569D01*
X697806Y161869D02*
X707706D01*
X697106Y162569D02*
X697806Y161869D01*
X709206Y163369D02*
Y165047D01*
X708505Y162669D02*
X709206Y163369D01*
X708505Y167969D02*
X709206Y167269D01*
Y165591D02*
Y167269D01*
X697806Y168769D02*
X707706D01*
X708406Y168069D01*
X527814Y132635D02*
X528515Y133336D01*
X527015Y127936D02*
X527715Y127235D01*
X527015Y127936D02*
Y131836D01*
X527715Y132536D01*
X538415Y126436D02*
X539115Y127136D01*
X528515Y126436D02*
X538415D01*
X527814Y127136D02*
X528515Y126436D01*
X539214Y132536D02*
X539915Y131836D01*
Y127936D02*
Y131836D01*
X539214Y127235D02*
X539915Y127936D01*
X528515Y133336D02*
X538415D01*
X539115Y132635D01*
X514792Y126436D02*
X515493Y127136D01*
X515592Y132536D02*
X516292Y131836D01*
Y127936D02*
Y131836D01*
X515592Y127235D02*
X516292Y127936D01*
X504192Y132635D02*
X504892Y133336D01*
X514792D01*
X515493Y132635D01*
X503393Y127936D02*
X504093Y127235D01*
X503393Y127936D02*
Y131836D01*
X504093Y132536D01*
X504892Y126436D02*
X514792D01*
X504192Y127136D02*
X504892Y126436D01*
X491171Y161869D02*
X491871Y162569D01*
X491970Y167969D02*
X492670Y167269D01*
Y163369D02*
Y167269D01*
X491970Y162669D02*
X492670Y163369D01*
X480570Y168069D02*
X481271Y168769D01*
X491171D01*
X491871Y168069D01*
X479771Y163369D02*
X480471Y162669D01*
X479771Y163369D02*
Y167269D01*
X480471Y167969D01*
X481271Y161869D02*
X491171D01*
X480570Y162569D02*
X481271Y161869D01*
X652649Y137897D02*
Y145497D01*
X653649Y136897D02*
X665249D01*
X666249Y137897D02*
Y145497D01*
X653649Y146497D02*
X665249D01*
X657749Y141697D02*
X658249D01*
X660649D02*
X661149D01*
X660449Y138697D02*
Y144197D01*
X658449Y138697D02*
Y144197D01*
X481271Y97903D02*
X492670D01*
Y91003D02*
Y97903D01*
X479771Y91003D02*
X492670D01*
X479771D02*
Y97903D01*
X481271D01*
X528515Y156958D02*
X539915D01*
Y150058D02*
Y156958D01*
X527015Y150058D02*
X539915D01*
X527015D02*
Y156958D01*
X528515D01*
Y168769D02*
X539915D01*
Y161869D02*
Y168769D01*
X527015Y161869D02*
X539915D01*
X527015D02*
Y168769D01*
X528515D01*
X481271Y109714D02*
X492670D01*
Y102814D02*
Y109714D01*
X479771Y102814D02*
X492670D01*
X479771D02*
Y109714D01*
X481271D01*
X590007Y150058D02*
X601407D01*
X590007D02*
Y156958D01*
X602907D01*
Y150058D02*
Y156958D01*
X601407Y150058D02*
X602907D01*
X556074Y168769D02*
X567474D01*
Y161869D02*
Y168769D01*
X554574Y161869D02*
X567474D01*
X554574D02*
Y168769D01*
X556074D01*
X697806Y156958D02*
X709206D01*
Y150058D02*
Y156958D01*
X696306Y150058D02*
X709206D01*
X696306D02*
Y156958D01*
X697806D01*
X590007Y102814D02*
X601407D01*
X590007D02*
Y109714D01*
X602907D01*
Y102814D02*
Y109714D01*
X601407Y102814D02*
X602907D01*
X672684Y165591D02*
Y168769D01*
X674184D01*
X685584D01*
Y161869D02*
Y168769D01*
X672684Y161869D02*
X685584D01*
X672684D02*
Y165047D01*
X481271Y145147D02*
X492670D01*
Y138247D02*
Y145147D01*
X479771Y138247D02*
X492670D01*
X479771D02*
Y145147D01*
X481271D01*
Y133336D02*
X492670D01*
Y126436D02*
Y133336D01*
X479771Y126436D02*
X492670D01*
X479771D02*
Y133336D01*
X481271D01*
X479771Y150058D02*
X491171D01*
X479771D02*
Y156958D01*
X492670D01*
Y150058D02*
Y156958D01*
X491171Y150058D02*
X492670D01*
X554574Y102814D02*
X565974D01*
X554574D02*
Y109714D01*
X567474D01*
Y102814D02*
Y109714D01*
X565974Y102814D02*
X567474D01*
X609692Y138247D02*
X621092D01*
X609692D02*
Y145147D01*
X622592D01*
Y138247D02*
Y145147D01*
X621092Y138247D02*
X622592D01*
X611192Y133336D02*
X622592D01*
Y126436D02*
Y133336D01*
X609692Y126436D02*
X622592D01*
X609692D02*
Y133336D01*
X611192D01*
X590007Y138247D02*
X601407D01*
X590007D02*
Y145147D01*
X602907D01*
Y138247D02*
Y145147D01*
X601407Y138247D02*
X602907D01*
X591507Y133336D02*
X602907D01*
Y126436D02*
Y133336D01*
X590007Y126436D02*
X602907D01*
X590007D02*
Y133336D01*
X591507D01*
X701569Y230036D02*
X702269Y229336D01*
X696169Y230135D02*
X696869Y230836D01*
X700769D01*
X701469Y230135D01*
X695369Y219436D02*
X696069Y218735D01*
X695369Y219436D02*
Y229336D01*
X696069Y230036D01*
X700769Y217936D02*
X701469Y218636D01*
X696869Y217936D02*
X700769D01*
X696169Y218636D02*
X696869Y217936D01*
X702269Y219436D02*
Y229336D01*
X701569Y218735D02*
X702269Y219436D01*
X653798Y262568D02*
X654499Y263269D01*
X652999Y257869D02*
X653699Y257169D01*
X652999Y257869D02*
Y261769D01*
X653699Y262469D01*
X664399Y256369D02*
X665099Y257069D01*
X654499Y256369D02*
X664399D01*
X653798Y257069D02*
X654499Y256369D01*
X665198Y262469D02*
X665899Y261769D01*
Y257869D02*
Y261769D01*
X665198Y257169D02*
X665899Y257869D01*
X654499Y263269D02*
X664399D01*
X665099Y262568D01*
X514792Y232747D02*
X515493Y233447D01*
X515592Y238847D02*
X516292Y238147D01*
Y234247D02*
Y238147D01*
X515592Y233546D02*
X516292Y234247D01*
X504192Y238947D02*
X504892Y239647D01*
X514792D01*
X515493Y238947D01*
X503393Y236469D02*
Y238147D01*
X504093Y238847D01*
X503393Y234247D02*
X504093Y233546D01*
X503393Y234247D02*
Y235925D01*
X504892Y232747D02*
X514792D01*
X504192Y233447D02*
X504892Y232747D01*
X590806Y215324D02*
X591507Y216025D01*
X590007Y210625D02*
X590707Y209924D01*
X590007Y210625D02*
Y214525D01*
X590707Y215225D01*
X601407Y209125D02*
X602107Y209825D01*
X591507Y209125D02*
X601407D01*
X590806Y209825D02*
X591507Y209125D01*
X602907Y210625D02*
Y212303D01*
X602206Y209924D02*
X602907Y210625D01*
X602206Y215225D02*
X602907Y214525D01*
Y212847D02*
Y214525D01*
X591507Y216025D02*
X601407D01*
X602107Y215324D01*
X527814Y238947D02*
X528515Y239647D01*
X527015Y234247D02*
X527715Y233546D01*
X527015Y234247D02*
Y238147D01*
X527715Y238847D01*
X538415Y232747D02*
X539115Y233447D01*
X528515Y232747D02*
X538415D01*
X527814Y233447D02*
X528515Y232747D01*
X539214Y238847D02*
X539915Y238147D01*
Y234247D02*
Y238147D01*
X539214Y233546D02*
X539915Y234247D01*
X528515Y239647D02*
X538415D01*
X539115Y238947D01*
X697106Y262568D02*
X697806Y263269D01*
X696306Y257869D02*
X697006Y257169D01*
X696306Y257869D02*
Y261769D01*
X697006Y262469D01*
X707706Y256369D02*
X708406Y257069D01*
X697806Y256369D02*
X707706D01*
X697106Y257069D02*
X697806Y256369D01*
X709206Y257869D02*
Y259547D01*
X708505Y257169D02*
X709206Y257869D01*
X708505Y262469D02*
X709206Y261769D01*
Y260091D02*
Y261769D01*
X697806Y263269D02*
X707706D01*
X708406Y262568D01*
X527814Y227135D02*
X528515Y227836D01*
X527015Y222436D02*
X527715Y221735D01*
X527015Y222436D02*
Y226336D01*
X527715Y227036D01*
X538415Y220936D02*
X539115Y221636D01*
X528515Y220936D02*
X538415D01*
X527814Y221636D02*
X528515Y220936D01*
X539214Y227036D02*
X539915Y226336D01*
Y222436D02*
Y226336D01*
X539214Y221735D02*
X539915Y222436D01*
X528515Y227836D02*
X538415D01*
X539115Y227135D01*
X514792Y220936D02*
X515493Y221636D01*
X515592Y227036D02*
X516292Y226336D01*
Y222436D02*
Y226336D01*
X515592Y221735D02*
X516292Y222436D01*
X504192Y227135D02*
X504892Y227836D01*
X514792D01*
X515493Y227135D01*
X503393Y222436D02*
X504093Y221735D01*
X503393Y222436D02*
Y226336D01*
X504093Y227036D01*
X504892Y220936D02*
X514792D01*
X504192Y221636D02*
X504892Y220936D01*
X491171Y256369D02*
X491871Y257069D01*
X491970Y262469D02*
X492670Y261769D01*
Y257869D02*
Y261769D01*
X491970Y257169D02*
X492670Y257869D01*
X480570Y262568D02*
X481271Y263269D01*
X491171D01*
X491871Y262568D01*
X479771Y257869D02*
X480471Y257169D01*
X479771Y257869D02*
Y261769D01*
X480471Y262469D01*
X481271Y256369D02*
X491171D01*
X480570Y257069D02*
X481271Y256369D01*
X652649Y232397D02*
Y239997D01*
X653649Y231397D02*
X665249D01*
X666249Y232397D02*
Y239997D01*
X653649Y240997D02*
X665249D01*
X657749Y236197D02*
X658249D01*
X660649D02*
X661149D01*
X660449Y233197D02*
Y238697D01*
X658449Y233197D02*
Y238697D01*
X481271Y192403D02*
X492670D01*
Y185503D02*
Y192403D01*
X479771Y185503D02*
X492670D01*
X479771D02*
Y192403D01*
X481271D01*
X528515Y251458D02*
X539915D01*
Y244558D02*
Y251458D01*
X527015Y244558D02*
X539915D01*
X527015D02*
Y251458D01*
X528515D01*
Y263269D02*
X539915D01*
Y256369D02*
Y263269D01*
X527015Y256369D02*
X539915D01*
X527015D02*
Y263269D01*
X528515D01*
X481271Y204214D02*
X492670D01*
Y197314D02*
Y204214D01*
X479771Y197314D02*
X492670D01*
X479771D02*
Y204214D01*
X481271D01*
X590007Y244558D02*
X601407D01*
X590007D02*
Y251458D01*
X602907D01*
Y244558D02*
Y251458D01*
X601407Y244558D02*
X602907D01*
X556074Y263269D02*
X567474D01*
Y256369D02*
Y263269D01*
X554574Y256369D02*
X567474D01*
X554574D02*
Y263269D01*
X556074D01*
X697806Y251458D02*
X709206D01*
Y244558D02*
Y251458D01*
X696306Y244558D02*
X709206D01*
X696306D02*
Y251458D01*
X697806D01*
X590007Y197314D02*
X601407D01*
X590007D02*
Y204214D01*
X602907D01*
Y197314D02*
Y204214D01*
X601407Y197314D02*
X602907D01*
X672684Y260091D02*
Y263269D01*
X674184D01*
X685584D01*
Y256369D02*
Y263269D01*
X672684Y256369D02*
X685584D01*
X672684D02*
Y259547D01*
X481271Y239647D02*
X492670D01*
Y232747D02*
Y239647D01*
X479771Y232747D02*
X492670D01*
X479771D02*
Y239647D01*
X481271D01*
Y227836D02*
X492670D01*
Y220936D02*
Y227836D01*
X479771Y220936D02*
X492670D01*
X479771D02*
Y227836D01*
X481271D01*
X479771Y244558D02*
X491171D01*
X479771D02*
Y251458D01*
X492670D01*
Y244558D02*
Y251458D01*
X491171Y244558D02*
X492670D01*
X554574Y197314D02*
X565974D01*
X554574D02*
Y204214D01*
X567474D01*
Y197314D02*
Y204214D01*
X565974Y197314D02*
X567474D01*
X609692Y232747D02*
X621092D01*
X609692D02*
Y239647D01*
X622592D01*
Y232747D02*
Y239647D01*
X621092Y232747D02*
X622592D01*
X611192Y227836D02*
X622592D01*
Y220936D02*
Y227836D01*
X609692Y220936D02*
X622592D01*
X609692D02*
Y227836D01*
X611192D01*
X590007Y232747D02*
X601407D01*
X590007D02*
Y239647D01*
X602907D01*
Y232747D02*
Y239647D01*
X601407Y232747D02*
X602907D01*
X591507Y227836D02*
X602907D01*
Y220936D02*
Y227836D01*
X590007Y220936D02*
X602907D01*
X590007D02*
Y227836D01*
X591507D01*
X701569Y324536D02*
X702269Y323836D01*
X696169Y324635D02*
X696869Y325336D01*
X700769D01*
X701469Y324635D01*
X695369Y313936D02*
X696069Y313235D01*
X695369Y313936D02*
Y323836D01*
X696069Y324536D01*
X700769Y312436D02*
X701469Y313136D01*
X696869Y312436D02*
X700769D01*
X696169Y313136D02*
X696869Y312436D01*
X702269Y313936D02*
Y323836D01*
X701569Y313235D02*
X702269Y313936D01*
X653798Y357068D02*
X654499Y357769D01*
X652999Y352369D02*
X653699Y351669D01*
X652999Y352369D02*
Y356269D01*
X653699Y356969D01*
X664399Y350869D02*
X665099Y351569D01*
X654499Y350869D02*
X664399D01*
X653798Y351569D02*
X654499Y350869D01*
X665198Y356969D02*
X665899Y356269D01*
Y352369D02*
Y356269D01*
X665198Y351669D02*
X665899Y352369D01*
X654499Y357769D02*
X664399D01*
X665099Y357068D01*
X514792Y327247D02*
X515493Y327947D01*
X515592Y333347D02*
X516292Y332647D01*
Y328747D02*
Y332647D01*
X515592Y328046D02*
X516292Y328747D01*
X504192Y333447D02*
X504892Y334147D01*
X514792D01*
X515493Y333447D01*
X503393Y330969D02*
Y332647D01*
X504093Y333347D01*
X503393Y328747D02*
X504093Y328046D01*
X503393Y328747D02*
Y330425D01*
X504892Y327247D02*
X514792D01*
X504192Y327947D02*
X504892Y327247D01*
X590806Y309824D02*
X591507Y310525D01*
X590007Y305125D02*
X590707Y304424D01*
X590007Y305125D02*
Y309025D01*
X590707Y309725D01*
X601407Y303625D02*
X602107Y304325D01*
X591507Y303625D02*
X601407D01*
X590806Y304325D02*
X591507Y303625D01*
X602907Y305125D02*
Y306803D01*
X602206Y304424D02*
X602907Y305125D01*
X602206Y309725D02*
X602907Y309025D01*
Y307347D02*
Y309025D01*
X591507Y310525D02*
X601407D01*
X602107Y309824D01*
X527814Y333447D02*
X528515Y334147D01*
X527015Y328747D02*
X527715Y328046D01*
X527015Y328747D02*
Y332647D01*
X527715Y333347D01*
X538415Y327247D02*
X539115Y327947D01*
X528515Y327247D02*
X538415D01*
X527814Y327947D02*
X528515Y327247D01*
X539214Y333347D02*
X539915Y332647D01*
Y328747D02*
Y332647D01*
X539214Y328046D02*
X539915Y328747D01*
X528515Y334147D02*
X538415D01*
X539115Y333447D01*
X697106Y357068D02*
X697806Y357769D01*
X696306Y352369D02*
X697006Y351669D01*
X696306Y352369D02*
Y356269D01*
X697006Y356969D01*
X707706Y350869D02*
X708406Y351569D01*
X697806Y350869D02*
X707706D01*
X697106Y351569D02*
X697806Y350869D01*
X709206Y352369D02*
Y354047D01*
X708505Y351669D02*
X709206Y352369D01*
X708505Y356969D02*
X709206Y356269D01*
Y354591D02*
Y356269D01*
X697806Y357769D02*
X707706D01*
X708406Y357068D01*
X527814Y321635D02*
X528515Y322336D01*
X527015Y316936D02*
X527715Y316235D01*
X527015Y316936D02*
Y320836D01*
X527715Y321536D01*
X538415Y315436D02*
X539115Y316136D01*
X528515Y315436D02*
X538415D01*
X527814Y316136D02*
X528515Y315436D01*
X539214Y321536D02*
X539915Y320836D01*
Y316936D02*
Y320836D01*
X539214Y316235D02*
X539915Y316936D01*
X528515Y322336D02*
X538415D01*
X539115Y321635D01*
X514792Y315436D02*
X515493Y316136D01*
X515592Y321536D02*
X516292Y320836D01*
Y316936D02*
Y320836D01*
X515592Y316235D02*
X516292Y316936D01*
X504192Y321635D02*
X504892Y322336D01*
X514792D01*
X515493Y321635D01*
X503393Y316936D02*
X504093Y316235D01*
X503393Y316936D02*
Y320836D01*
X504093Y321536D01*
X504892Y315436D02*
X514792D01*
X504192Y316136D02*
X504892Y315436D01*
X491171Y350869D02*
X491871Y351569D01*
X491970Y356969D02*
X492670Y356269D01*
Y352369D02*
Y356269D01*
X491970Y351669D02*
X492670Y352369D01*
X480570Y357068D02*
X481271Y357769D01*
X491171D01*
X491871Y357068D01*
X479771Y352369D02*
X480471Y351669D01*
X479771Y352369D02*
Y356269D01*
X480471Y356969D01*
X481271Y350869D02*
X491171D01*
X480570Y351569D02*
X481271Y350869D01*
X652649Y326897D02*
Y334497D01*
X653649Y325897D02*
X665249D01*
X666249Y326897D02*
Y334497D01*
X653649Y335497D02*
X665249D01*
X657749Y330697D02*
X658249D01*
X660649D02*
X661149D01*
X660449Y327697D02*
Y333197D01*
X658449Y327697D02*
Y333197D01*
X481271Y286903D02*
X492670D01*
Y280003D02*
Y286903D01*
X479771Y280003D02*
X492670D01*
X479771D02*
Y286903D01*
X481271D01*
X528515Y345958D02*
X539915D01*
Y339058D02*
Y345958D01*
X527015Y339058D02*
X539915D01*
X527015D02*
Y345958D01*
X528515D01*
Y357769D02*
X539915D01*
Y350869D02*
Y357769D01*
X527015Y350869D02*
X539915D01*
X527015D02*
Y357769D01*
X528515D01*
X481271Y298714D02*
X492670D01*
Y291814D02*
Y298714D01*
X479771Y291814D02*
X492670D01*
X479771D02*
Y298714D01*
X481271D01*
X590007Y339058D02*
X601407D01*
X590007D02*
Y345958D01*
X602907D01*
Y339058D02*
Y345958D01*
X601407Y339058D02*
X602907D01*
X556074Y357769D02*
X567474D01*
Y350869D02*
Y357769D01*
X554574Y350869D02*
X567474D01*
X554574D02*
Y357769D01*
X556074D01*
X697806Y345958D02*
X709206D01*
Y339058D02*
Y345958D01*
X696306Y339058D02*
X709206D01*
X696306D02*
Y345958D01*
X697806D01*
X590007Y291814D02*
X601407D01*
X590007D02*
Y298714D01*
X602907D01*
Y291814D02*
Y298714D01*
X601407Y291814D02*
X602907D01*
X672684Y354591D02*
Y357769D01*
X674184D01*
X685584D01*
Y350869D02*
Y357769D01*
X672684Y350869D02*
X685584D01*
X672684D02*
Y354047D01*
X481271Y334147D02*
X492670D01*
Y327247D02*
Y334147D01*
X479771Y327247D02*
X492670D01*
X479771D02*
Y334147D01*
X481271D01*
Y322336D02*
X492670D01*
Y315436D02*
Y322336D01*
X479771Y315436D02*
X492670D01*
X479771D02*
Y322336D01*
X481271D01*
X479771Y339058D02*
X491171D01*
X479771D02*
Y345958D01*
X492670D01*
Y339058D02*
Y345958D01*
X491171Y339058D02*
X492670D01*
X554574Y291814D02*
X565974D01*
X554574D02*
Y298714D01*
X567474D01*
Y291814D02*
Y298714D01*
X565974Y291814D02*
X567474D01*
X609692Y327247D02*
X621092D01*
X609692D02*
Y334147D01*
X622592D01*
Y327247D02*
Y334147D01*
X621092Y327247D02*
X622592D01*
X611192Y322336D02*
X622592D01*
Y315436D02*
Y322336D01*
X609692Y315436D02*
X622592D01*
X609692D02*
Y322336D01*
X611192D01*
X590007Y327247D02*
X601407D01*
X590007D02*
Y334147D01*
X602907D01*
Y327247D02*
Y334147D01*
X601407Y327247D02*
X602907D01*
X591507Y322336D02*
X602907D01*
Y315436D02*
Y322336D01*
X590007Y315436D02*
X602907D01*
X590007D02*
Y322336D01*
X591507D01*
Y416836D02*
X602907D01*
Y409936D02*
Y416836D01*
X590007Y409936D02*
X602907D01*
X590007D02*
Y416836D01*
X591507D01*
X590007Y421747D02*
X601407D01*
X590007D02*
Y428647D01*
X602907D01*
Y421747D02*
Y428647D01*
X601407Y421747D02*
X602907D01*
X611192Y416836D02*
X622592D01*
Y409936D02*
Y416836D01*
X609692Y409936D02*
X622592D01*
X609692D02*
Y416836D01*
X611192D01*
X609692Y421747D02*
X621092D01*
X609692D02*
Y428647D01*
X622592D01*
Y421747D02*
Y428647D01*
X621092Y421747D02*
X622592D01*
X554574Y386314D02*
X565974D01*
X554574D02*
Y393214D01*
X567474D01*
Y386314D02*
Y393214D01*
X565974Y386314D02*
X567474D01*
X479771Y433558D02*
X491171D01*
X479771D02*
Y440458D01*
X492670D01*
Y433558D02*
Y440458D01*
X491171Y433558D02*
X492670D01*
X481271Y416836D02*
X492670D01*
Y409936D02*
Y416836D01*
X479771Y409936D02*
X492670D01*
X479771D02*
Y416836D01*
X481271D01*
Y428647D02*
X492670D01*
Y421747D02*
Y428647D01*
X479771Y421747D02*
X492670D01*
X479771D02*
Y428647D01*
X481271D01*
X672684Y449091D02*
Y452269D01*
X674184D01*
X685584D01*
Y445369D02*
Y452269D01*
X672684Y445369D02*
X685584D01*
X672684D02*
Y448547D01*
X590007Y386314D02*
X601407D01*
X590007D02*
Y393214D01*
X602907D01*
Y386314D02*
Y393214D01*
X601407Y386314D02*
X602907D01*
X697806Y440458D02*
X709206D01*
Y433558D02*
Y440458D01*
X696306Y433558D02*
X709206D01*
X696306D02*
Y440458D01*
X697806D01*
X556074Y452269D02*
X567474D01*
Y445369D02*
Y452269D01*
X554574Y445369D02*
X567474D01*
X554574D02*
Y452269D01*
X556074D01*
X590007Y433558D02*
X601407D01*
X590007D02*
Y440458D01*
X602907D01*
Y433558D02*
Y440458D01*
X601407Y433558D02*
X602907D01*
X481271Y393214D02*
X492670D01*
Y386314D02*
Y393214D01*
X479771Y386314D02*
X492670D01*
X479771D02*
Y393214D01*
X481271D01*
X528515Y452269D02*
X539915D01*
Y445369D02*
Y452269D01*
X527015Y445369D02*
X539915D01*
X527015D02*
Y452269D01*
X528515D01*
Y440458D02*
X539915D01*
Y433558D02*
Y440458D01*
X527015Y433558D02*
X539915D01*
X527015D02*
Y440458D01*
X528515D01*
X481271Y381403D02*
X492670D01*
Y374503D02*
Y381403D01*
X479771Y374503D02*
X492670D01*
X479771D02*
Y381403D01*
X481271D01*
X652649Y421397D02*
Y428997D01*
X653649Y420397D02*
X665249D01*
X666249Y421397D02*
Y428997D01*
X653649Y429997D02*
X665249D01*
X657749Y425197D02*
X658249D01*
X660649D02*
X661149D01*
X660449Y422197D02*
Y427697D01*
X658449Y422197D02*
Y427697D01*
X491171Y445369D02*
X491871Y446069D01*
X491970Y451469D02*
X492670Y450769D01*
Y446869D02*
Y450769D01*
X491970Y446169D02*
X492670Y446869D01*
X480570Y451569D02*
X481271Y452269D01*
X491171D01*
X491871Y451569D01*
X479771Y446869D02*
X480471Y446169D01*
X479771Y446869D02*
Y450769D01*
X480471Y451469D01*
X481271Y445369D02*
X491171D01*
X480570Y446069D02*
X481271Y445369D01*
X514792Y409936D02*
X515493Y410636D01*
X515592Y416036D02*
X516292Y415336D01*
Y411436D02*
Y415336D01*
X515592Y410735D02*
X516292Y411436D01*
X504192Y416135D02*
X504892Y416836D01*
X514792D01*
X515493Y416135D01*
X503393Y411436D02*
X504093Y410735D01*
X503393Y411436D02*
Y415336D01*
X504093Y416036D01*
X504892Y409936D02*
X514792D01*
X504192Y410636D02*
X504892Y409936D01*
X527814Y416135D02*
X528515Y416836D01*
X527015Y411436D02*
X527715Y410735D01*
X527015Y411436D02*
Y415336D01*
X527715Y416036D01*
X538415Y409936D02*
X539115Y410636D01*
X528515Y409936D02*
X538415D01*
X527814Y410636D02*
X528515Y409936D01*
X539214Y416036D02*
X539915Y415336D01*
Y411436D02*
Y415336D01*
X539214Y410735D02*
X539915Y411436D01*
X528515Y416836D02*
X538415D01*
X539115Y416135D01*
X697106Y451569D02*
X697806Y452269D01*
X696306Y446869D02*
X697006Y446169D01*
X696306Y446869D02*
Y450769D01*
X697006Y451469D01*
X707706Y445369D02*
X708406Y446069D01*
X697806Y445369D02*
X707706D01*
X697106Y446069D02*
X697806Y445369D01*
X709206Y446869D02*
Y448547D01*
X708505Y446169D02*
X709206Y446869D01*
X708505Y451469D02*
X709206Y450769D01*
Y449091D02*
Y450769D01*
X697806Y452269D02*
X707706D01*
X708406Y451569D01*
X527814Y427947D02*
X528515Y428647D01*
X527015Y423247D02*
X527715Y422546D01*
X527015Y423247D02*
Y427147D01*
X527715Y427847D01*
X538415Y421747D02*
X539115Y422447D01*
X528515Y421747D02*
X538415D01*
X527814Y422447D02*
X528515Y421747D01*
X539214Y427847D02*
X539915Y427147D01*
Y423247D02*
Y427147D01*
X539214Y422546D02*
X539915Y423247D01*
X528515Y428647D02*
X538415D01*
X539115Y427947D01*
X590806Y404324D02*
X591507Y405025D01*
X590007Y399625D02*
X590707Y398924D01*
X590007Y399625D02*
Y403525D01*
X590707Y404225D01*
X601407Y398125D02*
X602107Y398825D01*
X591507Y398125D02*
X601407D01*
X590806Y398825D02*
X591507Y398125D01*
X602907Y399625D02*
Y401303D01*
X602206Y398924D02*
X602907Y399625D01*
X602206Y404225D02*
X602907Y403525D01*
Y401847D02*
Y403525D01*
X591507Y405025D02*
X601407D01*
X602107Y404324D01*
X514792Y421747D02*
X515493Y422447D01*
X515592Y427847D02*
X516292Y427147D01*
Y423247D02*
Y427147D01*
X515592Y422546D02*
X516292Y423247D01*
X504192Y427947D02*
X504892Y428647D01*
X514792D01*
X515493Y427947D01*
X503393Y425469D02*
Y427147D01*
X504093Y427847D01*
X503393Y423247D02*
X504093Y422546D01*
X503393Y423247D02*
Y424925D01*
X504892Y421747D02*
X514792D01*
X504192Y422447D02*
X504892Y421747D01*
X653798Y451569D02*
X654499Y452269D01*
X652999Y446869D02*
X653699Y446169D01*
X652999Y446869D02*
Y450769D01*
X653699Y451469D01*
X664399Y445369D02*
X665099Y446069D01*
X654499Y445369D02*
X664399D01*
X653798Y446069D02*
X654499Y445369D01*
X665198Y451469D02*
X665899Y450769D01*
Y446869D02*
Y450769D01*
X665198Y446169D02*
X665899Y446869D01*
X654499Y452269D02*
X664399D01*
X665099Y451569D01*
X701569Y419036D02*
X702269Y418336D01*
X696169Y419135D02*
X696869Y419836D01*
X700769D01*
X701469Y419135D01*
X695369Y408436D02*
X696069Y407735D01*
X695369Y408436D02*
Y418336D01*
X696069Y419036D01*
X700769Y406936D02*
X701469Y407636D01*
X696869Y406936D02*
X700769D01*
X696169Y407636D02*
X696869Y406936D01*
X702269Y408436D02*
Y418336D01*
X701569Y407735D02*
X702269Y408436D01*
D44*
X575461Y143873D02*
X577011D01*
Y123773D02*
Y143873D01*
X552911Y123773D02*
X554461D01*
X552911D02*
Y143873D01*
X554461D01*
X575461Y123773D02*
X577011D01*
X650890Y155508D02*
X651390D01*
X646890Y151508D02*
X650890Y155508D01*
X646890Y156008D02*
X654890D01*
X650890Y147508D02*
Y151008D01*
Y155508D02*
Y159508D01*
X646890Y151508D02*
X655390D01*
X655460Y151620D02*
X655512Y151539D01*
X651181Y155870D02*
X655512Y151539D01*
X575461Y238373D02*
X577011D01*
Y218273D02*
Y238373D01*
X552911Y218273D02*
X554461D01*
X552911D02*
Y238373D01*
X554461D01*
X575461Y218273D02*
X577011D01*
X650890Y250008D02*
X651390D01*
X646890Y246008D02*
X650890Y250008D01*
X646890Y250508D02*
X654890D01*
X650890Y242008D02*
Y245508D01*
Y250008D02*
Y254008D01*
X646890Y246008D02*
X655390D01*
X655460Y246121D02*
X655512Y246039D01*
X651181Y250370D02*
X655512Y246039D01*
X575461Y332873D02*
X577011D01*
Y312773D02*
Y332873D01*
X552911Y312773D02*
X554461D01*
X552911D02*
Y332873D01*
X554461D01*
X575461Y312773D02*
X577011D01*
X650890Y344508D02*
X651390D01*
X646890Y340508D02*
X650890Y344508D01*
X646890Y345008D02*
X654890D01*
X650890Y336508D02*
Y340008D01*
Y344508D02*
Y348508D01*
X646890Y340508D02*
X655390D01*
X655460Y340620D02*
X655512Y340539D01*
X651181Y344870D02*
X655512Y340539D01*
X650890Y439008D02*
X651390D01*
X646890Y435008D02*
X650890Y439008D01*
X646890Y439508D02*
X654890D01*
X650890Y431008D02*
Y434508D01*
Y439008D02*
Y443008D01*
X646890Y435008D02*
X655390D01*
X655460Y435120D02*
X655512Y435039D01*
X651181Y439370D02*
X655512Y435039D01*
X575461Y427373D02*
X577011D01*
Y407273D02*
Y427373D01*
X552911Y407273D02*
X554461D01*
X552911D02*
Y427373D01*
X554461D01*
X575461Y407273D02*
X577011D01*
D45*
X465452Y114886D02*
X468011Y113705D01*
X465452Y114886D02*
X468011Y116067D01*
Y113705D02*
Y116067D01*
X458366Y152091D02*
Y154059D01*
X462303Y146185D02*
Y152091D01*
Y154059D01*
Y146185D02*
X464271D01*
X462303Y140280D02*
X464271D01*
X462303Y119020D02*
Y140280D01*
Y119020D02*
X464271D01*
X462303Y113114D02*
X464271D01*
X443208Y107209D02*
X458366D01*
X443208D02*
Y152091D01*
X458366D01*
Y105240D02*
Y107209D01*
X462303D02*
Y113114D01*
Y105240D02*
Y107209D01*
X441241Y105240D02*
X464271D01*
X441241D02*
Y154059D01*
X464271D01*
Y105240D02*
Y154059D01*
X465452Y209386D02*
X468011Y208205D01*
X465452Y209386D02*
X468011Y210567D01*
Y208205D02*
Y210567D01*
X458366Y246591D02*
Y248559D01*
X462303Y240685D02*
Y246591D01*
Y248559D01*
Y240685D02*
X464271D01*
X462303Y234780D02*
X464271D01*
X462303Y213520D02*
Y234780D01*
Y213520D02*
X464271D01*
X462303Y207614D02*
X464271D01*
X443208Y201709D02*
X458366D01*
X443208D02*
Y246591D01*
X458366D01*
Y199740D02*
Y201709D01*
X462303D02*
Y207614D01*
Y199740D02*
Y201709D01*
X441241Y199740D02*
X464271D01*
X441241D02*
Y248559D01*
X464271D01*
Y199740D02*
Y248559D01*
X465452Y303886D02*
X468011Y302705D01*
X465452Y303886D02*
X468011Y305067D01*
Y302705D02*
Y305067D01*
X458366Y341091D02*
Y343059D01*
X462303Y335185D02*
Y341091D01*
Y343059D01*
Y335185D02*
X464271D01*
X462303Y329280D02*
X464271D01*
X462303Y308020D02*
Y329280D01*
Y308020D02*
X464271D01*
X462303Y302114D02*
X464271D01*
X443208Y296209D02*
X458366D01*
X443208D02*
Y341091D01*
X458366D01*
Y294240D02*
Y296209D01*
X462303D02*
Y302114D01*
Y294240D02*
Y296209D01*
X441241Y294240D02*
X464271D01*
X441241D02*
Y343059D01*
X464271D01*
Y294240D02*
Y343059D01*
X465452Y398386D02*
X468011Y397205D01*
X465452Y398386D02*
X468011Y399567D01*
Y397205D02*
Y399567D01*
X458366Y435591D02*
Y437559D01*
X462303Y429685D02*
Y435591D01*
Y437559D01*
Y429685D02*
X464271D01*
X462303Y423780D02*
X464271D01*
X462303Y402520D02*
Y423780D01*
Y402520D02*
X464271D01*
X462303Y396614D02*
X464271D01*
X443208Y390709D02*
X458366D01*
X443208D02*
Y435591D01*
X458366D01*
Y388740D02*
Y390709D01*
X462303D02*
Y396614D01*
Y388740D02*
Y390709D01*
X441241Y388740D02*
X464271D01*
X441241D02*
Y437559D01*
X464271D01*
Y388740D02*
Y437559D01*
D46*
X642764Y146608D02*
X644464D01*
X642764Y160408D02*
X644464D01*
Y146608D02*
Y160408D01*
X635064Y146608D02*
X636764D01*
X635064D02*
Y160408D01*
X636764D01*
X642764Y241108D02*
X644464D01*
X642764Y254908D02*
X644464D01*
Y241108D02*
Y254908D01*
X635064Y241108D02*
X636764D01*
X635064D02*
Y254908D01*
X636764D01*
X642764Y335608D02*
X644464D01*
X642764Y349408D02*
X644464D01*
Y335608D02*
Y349408D01*
X635064Y335608D02*
X636764D01*
X635064D02*
Y349408D01*
X636764D01*
X642764Y430108D02*
X644464D01*
X642764Y443908D02*
X644464D01*
Y430108D02*
Y443908D01*
X635064Y430108D02*
X636764D01*
X635064D02*
Y443908D01*
X636764D01*
D47*
X679134Y132985D02*
Y130771D01*
X679282Y130329D01*
X679577Y130033D01*
X680019Y129886D01*
X680315D01*
X680757Y130033D01*
X681052Y130329D01*
X681200Y130771D01*
Y132985D01*
X683532D02*
X682056Y130919D01*
X684270D01*
X683532Y132985D02*
Y129886D01*
X498032Y121174D02*
Y118960D01*
X498179Y118518D01*
X498474Y118222D01*
X498917Y118075D01*
X499212D01*
X499655Y118222D01*
X499950Y118518D01*
X500098Y118960D01*
Y121174D01*
X500954Y120584D02*
X501249Y120731D01*
X501692Y121174D01*
Y118075D01*
X452263Y101489D02*
Y99128D01*
X452116Y98685D01*
X451968Y98537D01*
X451673Y98390D01*
X451378D01*
X451083Y98537D01*
X450935Y98685D01*
X450787Y99128D01*
Y99423D01*
X453060Y100899D02*
X453355Y101046D01*
X453798Y101489D01*
Y98390D01*
X624016Y121174D02*
Y118960D01*
X624163Y118518D01*
X624459Y118222D01*
X624901Y118075D01*
X625197D01*
X625639Y118222D01*
X625934Y118518D01*
X626082Y118960D01*
Y121174D01*
X627233D02*
X628857D01*
X627971Y119993D01*
X628414D01*
X628709Y119846D01*
X628857Y119698D01*
X629004Y119255D01*
Y118960D01*
X628857Y118518D01*
X628561Y118222D01*
X628119Y118075D01*
X627676D01*
X627233Y118222D01*
X627086Y118370D01*
X626938Y118665D01*
X475295Y121174D02*
X475000Y121027D01*
X474705Y120731D01*
X474557Y120436D01*
X474409Y119993D01*
Y119255D01*
X474557Y118813D01*
X474705Y118518D01*
X475000Y118222D01*
X475295Y118075D01*
X475885D01*
X476181Y118222D01*
X476476Y118518D01*
X476623Y118813D01*
X476771Y119255D01*
Y119993D01*
X476623Y120436D01*
X476476Y120731D01*
X476181Y121027D01*
X475885Y121174D01*
X475295D01*
X475738Y118665D02*
X476623Y117780D01*
X477494Y120584D02*
X477789Y120731D01*
X478232Y121174D01*
Y118075D01*
X698553Y140121D02*
X698405Y140416D01*
X698110Y140712D01*
X697815Y140859D01*
X697224D01*
X696929Y140712D01*
X696634Y140416D01*
X696487Y140121D01*
X696339Y139679D01*
Y138941D01*
X696487Y138498D01*
X696634Y138203D01*
X696929Y137907D01*
X697224Y137760D01*
X697815D01*
X698110Y137907D01*
X698405Y138203D01*
X698553Y138498D01*
X701342Y139826D02*
X701194Y139383D01*
X700899Y139088D01*
X700457Y138941D01*
X700309D01*
X699866Y139088D01*
X699571Y139383D01*
X699424Y139826D01*
Y139974D01*
X699571Y140416D01*
X699866Y140712D01*
X700309Y140859D01*
X700457D01*
X700899Y140712D01*
X701194Y140416D01*
X701342Y139826D01*
Y139088D01*
X701194Y138350D01*
X700899Y137907D01*
X700457Y137760D01*
X700161D01*
X699719Y137907D01*
X699571Y138203D01*
X647372Y167680D02*
X647224Y167975D01*
X646929Y168271D01*
X646634Y168418D01*
X646043D01*
X645748Y168271D01*
X645453Y167975D01*
X645305Y167680D01*
X645158Y167237D01*
Y166500D01*
X645305Y166057D01*
X645453Y165762D01*
X645748Y165466D01*
X646043Y165319D01*
X646634D01*
X646929Y165466D01*
X647224Y165762D01*
X647372Y166057D01*
X648980Y168418D02*
X648538Y168271D01*
X648390Y167975D01*
Y167680D01*
X648538Y167385D01*
X648833Y167237D01*
X649423Y167090D01*
X649866Y166942D01*
X650161Y166647D01*
X650309Y166352D01*
Y165909D01*
X650161Y165614D01*
X650013Y165466D01*
X649571Y165319D01*
X648980D01*
X648538Y165466D01*
X648390Y165614D01*
X648242Y165909D01*
Y166352D01*
X648390Y166647D01*
X648685Y166942D01*
X649128Y167090D01*
X649718Y167237D01*
X650013Y167385D01*
X650161Y167680D01*
Y167975D01*
X650013Y168271D01*
X649571Y168418D01*
X648980D01*
X497765Y144058D02*
X497618Y144353D01*
X497323Y144649D01*
X497027Y144796D01*
X496437D01*
X496142Y144649D01*
X495847Y144353D01*
X495699Y144058D01*
X495551Y143615D01*
Y142877D01*
X495699Y142435D01*
X495847Y142140D01*
X496142Y141844D01*
X496437Y141697D01*
X497027D01*
X497323Y141844D01*
X497618Y142140D01*
X497765Y142435D01*
X498784Y144058D02*
Y144206D01*
X498931Y144501D01*
X499079Y144649D01*
X499374Y144796D01*
X499964D01*
X500259Y144649D01*
X500407Y144501D01*
X500555Y144206D01*
Y143911D01*
X500407Y143615D01*
X500112Y143173D01*
X498636Y141697D01*
X500702D01*
X584379Y120436D02*
X584232Y120731D01*
X583937Y121027D01*
X583641Y121174D01*
X583051D01*
X582756Y121027D01*
X582461Y120731D01*
X582313Y120436D01*
X582166Y119993D01*
Y119255D01*
X582313Y118813D01*
X582461Y118518D01*
X582756Y118222D01*
X583051Y118075D01*
X583641D01*
X583937Y118222D01*
X584232Y118518D01*
X584379Y118813D01*
X587021Y120731D02*
X586874Y121027D01*
X586431Y121174D01*
X586136D01*
X585693Y121027D01*
X585398Y120584D01*
X585250Y119846D01*
Y119108D01*
X585398Y118518D01*
X585693Y118222D01*
X586136Y118075D01*
X586283D01*
X586726Y118222D01*
X587021Y118518D01*
X587169Y118960D01*
Y119108D01*
X587021Y119551D01*
X586726Y119846D01*
X586283Y119993D01*
X586136D01*
X585693Y119846D01*
X585398Y119551D01*
X585250Y119108D01*
X521387Y144058D02*
X521240Y144353D01*
X520945Y144649D01*
X520649Y144796D01*
X520059D01*
X519764Y144649D01*
X519469Y144353D01*
X519321Y144058D01*
X519173Y143615D01*
Y142877D01*
X519321Y142435D01*
X519469Y142140D01*
X519764Y141844D01*
X520059Y141697D01*
X520649D01*
X520945Y141844D01*
X521240Y142140D01*
X521387Y142435D01*
X523734Y144796D02*
X522258Y142730D01*
X524472D01*
X523734Y144796D02*
Y141697D01*
X702490Y171617D02*
X702342Y171913D01*
X702047Y172208D01*
X701752Y172355D01*
X701161D01*
X700866Y172208D01*
X700571Y171913D01*
X700423Y171617D01*
X700276Y171175D01*
Y170437D01*
X700423Y169994D01*
X700571Y169699D01*
X700866Y169404D01*
X701161Y169256D01*
X701752D01*
X702047Y169404D01*
X702342Y169699D01*
X702490Y169994D01*
X705427Y172355D02*
X703951Y169256D01*
X703361Y172355D02*
X705427D01*
X521387Y132247D02*
X521240Y132542D01*
X520945Y132838D01*
X520649Y132985D01*
X520059D01*
X519764Y132838D01*
X519469Y132542D01*
X519321Y132247D01*
X519173Y131805D01*
Y131067D01*
X519321Y130624D01*
X519469Y130329D01*
X519764Y130033D01*
X520059Y129886D01*
X520649D01*
X520945Y130033D01*
X521240Y130329D01*
X521387Y130624D01*
X524029Y132985D02*
X522553D01*
X522406Y131657D01*
X522553Y131805D01*
X522996Y131952D01*
X523439D01*
X523882Y131805D01*
X524177Y131509D01*
X524324Y131067D01*
Y130771D01*
X524177Y130329D01*
X523882Y130033D01*
X523439Y129886D01*
X522996D01*
X522553Y130033D01*
X522406Y130181D01*
X522258Y130476D01*
X497765Y132247D02*
X497618Y132542D01*
X497323Y132838D01*
X497027Y132985D01*
X496437D01*
X496142Y132838D01*
X495847Y132542D01*
X495699Y132247D01*
X495551Y131805D01*
Y131067D01*
X495699Y130624D01*
X495847Y130329D01*
X496142Y130033D01*
X496437Y129886D01*
X497027D01*
X497323Y130033D01*
X497618Y130329D01*
X497765Y130624D01*
X498931Y132985D02*
X500555D01*
X499669Y131805D01*
X500112D01*
X500407Y131657D01*
X500555Y131509D01*
X500702Y131067D01*
Y130771D01*
X500555Y130329D01*
X500259Y130033D01*
X499817Y129886D01*
X499374D01*
X498931Y130033D01*
X498784Y130181D01*
X498636Y130476D01*
X474143Y167680D02*
X473996Y167975D01*
X473701Y168271D01*
X473405Y168418D01*
X472815D01*
X472520Y168271D01*
X472225Y167975D01*
X472077Y167680D01*
X471929Y167237D01*
Y166500D01*
X472077Y166057D01*
X472225Y165762D01*
X472520Y165466D01*
X472815Y165319D01*
X473405D01*
X473701Y165466D01*
X473996Y165762D01*
X474143Y166057D01*
X475014Y167828D02*
X475309Y167975D01*
X475752Y168418D01*
Y165319D01*
X627953Y160544D02*
Y157445D01*
Y160544D02*
X628986D01*
X629429Y160397D01*
X629724Y160101D01*
X629871Y159806D01*
X630019Y159363D01*
Y158626D01*
X629871Y158183D01*
X629724Y157888D01*
X629429Y157592D01*
X628986Y157445D01*
X627953D01*
X630713Y159954D02*
X631008Y160101D01*
X631451Y160544D01*
Y157445D01*
X655512Y132985D02*
Y129886D01*
X657283D01*
X657622Y132395D02*
X657917Y132542D01*
X658360Y132985D01*
Y129886D01*
X471929Y97552D02*
Y94453D01*
Y97552D02*
X473258D01*
X473701Y97404D01*
X473848Y97257D01*
X473996Y96962D01*
Y96667D01*
X473848Y96371D01*
X473701Y96224D01*
X473258Y96076D01*
X471929D01*
X472963D02*
X473996Y94453D01*
X474689Y96962D02*
X474985Y97109D01*
X475427Y97552D01*
Y94453D01*
X514433Y153107D02*
Y150008D01*
Y153107D02*
X515762D01*
X516205Y152960D01*
X516352Y152812D01*
X516500Y152517D01*
Y152222D01*
X516352Y151927D01*
X516205Y151779D01*
X515762Y151631D01*
X514433D01*
X515467D02*
X516500Y150008D01*
X517193Y152517D02*
X517489Y152664D01*
X517931Y153107D01*
Y150008D01*
X520352Y153107D02*
X519909Y152960D01*
X519614Y152517D01*
X519466Y151779D01*
Y151336D01*
X519614Y150598D01*
X519909Y150155D01*
X520352Y150008D01*
X520647D01*
X521090Y150155D01*
X521385Y150598D01*
X521532Y151336D01*
Y151779D01*
X521385Y152517D01*
X521090Y152960D01*
X520647Y153107D01*
X520352D01*
X517934Y168418D02*
Y165319D01*
Y168418D02*
X519262D01*
X519705Y168271D01*
X519852Y168123D01*
X520000Y167828D01*
Y167533D01*
X519852Y167237D01*
X519705Y167090D01*
X519262Y166942D01*
X517934D01*
X518967D02*
X520000Y165319D01*
X520693Y167828D02*
X520989Y167975D01*
X521431Y168418D01*
Y165319D01*
X524442Y168418D02*
X522966Y166352D01*
X525180D01*
X524442Y168418D02*
Y165319D01*
X471929Y109363D02*
Y106264D01*
Y109363D02*
X473258D01*
X473701Y109215D01*
X473848Y109068D01*
X473996Y108773D01*
Y108478D01*
X473848Y108182D01*
X473701Y108035D01*
X473258Y107887D01*
X471929D01*
X472963D02*
X473996Y106264D01*
X474837Y108625D02*
Y108773D01*
X474985Y109068D01*
X475132Y109215D01*
X475427Y109363D01*
X476018D01*
X476313Y109215D01*
X476460Y109068D01*
X476608Y108773D01*
Y108478D01*
X476460Y108182D01*
X476165Y107740D01*
X474689Y106264D01*
X476756D01*
X580926Y156607D02*
Y153508D01*
Y156607D02*
X582254D01*
X582697Y156460D01*
X582844Y156312D01*
X582992Y156017D01*
Y155722D01*
X582844Y155427D01*
X582697Y155279D01*
X582254Y155131D01*
X580926D01*
X581959D02*
X582992Y153508D01*
X583685Y156017D02*
X583981Y156165D01*
X584423Y156607D01*
Y153508D01*
X586254Y156607D02*
X587877D01*
X586992Y155427D01*
X587434D01*
X587729Y155279D01*
X587877Y155131D01*
X588025Y154689D01*
Y154393D01*
X587877Y153951D01*
X587582Y153656D01*
X587139Y153508D01*
X586696D01*
X586254Y153656D01*
X586106Y153803D01*
X585958Y154098D01*
X545493Y168418D02*
Y165319D01*
Y168418D02*
X546821D01*
X547264Y168271D01*
X547411Y168123D01*
X547559Y167828D01*
Y167533D01*
X547411Y167237D01*
X547264Y167090D01*
X546821Y166942D01*
X545493D01*
X546526D02*
X547559Y165319D01*
X548252Y167828D02*
X548548Y167975D01*
X548990Y168418D01*
Y165319D01*
X552296Y168418D02*
X550820D01*
X550673Y167090D01*
X550820Y167237D01*
X551263Y167385D01*
X551706D01*
X552149Y167237D01*
X552444Y166942D01*
X552592Y166500D01*
Y166204D01*
X552444Y165762D01*
X552149Y165466D01*
X551706Y165319D01*
X551263D01*
X550820Y165466D01*
X550673Y165614D01*
X550525Y165909D01*
X699036Y160544D02*
Y157445D01*
Y160544D02*
X700364D01*
X700807Y160397D01*
X700955Y160249D01*
X701102Y159954D01*
Y159659D01*
X700955Y159363D01*
X700807Y159216D01*
X700364Y159068D01*
X699036D01*
X700069D02*
X701102Y157445D01*
X701796Y159954D02*
X702091Y160101D01*
X702534Y160544D01*
Y157445D01*
X705840Y160101D02*
X705692Y160397D01*
X705249Y160544D01*
X704954D01*
X704511Y160397D01*
X704216Y159954D01*
X704069Y159216D01*
Y158478D01*
X704216Y157888D01*
X704511Y157592D01*
X704954Y157445D01*
X705102D01*
X705545Y157592D01*
X705840Y157888D01*
X705987Y158330D01*
Y158478D01*
X705840Y158921D01*
X705545Y159216D01*
X705102Y159363D01*
X704954D01*
X704511Y159216D01*
X704216Y158921D01*
X704069Y158478D01*
X582166Y109363D02*
Y106264D01*
Y109363D02*
X583494D01*
X583937Y109215D01*
X584084Y109068D01*
X584232Y108773D01*
Y108478D01*
X584084Y108182D01*
X583937Y108035D01*
X583494Y107887D01*
X582166D01*
X583199D02*
X584232Y106264D01*
X586697Y108920D02*
X586549Y109215D01*
X586106Y109363D01*
X585811D01*
X585368Y109215D01*
X585073Y108773D01*
X584926Y108035D01*
Y107297D01*
X585073Y106707D01*
X585368Y106411D01*
X585811Y106264D01*
X585959D01*
X586401Y106411D01*
X586697Y106707D01*
X586844Y107149D01*
Y107297D01*
X586697Y107740D01*
X586401Y108035D01*
X585959Y108182D01*
X585811D01*
X585368Y108035D01*
X585073Y107740D01*
X584926Y107297D01*
X675414Y172355D02*
Y169256D01*
Y172355D02*
X676742D01*
X677185Y172208D01*
X677332Y172060D01*
X677480Y171765D01*
Y171470D01*
X677332Y171175D01*
X677185Y171027D01*
X676742Y170879D01*
X675414D01*
X676447D02*
X677480Y169256D01*
X678174Y171765D02*
X678469Y171913D01*
X678912Y172355D01*
Y169256D01*
X682513Y172355D02*
X681037Y169256D01*
X680447Y172355D02*
X682513D01*
X471929Y144796D02*
Y141697D01*
Y144796D02*
X473258D01*
X473701Y144649D01*
X473848Y144501D01*
X473996Y144206D01*
Y143911D01*
X473848Y143615D01*
X473701Y143468D01*
X473258Y143320D01*
X471929D01*
X472963D02*
X473996Y141697D01*
X474985Y144796D02*
X476608D01*
X475722Y143615D01*
X476165D01*
X476460Y143468D01*
X476608Y143320D01*
X476756Y142877D01*
Y142582D01*
X476608Y142140D01*
X476313Y141844D01*
X475870Y141697D01*
X475427D01*
X474985Y141844D01*
X474837Y141992D01*
X474689Y142287D01*
X471929Y132985D02*
Y129886D01*
Y132985D02*
X473258D01*
X473701Y132838D01*
X473848Y132690D01*
X473996Y132395D01*
Y132100D01*
X473848Y131805D01*
X473701Y131657D01*
X473258Y131509D01*
X471929D01*
X472963D02*
X473996Y129886D01*
X476165Y132985D02*
X474689Y130919D01*
X476903D01*
X476165Y132985D02*
Y129886D01*
X471929Y156607D02*
Y153508D01*
Y156607D02*
X473258D01*
X473701Y156460D01*
X473848Y156312D01*
X473996Y156017D01*
Y155722D01*
X473848Y155427D01*
X473701Y155279D01*
X473258Y155131D01*
X471929D01*
X472963D02*
X473996Y153508D01*
X476460Y156607D02*
X474985D01*
X474837Y155279D01*
X474985Y155427D01*
X475427Y155574D01*
X475870D01*
X476313Y155427D01*
X476608Y155131D01*
X476756Y154689D01*
Y154393D01*
X476608Y153951D01*
X476313Y153656D01*
X475870Y153508D01*
X475427D01*
X474985Y153656D01*
X474837Y153803D01*
X474689Y154098D01*
X546733Y109363D02*
Y106264D01*
Y109363D02*
X548061D01*
X548504Y109215D01*
X548651Y109068D01*
X548799Y108773D01*
Y108478D01*
X548651Y108182D01*
X548504Y108035D01*
X548061Y107887D01*
X546733D01*
X547766D02*
X548799Y106264D01*
X551559Y109363D02*
X550083Y106264D01*
X549493Y109363D02*
X551559D01*
X625473Y144796D02*
Y141697D01*
Y144796D02*
X626801D01*
X627244Y144649D01*
X627391Y144501D01*
X627539Y144206D01*
Y143911D01*
X627391Y143615D01*
X627244Y143468D01*
X626801Y143320D01*
X625473D01*
X626506D02*
X627539Y141697D01*
X628971Y144796D02*
X628528Y144649D01*
X628380Y144353D01*
Y144058D01*
X628528Y143763D01*
X628823Y143615D01*
X629413Y143468D01*
X629856Y143320D01*
X630151Y143025D01*
X630299Y142730D01*
Y142287D01*
X630151Y141992D01*
X630004Y141844D01*
X629561Y141697D01*
X628971D01*
X628528Y141844D01*
X628380Y141992D01*
X628233Y142287D01*
Y142730D01*
X628380Y143025D01*
X628675Y143320D01*
X629118Y143468D01*
X629708Y143615D01*
X630004Y143763D01*
X630151Y144058D01*
Y144353D01*
X630004Y144649D01*
X629561Y144796D01*
X628971D01*
X625473Y132985D02*
Y129886D01*
Y132985D02*
X626801D01*
X627244Y132838D01*
X627391Y132690D01*
X627539Y132395D01*
Y132100D01*
X627391Y131805D01*
X627244Y131657D01*
X626801Y131509D01*
X625473D01*
X626506D02*
X627539Y129886D01*
X630151Y131952D02*
X630004Y131509D01*
X629708Y131214D01*
X629266Y131067D01*
X629118D01*
X628675Y131214D01*
X628380Y131509D01*
X628233Y131952D01*
Y132100D01*
X628380Y132542D01*
X628675Y132838D01*
X629118Y132985D01*
X629266D01*
X629708Y132838D01*
X630004Y132542D01*
X630151Y131952D01*
Y131214D01*
X630004Y130476D01*
X629708Y130033D01*
X629266Y129886D01*
X628971D01*
X628528Y130033D01*
X628380Y130329D01*
X580926Y144796D02*
Y141697D01*
Y144796D02*
X582254D01*
X582697Y144649D01*
X582844Y144501D01*
X582992Y144206D01*
Y143911D01*
X582844Y143615D01*
X582697Y143468D01*
X582254Y143320D01*
X580926D01*
X581959D02*
X582992Y141697D01*
X583685Y144206D02*
X583981Y144353D01*
X584423Y144796D01*
Y141697D01*
X585958Y144206D02*
X586254Y144353D01*
X586696Y144796D01*
Y141697D01*
X580926Y132985D02*
Y129886D01*
Y132985D02*
X582254D01*
X582697Y132838D01*
X582844Y132690D01*
X582992Y132395D01*
Y132100D01*
X582844Y131805D01*
X582697Y131657D01*
X582254Y131509D01*
X580926D01*
X581959D02*
X582992Y129886D01*
X583685Y132395D02*
X583981Y132542D01*
X584423Y132985D01*
Y129886D01*
X586106Y132247D02*
Y132395D01*
X586254Y132690D01*
X586401Y132838D01*
X586696Y132985D01*
X587287D01*
X587582Y132838D01*
X587729Y132690D01*
X587877Y132395D01*
Y132100D01*
X587729Y131805D01*
X587434Y131362D01*
X585958Y129886D01*
X588025D01*
X647638Y109363D02*
Y106264D01*
X649409D01*
X652110D02*
X650929Y109363D01*
X649748Y106264D01*
X650191Y107297D02*
X651667D01*
X654899Y108920D02*
X654604Y109215D01*
X654161Y109363D01*
X653571D01*
X653128Y109215D01*
X652833Y108920D01*
Y108625D01*
X652981Y108330D01*
X653128Y108182D01*
X653423Y108035D01*
X654309Y107740D01*
X654604Y107592D01*
X654751Y107445D01*
X654899Y107149D01*
Y106707D01*
X654604Y106411D01*
X654161Y106264D01*
X653571D01*
X653128Y106411D01*
X652833Y106707D01*
X657511Y109363D02*
X655593D01*
Y106264D01*
X657511D01*
X655593Y107887D02*
X656774D01*
X658028Y109363D02*
Y106264D01*
Y109363D02*
X659356D01*
X659799Y109215D01*
X659947Y109068D01*
X660094Y108773D01*
Y108478D01*
X659947Y108182D01*
X659799Y108035D01*
X659356Y107887D01*
X658028D01*
X659061D02*
X660094Y106264D01*
X663223Y109363D02*
Y106264D01*
Y109363D02*
X664256D01*
X664699Y109215D01*
X664994Y108920D01*
X665142Y108625D01*
X665289Y108182D01*
Y107445D01*
X665142Y107002D01*
X664994Y106707D01*
X664699Y106411D01*
X664256Y106264D01*
X663223D01*
X665983Y109363D02*
Y106264D01*
Y109363D02*
X667311D01*
X667754Y109215D01*
X667902Y109068D01*
X668049Y108773D01*
Y108478D01*
X667902Y108182D01*
X667754Y108035D01*
X667311Y107887D01*
X665983D01*
X667016D02*
X668049Y106264D01*
X668743Y109363D02*
Y106264D01*
X669392Y109363D02*
X670573Y106264D01*
X671754Y109363D02*
X670573Y106264D01*
X674071Y109363D02*
X672152D01*
Y106264D01*
X674071D01*
X672152Y107887D02*
X673333D01*
X674587Y109363D02*
Y106264D01*
Y109363D02*
X675915D01*
X676358Y109215D01*
X676506Y109068D01*
X676653Y108773D01*
Y108478D01*
X676506Y108182D01*
X676358Y108035D01*
X675915Y107887D01*
X674587D01*
X675620D02*
X676653Y106264D01*
X679782Y109363D02*
Y106264D01*
Y109363D02*
X681111D01*
X681553Y109215D01*
X681701Y109068D01*
X681848Y108773D01*
Y108478D01*
X681701Y108182D01*
X681553Y108035D01*
X681111Y107887D01*
X679782D02*
X681111D01*
X681553Y107740D01*
X681701Y107592D01*
X681848Y107297D01*
Y106854D01*
X681701Y106559D01*
X681553Y106411D01*
X681111Y106264D01*
X679782D01*
X683428Y109363D02*
X683133Y109215D01*
X682837Y108920D01*
X682690Y108625D01*
X682542Y108182D01*
Y107445D01*
X682690Y107002D01*
X682837Y106707D01*
X683133Y106411D01*
X683428Y106264D01*
X684018D01*
X684313Y106411D01*
X684608Y106707D01*
X684756Y107002D01*
X684904Y107445D01*
Y108182D01*
X684756Y108625D01*
X684608Y108920D01*
X684313Y109215D01*
X684018Y109363D01*
X683428D01*
X687988Y106264D02*
X686807Y109363D01*
X685627Y106264D01*
X686069Y107297D02*
X687545D01*
X688711Y109363D02*
Y106264D01*
Y109363D02*
X690040D01*
X690482Y109215D01*
X690630Y109068D01*
X690778Y108773D01*
Y108478D01*
X690630Y108182D01*
X690482Y108035D01*
X690040Y107887D01*
X688711D01*
X689744D02*
X690778Y106264D01*
X691471Y109363D02*
Y106264D01*
Y109363D02*
X692504D01*
X692947Y109215D01*
X693242Y108920D01*
X693390Y108625D01*
X693537Y108182D01*
Y107445D01*
X693390Y107002D01*
X693242Y106707D01*
X692947Y106411D01*
X692504Y106264D01*
X691471D01*
X696666Y109363D02*
X697847Y106264D01*
X699028Y109363D02*
X697847Y106264D01*
X699426Y108773D02*
X699721Y108920D01*
X700164Y109363D01*
Y106264D01*
X701847Y106559D02*
X701699Y106411D01*
X701847Y106264D01*
X701994Y106411D01*
X701847Y106559D01*
X703559Y109363D02*
X703116Y109215D01*
X702821Y108773D01*
X702673Y108035D01*
Y107592D01*
X702821Y106854D01*
X703116Y106411D01*
X703559Y106264D01*
X703854D01*
X704297Y106411D01*
X704592Y106854D01*
X704739Y107592D01*
Y108035D01*
X704592Y108773D01*
X704297Y109215D01*
X703854Y109363D01*
X703559D01*
X679134Y227485D02*
Y225271D01*
X679282Y224829D01*
X679577Y224533D01*
X680019Y224386D01*
X680315D01*
X680757Y224533D01*
X681052Y224829D01*
X681200Y225271D01*
Y227485D01*
X683532D02*
X682056Y225419D01*
X684270D01*
X683532Y227485D02*
Y224386D01*
X498032Y215674D02*
Y213460D01*
X498179Y213018D01*
X498474Y212722D01*
X498917Y212575D01*
X499212D01*
X499655Y212722D01*
X499950Y213018D01*
X500098Y213460D01*
Y215674D01*
X500954Y215084D02*
X501249Y215231D01*
X501692Y215674D01*
Y212575D01*
X452263Y195989D02*
Y193628D01*
X452116Y193185D01*
X451968Y193037D01*
X451673Y192890D01*
X451378D01*
X451083Y193037D01*
X450935Y193185D01*
X450787Y193628D01*
Y193923D01*
X453060Y195399D02*
X453355Y195546D01*
X453798Y195989D01*
Y192890D01*
X624016Y215674D02*
Y213460D01*
X624163Y213018D01*
X624459Y212722D01*
X624901Y212575D01*
X625197D01*
X625639Y212722D01*
X625934Y213018D01*
X626082Y213460D01*
Y215674D01*
X627233D02*
X628857D01*
X627971Y214493D01*
X628414D01*
X628709Y214346D01*
X628857Y214198D01*
X629004Y213755D01*
Y213460D01*
X628857Y213018D01*
X628561Y212722D01*
X628119Y212575D01*
X627676D01*
X627233Y212722D01*
X627086Y212870D01*
X626938Y213165D01*
X475295Y215674D02*
X475000Y215527D01*
X474705Y215231D01*
X474557Y214936D01*
X474409Y214493D01*
Y213755D01*
X474557Y213313D01*
X474705Y213018D01*
X475000Y212722D01*
X475295Y212575D01*
X475885D01*
X476181Y212722D01*
X476476Y213018D01*
X476623Y213313D01*
X476771Y213755D01*
Y214493D01*
X476623Y214936D01*
X476476Y215231D01*
X476181Y215527D01*
X475885Y215674D01*
X475295D01*
X475738Y213165D02*
X476623Y212280D01*
X477494Y215084D02*
X477789Y215231D01*
X478232Y215674D01*
Y212575D01*
X698553Y234621D02*
X698405Y234916D01*
X698110Y235212D01*
X697815Y235359D01*
X697224D01*
X696929Y235212D01*
X696634Y234916D01*
X696487Y234621D01*
X696339Y234178D01*
Y233440D01*
X696487Y232998D01*
X696634Y232703D01*
X696929Y232407D01*
X697224Y232260D01*
X697815D01*
X698110Y232407D01*
X698405Y232703D01*
X698553Y232998D01*
X701342Y234326D02*
X701194Y233883D01*
X700899Y233588D01*
X700457Y233440D01*
X700309D01*
X699866Y233588D01*
X699571Y233883D01*
X699424Y234326D01*
Y234474D01*
X699571Y234916D01*
X699866Y235212D01*
X700309Y235359D01*
X700457D01*
X700899Y235212D01*
X701194Y234916D01*
X701342Y234326D01*
Y233588D01*
X701194Y232850D01*
X700899Y232407D01*
X700457Y232260D01*
X700161D01*
X699719Y232407D01*
X699571Y232703D01*
X647372Y262180D02*
X647224Y262475D01*
X646929Y262771D01*
X646634Y262918D01*
X646043D01*
X645748Y262771D01*
X645453Y262475D01*
X645305Y262180D01*
X645158Y261737D01*
Y261000D01*
X645305Y260557D01*
X645453Y260262D01*
X645748Y259966D01*
X646043Y259819D01*
X646634D01*
X646929Y259966D01*
X647224Y260262D01*
X647372Y260557D01*
X648980Y262918D02*
X648538Y262771D01*
X648390Y262475D01*
Y262180D01*
X648538Y261885D01*
X648833Y261737D01*
X649423Y261590D01*
X649866Y261442D01*
X650161Y261147D01*
X650309Y260852D01*
Y260409D01*
X650161Y260114D01*
X650013Y259966D01*
X649571Y259819D01*
X648980D01*
X648538Y259966D01*
X648390Y260114D01*
X648242Y260409D01*
Y260852D01*
X648390Y261147D01*
X648685Y261442D01*
X649128Y261590D01*
X649718Y261737D01*
X650013Y261885D01*
X650161Y262180D01*
Y262475D01*
X650013Y262771D01*
X649571Y262918D01*
X648980D01*
X497765Y238558D02*
X497618Y238853D01*
X497323Y239149D01*
X497027Y239296D01*
X496437D01*
X496142Y239149D01*
X495847Y238853D01*
X495699Y238558D01*
X495551Y238116D01*
Y237378D01*
X495699Y236935D01*
X495847Y236640D01*
X496142Y236344D01*
X496437Y236197D01*
X497027D01*
X497323Y236344D01*
X497618Y236640D01*
X497765Y236935D01*
X498784Y238558D02*
Y238706D01*
X498931Y239001D01*
X499079Y239149D01*
X499374Y239296D01*
X499964D01*
X500259Y239149D01*
X500407Y239001D01*
X500555Y238706D01*
Y238411D01*
X500407Y238116D01*
X500112Y237673D01*
X498636Y236197D01*
X500702D01*
X584379Y214936D02*
X584232Y215231D01*
X583937Y215527D01*
X583641Y215674D01*
X583051D01*
X582756Y215527D01*
X582461Y215231D01*
X582313Y214936D01*
X582166Y214493D01*
Y213755D01*
X582313Y213313D01*
X582461Y213018D01*
X582756Y212722D01*
X583051Y212575D01*
X583641D01*
X583937Y212722D01*
X584232Y213018D01*
X584379Y213313D01*
X587021Y215231D02*
X586874Y215527D01*
X586431Y215674D01*
X586136D01*
X585693Y215527D01*
X585398Y215084D01*
X585250Y214346D01*
Y213608D01*
X585398Y213018D01*
X585693Y212722D01*
X586136Y212575D01*
X586283D01*
X586726Y212722D01*
X587021Y213018D01*
X587169Y213460D01*
Y213608D01*
X587021Y214051D01*
X586726Y214346D01*
X586283Y214493D01*
X586136D01*
X585693Y214346D01*
X585398Y214051D01*
X585250Y213608D01*
X521387Y238558D02*
X521240Y238853D01*
X520945Y239149D01*
X520649Y239296D01*
X520059D01*
X519764Y239149D01*
X519469Y238853D01*
X519321Y238558D01*
X519173Y238116D01*
Y237378D01*
X519321Y236935D01*
X519469Y236640D01*
X519764Y236344D01*
X520059Y236197D01*
X520649D01*
X520945Y236344D01*
X521240Y236640D01*
X521387Y236935D01*
X523734Y239296D02*
X522258Y237230D01*
X524472D01*
X523734Y239296D02*
Y236197D01*
X702490Y266117D02*
X702342Y266412D01*
X702047Y266708D01*
X701752Y266855D01*
X701161D01*
X700866Y266708D01*
X700571Y266412D01*
X700423Y266117D01*
X700276Y265674D01*
Y264937D01*
X700423Y264494D01*
X700571Y264199D01*
X700866Y263903D01*
X701161Y263756D01*
X701752D01*
X702047Y263903D01*
X702342Y264199D01*
X702490Y264494D01*
X705427Y266855D02*
X703951Y263756D01*
X703361Y266855D02*
X705427D01*
X521387Y226747D02*
X521240Y227042D01*
X520945Y227338D01*
X520649Y227485D01*
X520059D01*
X519764Y227338D01*
X519469Y227042D01*
X519321Y226747D01*
X519173Y226305D01*
Y225567D01*
X519321Y225124D01*
X519469Y224829D01*
X519764Y224533D01*
X520059Y224386D01*
X520649D01*
X520945Y224533D01*
X521240Y224829D01*
X521387Y225124D01*
X524029Y227485D02*
X522553D01*
X522406Y226157D01*
X522553Y226305D01*
X522996Y226452D01*
X523439D01*
X523882Y226305D01*
X524177Y226009D01*
X524324Y225567D01*
Y225271D01*
X524177Y224829D01*
X523882Y224533D01*
X523439Y224386D01*
X522996D01*
X522553Y224533D01*
X522406Y224681D01*
X522258Y224976D01*
X497765Y226747D02*
X497618Y227042D01*
X497323Y227338D01*
X497027Y227485D01*
X496437D01*
X496142Y227338D01*
X495847Y227042D01*
X495699Y226747D01*
X495551Y226305D01*
Y225567D01*
X495699Y225124D01*
X495847Y224829D01*
X496142Y224533D01*
X496437Y224386D01*
X497027D01*
X497323Y224533D01*
X497618Y224829D01*
X497765Y225124D01*
X498931Y227485D02*
X500555D01*
X499669Y226305D01*
X500112D01*
X500407Y226157D01*
X500555Y226009D01*
X500702Y225567D01*
Y225271D01*
X500555Y224829D01*
X500259Y224533D01*
X499817Y224386D01*
X499374D01*
X498931Y224533D01*
X498784Y224681D01*
X498636Y224976D01*
X474143Y262180D02*
X473996Y262475D01*
X473701Y262771D01*
X473405Y262918D01*
X472815D01*
X472520Y262771D01*
X472225Y262475D01*
X472077Y262180D01*
X471929Y261737D01*
Y261000D01*
X472077Y260557D01*
X472225Y260262D01*
X472520Y259966D01*
X472815Y259819D01*
X473405D01*
X473701Y259966D01*
X473996Y260262D01*
X474143Y260557D01*
X475014Y262328D02*
X475309Y262475D01*
X475752Y262918D01*
Y259819D01*
X627953Y255044D02*
Y251945D01*
Y255044D02*
X628986D01*
X629429Y254897D01*
X629724Y254602D01*
X629871Y254306D01*
X630019Y253864D01*
Y253126D01*
X629871Y252683D01*
X629724Y252388D01*
X629429Y252093D01*
X628986Y251945D01*
X627953D01*
X630713Y254454D02*
X631008Y254602D01*
X631451Y255044D01*
Y251945D01*
X655512Y227485D02*
Y224386D01*
X657283D01*
X657622Y226895D02*
X657917Y227042D01*
X658360Y227485D01*
Y224386D01*
X471929Y192052D02*
Y188953D01*
Y192052D02*
X473258D01*
X473701Y191904D01*
X473848Y191757D01*
X473996Y191462D01*
Y191167D01*
X473848Y190871D01*
X473701Y190724D01*
X473258Y190576D01*
X471929D01*
X472963D02*
X473996Y188953D01*
X474689Y191462D02*
X474985Y191609D01*
X475427Y192052D01*
Y188953D01*
X514433Y247607D02*
Y244508D01*
Y247607D02*
X515762D01*
X516205Y247460D01*
X516352Y247312D01*
X516500Y247017D01*
Y246722D01*
X516352Y246427D01*
X516205Y246279D01*
X515762Y246131D01*
X514433D01*
X515467D02*
X516500Y244508D01*
X517193Y247017D02*
X517489Y247164D01*
X517931Y247607D01*
Y244508D01*
X520352Y247607D02*
X519909Y247460D01*
X519614Y247017D01*
X519466Y246279D01*
Y245836D01*
X519614Y245098D01*
X519909Y244655D01*
X520352Y244508D01*
X520647D01*
X521090Y244655D01*
X521385Y245098D01*
X521532Y245836D01*
Y246279D01*
X521385Y247017D01*
X521090Y247460D01*
X520647Y247607D01*
X520352D01*
X517934Y262918D02*
Y259819D01*
Y262918D02*
X519262D01*
X519705Y262771D01*
X519852Y262623D01*
X520000Y262328D01*
Y262033D01*
X519852Y261737D01*
X519705Y261590D01*
X519262Y261442D01*
X517934D01*
X518967D02*
X520000Y259819D01*
X520693Y262328D02*
X520989Y262475D01*
X521431Y262918D01*
Y259819D01*
X524442Y262918D02*
X522966Y260852D01*
X525180D01*
X524442Y262918D02*
Y259819D01*
X471929Y203863D02*
Y200764D01*
Y203863D02*
X473258D01*
X473701Y203715D01*
X473848Y203568D01*
X473996Y203273D01*
Y202978D01*
X473848Y202682D01*
X473701Y202535D01*
X473258Y202387D01*
X471929D01*
X472963D02*
X473996Y200764D01*
X474837Y203125D02*
Y203273D01*
X474985Y203568D01*
X475132Y203715D01*
X475427Y203863D01*
X476018D01*
X476313Y203715D01*
X476460Y203568D01*
X476608Y203273D01*
Y202978D01*
X476460Y202682D01*
X476165Y202240D01*
X474689Y200764D01*
X476756D01*
X580926Y251107D02*
Y248008D01*
Y251107D02*
X582254D01*
X582697Y250960D01*
X582844Y250812D01*
X582992Y250517D01*
Y250222D01*
X582844Y249926D01*
X582697Y249779D01*
X582254Y249631D01*
X580926D01*
X581959D02*
X582992Y248008D01*
X583685Y250517D02*
X583981Y250664D01*
X584423Y251107D01*
Y248008D01*
X586254Y251107D02*
X587877D01*
X586992Y249926D01*
X587434D01*
X587729Y249779D01*
X587877Y249631D01*
X588025Y249189D01*
Y248893D01*
X587877Y248451D01*
X587582Y248155D01*
X587139Y248008D01*
X586696D01*
X586254Y248155D01*
X586106Y248303D01*
X585958Y248598D01*
X545493Y262918D02*
Y259819D01*
Y262918D02*
X546821D01*
X547264Y262771D01*
X547411Y262623D01*
X547559Y262328D01*
Y262033D01*
X547411Y261737D01*
X547264Y261590D01*
X546821Y261442D01*
X545493D01*
X546526D02*
X547559Y259819D01*
X548252Y262328D02*
X548548Y262475D01*
X548990Y262918D01*
Y259819D01*
X552296Y262918D02*
X550820D01*
X550673Y261590D01*
X550820Y261737D01*
X551263Y261885D01*
X551706D01*
X552149Y261737D01*
X552444Y261442D01*
X552592Y261000D01*
Y260704D01*
X552444Y260262D01*
X552149Y259966D01*
X551706Y259819D01*
X551263D01*
X550820Y259966D01*
X550673Y260114D01*
X550525Y260409D01*
X699036Y255044D02*
Y251945D01*
Y255044D02*
X700364D01*
X700807Y254897D01*
X700955Y254749D01*
X701102Y254454D01*
Y254159D01*
X700955Y253864D01*
X700807Y253716D01*
X700364Y253568D01*
X699036D01*
X700069D02*
X701102Y251945D01*
X701796Y254454D02*
X702091Y254602D01*
X702534Y255044D01*
Y251945D01*
X705840Y254602D02*
X705692Y254897D01*
X705249Y255044D01*
X704954D01*
X704511Y254897D01*
X704216Y254454D01*
X704069Y253716D01*
Y252978D01*
X704216Y252388D01*
X704511Y252093D01*
X704954Y251945D01*
X705102D01*
X705545Y252093D01*
X705840Y252388D01*
X705987Y252830D01*
Y252978D01*
X705840Y253421D01*
X705545Y253716D01*
X705102Y253864D01*
X704954D01*
X704511Y253716D01*
X704216Y253421D01*
X704069Y252978D01*
X582166Y203863D02*
Y200764D01*
Y203863D02*
X583494D01*
X583937Y203715D01*
X584084Y203568D01*
X584232Y203273D01*
Y202978D01*
X584084Y202682D01*
X583937Y202535D01*
X583494Y202387D01*
X582166D01*
X583199D02*
X584232Y200764D01*
X586697Y203420D02*
X586549Y203715D01*
X586106Y203863D01*
X585811D01*
X585368Y203715D01*
X585073Y203273D01*
X584926Y202535D01*
Y201797D01*
X585073Y201206D01*
X585368Y200911D01*
X585811Y200764D01*
X585959D01*
X586401Y200911D01*
X586697Y201206D01*
X586844Y201649D01*
Y201797D01*
X586697Y202240D01*
X586401Y202535D01*
X585959Y202682D01*
X585811D01*
X585368Y202535D01*
X585073Y202240D01*
X584926Y201797D01*
X675414Y266855D02*
Y263756D01*
Y266855D02*
X676742D01*
X677185Y266708D01*
X677332Y266560D01*
X677480Y266265D01*
Y265970D01*
X677332Y265674D01*
X677185Y265527D01*
X676742Y265379D01*
X675414D01*
X676447D02*
X677480Y263756D01*
X678174Y266265D02*
X678469Y266412D01*
X678912Y266855D01*
Y263756D01*
X682513Y266855D02*
X681037Y263756D01*
X680447Y266855D02*
X682513D01*
X471929Y239296D02*
Y236197D01*
Y239296D02*
X473258D01*
X473701Y239149D01*
X473848Y239001D01*
X473996Y238706D01*
Y238411D01*
X473848Y238116D01*
X473701Y237968D01*
X473258Y237820D01*
X471929D01*
X472963D02*
X473996Y236197D01*
X474985Y239296D02*
X476608D01*
X475722Y238116D01*
X476165D01*
X476460Y237968D01*
X476608Y237820D01*
X476756Y237378D01*
Y237082D01*
X476608Y236640D01*
X476313Y236344D01*
X475870Y236197D01*
X475427D01*
X474985Y236344D01*
X474837Y236492D01*
X474689Y236787D01*
X471929Y227485D02*
Y224386D01*
Y227485D02*
X473258D01*
X473701Y227338D01*
X473848Y227190D01*
X473996Y226895D01*
Y226600D01*
X473848Y226305D01*
X473701Y226157D01*
X473258Y226009D01*
X471929D01*
X472963D02*
X473996Y224386D01*
X476165Y227485D02*
X474689Y225419D01*
X476903D01*
X476165Y227485D02*
Y224386D01*
X471929Y251107D02*
Y248008D01*
Y251107D02*
X473258D01*
X473701Y250960D01*
X473848Y250812D01*
X473996Y250517D01*
Y250222D01*
X473848Y249926D01*
X473701Y249779D01*
X473258Y249631D01*
X471929D01*
X472963D02*
X473996Y248008D01*
X476460Y251107D02*
X474985D01*
X474837Y249779D01*
X474985Y249926D01*
X475427Y250074D01*
X475870D01*
X476313Y249926D01*
X476608Y249631D01*
X476756Y249189D01*
Y248893D01*
X476608Y248451D01*
X476313Y248155D01*
X475870Y248008D01*
X475427D01*
X474985Y248155D01*
X474837Y248303D01*
X474689Y248598D01*
X546733Y203863D02*
Y200764D01*
Y203863D02*
X548061D01*
X548504Y203715D01*
X548651Y203568D01*
X548799Y203273D01*
Y202978D01*
X548651Y202682D01*
X548504Y202535D01*
X548061Y202387D01*
X546733D01*
X547766D02*
X548799Y200764D01*
X551559Y203863D02*
X550083Y200764D01*
X549493Y203863D02*
X551559D01*
X625473Y239296D02*
Y236197D01*
Y239296D02*
X626801D01*
X627244Y239149D01*
X627391Y239001D01*
X627539Y238706D01*
Y238411D01*
X627391Y238116D01*
X627244Y237968D01*
X626801Y237820D01*
X625473D01*
X626506D02*
X627539Y236197D01*
X628971Y239296D02*
X628528Y239149D01*
X628380Y238853D01*
Y238558D01*
X628528Y238263D01*
X628823Y238116D01*
X629413Y237968D01*
X629856Y237820D01*
X630151Y237525D01*
X630299Y237230D01*
Y236787D01*
X630151Y236492D01*
X630004Y236344D01*
X629561Y236197D01*
X628971D01*
X628528Y236344D01*
X628380Y236492D01*
X628233Y236787D01*
Y237230D01*
X628380Y237525D01*
X628675Y237820D01*
X629118Y237968D01*
X629708Y238116D01*
X630004Y238263D01*
X630151Y238558D01*
Y238853D01*
X630004Y239149D01*
X629561Y239296D01*
X628971D01*
X625473Y227485D02*
Y224386D01*
Y227485D02*
X626801D01*
X627244Y227338D01*
X627391Y227190D01*
X627539Y226895D01*
Y226600D01*
X627391Y226305D01*
X627244Y226157D01*
X626801Y226009D01*
X625473D01*
X626506D02*
X627539Y224386D01*
X630151Y226452D02*
X630004Y226009D01*
X629708Y225714D01*
X629266Y225567D01*
X629118D01*
X628675Y225714D01*
X628380Y226009D01*
X628233Y226452D01*
Y226600D01*
X628380Y227042D01*
X628675Y227338D01*
X629118Y227485D01*
X629266D01*
X629708Y227338D01*
X630004Y227042D01*
X630151Y226452D01*
Y225714D01*
X630004Y224976D01*
X629708Y224533D01*
X629266Y224386D01*
X628971D01*
X628528Y224533D01*
X628380Y224829D01*
X580926Y239296D02*
Y236197D01*
Y239296D02*
X582254D01*
X582697Y239149D01*
X582844Y239001D01*
X582992Y238706D01*
Y238411D01*
X582844Y238116D01*
X582697Y237968D01*
X582254Y237820D01*
X580926D01*
X581959D02*
X582992Y236197D01*
X583685Y238706D02*
X583981Y238853D01*
X584423Y239296D01*
Y236197D01*
X585958Y238706D02*
X586254Y238853D01*
X586696Y239296D01*
Y236197D01*
X580926Y227485D02*
Y224386D01*
Y227485D02*
X582254D01*
X582697Y227338D01*
X582844Y227190D01*
X582992Y226895D01*
Y226600D01*
X582844Y226305D01*
X582697Y226157D01*
X582254Y226009D01*
X580926D01*
X581959D02*
X582992Y224386D01*
X583685Y226895D02*
X583981Y227042D01*
X584423Y227485D01*
Y224386D01*
X586106Y226747D02*
Y226895D01*
X586254Y227190D01*
X586401Y227338D01*
X586696Y227485D01*
X587287D01*
X587582Y227338D01*
X587729Y227190D01*
X587877Y226895D01*
Y226600D01*
X587729Y226305D01*
X587434Y225862D01*
X585958Y224386D01*
X588025D01*
X647638Y203863D02*
Y200764D01*
X649409D01*
X652110D02*
X650929Y203863D01*
X649748Y200764D01*
X650191Y201797D02*
X651667D01*
X654899Y203420D02*
X654604Y203715D01*
X654161Y203863D01*
X653571D01*
X653128Y203715D01*
X652833Y203420D01*
Y203125D01*
X652981Y202830D01*
X653128Y202682D01*
X653423Y202535D01*
X654309Y202240D01*
X654604Y202092D01*
X654751Y201944D01*
X654899Y201649D01*
Y201206D01*
X654604Y200911D01*
X654161Y200764D01*
X653571D01*
X653128Y200911D01*
X652833Y201206D01*
X657511Y203863D02*
X655593D01*
Y200764D01*
X657511D01*
X655593Y202387D02*
X656774D01*
X658028Y203863D02*
Y200764D01*
Y203863D02*
X659356D01*
X659799Y203715D01*
X659947Y203568D01*
X660094Y203273D01*
Y202978D01*
X659947Y202682D01*
X659799Y202535D01*
X659356Y202387D01*
X658028D01*
X659061D02*
X660094Y200764D01*
X663223Y203863D02*
Y200764D01*
Y203863D02*
X664256D01*
X664699Y203715D01*
X664994Y203420D01*
X665142Y203125D01*
X665289Y202682D01*
Y201944D01*
X665142Y201502D01*
X664994Y201206D01*
X664699Y200911D01*
X664256Y200764D01*
X663223D01*
X665983Y203863D02*
Y200764D01*
Y203863D02*
X667311D01*
X667754Y203715D01*
X667902Y203568D01*
X668049Y203273D01*
Y202978D01*
X667902Y202682D01*
X667754Y202535D01*
X667311Y202387D01*
X665983D01*
X667016D02*
X668049Y200764D01*
X668743Y203863D02*
Y200764D01*
X669392Y203863D02*
X670573Y200764D01*
X671754Y203863D02*
X670573Y200764D01*
X674071Y203863D02*
X672152D01*
Y200764D01*
X674071D01*
X672152Y202387D02*
X673333D01*
X674587Y203863D02*
Y200764D01*
Y203863D02*
X675915D01*
X676358Y203715D01*
X676506Y203568D01*
X676653Y203273D01*
Y202978D01*
X676506Y202682D01*
X676358Y202535D01*
X675915Y202387D01*
X674587D01*
X675620D02*
X676653Y200764D01*
X679782Y203863D02*
Y200764D01*
Y203863D02*
X681111D01*
X681553Y203715D01*
X681701Y203568D01*
X681848Y203273D01*
Y202978D01*
X681701Y202682D01*
X681553Y202535D01*
X681111Y202387D01*
X679782D02*
X681111D01*
X681553Y202240D01*
X681701Y202092D01*
X681848Y201797D01*
Y201354D01*
X681701Y201059D01*
X681553Y200911D01*
X681111Y200764D01*
X679782D01*
X683428Y203863D02*
X683133Y203715D01*
X682837Y203420D01*
X682690Y203125D01*
X682542Y202682D01*
Y201944D01*
X682690Y201502D01*
X682837Y201206D01*
X683133Y200911D01*
X683428Y200764D01*
X684018D01*
X684313Y200911D01*
X684608Y201206D01*
X684756Y201502D01*
X684904Y201944D01*
Y202682D01*
X684756Y203125D01*
X684608Y203420D01*
X684313Y203715D01*
X684018Y203863D01*
X683428D01*
X687988Y200764D02*
X686807Y203863D01*
X685627Y200764D01*
X686069Y201797D02*
X687545D01*
X688711Y203863D02*
Y200764D01*
Y203863D02*
X690040D01*
X690482Y203715D01*
X690630Y203568D01*
X690778Y203273D01*
Y202978D01*
X690630Y202682D01*
X690482Y202535D01*
X690040Y202387D01*
X688711D01*
X689744D02*
X690778Y200764D01*
X691471Y203863D02*
Y200764D01*
Y203863D02*
X692504D01*
X692947Y203715D01*
X693242Y203420D01*
X693390Y203125D01*
X693537Y202682D01*
Y201944D01*
X693390Y201502D01*
X693242Y201206D01*
X692947Y200911D01*
X692504Y200764D01*
X691471D01*
X696666Y203863D02*
X697847Y200764D01*
X699028Y203863D02*
X697847Y200764D01*
X699426Y203273D02*
X699721Y203420D01*
X700164Y203863D01*
Y200764D01*
X701847Y201059D02*
X701699Y200911D01*
X701847Y200764D01*
X701994Y200911D01*
X701847Y201059D01*
X703559Y203863D02*
X703116Y203715D01*
X702821Y203273D01*
X702673Y202535D01*
Y202092D01*
X702821Y201354D01*
X703116Y200911D01*
X703559Y200764D01*
X703854D01*
X704297Y200911D01*
X704592Y201354D01*
X704739Y202092D01*
Y202535D01*
X704592Y203273D01*
X704297Y203715D01*
X703854Y203863D01*
X703559D01*
X679134Y321985D02*
Y319771D01*
X679282Y319329D01*
X679577Y319033D01*
X680019Y318886D01*
X680315D01*
X680757Y319033D01*
X681052Y319329D01*
X681200Y319771D01*
Y321985D01*
X683532D02*
X682056Y319919D01*
X684270D01*
X683532Y321985D02*
Y318886D01*
X498032Y310174D02*
Y307960D01*
X498179Y307518D01*
X498474Y307222D01*
X498917Y307075D01*
X499212D01*
X499655Y307222D01*
X499950Y307518D01*
X500098Y307960D01*
Y310174D01*
X500954Y309584D02*
X501249Y309731D01*
X501692Y310174D01*
Y307075D01*
X452263Y290489D02*
Y288128D01*
X452116Y287685D01*
X451968Y287537D01*
X451673Y287390D01*
X451378D01*
X451083Y287537D01*
X450935Y287685D01*
X450787Y288128D01*
Y288423D01*
X453060Y289899D02*
X453355Y290046D01*
X453798Y290489D01*
Y287390D01*
X624016Y310174D02*
Y307960D01*
X624163Y307518D01*
X624459Y307222D01*
X624901Y307075D01*
X625197D01*
X625639Y307222D01*
X625934Y307518D01*
X626082Y307960D01*
Y310174D01*
X627233D02*
X628857D01*
X627971Y308993D01*
X628414D01*
X628709Y308846D01*
X628857Y308698D01*
X629004Y308256D01*
Y307960D01*
X628857Y307518D01*
X628561Y307222D01*
X628119Y307075D01*
X627676D01*
X627233Y307222D01*
X627086Y307370D01*
X626938Y307665D01*
X475295Y310174D02*
X475000Y310027D01*
X474705Y309731D01*
X474557Y309436D01*
X474409Y308993D01*
Y308256D01*
X474557Y307813D01*
X474705Y307518D01*
X475000Y307222D01*
X475295Y307075D01*
X475885D01*
X476181Y307222D01*
X476476Y307518D01*
X476623Y307813D01*
X476771Y308256D01*
Y308993D01*
X476623Y309436D01*
X476476Y309731D01*
X476181Y310027D01*
X475885Y310174D01*
X475295D01*
X475738Y307665D02*
X476623Y306780D01*
X477494Y309584D02*
X477789Y309731D01*
X478232Y310174D01*
Y307075D01*
X698553Y329121D02*
X698405Y329416D01*
X698110Y329712D01*
X697815Y329859D01*
X697224D01*
X696929Y329712D01*
X696634Y329416D01*
X696487Y329121D01*
X696339Y328678D01*
Y327941D01*
X696487Y327498D01*
X696634Y327203D01*
X696929Y326907D01*
X697224Y326760D01*
X697815D01*
X698110Y326907D01*
X698405Y327203D01*
X698553Y327498D01*
X701342Y328826D02*
X701194Y328383D01*
X700899Y328088D01*
X700457Y327941D01*
X700309D01*
X699866Y328088D01*
X699571Y328383D01*
X699424Y328826D01*
Y328974D01*
X699571Y329416D01*
X699866Y329712D01*
X700309Y329859D01*
X700457D01*
X700899Y329712D01*
X701194Y329416D01*
X701342Y328826D01*
Y328088D01*
X701194Y327350D01*
X700899Y326907D01*
X700457Y326760D01*
X700161D01*
X699719Y326907D01*
X699571Y327203D01*
X647372Y356680D02*
X647224Y356976D01*
X646929Y357271D01*
X646634Y357418D01*
X646043D01*
X645748Y357271D01*
X645453Y356976D01*
X645305Y356680D01*
X645158Y356238D01*
Y355500D01*
X645305Y355057D01*
X645453Y354762D01*
X645748Y354467D01*
X646043Y354319D01*
X646634D01*
X646929Y354467D01*
X647224Y354762D01*
X647372Y355057D01*
X648980Y357418D02*
X648538Y357271D01*
X648390Y356976D01*
Y356680D01*
X648538Y356385D01*
X648833Y356238D01*
X649423Y356090D01*
X649866Y355942D01*
X650161Y355647D01*
X650309Y355352D01*
Y354909D01*
X650161Y354614D01*
X650013Y354467D01*
X649571Y354319D01*
X648980D01*
X648538Y354467D01*
X648390Y354614D01*
X648242Y354909D01*
Y355352D01*
X648390Y355647D01*
X648685Y355942D01*
X649128Y356090D01*
X649718Y356238D01*
X650013Y356385D01*
X650161Y356680D01*
Y356976D01*
X650013Y357271D01*
X649571Y357418D01*
X648980D01*
X497765Y333058D02*
X497618Y333353D01*
X497323Y333649D01*
X497027Y333796D01*
X496437D01*
X496142Y333649D01*
X495847Y333353D01*
X495699Y333058D01*
X495551Y332615D01*
Y331878D01*
X495699Y331435D01*
X495847Y331140D01*
X496142Y330844D01*
X496437Y330697D01*
X497027D01*
X497323Y330844D01*
X497618Y331140D01*
X497765Y331435D01*
X498784Y333058D02*
Y333206D01*
X498931Y333501D01*
X499079Y333649D01*
X499374Y333796D01*
X499964D01*
X500259Y333649D01*
X500407Y333501D01*
X500555Y333206D01*
Y332911D01*
X500407Y332615D01*
X500112Y332173D01*
X498636Y330697D01*
X500702D01*
X584379Y309436D02*
X584232Y309731D01*
X583937Y310027D01*
X583641Y310174D01*
X583051D01*
X582756Y310027D01*
X582461Y309731D01*
X582313Y309436D01*
X582166Y308993D01*
Y308256D01*
X582313Y307813D01*
X582461Y307518D01*
X582756Y307222D01*
X583051Y307075D01*
X583641D01*
X583937Y307222D01*
X584232Y307518D01*
X584379Y307813D01*
X587021Y309731D02*
X586874Y310027D01*
X586431Y310174D01*
X586136D01*
X585693Y310027D01*
X585398Y309584D01*
X585250Y308846D01*
Y308108D01*
X585398Y307518D01*
X585693Y307222D01*
X586136Y307075D01*
X586283D01*
X586726Y307222D01*
X587021Y307518D01*
X587169Y307960D01*
Y308108D01*
X587021Y308551D01*
X586726Y308846D01*
X586283Y308993D01*
X586136D01*
X585693Y308846D01*
X585398Y308551D01*
X585250Y308108D01*
X521387Y333058D02*
X521240Y333353D01*
X520945Y333649D01*
X520649Y333796D01*
X520059D01*
X519764Y333649D01*
X519469Y333353D01*
X519321Y333058D01*
X519173Y332615D01*
Y331878D01*
X519321Y331435D01*
X519469Y331140D01*
X519764Y330844D01*
X520059Y330697D01*
X520649D01*
X520945Y330844D01*
X521240Y331140D01*
X521387Y331435D01*
X523734Y333796D02*
X522258Y331730D01*
X524472D01*
X523734Y333796D02*
Y330697D01*
X702490Y360617D02*
X702342Y360912D01*
X702047Y361208D01*
X701752Y361355D01*
X701161D01*
X700866Y361208D01*
X700571Y360912D01*
X700423Y360617D01*
X700276Y360174D01*
Y359437D01*
X700423Y358994D01*
X700571Y358699D01*
X700866Y358403D01*
X701161Y358256D01*
X701752D01*
X702047Y358403D01*
X702342Y358699D01*
X702490Y358994D01*
X705427Y361355D02*
X703951Y358256D01*
X703361Y361355D02*
X705427D01*
X521387Y321247D02*
X521240Y321542D01*
X520945Y321838D01*
X520649Y321985D01*
X520059D01*
X519764Y321838D01*
X519469Y321542D01*
X519321Y321247D01*
X519173Y320805D01*
Y320066D01*
X519321Y319624D01*
X519469Y319329D01*
X519764Y319033D01*
X520059Y318886D01*
X520649D01*
X520945Y319033D01*
X521240Y319329D01*
X521387Y319624D01*
X524029Y321985D02*
X522553D01*
X522406Y320657D01*
X522553Y320805D01*
X522996Y320952D01*
X523439D01*
X523882Y320805D01*
X524177Y320509D01*
X524324Y320066D01*
Y319771D01*
X524177Y319329D01*
X523882Y319033D01*
X523439Y318886D01*
X522996D01*
X522553Y319033D01*
X522406Y319181D01*
X522258Y319476D01*
X497765Y321247D02*
X497618Y321542D01*
X497323Y321838D01*
X497027Y321985D01*
X496437D01*
X496142Y321838D01*
X495847Y321542D01*
X495699Y321247D01*
X495551Y320805D01*
Y320066D01*
X495699Y319624D01*
X495847Y319329D01*
X496142Y319033D01*
X496437Y318886D01*
X497027D01*
X497323Y319033D01*
X497618Y319329D01*
X497765Y319624D01*
X498931Y321985D02*
X500555D01*
X499669Y320805D01*
X500112D01*
X500407Y320657D01*
X500555Y320509D01*
X500702Y320066D01*
Y319771D01*
X500555Y319329D01*
X500259Y319033D01*
X499817Y318886D01*
X499374D01*
X498931Y319033D01*
X498784Y319181D01*
X498636Y319476D01*
X474143Y356680D02*
X473996Y356976D01*
X473701Y357271D01*
X473405Y357418D01*
X472815D01*
X472520Y357271D01*
X472225Y356976D01*
X472077Y356680D01*
X471929Y356238D01*
Y355500D01*
X472077Y355057D01*
X472225Y354762D01*
X472520Y354467D01*
X472815Y354319D01*
X473405D01*
X473701Y354467D01*
X473996Y354762D01*
X474143Y355057D01*
X475014Y356828D02*
X475309Y356976D01*
X475752Y357418D01*
Y354319D01*
X627953Y349544D02*
Y346445D01*
Y349544D02*
X628986D01*
X629429Y349397D01*
X629724Y349101D01*
X629871Y348806D01*
X630019Y348363D01*
Y347626D01*
X629871Y347183D01*
X629724Y346888D01*
X629429Y346592D01*
X628986Y346445D01*
X627953D01*
X630713Y348954D02*
X631008Y349101D01*
X631451Y349544D01*
Y346445D01*
X655512Y321985D02*
Y318886D01*
X657283D01*
X657622Y321395D02*
X657917Y321542D01*
X658360Y321985D01*
Y318886D01*
X471929Y286552D02*
Y283453D01*
Y286552D02*
X473258D01*
X473701Y286404D01*
X473848Y286257D01*
X473996Y285962D01*
Y285667D01*
X473848Y285371D01*
X473701Y285224D01*
X473258Y285076D01*
X471929D01*
X472963D02*
X473996Y283453D01*
X474689Y285962D02*
X474985Y286109D01*
X475427Y286552D01*
Y283453D01*
X514433Y342107D02*
Y339008D01*
Y342107D02*
X515762D01*
X516205Y341960D01*
X516352Y341812D01*
X516500Y341517D01*
Y341222D01*
X516352Y340927D01*
X516205Y340779D01*
X515762Y340631D01*
X514433D01*
X515467D02*
X516500Y339008D01*
X517193Y341517D02*
X517489Y341664D01*
X517931Y342107D01*
Y339008D01*
X520352Y342107D02*
X519909Y341960D01*
X519614Y341517D01*
X519466Y340779D01*
Y340336D01*
X519614Y339598D01*
X519909Y339156D01*
X520352Y339008D01*
X520647D01*
X521090Y339156D01*
X521385Y339598D01*
X521532Y340336D01*
Y340779D01*
X521385Y341517D01*
X521090Y341960D01*
X520647Y342107D01*
X520352D01*
X517934Y357418D02*
Y354319D01*
Y357418D02*
X519262D01*
X519705Y357271D01*
X519852Y357123D01*
X520000Y356828D01*
Y356533D01*
X519852Y356238D01*
X519705Y356090D01*
X519262Y355942D01*
X517934D01*
X518967D02*
X520000Y354319D01*
X520693Y356828D02*
X520989Y356976D01*
X521431Y357418D01*
Y354319D01*
X524442Y357418D02*
X522966Y355352D01*
X525180D01*
X524442Y357418D02*
Y354319D01*
X471929Y298363D02*
Y295264D01*
Y298363D02*
X473258D01*
X473701Y298216D01*
X473848Y298068D01*
X473996Y297773D01*
Y297478D01*
X473848Y297182D01*
X473701Y297035D01*
X473258Y296887D01*
X471929D01*
X472963D02*
X473996Y295264D01*
X474837Y297625D02*
Y297773D01*
X474985Y298068D01*
X475132Y298216D01*
X475427Y298363D01*
X476018D01*
X476313Y298216D01*
X476460Y298068D01*
X476608Y297773D01*
Y297478D01*
X476460Y297182D01*
X476165Y296740D01*
X474689Y295264D01*
X476756D01*
X580926Y345607D02*
Y342508D01*
Y345607D02*
X582254D01*
X582697Y345460D01*
X582844Y345312D01*
X582992Y345017D01*
Y344722D01*
X582844Y344426D01*
X582697Y344279D01*
X582254Y344131D01*
X580926D01*
X581959D02*
X582992Y342508D01*
X583685Y345017D02*
X583981Y345164D01*
X584423Y345607D01*
Y342508D01*
X586254Y345607D02*
X587877D01*
X586992Y344426D01*
X587434D01*
X587729Y344279D01*
X587877Y344131D01*
X588025Y343689D01*
Y343393D01*
X587877Y342951D01*
X587582Y342655D01*
X587139Y342508D01*
X586696D01*
X586254Y342655D01*
X586106Y342803D01*
X585958Y343098D01*
X545493Y357418D02*
Y354319D01*
Y357418D02*
X546821D01*
X547264Y357271D01*
X547411Y357123D01*
X547559Y356828D01*
Y356533D01*
X547411Y356238D01*
X547264Y356090D01*
X546821Y355942D01*
X545493D01*
X546526D02*
X547559Y354319D01*
X548252Y356828D02*
X548548Y356976D01*
X548990Y357418D01*
Y354319D01*
X552296Y357418D02*
X550820D01*
X550673Y356090D01*
X550820Y356238D01*
X551263Y356385D01*
X551706D01*
X552149Y356238D01*
X552444Y355942D01*
X552592Y355500D01*
Y355204D01*
X552444Y354762D01*
X552149Y354467D01*
X551706Y354319D01*
X551263D01*
X550820Y354467D01*
X550673Y354614D01*
X550525Y354909D01*
X699036Y349544D02*
Y346445D01*
Y349544D02*
X700364D01*
X700807Y349397D01*
X700955Y349249D01*
X701102Y348954D01*
Y348659D01*
X700955Y348363D01*
X700807Y348216D01*
X700364Y348068D01*
X699036D01*
X700069D02*
X701102Y346445D01*
X701796Y348954D02*
X702091Y349101D01*
X702534Y349544D01*
Y346445D01*
X705840Y349101D02*
X705692Y349397D01*
X705249Y349544D01*
X704954D01*
X704511Y349397D01*
X704216Y348954D01*
X704069Y348216D01*
Y347478D01*
X704216Y346888D01*
X704511Y346592D01*
X704954Y346445D01*
X705102D01*
X705545Y346592D01*
X705840Y346888D01*
X705987Y347330D01*
Y347478D01*
X705840Y347921D01*
X705545Y348216D01*
X705102Y348363D01*
X704954D01*
X704511Y348216D01*
X704216Y347921D01*
X704069Y347478D01*
X582166Y298363D02*
Y295264D01*
Y298363D02*
X583494D01*
X583937Y298216D01*
X584084Y298068D01*
X584232Y297773D01*
Y297478D01*
X584084Y297182D01*
X583937Y297035D01*
X583494Y296887D01*
X582166D01*
X583199D02*
X584232Y295264D01*
X586697Y297920D02*
X586549Y298216D01*
X586106Y298363D01*
X585811D01*
X585368Y298216D01*
X585073Y297773D01*
X584926Y297035D01*
Y296297D01*
X585073Y295707D01*
X585368Y295411D01*
X585811Y295264D01*
X585959D01*
X586401Y295411D01*
X586697Y295707D01*
X586844Y296149D01*
Y296297D01*
X586697Y296740D01*
X586401Y297035D01*
X585959Y297182D01*
X585811D01*
X585368Y297035D01*
X585073Y296740D01*
X584926Y296297D01*
X675414Y361355D02*
Y358256D01*
Y361355D02*
X676742D01*
X677185Y361208D01*
X677332Y361060D01*
X677480Y360765D01*
Y360470D01*
X677332Y360174D01*
X677185Y360027D01*
X676742Y359879D01*
X675414D01*
X676447D02*
X677480Y358256D01*
X678174Y360765D02*
X678469Y360912D01*
X678912Y361355D01*
Y358256D01*
X682513Y361355D02*
X681037Y358256D01*
X680447Y361355D02*
X682513D01*
X471929Y333796D02*
Y330697D01*
Y333796D02*
X473258D01*
X473701Y333649D01*
X473848Y333501D01*
X473996Y333206D01*
Y332911D01*
X473848Y332615D01*
X473701Y332468D01*
X473258Y332320D01*
X471929D01*
X472963D02*
X473996Y330697D01*
X474985Y333796D02*
X476608D01*
X475722Y332615D01*
X476165D01*
X476460Y332468D01*
X476608Y332320D01*
X476756Y331878D01*
Y331582D01*
X476608Y331140D01*
X476313Y330844D01*
X475870Y330697D01*
X475427D01*
X474985Y330844D01*
X474837Y330992D01*
X474689Y331287D01*
X471929Y321985D02*
Y318886D01*
Y321985D02*
X473258D01*
X473701Y321838D01*
X473848Y321690D01*
X473996Y321395D01*
Y321100D01*
X473848Y320805D01*
X473701Y320657D01*
X473258Y320509D01*
X471929D01*
X472963D02*
X473996Y318886D01*
X476165Y321985D02*
X474689Y319919D01*
X476903D01*
X476165Y321985D02*
Y318886D01*
X471929Y345607D02*
Y342508D01*
Y345607D02*
X473258D01*
X473701Y345460D01*
X473848Y345312D01*
X473996Y345017D01*
Y344722D01*
X473848Y344426D01*
X473701Y344279D01*
X473258Y344131D01*
X471929D01*
X472963D02*
X473996Y342508D01*
X476460Y345607D02*
X474985D01*
X474837Y344279D01*
X474985Y344426D01*
X475427Y344574D01*
X475870D01*
X476313Y344426D01*
X476608Y344131D01*
X476756Y343689D01*
Y343393D01*
X476608Y342951D01*
X476313Y342655D01*
X475870Y342508D01*
X475427D01*
X474985Y342655D01*
X474837Y342803D01*
X474689Y343098D01*
X546733Y298363D02*
Y295264D01*
Y298363D02*
X548061D01*
X548504Y298216D01*
X548651Y298068D01*
X548799Y297773D01*
Y297478D01*
X548651Y297182D01*
X548504Y297035D01*
X548061Y296887D01*
X546733D01*
X547766D02*
X548799Y295264D01*
X551559Y298363D02*
X550083Y295264D01*
X549493Y298363D02*
X551559D01*
X625473Y333796D02*
Y330697D01*
Y333796D02*
X626801D01*
X627244Y333649D01*
X627391Y333501D01*
X627539Y333206D01*
Y332911D01*
X627391Y332615D01*
X627244Y332468D01*
X626801Y332320D01*
X625473D01*
X626506D02*
X627539Y330697D01*
X628971Y333796D02*
X628528Y333649D01*
X628380Y333353D01*
Y333058D01*
X628528Y332763D01*
X628823Y332615D01*
X629413Y332468D01*
X629856Y332320D01*
X630151Y332025D01*
X630299Y331730D01*
Y331287D01*
X630151Y330992D01*
X630004Y330844D01*
X629561Y330697D01*
X628971D01*
X628528Y330844D01*
X628380Y330992D01*
X628233Y331287D01*
Y331730D01*
X628380Y332025D01*
X628675Y332320D01*
X629118Y332468D01*
X629708Y332615D01*
X630004Y332763D01*
X630151Y333058D01*
Y333353D01*
X630004Y333649D01*
X629561Y333796D01*
X628971D01*
X625473Y321985D02*
Y318886D01*
Y321985D02*
X626801D01*
X627244Y321838D01*
X627391Y321690D01*
X627539Y321395D01*
Y321100D01*
X627391Y320805D01*
X627244Y320657D01*
X626801Y320509D01*
X625473D01*
X626506D02*
X627539Y318886D01*
X630151Y320952D02*
X630004Y320509D01*
X629708Y320214D01*
X629266Y320066D01*
X629118D01*
X628675Y320214D01*
X628380Y320509D01*
X628233Y320952D01*
Y321100D01*
X628380Y321542D01*
X628675Y321838D01*
X629118Y321985D01*
X629266D01*
X629708Y321838D01*
X630004Y321542D01*
X630151Y320952D01*
Y320214D01*
X630004Y319476D01*
X629708Y319033D01*
X629266Y318886D01*
X628971D01*
X628528Y319033D01*
X628380Y319329D01*
X580926Y333796D02*
Y330697D01*
Y333796D02*
X582254D01*
X582697Y333649D01*
X582844Y333501D01*
X582992Y333206D01*
Y332911D01*
X582844Y332615D01*
X582697Y332468D01*
X582254Y332320D01*
X580926D01*
X581959D02*
X582992Y330697D01*
X583685Y333206D02*
X583981Y333353D01*
X584423Y333796D01*
Y330697D01*
X585958Y333206D02*
X586254Y333353D01*
X586696Y333796D01*
Y330697D01*
X580926Y321985D02*
Y318886D01*
Y321985D02*
X582254D01*
X582697Y321838D01*
X582844Y321690D01*
X582992Y321395D01*
Y321100D01*
X582844Y320805D01*
X582697Y320657D01*
X582254Y320509D01*
X580926D01*
X581959D02*
X582992Y318886D01*
X583685Y321395D02*
X583981Y321542D01*
X584423Y321985D01*
Y318886D01*
X586106Y321247D02*
Y321395D01*
X586254Y321690D01*
X586401Y321838D01*
X586696Y321985D01*
X587287D01*
X587582Y321838D01*
X587729Y321690D01*
X587877Y321395D01*
Y321100D01*
X587729Y320805D01*
X587434Y320362D01*
X585958Y318886D01*
X588025D01*
X647638Y298363D02*
Y295264D01*
X649409D01*
X652110D02*
X650929Y298363D01*
X649748Y295264D01*
X650191Y296297D02*
X651667D01*
X654899Y297920D02*
X654604Y298216D01*
X654161Y298363D01*
X653571D01*
X653128Y298216D01*
X652833Y297920D01*
Y297625D01*
X652981Y297330D01*
X653128Y297182D01*
X653423Y297035D01*
X654309Y296740D01*
X654604Y296592D01*
X654751Y296445D01*
X654899Y296149D01*
Y295707D01*
X654604Y295411D01*
X654161Y295264D01*
X653571D01*
X653128Y295411D01*
X652833Y295707D01*
X657511Y298363D02*
X655593D01*
Y295264D01*
X657511D01*
X655593Y296887D02*
X656774D01*
X658028Y298363D02*
Y295264D01*
Y298363D02*
X659356D01*
X659799Y298216D01*
X659947Y298068D01*
X660094Y297773D01*
Y297478D01*
X659947Y297182D01*
X659799Y297035D01*
X659356Y296887D01*
X658028D01*
X659061D02*
X660094Y295264D01*
X663223Y298363D02*
Y295264D01*
Y298363D02*
X664256D01*
X664699Y298216D01*
X664994Y297920D01*
X665142Y297625D01*
X665289Y297182D01*
Y296445D01*
X665142Y296002D01*
X664994Y295707D01*
X664699Y295411D01*
X664256Y295264D01*
X663223D01*
X665983Y298363D02*
Y295264D01*
Y298363D02*
X667311D01*
X667754Y298216D01*
X667902Y298068D01*
X668049Y297773D01*
Y297478D01*
X667902Y297182D01*
X667754Y297035D01*
X667311Y296887D01*
X665983D01*
X667016D02*
X668049Y295264D01*
X668743Y298363D02*
Y295264D01*
X669392Y298363D02*
X670573Y295264D01*
X671754Y298363D02*
X670573Y295264D01*
X674071Y298363D02*
X672152D01*
Y295264D01*
X674071D01*
X672152Y296887D02*
X673333D01*
X674587Y298363D02*
Y295264D01*
Y298363D02*
X675915D01*
X676358Y298216D01*
X676506Y298068D01*
X676653Y297773D01*
Y297478D01*
X676506Y297182D01*
X676358Y297035D01*
X675915Y296887D01*
X674587D01*
X675620D02*
X676653Y295264D01*
X679782Y298363D02*
Y295264D01*
Y298363D02*
X681111D01*
X681553Y298216D01*
X681701Y298068D01*
X681848Y297773D01*
Y297478D01*
X681701Y297182D01*
X681553Y297035D01*
X681111Y296887D01*
X679782D02*
X681111D01*
X681553Y296740D01*
X681701Y296592D01*
X681848Y296297D01*
Y295854D01*
X681701Y295559D01*
X681553Y295411D01*
X681111Y295264D01*
X679782D01*
X683428Y298363D02*
X683133Y298216D01*
X682837Y297920D01*
X682690Y297625D01*
X682542Y297182D01*
Y296445D01*
X682690Y296002D01*
X682837Y295707D01*
X683133Y295411D01*
X683428Y295264D01*
X684018D01*
X684313Y295411D01*
X684608Y295707D01*
X684756Y296002D01*
X684904Y296445D01*
Y297182D01*
X684756Y297625D01*
X684608Y297920D01*
X684313Y298216D01*
X684018Y298363D01*
X683428D01*
X687988Y295264D02*
X686807Y298363D01*
X685627Y295264D01*
X686069Y296297D02*
X687545D01*
X688711Y298363D02*
Y295264D01*
Y298363D02*
X690040D01*
X690482Y298216D01*
X690630Y298068D01*
X690778Y297773D01*
Y297478D01*
X690630Y297182D01*
X690482Y297035D01*
X690040Y296887D01*
X688711D01*
X689744D02*
X690778Y295264D01*
X691471Y298363D02*
Y295264D01*
Y298363D02*
X692504D01*
X692947Y298216D01*
X693242Y297920D01*
X693390Y297625D01*
X693537Y297182D01*
Y296445D01*
X693390Y296002D01*
X693242Y295707D01*
X692947Y295411D01*
X692504Y295264D01*
X691471D01*
X696666Y298363D02*
X697847Y295264D01*
X699028Y298363D02*
X697847Y295264D01*
X699426Y297773D02*
X699721Y297920D01*
X700164Y298363D01*
Y295264D01*
X701847Y295559D02*
X701699Y295411D01*
X701847Y295264D01*
X701994Y295411D01*
X701847Y295559D01*
X703559Y298363D02*
X703116Y298216D01*
X702821Y297773D01*
X702673Y297035D01*
Y296592D01*
X702821Y295854D01*
X703116Y295411D01*
X703559Y295264D01*
X703854D01*
X704297Y295411D01*
X704592Y295854D01*
X704739Y296592D01*
Y297035D01*
X704592Y297773D01*
X704297Y298216D01*
X703854Y298363D01*
X703559D01*
X580926Y416485D02*
Y413386D01*
Y416485D02*
X582254D01*
X582697Y416338D01*
X582844Y416190D01*
X582992Y415895D01*
Y415600D01*
X582844Y415305D01*
X582697Y415157D01*
X582254Y415009D01*
X580926D01*
X581959D02*
X582992Y413386D01*
X583685Y415895D02*
X583981Y416042D01*
X584423Y416485D01*
Y413386D01*
X586106Y415747D02*
Y415895D01*
X586254Y416190D01*
X586401Y416338D01*
X586696Y416485D01*
X587287D01*
X587582Y416338D01*
X587729Y416190D01*
X587877Y415895D01*
Y415600D01*
X587729Y415305D01*
X587434Y414862D01*
X585958Y413386D01*
X588025D01*
X580926Y428296D02*
Y425197D01*
Y428296D02*
X582254D01*
X582697Y428149D01*
X582844Y428001D01*
X582992Y427706D01*
Y427411D01*
X582844Y427115D01*
X582697Y426968D01*
X582254Y426820D01*
X580926D01*
X581959D02*
X582992Y425197D01*
X583685Y427706D02*
X583981Y427853D01*
X584423Y428296D01*
Y425197D01*
X585958Y427706D02*
X586254Y427853D01*
X586696Y428296D01*
Y425197D01*
X625473Y416485D02*
Y413386D01*
Y416485D02*
X626801D01*
X627244Y416338D01*
X627391Y416190D01*
X627539Y415895D01*
Y415600D01*
X627391Y415305D01*
X627244Y415157D01*
X626801Y415009D01*
X625473D01*
X626506D02*
X627539Y413386D01*
X630151Y415452D02*
X630004Y415009D01*
X629708Y414714D01*
X629266Y414567D01*
X629118D01*
X628675Y414714D01*
X628380Y415009D01*
X628233Y415452D01*
Y415600D01*
X628380Y416042D01*
X628675Y416338D01*
X629118Y416485D01*
X629266D01*
X629708Y416338D01*
X630004Y416042D01*
X630151Y415452D01*
Y414714D01*
X630004Y413976D01*
X629708Y413533D01*
X629266Y413386D01*
X628971D01*
X628528Y413533D01*
X628380Y413829D01*
X625473Y428296D02*
Y425197D01*
Y428296D02*
X626801D01*
X627244Y428149D01*
X627391Y428001D01*
X627539Y427706D01*
Y427411D01*
X627391Y427115D01*
X627244Y426968D01*
X626801Y426820D01*
X625473D01*
X626506D02*
X627539Y425197D01*
X628971Y428296D02*
X628528Y428149D01*
X628380Y427853D01*
Y427558D01*
X628528Y427263D01*
X628823Y427115D01*
X629413Y426968D01*
X629856Y426820D01*
X630151Y426525D01*
X630299Y426230D01*
Y425787D01*
X630151Y425492D01*
X630004Y425344D01*
X629561Y425197D01*
X628971D01*
X628528Y425344D01*
X628380Y425492D01*
X628233Y425787D01*
Y426230D01*
X628380Y426525D01*
X628675Y426820D01*
X629118Y426968D01*
X629708Y427115D01*
X630004Y427263D01*
X630151Y427558D01*
Y427853D01*
X630004Y428149D01*
X629561Y428296D01*
X628971D01*
X546733Y392863D02*
Y389764D01*
Y392863D02*
X548061D01*
X548504Y392716D01*
X548651Y392568D01*
X548799Y392273D01*
Y391978D01*
X548651Y391682D01*
X548504Y391535D01*
X548061Y391387D01*
X546733D01*
X547766D02*
X548799Y389764D01*
X551559Y392863D02*
X550083Y389764D01*
X549493Y392863D02*
X551559D01*
X471929Y440107D02*
Y437008D01*
Y440107D02*
X473258D01*
X473701Y439960D01*
X473848Y439812D01*
X473996Y439517D01*
Y439222D01*
X473848Y438927D01*
X473701Y438779D01*
X473258Y438631D01*
X471929D01*
X472963D02*
X473996Y437008D01*
X476460Y440107D02*
X474985D01*
X474837Y438779D01*
X474985Y438927D01*
X475427Y439074D01*
X475870D01*
X476313Y438927D01*
X476608Y438631D01*
X476756Y438189D01*
Y437893D01*
X476608Y437451D01*
X476313Y437155D01*
X475870Y437008D01*
X475427D01*
X474985Y437155D01*
X474837Y437303D01*
X474689Y437598D01*
X471929Y416485D02*
Y413386D01*
Y416485D02*
X473258D01*
X473701Y416338D01*
X473848Y416190D01*
X473996Y415895D01*
Y415600D01*
X473848Y415305D01*
X473701Y415157D01*
X473258Y415009D01*
X471929D01*
X472963D02*
X473996Y413386D01*
X476165Y416485D02*
X474689Y414419D01*
X476903D01*
X476165Y416485D02*
Y413386D01*
X471929Y428296D02*
Y425197D01*
Y428296D02*
X473258D01*
X473701Y428149D01*
X473848Y428001D01*
X473996Y427706D01*
Y427411D01*
X473848Y427115D01*
X473701Y426968D01*
X473258Y426820D01*
X471929D01*
X472963D02*
X473996Y425197D01*
X474985Y428296D02*
X476608D01*
X475722Y427115D01*
X476165D01*
X476460Y426968D01*
X476608Y426820D01*
X476756Y426377D01*
Y426082D01*
X476608Y425640D01*
X476313Y425344D01*
X475870Y425197D01*
X475427D01*
X474985Y425344D01*
X474837Y425492D01*
X474689Y425787D01*
X675414Y455855D02*
Y452756D01*
Y455855D02*
X676742D01*
X677185Y455708D01*
X677332Y455560D01*
X677480Y455265D01*
Y454970D01*
X677332Y454674D01*
X677185Y454527D01*
X676742Y454379D01*
X675414D01*
X676447D02*
X677480Y452756D01*
X678174Y455265D02*
X678469Y455412D01*
X678912Y455855D01*
Y452756D01*
X682513Y455855D02*
X681037Y452756D01*
X680447Y455855D02*
X682513D01*
X582166Y392863D02*
Y389764D01*
Y392863D02*
X583494D01*
X583937Y392716D01*
X584084Y392568D01*
X584232Y392273D01*
Y391978D01*
X584084Y391682D01*
X583937Y391535D01*
X583494Y391387D01*
X582166D01*
X583199D02*
X584232Y389764D01*
X586697Y392420D02*
X586549Y392716D01*
X586106Y392863D01*
X585811D01*
X585368Y392716D01*
X585073Y392273D01*
X584926Y391535D01*
Y390797D01*
X585073Y390207D01*
X585368Y389911D01*
X585811Y389764D01*
X585959D01*
X586401Y389911D01*
X586697Y390207D01*
X586844Y390649D01*
Y390797D01*
X586697Y391240D01*
X586401Y391535D01*
X585959Y391682D01*
X585811D01*
X585368Y391535D01*
X585073Y391240D01*
X584926Y390797D01*
X699036Y444044D02*
Y440945D01*
Y444044D02*
X700364D01*
X700807Y443897D01*
X700955Y443749D01*
X701102Y443454D01*
Y443159D01*
X700955Y442864D01*
X700807Y442716D01*
X700364Y442568D01*
X699036D01*
X700069D02*
X701102Y440945D01*
X701796Y443454D02*
X702091Y443602D01*
X702534Y444044D01*
Y440945D01*
X705840Y443602D02*
X705692Y443897D01*
X705249Y444044D01*
X704954D01*
X704511Y443897D01*
X704216Y443454D01*
X704069Y442716D01*
Y441978D01*
X704216Y441388D01*
X704511Y441092D01*
X704954Y440945D01*
X705102D01*
X705545Y441092D01*
X705840Y441388D01*
X705987Y441830D01*
Y441978D01*
X705840Y442421D01*
X705545Y442716D01*
X705102Y442864D01*
X704954D01*
X704511Y442716D01*
X704216Y442421D01*
X704069Y441978D01*
X545493Y451918D02*
Y448819D01*
Y451918D02*
X546821D01*
X547264Y451771D01*
X547411Y451623D01*
X547559Y451328D01*
Y451033D01*
X547411Y450737D01*
X547264Y450590D01*
X546821Y450442D01*
X545493D01*
X546526D02*
X547559Y448819D01*
X548252Y451328D02*
X548548Y451475D01*
X548990Y451918D01*
Y448819D01*
X552296Y451918D02*
X550820D01*
X550673Y450590D01*
X550820Y450737D01*
X551263Y450885D01*
X551706D01*
X552149Y450737D01*
X552444Y450442D01*
X552592Y450000D01*
Y449704D01*
X552444Y449262D01*
X552149Y448967D01*
X551706Y448819D01*
X551263D01*
X550820Y448967D01*
X550673Y449114D01*
X550525Y449409D01*
X580926Y440107D02*
Y437008D01*
Y440107D02*
X582254D01*
X582697Y439960D01*
X582844Y439812D01*
X582992Y439517D01*
Y439222D01*
X582844Y438927D01*
X582697Y438779D01*
X582254Y438631D01*
X580926D01*
X581959D02*
X582992Y437008D01*
X583685Y439517D02*
X583981Y439665D01*
X584423Y440107D01*
Y437008D01*
X586254Y440107D02*
X587877D01*
X586992Y438927D01*
X587434D01*
X587729Y438779D01*
X587877Y438631D01*
X588025Y438189D01*
Y437893D01*
X587877Y437451D01*
X587582Y437155D01*
X587139Y437008D01*
X586696D01*
X586254Y437155D01*
X586106Y437303D01*
X585958Y437598D01*
X471929Y392863D02*
Y389764D01*
Y392863D02*
X473258D01*
X473701Y392716D01*
X473848Y392568D01*
X473996Y392273D01*
Y391978D01*
X473848Y391682D01*
X473701Y391535D01*
X473258Y391387D01*
X471929D01*
X472963D02*
X473996Y389764D01*
X474837Y392125D02*
Y392273D01*
X474985Y392568D01*
X475132Y392716D01*
X475427Y392863D01*
X476018D01*
X476313Y392716D01*
X476460Y392568D01*
X476608Y392273D01*
Y391978D01*
X476460Y391682D01*
X476165Y391240D01*
X474689Y389764D01*
X476756D01*
X517934Y451918D02*
Y448819D01*
Y451918D02*
X519262D01*
X519705Y451771D01*
X519852Y451623D01*
X520000Y451328D01*
Y451033D01*
X519852Y450737D01*
X519705Y450590D01*
X519262Y450442D01*
X517934D01*
X518967D02*
X520000Y448819D01*
X520693Y451328D02*
X520989Y451475D01*
X521431Y451918D01*
Y448819D01*
X524442Y451918D02*
X522966Y449852D01*
X525180D01*
X524442Y451918D02*
Y448819D01*
X514433Y436607D02*
Y433508D01*
Y436607D02*
X515762D01*
X516205Y436460D01*
X516352Y436312D01*
X516500Y436017D01*
Y435722D01*
X516352Y435427D01*
X516205Y435279D01*
X515762Y435131D01*
X514433D01*
X515467D02*
X516500Y433508D01*
X517193Y436017D02*
X517489Y436165D01*
X517931Y436607D01*
Y433508D01*
X520352Y436607D02*
X519909Y436460D01*
X519614Y436017D01*
X519466Y435279D01*
Y434836D01*
X519614Y434098D01*
X519909Y433656D01*
X520352Y433508D01*
X520647D01*
X521090Y433656D01*
X521385Y434098D01*
X521532Y434836D01*
Y435279D01*
X521385Y436017D01*
X521090Y436460D01*
X520647Y436607D01*
X520352D01*
X471929Y381052D02*
Y377953D01*
Y381052D02*
X473258D01*
X473701Y380905D01*
X473848Y380757D01*
X473996Y380462D01*
Y380167D01*
X473848Y379871D01*
X473701Y379724D01*
X473258Y379576D01*
X471929D01*
X472963D02*
X473996Y377953D01*
X474689Y380462D02*
X474985Y380609D01*
X475427Y381052D01*
Y377953D01*
X655512Y416485D02*
Y413386D01*
X657283D01*
X657622Y415895D02*
X657917Y416042D01*
X658360Y416485D01*
Y413386D01*
X627953Y444044D02*
Y440945D01*
Y444044D02*
X628986D01*
X629429Y443897D01*
X629724Y443602D01*
X629871Y443306D01*
X630019Y442864D01*
Y442126D01*
X629871Y441683D01*
X629724Y441388D01*
X629429Y441092D01*
X628986Y440945D01*
X627953D01*
X630713Y443454D02*
X631008Y443602D01*
X631451Y444044D01*
Y440945D01*
X474143Y451180D02*
X473996Y451475D01*
X473701Y451771D01*
X473405Y451918D01*
X472815D01*
X472520Y451771D01*
X472225Y451475D01*
X472077Y451180D01*
X471929Y450737D01*
Y450000D01*
X472077Y449557D01*
X472225Y449262D01*
X472520Y448967D01*
X472815Y448819D01*
X473405D01*
X473701Y448967D01*
X473996Y449262D01*
X474143Y449557D01*
X475014Y451328D02*
X475309Y451475D01*
X475752Y451918D01*
Y448819D01*
X497765Y415747D02*
X497618Y416042D01*
X497323Y416338D01*
X497027Y416485D01*
X496437D01*
X496142Y416338D01*
X495847Y416042D01*
X495699Y415747D01*
X495551Y415305D01*
Y414567D01*
X495699Y414124D01*
X495847Y413829D01*
X496142Y413533D01*
X496437Y413386D01*
X497027D01*
X497323Y413533D01*
X497618Y413829D01*
X497765Y414124D01*
X498931Y416485D02*
X500555D01*
X499669Y415305D01*
X500112D01*
X500407Y415157D01*
X500555Y415009D01*
X500702Y414567D01*
Y414271D01*
X500555Y413829D01*
X500259Y413533D01*
X499817Y413386D01*
X499374D01*
X498931Y413533D01*
X498784Y413681D01*
X498636Y413976D01*
X521387Y415747D02*
X521240Y416042D01*
X520945Y416338D01*
X520649Y416485D01*
X520059D01*
X519764Y416338D01*
X519469Y416042D01*
X519321Y415747D01*
X519173Y415305D01*
Y414567D01*
X519321Y414124D01*
X519469Y413829D01*
X519764Y413533D01*
X520059Y413386D01*
X520649D01*
X520945Y413533D01*
X521240Y413829D01*
X521387Y414124D01*
X524029Y416485D02*
X522553D01*
X522406Y415157D01*
X522553Y415305D01*
X522996Y415452D01*
X523439D01*
X523882Y415305D01*
X524177Y415009D01*
X524324Y414567D01*
Y414271D01*
X524177Y413829D01*
X523882Y413533D01*
X523439Y413386D01*
X522996D01*
X522553Y413533D01*
X522406Y413681D01*
X522258Y413976D01*
X702490Y455117D02*
X702342Y455412D01*
X702047Y455708D01*
X701752Y455855D01*
X701161D01*
X700866Y455708D01*
X700571Y455412D01*
X700423Y455117D01*
X700276Y454674D01*
Y453937D01*
X700423Y453494D01*
X700571Y453199D01*
X700866Y452904D01*
X701161Y452756D01*
X701752D01*
X702047Y452904D01*
X702342Y453199D01*
X702490Y453494D01*
X705427Y455855D02*
X703951Y452756D01*
X703361Y455855D02*
X705427D01*
X521387Y427558D02*
X521240Y427853D01*
X520945Y428149D01*
X520649Y428296D01*
X520059D01*
X519764Y428149D01*
X519469Y427853D01*
X519321Y427558D01*
X519173Y427115D01*
Y426377D01*
X519321Y425935D01*
X519469Y425640D01*
X519764Y425344D01*
X520059Y425197D01*
X520649D01*
X520945Y425344D01*
X521240Y425640D01*
X521387Y425935D01*
X523734Y428296D02*
X522258Y426230D01*
X524472D01*
X523734Y428296D02*
Y425197D01*
X584379Y403936D02*
X584232Y404231D01*
X583937Y404527D01*
X583641Y404674D01*
X583051D01*
X582756Y404527D01*
X582461Y404231D01*
X582313Y403936D01*
X582166Y403493D01*
Y402755D01*
X582313Y402313D01*
X582461Y402018D01*
X582756Y401722D01*
X583051Y401575D01*
X583641D01*
X583937Y401722D01*
X584232Y402018D01*
X584379Y402313D01*
X587021Y404231D02*
X586874Y404527D01*
X586431Y404674D01*
X586136D01*
X585693Y404527D01*
X585398Y404084D01*
X585250Y403346D01*
Y402608D01*
X585398Y402018D01*
X585693Y401722D01*
X586136Y401575D01*
X586283D01*
X586726Y401722D01*
X587021Y402018D01*
X587169Y402460D01*
Y402608D01*
X587021Y403051D01*
X586726Y403346D01*
X586283Y403493D01*
X586136D01*
X585693Y403346D01*
X585398Y403051D01*
X585250Y402608D01*
X497765Y427558D02*
X497618Y427853D01*
X497323Y428149D01*
X497027Y428296D01*
X496437D01*
X496142Y428149D01*
X495847Y427853D01*
X495699Y427558D01*
X495551Y427115D01*
Y426377D01*
X495699Y425935D01*
X495847Y425640D01*
X496142Y425344D01*
X496437Y425197D01*
X497027D01*
X497323Y425344D01*
X497618Y425640D01*
X497765Y425935D01*
X498784Y427558D02*
Y427706D01*
X498931Y428001D01*
X499079Y428149D01*
X499374Y428296D01*
X499964D01*
X500259Y428149D01*
X500407Y428001D01*
X500555Y427706D01*
Y427411D01*
X500407Y427115D01*
X500112Y426673D01*
X498636Y425197D01*
X500702D01*
X647372Y451180D02*
X647224Y451475D01*
X646929Y451771D01*
X646634Y451918D01*
X646043D01*
X645748Y451771D01*
X645453Y451475D01*
X645305Y451180D01*
X645158Y450737D01*
Y450000D01*
X645305Y449557D01*
X645453Y449262D01*
X645748Y448967D01*
X646043Y448819D01*
X646634D01*
X646929Y448967D01*
X647224Y449262D01*
X647372Y449557D01*
X648980Y451918D02*
X648538Y451771D01*
X648390Y451475D01*
Y451180D01*
X648538Y450885D01*
X648833Y450737D01*
X649423Y450590D01*
X649866Y450442D01*
X650161Y450147D01*
X650309Y449852D01*
Y449409D01*
X650161Y449114D01*
X650013Y448967D01*
X649571Y448819D01*
X648980D01*
X648538Y448967D01*
X648390Y449114D01*
X648242Y449409D01*
Y449852D01*
X648390Y450147D01*
X648685Y450442D01*
X649128Y450590D01*
X649718Y450737D01*
X650013Y450885D01*
X650161Y451180D01*
Y451475D01*
X650013Y451771D01*
X649571Y451918D01*
X648980D01*
X698553Y423621D02*
X698405Y423916D01*
X698110Y424212D01*
X697815Y424359D01*
X697224D01*
X696929Y424212D01*
X696634Y423916D01*
X696487Y423621D01*
X696339Y423178D01*
Y422440D01*
X696487Y421998D01*
X696634Y421703D01*
X696929Y421407D01*
X697224Y421260D01*
X697815D01*
X698110Y421407D01*
X698405Y421703D01*
X698553Y421998D01*
X701342Y423326D02*
X701194Y422883D01*
X700899Y422588D01*
X700457Y422440D01*
X700309D01*
X699866Y422588D01*
X699571Y422883D01*
X699424Y423326D01*
Y423474D01*
X699571Y423916D01*
X699866Y424212D01*
X700309Y424359D01*
X700457D01*
X700899Y424212D01*
X701194Y423916D01*
X701342Y423326D01*
Y422588D01*
X701194Y421850D01*
X700899Y421407D01*
X700457Y421260D01*
X700161D01*
X699719Y421407D01*
X699571Y421703D01*
X475295Y404674D02*
X475000Y404527D01*
X474705Y404231D01*
X474557Y403936D01*
X474409Y403493D01*
Y402755D01*
X474557Y402313D01*
X474705Y402018D01*
X475000Y401722D01*
X475295Y401575D01*
X475885D01*
X476181Y401722D01*
X476476Y402018D01*
X476623Y402313D01*
X476771Y402755D01*
Y403493D01*
X476623Y403936D01*
X476476Y404231D01*
X476181Y404527D01*
X475885Y404674D01*
X475295D01*
X475738Y402165D02*
X476623Y401280D01*
X477494Y404084D02*
X477789Y404231D01*
X478232Y404674D01*
Y401575D01*
X624016Y404674D02*
Y402460D01*
X624163Y402018D01*
X624459Y401722D01*
X624901Y401575D01*
X625197D01*
X625639Y401722D01*
X625934Y402018D01*
X626082Y402460D01*
Y404674D01*
X627233D02*
X628857D01*
X627971Y403493D01*
X628414D01*
X628709Y403346D01*
X628857Y403198D01*
X629004Y402755D01*
Y402460D01*
X628857Y402018D01*
X628561Y401722D01*
X628119Y401575D01*
X627676D01*
X627233Y401722D01*
X627086Y401870D01*
X626938Y402165D01*
X452263Y384989D02*
Y382628D01*
X452116Y382185D01*
X451968Y382037D01*
X451673Y381890D01*
X451378D01*
X451083Y382037D01*
X450935Y382185D01*
X450787Y382628D01*
Y382923D01*
X453060Y384399D02*
X453355Y384546D01*
X453798Y384989D01*
Y381890D01*
X498032Y404674D02*
Y402460D01*
X498179Y402018D01*
X498474Y401722D01*
X498917Y401575D01*
X499212D01*
X499655Y401722D01*
X499950Y402018D01*
X500098Y402460D01*
Y404674D01*
X500954Y404084D02*
X501249Y404231D01*
X501692Y404674D01*
Y401575D01*
X679134Y416485D02*
Y414271D01*
X679282Y413829D01*
X679577Y413533D01*
X680019Y413386D01*
X680315D01*
X680757Y413533D01*
X681052Y413829D01*
X681200Y414271D01*
Y416485D01*
X683532D02*
X682056Y414419D01*
X684270D01*
X683532Y416485D02*
Y413386D01*
X647638Y392863D02*
Y389764D01*
X649409D01*
X652110D02*
X650929Y392863D01*
X649748Y389764D01*
X650191Y390797D02*
X651667D01*
X654899Y392420D02*
X654604Y392716D01*
X654161Y392863D01*
X653571D01*
X653128Y392716D01*
X652833Y392420D01*
Y392125D01*
X652981Y391830D01*
X653128Y391682D01*
X653423Y391535D01*
X654309Y391240D01*
X654604Y391092D01*
X654751Y390945D01*
X654899Y390649D01*
Y390207D01*
X654604Y389911D01*
X654161Y389764D01*
X653571D01*
X653128Y389911D01*
X652833Y390207D01*
X657511Y392863D02*
X655593D01*
Y389764D01*
X657511D01*
X655593Y391387D02*
X656774D01*
X658028Y392863D02*
Y389764D01*
Y392863D02*
X659356D01*
X659799Y392716D01*
X659947Y392568D01*
X660094Y392273D01*
Y391978D01*
X659947Y391682D01*
X659799Y391535D01*
X659356Y391387D01*
X658028D01*
X659061D02*
X660094Y389764D01*
X663223Y392863D02*
Y389764D01*
Y392863D02*
X664256D01*
X664699Y392716D01*
X664994Y392420D01*
X665142Y392125D01*
X665289Y391682D01*
Y390945D01*
X665142Y390502D01*
X664994Y390207D01*
X664699Y389911D01*
X664256Y389764D01*
X663223D01*
X665983Y392863D02*
Y389764D01*
Y392863D02*
X667311D01*
X667754Y392716D01*
X667902Y392568D01*
X668049Y392273D01*
Y391978D01*
X667902Y391682D01*
X667754Y391535D01*
X667311Y391387D01*
X665983D01*
X667016D02*
X668049Y389764D01*
X668743Y392863D02*
Y389764D01*
X669392Y392863D02*
X670573Y389764D01*
X671754Y392863D02*
X670573Y389764D01*
X674071Y392863D02*
X672152D01*
Y389764D01*
X674071D01*
X672152Y391387D02*
X673333D01*
X674587Y392863D02*
Y389764D01*
Y392863D02*
X675915D01*
X676358Y392716D01*
X676506Y392568D01*
X676653Y392273D01*
Y391978D01*
X676506Y391682D01*
X676358Y391535D01*
X675915Y391387D01*
X674587D01*
X675620D02*
X676653Y389764D01*
X679782Y392863D02*
Y389764D01*
Y392863D02*
X681111D01*
X681553Y392716D01*
X681701Y392568D01*
X681848Y392273D01*
Y391978D01*
X681701Y391682D01*
X681553Y391535D01*
X681111Y391387D01*
X679782D02*
X681111D01*
X681553Y391240D01*
X681701Y391092D01*
X681848Y390797D01*
Y390354D01*
X681701Y390059D01*
X681553Y389911D01*
X681111Y389764D01*
X679782D01*
X683428Y392863D02*
X683133Y392716D01*
X682837Y392420D01*
X682690Y392125D01*
X682542Y391682D01*
Y390945D01*
X682690Y390502D01*
X682837Y390207D01*
X683133Y389911D01*
X683428Y389764D01*
X684018D01*
X684313Y389911D01*
X684608Y390207D01*
X684756Y390502D01*
X684904Y390945D01*
Y391682D01*
X684756Y392125D01*
X684608Y392420D01*
X684313Y392716D01*
X684018Y392863D01*
X683428D01*
X687988Y389764D02*
X686807Y392863D01*
X685627Y389764D01*
X686069Y390797D02*
X687545D01*
X688711Y392863D02*
Y389764D01*
Y392863D02*
X690040D01*
X690482Y392716D01*
X690630Y392568D01*
X690778Y392273D01*
Y391978D01*
X690630Y391682D01*
X690482Y391535D01*
X690040Y391387D01*
X688711D01*
X689744D02*
X690778Y389764D01*
X691471Y392863D02*
Y389764D01*
Y392863D02*
X692504D01*
X692947Y392716D01*
X693242Y392420D01*
X693390Y392125D01*
X693537Y391682D01*
Y390945D01*
X693390Y390502D01*
X693242Y390207D01*
X692947Y389911D01*
X692504Y389764D01*
X691471D01*
X696666Y392863D02*
X697847Y389764D01*
X699028Y392863D02*
X697847Y389764D01*
X699426Y392273D02*
X699721Y392420D01*
X700164Y392863D01*
Y389764D01*
X701847Y390059D02*
X701699Y389911D01*
X701847Y389764D01*
X701994Y389911D01*
X701847Y390059D01*
X703559Y392863D02*
X703116Y392716D01*
X702821Y392273D01*
X702673Y391535D01*
Y391092D01*
X702821Y390354D01*
X703116Y389911D01*
X703559Y389764D01*
X703854D01*
X704297Y389911D01*
X704592Y390354D01*
X704739Y391092D01*
Y391535D01*
X704592Y392273D01*
X704297Y392716D01*
X703854Y392863D01*
X703559D01*
M02*
