G04 Layer_Color=2752767*
%FSLAX25Y25*%
%MOIN*%
G70*
G01*
G75*
%ADD22C,0.00100*%
%ADD48C,0.00200*%
%ADD49C,0.00267*%
D22*
X437008Y82642D02*
X732283D01*
Y177130D01*
X437008D02*
X732283D01*
X437008Y82642D02*
Y177130D01*
Y177142D02*
X732283D01*
Y271630D01*
X437008D02*
X732283D01*
X437008Y177142D02*
Y271630D01*
Y271642D02*
X732283D01*
Y366130D01*
X437008D02*
X732283D01*
X437008Y271642D02*
Y366130D01*
Y366142D02*
Y460630D01*
X732283D01*
Y366142D02*
Y460630D01*
X437008Y366142D02*
X732283D01*
D48*
X453924Y114086D02*
Y115686D01*
X455524D01*
Y114086D01*
X453924D01*
Y123929D02*
Y125529D01*
X455524D01*
Y123929D01*
X453924D01*
Y143614D02*
Y145214D01*
X455524D01*
Y143614D01*
X453924D01*
Y133771D02*
Y135371D01*
X455524D01*
Y133771D01*
X453924D01*
Y208586D02*
Y210186D01*
X455524D01*
Y208586D01*
X453924D01*
Y218429D02*
Y220029D01*
X455524D01*
Y218429D01*
X453924D01*
Y238114D02*
Y239714D01*
X455524D01*
Y238114D01*
X453924D01*
Y228271D02*
Y229871D01*
X455524D01*
Y228271D01*
X453924D01*
Y303086D02*
Y304686D01*
X455524D01*
Y303086D01*
X453924D01*
Y312929D02*
Y314529D01*
X455524D01*
Y312929D01*
X453924D01*
Y332614D02*
Y334214D01*
X455524D01*
Y332614D01*
X453924D01*
Y322771D02*
Y324371D01*
X455524D01*
Y322771D01*
X453924D01*
Y397586D02*
Y399186D01*
X455524D01*
Y397586D01*
X453924D01*
Y407429D02*
Y409029D01*
X455524D01*
Y407429D01*
X453924D01*
Y427114D02*
Y428714D01*
X455524D01*
Y427114D01*
X453924D01*
Y417271D02*
Y418871D01*
X455524D01*
Y417271D01*
X453924D01*
D49*
X723241Y133823D02*
G03*
X723241Y133823I-800J0D01*
G01*
Y129886D02*
G03*
X723241Y129886I-800J0D01*
G01*
Y125949D02*
G03*
X723241Y125949I-800J0D01*
G01*
Y228323D02*
G03*
X723241Y228323I-800J0D01*
G01*
Y224386D02*
G03*
X723241Y224386I-800J0D01*
G01*
Y220449D02*
G03*
X723241Y220449I-800J0D01*
G01*
Y322823D02*
G03*
X723241Y322823I-800J0D01*
G01*
Y318886D02*
G03*
X723241Y318886I-800J0D01*
G01*
Y314949D02*
G03*
X723241Y314949I-800J0D01*
G01*
Y417323D02*
G03*
X723241Y417323I-800J0D01*
G01*
Y413386D02*
G03*
X723241Y413386I-800J0D01*
G01*
Y409449D02*
G03*
X723241Y409449I-800J0D01*
G01*
X711430Y165319D02*
G03*
X711430Y165319I-800J0D01*
G01*
X681897Y157997D02*
G03*
X681897Y157997I-800J0D01*
G01*
X537765Y122449D02*
G03*
X537765Y122449I-800J0D01*
G01*
X605131Y118075D02*
G03*
X605131Y118075I-800J0D01*
G01*
X581509Y122012D02*
G03*
X581509Y122012I-800J0D01*
G01*
X585446Y149571D02*
G03*
X585446Y149571I-800J0D01*
G01*
X663749Y157882D02*
G03*
X663749Y157882I-800J0D01*
G01*
X502769Y141697D02*
G03*
X502769Y141697I-800J0D01*
G01*
X672060Y165319D02*
G03*
X672060Y165319I-800J0D01*
G01*
X640564D02*
G03*
X640564Y165319I-800J0D01*
G01*
X514892Y168943D02*
G03*
X514892Y168943I-800J0D01*
G01*
X546076Y165319D02*
G03*
X546076Y165319I-800J0D01*
G01*
X715367Y125949D02*
G03*
X715367Y125949I-800J0D01*
G01*
X707493Y129886D02*
G03*
X707493Y129886I-800J0D01*
G01*
X691382Y129523D02*
G03*
X691382Y129523I-800J0D01*
G01*
Y161382D02*
G03*
X691382Y161382I-800J0D01*
G01*
X715367Y133823D02*
G03*
X715367Y133823I-800J0D01*
G01*
X522453Y153508D02*
G03*
X522453Y153508I-800J0D01*
G01*
X553950Y157445D02*
G03*
X553950Y157445I-800J0D01*
G01*
X609068D02*
G03*
X609068Y157445I-800J0D01*
G01*
X711430Y259819D02*
G03*
X711430Y259819I-800J0D01*
G01*
X681897Y252497D02*
G03*
X681897Y252497I-800J0D01*
G01*
X537765Y216949D02*
G03*
X537765Y216949I-800J0D01*
G01*
X605131Y212575D02*
G03*
X605131Y212575I-800J0D01*
G01*
X581509Y216512D02*
G03*
X581509Y216512I-800J0D01*
G01*
X585446Y244071D02*
G03*
X585446Y244071I-800J0D01*
G01*
X663749Y252382D02*
G03*
X663749Y252382I-800J0D01*
G01*
X502769Y236197D02*
G03*
X502769Y236197I-800J0D01*
G01*
X672060Y259819D02*
G03*
X672060Y259819I-800J0D01*
G01*
X640564D02*
G03*
X640564Y259819I-800J0D01*
G01*
X514892Y263443D02*
G03*
X514892Y263443I-800J0D01*
G01*
X546076Y259819D02*
G03*
X546076Y259819I-800J0D01*
G01*
X715367Y220449D02*
G03*
X715367Y220449I-800J0D01*
G01*
X707493Y224386D02*
G03*
X707493Y224386I-800J0D01*
G01*
X691382Y224023D02*
G03*
X691382Y224023I-800J0D01*
G01*
Y255882D02*
G03*
X691382Y255882I-800J0D01*
G01*
X715367Y228323D02*
G03*
X715367Y228323I-800J0D01*
G01*
X522453Y248008D02*
G03*
X522453Y248008I-800J0D01*
G01*
X553950Y251945D02*
G03*
X553950Y251945I-800J0D01*
G01*
X609068D02*
G03*
X609068Y251945I-800J0D01*
G01*
X711430Y354319D02*
G03*
X711430Y354319I-800J0D01*
G01*
X681897Y346997D02*
G03*
X681897Y346997I-800J0D01*
G01*
X537765Y311449D02*
G03*
X537765Y311449I-800J0D01*
G01*
X605131Y307075D02*
G03*
X605131Y307075I-800J0D01*
G01*
X581509Y311012D02*
G03*
X581509Y311012I-800J0D01*
G01*
X585446Y338571D02*
G03*
X585446Y338571I-800J0D01*
G01*
X663749Y346882D02*
G03*
X663749Y346882I-800J0D01*
G01*
X502769Y330697D02*
G03*
X502769Y330697I-800J0D01*
G01*
X672060Y354319D02*
G03*
X672060Y354319I-800J0D01*
G01*
X640564D02*
G03*
X640564Y354319I-800J0D01*
G01*
X514892Y357943D02*
G03*
X514892Y357943I-800J0D01*
G01*
X546076Y354319D02*
G03*
X546076Y354319I-800J0D01*
G01*
X715367Y314949D02*
G03*
X715367Y314949I-800J0D01*
G01*
X707493Y318886D02*
G03*
X707493Y318886I-800J0D01*
G01*
X691382Y318523D02*
G03*
X691382Y318523I-800J0D01*
G01*
Y350382D02*
G03*
X691382Y350382I-800J0D01*
G01*
X715367Y322823D02*
G03*
X715367Y322823I-800J0D01*
G01*
X522453Y342508D02*
G03*
X522453Y342508I-800J0D01*
G01*
X553950Y346445D02*
G03*
X553950Y346445I-800J0D01*
G01*
X609068D02*
G03*
X609068Y346445I-800J0D01*
G01*
Y440945D02*
G03*
X609068Y440945I-800J0D01*
G01*
X553950D02*
G03*
X553950Y440945I-800J0D01*
G01*
X522453Y437008D02*
G03*
X522453Y437008I-800J0D01*
G01*
X715367Y417323D02*
G03*
X715367Y417323I-800J0D01*
G01*
X691382Y444882D02*
G03*
X691382Y444882I-800J0D01*
G01*
Y413023D02*
G03*
X691382Y413023I-800J0D01*
G01*
X707493Y413386D02*
G03*
X707493Y413386I-800J0D01*
G01*
X715367Y409449D02*
G03*
X715367Y409449I-800J0D01*
G01*
X546076Y448819D02*
G03*
X546076Y448819I-800J0D01*
G01*
X514892Y452443D02*
G03*
X514892Y452443I-800J0D01*
G01*
X640564Y448819D02*
G03*
X640564Y448819I-800J0D01*
G01*
X672060D02*
G03*
X672060Y448819I-800J0D01*
G01*
X502769Y425197D02*
G03*
X502769Y425197I-800J0D01*
G01*
X663749Y441382D02*
G03*
X663749Y441382I-800J0D01*
G01*
X585446Y433071D02*
G03*
X585446Y433071I-800J0D01*
G01*
X581509Y405512D02*
G03*
X581509Y405512I-800J0D01*
G01*
X605131Y401575D02*
G03*
X605131Y401575I-800J0D01*
G01*
X537765Y405949D02*
G03*
X537765Y405949I-800J0D01*
G01*
X681897Y441497D02*
G03*
X681897Y441497I-800J0D01*
G01*
X711430Y448819D02*
G03*
X711430Y448819I-800J0D01*
G01*
M02*
