G04 Layer_Physical_Order=1*
G04 Layer_Color=255*
%FSLAX25Y25*%
%MOIN*%
G70*
G01*
G75*
%ADD10R,0.02500X0.07000*%
%ADD11R,0.01700X0.03200*%
%ADD12P,0.00108X8X22.5*%
%ADD13R,0.11800X0.06500*%
%ADD14R,0.04500X0.06500*%
%ADD15R,0.04000X0.02500*%
%ADD16R,0.05000X0.04000*%
%ADD17R,0.04000X0.05000*%
%ADD18R,0.02600X0.03800*%
%ADD19R,0.04000X0.08000*%
%ADD20C,0.02000*%
%ADD21C,0.01000*%
%ADD22C,0.00100*%
%ADD23R,0.06500X0.06500*%
%ADD24C,0.06500*%
%ADD25R,0.08000X0.02400*%
%ADD26C,0.02400*%
G36*
X723472Y452218D02*
X724115Y451952D01*
X724694Y451565D01*
X725187Y451072D01*
X725574Y450493D01*
X725840Y449850D01*
X725976Y449167D01*
Y448819D01*
Y448471D01*
X725840Y447788D01*
X725574Y447144D01*
X725187Y446565D01*
X724694Y446073D01*
X724115Y445686D01*
X723472Y445420D01*
X722789Y445284D01*
X722093D01*
X721410Y445420D01*
X720766Y445686D01*
X720188Y446073D01*
X719695Y446565D01*
X719308Y447144D01*
X719042Y447788D01*
X718906Y448471D01*
Y448819D01*
Y449167D01*
X719042Y449850D01*
X719308Y450493D01*
X719695Y451072D01*
X720188Y451565D01*
X720766Y451952D01*
X721410Y452218D01*
X722093Y452354D01*
X722789D01*
X723472Y452218D01*
D02*
G37*
G36*
X447882D02*
X448525Y451952D01*
X449104Y451565D01*
X449596Y451072D01*
X449983Y450493D01*
X450250Y449850D01*
X450385Y449167D01*
Y448819D01*
Y448471D01*
X450250Y447788D01*
X449983Y447144D01*
X449596Y446565D01*
X449104Y446073D01*
X448525Y445686D01*
X447882Y445420D01*
X447199Y445284D01*
X446502D01*
X445819Y445420D01*
X445176Y445686D01*
X444597Y446073D01*
X444104Y446565D01*
X443718Y447144D01*
X443451Y447788D01*
X443315Y448471D01*
Y448819D01*
Y449167D01*
X443451Y449850D01*
X443718Y450493D01*
X444104Y451072D01*
X444597Y451565D01*
X445176Y451952D01*
X445819Y452218D01*
X446502Y452354D01*
X447199D01*
X447882Y452218D01*
D02*
G37*
G36*
X684497Y426797D02*
X682097D01*
Y423597D01*
X680097D01*
Y426797D01*
X677697D01*
Y439797D01*
X684497D01*
Y426797D01*
D02*
G37*
G36*
X723472Y381352D02*
X724115Y381085D01*
X724694Y380699D01*
X725187Y380206D01*
X725574Y379627D01*
X725840Y378984D01*
X725976Y378301D01*
Y377953D01*
Y377605D01*
X725840Y376922D01*
X725574Y376278D01*
X725187Y375699D01*
X724694Y375207D01*
X724115Y374820D01*
X723472Y374554D01*
X722789Y374418D01*
X722093D01*
X721410Y374554D01*
X720766Y374820D01*
X720188Y375207D01*
X719695Y375699D01*
X719308Y376278D01*
X719042Y376922D01*
X718906Y377605D01*
Y377953D01*
Y378301D01*
X719042Y378984D01*
X719308Y379627D01*
X719695Y380206D01*
X720188Y380699D01*
X720766Y381085D01*
X721410Y381352D01*
X722093Y381488D01*
X722789D01*
X723472Y381352D01*
D02*
G37*
G36*
X447882D02*
X448525Y381085D01*
X449104Y380699D01*
X449596Y380206D01*
X449983Y379627D01*
X450250Y378984D01*
X450385Y378301D01*
Y377953D01*
Y377605D01*
X450250Y376922D01*
X449983Y376278D01*
X449596Y375699D01*
X449104Y375207D01*
X448525Y374820D01*
X447882Y374554D01*
X447199Y374418D01*
X446502D01*
X445819Y374554D01*
X445176Y374820D01*
X444597Y375207D01*
X444104Y375699D01*
X443718Y376278D01*
X443451Y376922D01*
X443315Y377605D01*
Y377953D01*
Y378301D01*
X443451Y378984D01*
X443718Y379627D01*
X444104Y380206D01*
X444597Y380699D01*
X445176Y381085D01*
X445819Y381352D01*
X446502Y381488D01*
X447199D01*
X447882Y381352D01*
D02*
G37*
G36*
X723472Y357718D02*
X724115Y357452D01*
X724694Y357065D01*
X725187Y356572D01*
X725574Y355993D01*
X725840Y355350D01*
X725976Y354667D01*
Y354319D01*
Y353971D01*
X725840Y353288D01*
X725574Y352644D01*
X725187Y352065D01*
X724694Y351573D01*
X724115Y351186D01*
X723472Y350920D01*
X722789Y350784D01*
X722093D01*
X721410Y350920D01*
X720766Y351186D01*
X720188Y351573D01*
X719695Y352065D01*
X719308Y352644D01*
X719042Y353288D01*
X718906Y353971D01*
Y354319D01*
Y354667D01*
X719042Y355350D01*
X719308Y355993D01*
X719695Y356572D01*
X720188Y357065D01*
X720766Y357452D01*
X721410Y357718D01*
X722093Y357854D01*
X722789D01*
X723472Y357718D01*
D02*
G37*
G36*
X447882D02*
X448525Y357452D01*
X449104Y357065D01*
X449596Y356572D01*
X449983Y355993D01*
X450250Y355350D01*
X450385Y354667D01*
Y354319D01*
Y353971D01*
X450250Y353288D01*
X449983Y352644D01*
X449596Y352065D01*
X449104Y351573D01*
X448525Y351186D01*
X447882Y350920D01*
X447199Y350784D01*
X446502D01*
X445819Y350920D01*
X445176Y351186D01*
X444597Y351573D01*
X444104Y352065D01*
X443718Y352644D01*
X443451Y353288D01*
X443315Y353971D01*
Y354319D01*
Y354667D01*
X443451Y355350D01*
X443718Y355993D01*
X444104Y356572D01*
X444597Y357065D01*
X445176Y357452D01*
X445819Y357718D01*
X446502Y357854D01*
X447199D01*
X447882Y357718D01*
D02*
G37*
G36*
X684497Y332297D02*
X682097D01*
Y329097D01*
X680097D01*
Y332297D01*
X677697D01*
Y345297D01*
X684497D01*
Y332297D01*
D02*
G37*
G36*
X723472Y286852D02*
X724115Y286585D01*
X724694Y286199D01*
X725187Y285706D01*
X725574Y285127D01*
X725840Y284484D01*
X725976Y283801D01*
Y283453D01*
Y283105D01*
X725840Y282422D01*
X725574Y281778D01*
X725187Y281199D01*
X724694Y280707D01*
X724115Y280320D01*
X723472Y280054D01*
X722789Y279918D01*
X722093D01*
X721410Y280054D01*
X720766Y280320D01*
X720188Y280707D01*
X719695Y281199D01*
X719308Y281778D01*
X719042Y282422D01*
X718906Y283105D01*
Y283453D01*
Y283801D01*
X719042Y284484D01*
X719308Y285127D01*
X719695Y285706D01*
X720188Y286199D01*
X720766Y286585D01*
X721410Y286852D01*
X722093Y286988D01*
X722789D01*
X723472Y286852D01*
D02*
G37*
G36*
X447882D02*
X448525Y286585D01*
X449104Y286199D01*
X449596Y285706D01*
X449983Y285127D01*
X450250Y284484D01*
X450385Y283801D01*
Y283453D01*
Y283105D01*
X450250Y282422D01*
X449983Y281778D01*
X449596Y281199D01*
X449104Y280707D01*
X448525Y280320D01*
X447882Y280054D01*
X447199Y279918D01*
X446502D01*
X445819Y280054D01*
X445176Y280320D01*
X444597Y280707D01*
X444104Y281199D01*
X443718Y281778D01*
X443451Y282422D01*
X443315Y283105D01*
Y283453D01*
Y283801D01*
X443451Y284484D01*
X443718Y285127D01*
X444104Y285706D01*
X444597Y286199D01*
X445176Y286585D01*
X445819Y286852D01*
X446502Y286988D01*
X447199D01*
X447882Y286852D01*
D02*
G37*
G36*
X723472Y263218D02*
X724115Y262952D01*
X724694Y262565D01*
X725187Y262072D01*
X725574Y261493D01*
X725840Y260850D01*
X725976Y260167D01*
Y259819D01*
Y259471D01*
X725840Y258788D01*
X725574Y258144D01*
X725187Y257565D01*
X724694Y257073D01*
X724115Y256686D01*
X723472Y256420D01*
X722789Y256284D01*
X722093D01*
X721410Y256420D01*
X720766Y256686D01*
X720188Y257073D01*
X719695Y257565D01*
X719308Y258144D01*
X719042Y258788D01*
X718906Y259471D01*
Y259819D01*
Y260167D01*
X719042Y260850D01*
X719308Y261493D01*
X719695Y262072D01*
X720188Y262565D01*
X720766Y262952D01*
X721410Y263218D01*
X722093Y263354D01*
X722789D01*
X723472Y263218D01*
D02*
G37*
G36*
X447882D02*
X448525Y262952D01*
X449104Y262565D01*
X449596Y262072D01*
X449983Y261493D01*
X450250Y260850D01*
X450385Y260167D01*
Y259819D01*
Y259471D01*
X450250Y258788D01*
X449983Y258144D01*
X449596Y257565D01*
X449104Y257073D01*
X448525Y256686D01*
X447882Y256420D01*
X447199Y256284D01*
X446502D01*
X445819Y256420D01*
X445176Y256686D01*
X444597Y257073D01*
X444104Y257565D01*
X443718Y258144D01*
X443451Y258788D01*
X443315Y259471D01*
Y259819D01*
Y260167D01*
X443451Y260850D01*
X443718Y261493D01*
X444104Y262072D01*
X444597Y262565D01*
X445176Y262952D01*
X445819Y263218D01*
X446502Y263354D01*
X447199D01*
X447882Y263218D01*
D02*
G37*
G36*
X684497Y237797D02*
X682097D01*
Y234597D01*
X680097D01*
Y237797D01*
X677697D01*
Y250797D01*
X684497D01*
Y237797D01*
D02*
G37*
G36*
X723472Y192352D02*
X724115Y192086D01*
X724694Y191699D01*
X725187Y191206D01*
X725574Y190627D01*
X725840Y189984D01*
X725976Y189301D01*
Y188953D01*
Y188605D01*
X725840Y187922D01*
X725574Y187278D01*
X725187Y186699D01*
X724694Y186207D01*
X724115Y185820D01*
X723472Y185554D01*
X722789Y185418D01*
X722093D01*
X721410Y185554D01*
X720766Y185820D01*
X720188Y186207D01*
X719695Y186699D01*
X719308Y187278D01*
X719042Y187922D01*
X718906Y188605D01*
Y188953D01*
Y189301D01*
X719042Y189984D01*
X719308Y190627D01*
X719695Y191206D01*
X720188Y191699D01*
X720766Y192086D01*
X721410Y192352D01*
X722093Y192488D01*
X722789D01*
X723472Y192352D01*
D02*
G37*
G36*
X447882D02*
X448525Y192086D01*
X449104Y191699D01*
X449596Y191206D01*
X449983Y190627D01*
X450250Y189984D01*
X450385Y189301D01*
Y188953D01*
Y188605D01*
X450250Y187922D01*
X449983Y187278D01*
X449596Y186699D01*
X449104Y186207D01*
X448525Y185820D01*
X447882Y185554D01*
X447199Y185418D01*
X446502D01*
X445819Y185554D01*
X445176Y185820D01*
X444597Y186207D01*
X444104Y186699D01*
X443718Y187278D01*
X443451Y187922D01*
X443315Y188605D01*
Y188953D01*
Y189301D01*
X443451Y189984D01*
X443718Y190627D01*
X444104Y191206D01*
X444597Y191699D01*
X445176Y192086D01*
X445819Y192352D01*
X446502Y192488D01*
X447199D01*
X447882Y192352D01*
D02*
G37*
G36*
X723472Y168718D02*
X724115Y168452D01*
X724694Y168065D01*
X725187Y167572D01*
X725574Y166993D01*
X725840Y166350D01*
X725976Y165667D01*
Y165319D01*
Y164971D01*
X725840Y164288D01*
X725574Y163644D01*
X725187Y163065D01*
X724694Y162573D01*
X724115Y162186D01*
X723472Y161920D01*
X722789Y161784D01*
X722093D01*
X721410Y161920D01*
X720766Y162186D01*
X720188Y162573D01*
X719695Y163065D01*
X719308Y163644D01*
X719042Y164288D01*
X718906Y164971D01*
Y165319D01*
Y165667D01*
X719042Y166350D01*
X719308Y166993D01*
X719695Y167572D01*
X720188Y168065D01*
X720766Y168452D01*
X721410Y168718D01*
X722093Y168854D01*
X722789D01*
X723472Y168718D01*
D02*
G37*
G36*
X447882D02*
X448525Y168452D01*
X449104Y168065D01*
X449596Y167572D01*
X449983Y166993D01*
X450250Y166350D01*
X450385Y165667D01*
Y165319D01*
Y164971D01*
X450250Y164288D01*
X449983Y163644D01*
X449596Y163065D01*
X449104Y162573D01*
X448525Y162186D01*
X447882Y161920D01*
X447199Y161784D01*
X446502D01*
X445819Y161920D01*
X445176Y162186D01*
X444597Y162573D01*
X444104Y163065D01*
X443718Y163644D01*
X443451Y164288D01*
X443315Y164971D01*
Y165319D01*
Y165667D01*
X443451Y166350D01*
X443718Y166993D01*
X444104Y167572D01*
X444597Y168065D01*
X445176Y168452D01*
X445819Y168718D01*
X446502Y168854D01*
X447199D01*
X447882Y168718D01*
D02*
G37*
G36*
X684497Y143297D02*
X682097D01*
Y140097D01*
X680097D01*
Y143297D01*
X677697D01*
Y156297D01*
X684497D01*
Y143297D01*
D02*
G37*
G36*
X723472Y97852D02*
X724115Y97585D01*
X724694Y97199D01*
X725187Y96706D01*
X725574Y96127D01*
X725840Y95484D01*
X725976Y94801D01*
Y94453D01*
Y94105D01*
X725840Y93422D01*
X725574Y92778D01*
X725187Y92199D01*
X724694Y91707D01*
X724115Y91320D01*
X723472Y91054D01*
X722789Y90918D01*
X722093D01*
X721410Y91054D01*
X720766Y91320D01*
X720188Y91707D01*
X719695Y92199D01*
X719308Y92778D01*
X719042Y93422D01*
X718906Y94105D01*
Y94453D01*
Y94801D01*
X719042Y95484D01*
X719308Y96127D01*
X719695Y96706D01*
X720188Y97199D01*
X720766Y97585D01*
X721410Y97852D01*
X722093Y97988D01*
X722789D01*
X723472Y97852D01*
D02*
G37*
G36*
X447882D02*
X448525Y97585D01*
X449104Y97199D01*
X449596Y96706D01*
X449983Y96127D01*
X450250Y95484D01*
X450385Y94801D01*
Y94453D01*
Y94105D01*
X450250Y93422D01*
X449983Y92778D01*
X449596Y92199D01*
X449104Y91707D01*
X448525Y91320D01*
X447882Y91054D01*
X447199Y90918D01*
X446502D01*
X445819Y91054D01*
X445176Y91320D01*
X444597Y91707D01*
X444104Y92199D01*
X443718Y92778D01*
X443451Y93422D01*
X443315Y94105D01*
Y94453D01*
Y94801D01*
X443451Y95484D01*
X443718Y96127D01*
X444104Y96706D01*
X444597Y97199D01*
X445176Y97585D01*
X445819Y97852D01*
X446502Y97988D01*
X447199D01*
X447882Y97852D01*
D02*
G37*
D10*
X557461Y144823D02*
D03*
X567461Y122823D02*
D03*
X562461D02*
D03*
X572461Y144823D02*
D03*
X567461D02*
D03*
X557461Y122823D02*
D03*
X562461Y144823D02*
D03*
X572461Y122823D02*
D03*
X557461Y239323D02*
D03*
X567461Y217323D02*
D03*
X562461D02*
D03*
X572461Y239323D02*
D03*
X567461D02*
D03*
X557461Y217323D02*
D03*
X562461Y239323D02*
D03*
X572461Y217323D02*
D03*
X557461Y333823D02*
D03*
X567461Y311823D02*
D03*
X562461D02*
D03*
X572461Y333823D02*
D03*
X567461D02*
D03*
X557461Y311823D02*
D03*
X562461Y333823D02*
D03*
X572461Y311823D02*
D03*
X557461Y428323D02*
D03*
X567461Y406323D02*
D03*
X562461D02*
D03*
X572461Y428323D02*
D03*
X567461D02*
D03*
X557461Y406323D02*
D03*
X562461Y428323D02*
D03*
X572461Y406323D02*
D03*
D11*
X686997Y154697D02*
D03*
Y141697D02*
D03*
X675197Y154697D02*
D03*
Y141697D02*
D03*
X686997Y249197D02*
D03*
Y236197D02*
D03*
X675197Y249197D02*
D03*
Y236197D02*
D03*
X686997Y343697D02*
D03*
Y330697D02*
D03*
X675197Y343697D02*
D03*
Y330697D02*
D03*
X686997Y438197D02*
D03*
Y425197D02*
D03*
X675197Y438197D02*
D03*
Y425197D02*
D03*
D12*
X681097Y148197D02*
D03*
Y242697D02*
D03*
Y337197D02*
D03*
Y431697D02*
D03*
D13*
X517756Y93800D02*
D03*
Y188300D02*
D03*
Y282800D02*
D03*
Y377300D02*
D03*
D14*
Y118800D02*
D03*
X508656D02*
D03*
X526856D02*
D03*
X517756Y213300D02*
D03*
X508656D02*
D03*
X526856D02*
D03*
X517756Y307800D02*
D03*
X508656D02*
D03*
X526856D02*
D03*
X517756Y402300D02*
D03*
X508656D02*
D03*
X526856D02*
D03*
D15*
X611892Y117838D02*
D03*
Y110438D02*
D03*
X620392Y114138D02*
D03*
X481971Y121775D02*
D03*
X490471Y118075D02*
D03*
X481971Y114375D02*
D03*
X505592Y165082D02*
D03*
Y157682D02*
D03*
X514092Y161382D02*
D03*
X611892Y212338D02*
D03*
Y204938D02*
D03*
X620392Y208638D02*
D03*
X481971Y216275D02*
D03*
X490471Y212575D02*
D03*
X481971Y208875D02*
D03*
X505592Y259582D02*
D03*
Y252182D02*
D03*
X514092Y255882D02*
D03*
X611892Y306838D02*
D03*
Y299438D02*
D03*
X620392Y303138D02*
D03*
X481971Y310775D02*
D03*
X490471Y307075D02*
D03*
X481971Y303375D02*
D03*
X505592Y354082D02*
D03*
Y346682D02*
D03*
X514092Y350382D02*
D03*
X505592Y448582D02*
D03*
Y441182D02*
D03*
X514092Y444882D02*
D03*
X481971Y405275D02*
D03*
X490471Y401575D02*
D03*
X481971Y397875D02*
D03*
X611892Y401338D02*
D03*
Y393938D02*
D03*
X620392Y397638D02*
D03*
D16*
X698819Y133386D02*
D03*
Y126386D02*
D03*
Y227886D02*
D03*
Y220886D02*
D03*
Y322386D02*
D03*
Y315386D02*
D03*
Y416886D02*
D03*
Y409886D02*
D03*
D17*
X655949Y165319D02*
D03*
X662949D02*
D03*
X513343Y141697D02*
D03*
X506343D02*
D03*
X592957Y118075D02*
D03*
X599957D02*
D03*
X529965Y141697D02*
D03*
X536965D02*
D03*
X699256Y165319D02*
D03*
X706256D02*
D03*
X529965Y129886D02*
D03*
X536965D02*
D03*
X513343D02*
D03*
X506343D02*
D03*
X482721Y165319D02*
D03*
X489720D02*
D03*
X482721Y94453D02*
D03*
X489720D02*
D03*
X536965Y153508D02*
D03*
X529965D02*
D03*
Y165319D02*
D03*
X536965D02*
D03*
X482721Y106264D02*
D03*
X489720D02*
D03*
X599957Y153508D02*
D03*
X592957D02*
D03*
X557524Y165319D02*
D03*
X564524D02*
D03*
X699256Y153508D02*
D03*
X706256D02*
D03*
X592957Y106264D02*
D03*
X599957D02*
D03*
X682634Y165319D02*
D03*
X675634D02*
D03*
X482721Y141697D02*
D03*
X489720D02*
D03*
Y129886D02*
D03*
X482721D02*
D03*
Y153508D02*
D03*
X489720D02*
D03*
X564524Y106264D02*
D03*
X557524D02*
D03*
X619642Y141697D02*
D03*
X612642D02*
D03*
Y129886D02*
D03*
X619642D02*
D03*
X599957Y141697D02*
D03*
X592957D02*
D03*
Y129886D02*
D03*
X599957D02*
D03*
X655949Y259819D02*
D03*
X662949D02*
D03*
X513343Y236197D02*
D03*
X506343D02*
D03*
X592957Y212575D02*
D03*
X599957D02*
D03*
X529965Y236197D02*
D03*
X536965D02*
D03*
X699256Y259819D02*
D03*
X706256D02*
D03*
X529965Y224386D02*
D03*
X536965D02*
D03*
X513343D02*
D03*
X506343D02*
D03*
X482721Y259819D02*
D03*
X489720D02*
D03*
X482721Y188953D02*
D03*
X489720D02*
D03*
X536965Y248008D02*
D03*
X529965D02*
D03*
Y259819D02*
D03*
X536965D02*
D03*
X482721Y200764D02*
D03*
X489720D02*
D03*
X599957Y248008D02*
D03*
X592957D02*
D03*
X557524Y259819D02*
D03*
X564524D02*
D03*
X699256Y248008D02*
D03*
X706256D02*
D03*
X592957Y200764D02*
D03*
X599957D02*
D03*
X682634Y259819D02*
D03*
X675634D02*
D03*
X482721Y236197D02*
D03*
X489720D02*
D03*
Y224386D02*
D03*
X482721D02*
D03*
Y248008D02*
D03*
X489720D02*
D03*
X564524Y200764D02*
D03*
X557524D02*
D03*
X619642Y236197D02*
D03*
X612642D02*
D03*
Y224386D02*
D03*
X619642D02*
D03*
X599957Y236197D02*
D03*
X592957D02*
D03*
Y224386D02*
D03*
X599957D02*
D03*
X655949Y354319D02*
D03*
X662949D02*
D03*
X513343Y330697D02*
D03*
X506343D02*
D03*
X592957Y307075D02*
D03*
X599957D02*
D03*
X529965Y330697D02*
D03*
X536965D02*
D03*
X699256Y354319D02*
D03*
X706256D02*
D03*
X529965Y318886D02*
D03*
X536965D02*
D03*
X513343D02*
D03*
X506343D02*
D03*
X482721Y354319D02*
D03*
X489720D02*
D03*
X482721Y283453D02*
D03*
X489720D02*
D03*
X536965Y342508D02*
D03*
X529965D02*
D03*
Y354319D02*
D03*
X536965D02*
D03*
X482721Y295264D02*
D03*
X489720D02*
D03*
X599957Y342508D02*
D03*
X592957D02*
D03*
X557524Y354319D02*
D03*
X564524D02*
D03*
X699256Y342508D02*
D03*
X706256D02*
D03*
X592957Y295264D02*
D03*
X599957D02*
D03*
X682634Y354319D02*
D03*
X675634D02*
D03*
X482721Y330697D02*
D03*
X489720D02*
D03*
Y318886D02*
D03*
X482721D02*
D03*
Y342508D02*
D03*
X489720D02*
D03*
X564524Y295264D02*
D03*
X557524D02*
D03*
X619642Y330697D02*
D03*
X612642D02*
D03*
Y318886D02*
D03*
X619642D02*
D03*
X599957Y330697D02*
D03*
X592957D02*
D03*
Y318886D02*
D03*
X599957D02*
D03*
X592957Y413386D02*
D03*
X599957D02*
D03*
Y425197D02*
D03*
X592957D02*
D03*
X612642Y413386D02*
D03*
X619642D02*
D03*
Y425197D02*
D03*
X612642D02*
D03*
X564524Y389764D02*
D03*
X557524D02*
D03*
X482721Y437008D02*
D03*
X489720D02*
D03*
Y413386D02*
D03*
X482721D02*
D03*
Y425197D02*
D03*
X489720D02*
D03*
X682634Y448819D02*
D03*
X675634D02*
D03*
X592957Y389764D02*
D03*
X599957D02*
D03*
X699256Y437008D02*
D03*
X706256D02*
D03*
X557524Y448819D02*
D03*
X564524D02*
D03*
X599957Y437008D02*
D03*
X592957D02*
D03*
X482721Y389764D02*
D03*
X489720D02*
D03*
X529965Y448819D02*
D03*
X536965D02*
D03*
Y437008D02*
D03*
X529965D02*
D03*
X482721Y377953D02*
D03*
X489720D02*
D03*
X482721Y448819D02*
D03*
X489720D02*
D03*
X513343Y413386D02*
D03*
X506343D02*
D03*
X529965D02*
D03*
X536965D02*
D03*
X699256Y448819D02*
D03*
X706256D02*
D03*
X529965Y425197D02*
D03*
X536965D02*
D03*
X592957Y401575D02*
D03*
X599957D02*
D03*
X513343Y425197D02*
D03*
X506343D02*
D03*
X655949Y448819D02*
D03*
X662949D02*
D03*
D18*
X639764Y160349D02*
D03*
Y146667D02*
D03*
Y254849D02*
D03*
Y241167D02*
D03*
Y349349D02*
D03*
Y335667D02*
D03*
Y443849D02*
D03*
Y430167D02*
D03*
D19*
X663449Y141697D02*
D03*
X655449D02*
D03*
X663449Y236197D02*
D03*
X655449D02*
D03*
X663449Y330697D02*
D03*
X655449D02*
D03*
X663449Y425197D02*
D03*
X655449D02*
D03*
D20*
X639764Y146067D02*
Y146667D01*
Y146067D02*
X644134Y141697D01*
X655449D01*
X675197D02*
Y142447D01*
X673286Y144358D02*
X675197Y142447D01*
X672230Y144358D02*
X673286D01*
X667017Y149571D02*
X672230Y144358D01*
X657512Y149571D02*
X667017D01*
X655512Y147571D02*
X657512Y149571D01*
X655512Y147260D02*
Y147571D01*
X655449Y147197D02*
X655512Y147260D01*
X655449Y141697D02*
Y147197D01*
X536965Y129886D02*
Y141697D01*
Y122449D02*
Y129886D01*
X620392Y111388D02*
Y114138D01*
X615268Y106264D02*
X620392Y111388D01*
X599957Y106264D02*
X615268D01*
X599957D02*
Y118075D01*
Y129886D01*
Y118075D02*
X604331D01*
X579898Y122823D02*
X580709Y122012D01*
X572461Y122823D02*
X579898D01*
X584646Y149571D02*
X588583Y153508D01*
X592957D01*
X706256Y145197D02*
Y153508D01*
X698819Y137760D02*
X706256Y145197D01*
X683097Y137760D02*
X698819D01*
X681097Y139760D02*
X683097Y137760D01*
X681097Y139760D02*
Y148197D01*
X706256Y153508D02*
Y165319D01*
X662949Y157882D02*
Y165319D01*
X672634Y148197D02*
X681097D01*
X662949Y157882D02*
X672634Y148197D01*
X533315Y118800D02*
X536965Y122449D01*
X526856Y118800D02*
X533315D01*
X506343Y129886D02*
Y141697D01*
X489720Y106764D02*
X498032Y115075D01*
Y121075D01*
X506343Y129386D01*
Y129886D01*
X489720Y106264D02*
Y106764D01*
X481971Y114375D02*
X482721D01*
X489720Y107375D01*
Y106764D02*
Y107375D01*
X501968Y141697D02*
X506343D01*
X681097Y148197D02*
Y157997D01*
X706256Y165319D02*
X710630D01*
X675634Y161319D02*
Y165319D01*
X675197Y160882D02*
X675634Y161319D01*
X675197Y154697D02*
Y160882D01*
X639764Y160349D02*
Y165319D01*
X513343Y129886D02*
Y141697D01*
Y145697D01*
X514092Y146447D01*
Y161382D01*
X513343Y129386D02*
Y129886D01*
X508656Y124699D02*
X513343Y129386D01*
X508656Y118800D02*
Y124699D01*
X514092Y161382D02*
Y168943D01*
X655949Y164819D02*
Y165319D01*
X651479Y160349D02*
X655949Y164819D01*
X639764Y160349D02*
X651479D01*
X671260Y165319D02*
X675634D01*
X471693Y141697D02*
Y166539D01*
X474972Y169819D01*
X485720D01*
X489720Y165819D01*
Y165319D02*
Y165819D01*
X504843Y157682D02*
X505592D01*
X497205Y165319D02*
X504843Y157682D01*
X489720Y165319D02*
X497205D01*
X471693Y141697D02*
X482721D01*
X454724Y124729D02*
X471693Y141697D01*
X592957Y106264D02*
Y117575D01*
Y118075D01*
X567461Y117823D02*
Y122823D01*
Y117823D02*
X571146Y114138D01*
X589020D01*
X589396Y114514D01*
X589896D01*
X592957Y117575D01*
X722441Y122012D02*
Y125949D01*
X698819Y98390D02*
X722441Y122012D01*
X594957Y98390D02*
X698819D01*
X592957Y100390D02*
X594957Y98390D01*
X592957Y100390D02*
Y106264D01*
X714567Y125949D02*
X722441D01*
X686997Y154697D02*
Y158424D01*
X689625Y161053D01*
X690582D01*
X693719Y126386D02*
X698819D01*
X690582Y129523D02*
X693719Y126386D01*
X686316Y165319D02*
X690582Y161053D01*
X682634Y165319D02*
X686316D01*
X690582Y161053D02*
Y161382D01*
X698819Y126386D02*
X703193D01*
X706693Y129886D01*
X663449Y136197D02*
Y141697D01*
Y136197D02*
X665823Y133823D01*
X694382D01*
X694819Y133386D01*
X698819D01*
X702819D01*
X703256Y133823D01*
X714567D01*
X517756Y118800D02*
Y123550D01*
X520155Y125949D01*
X526528D01*
X529965Y129386D01*
Y129886D01*
Y141697D01*
X517756Y93800D02*
Y118800D01*
X553150Y157445D02*
X557461Y153134D01*
Y144823D02*
Y153134D01*
X608268Y157445D02*
X619642Y146071D01*
Y141697D02*
Y146071D01*
X529965Y141697D02*
Y142197D01*
X521654Y150508D02*
X529965Y142197D01*
X521654Y150508D02*
Y153508D01*
X639764Y240567D02*
Y241167D01*
Y240567D02*
X644134Y236197D01*
X655449D01*
X675197D02*
Y236947D01*
X673286Y238858D02*
X675197Y236947D01*
X672230Y238858D02*
X673286D01*
X667017Y244071D02*
X672230Y238858D01*
X657512Y244071D02*
X667017D01*
X655512Y242071D02*
X657512Y244071D01*
X655512Y241760D02*
Y242071D01*
X655449Y241697D02*
X655512Y241760D01*
X655449Y236197D02*
Y241697D01*
X536965Y224386D02*
Y236197D01*
Y216949D02*
Y224386D01*
X620392Y205888D02*
Y208638D01*
X615268Y200764D02*
X620392Y205888D01*
X599957Y200764D02*
X615268D01*
X599957D02*
Y212575D01*
Y224386D01*
Y212575D02*
X604331D01*
X579898Y217323D02*
X580709Y216512D01*
X572461Y217323D02*
X579898D01*
X584646Y244071D02*
X588583Y248008D01*
X592957D01*
X706256Y239697D02*
Y248008D01*
X698819Y232260D02*
X706256Y239697D01*
X683097Y232260D02*
X698819D01*
X681097Y234260D02*
X683097Y232260D01*
X681097Y234260D02*
Y242697D01*
X706256Y248008D02*
Y259819D01*
X662949Y252382D02*
Y259819D01*
X672634Y242697D02*
X681097D01*
X662949Y252382D02*
X672634Y242697D01*
X533315Y213300D02*
X536965Y216949D01*
X526856Y213300D02*
X533315D01*
X506343Y224386D02*
Y236197D01*
X489720Y201264D02*
X498032Y209575D01*
Y215575D01*
X506343Y223886D01*
Y224386D01*
X489720Y200764D02*
Y201264D01*
X481971Y208875D02*
X482721D01*
X489720Y201875D01*
Y201264D02*
Y201875D01*
X501968Y236197D02*
X506343D01*
X681097Y242697D02*
Y252497D01*
X706256Y259819D02*
X710630D01*
X675634Y255819D02*
Y259819D01*
X675197Y255382D02*
X675634Y255819D01*
X675197Y249197D02*
Y255382D01*
X639764Y254849D02*
Y259819D01*
X513343Y224386D02*
Y236197D01*
Y240197D01*
X514092Y240947D01*
Y255882D01*
X513343Y223886D02*
Y224386D01*
X508656Y219199D02*
X513343Y223886D01*
X508656Y213300D02*
Y219199D01*
X514092Y255882D02*
Y263443D01*
X655949Y259319D02*
Y259819D01*
X651479Y254849D02*
X655949Y259319D01*
X639764Y254849D02*
X651479D01*
X671260Y259819D02*
X675634D01*
X471693Y236197D02*
Y261039D01*
X474972Y264319D01*
X485720D01*
X489720Y260319D01*
Y259819D02*
Y260319D01*
X504843Y252182D02*
X505592D01*
X497205Y259819D02*
X504843Y252182D01*
X489720Y259819D02*
X497205D01*
X471693Y236197D02*
X482721D01*
X454724Y219229D02*
X471693Y236197D01*
X592957Y200764D02*
Y212075D01*
Y212575D01*
X567461Y212323D02*
Y217323D01*
Y212323D02*
X571146Y208638D01*
X589020D01*
X589396Y209014D01*
X589896D01*
X592957Y212075D01*
X722441Y216512D02*
Y220449D01*
X698819Y192890D02*
X722441Y216512D01*
X594957Y192890D02*
X698819D01*
X592957Y194890D02*
X594957Y192890D01*
X592957Y194890D02*
Y200764D01*
X714567Y220449D02*
X722441D01*
X686997Y249197D02*
Y252924D01*
X689625Y255553D01*
X690582D01*
X693719Y220886D02*
X698819D01*
X690582Y224023D02*
X693719Y220886D01*
X686316Y259819D02*
X690582Y255553D01*
X682634Y259819D02*
X686316D01*
X690582Y255553D02*
Y255882D01*
X698819Y220886D02*
X703193D01*
X706693Y224386D01*
X663449Y230697D02*
Y236197D01*
Y230697D02*
X665823Y228323D01*
X694382D01*
X694819Y227886D01*
X698819D01*
X702819D01*
X703256Y228323D01*
X714567D01*
X517756Y213300D02*
Y218050D01*
X520155Y220449D01*
X526528D01*
X529965Y223886D01*
Y224386D01*
Y236197D01*
X517756Y188300D02*
Y213300D01*
X553150Y251945D02*
X557461Y247634D01*
Y239323D02*
Y247634D01*
X608268Y251945D02*
X619642Y240571D01*
Y236197D02*
Y240571D01*
X529965Y236197D02*
Y236697D01*
X521654Y245008D02*
X529965Y236697D01*
X521654Y245008D02*
Y248008D01*
X639764Y335067D02*
Y335667D01*
Y335067D02*
X644134Y330697D01*
X655449D01*
X675197D02*
Y331447D01*
X673286Y333358D02*
X675197Y331447D01*
X672230Y333358D02*
X673286D01*
X667017Y338571D02*
X672230Y333358D01*
X657512Y338571D02*
X667017D01*
X655512Y336571D02*
X657512Y338571D01*
X655512Y336260D02*
Y336571D01*
X655449Y336197D02*
X655512Y336260D01*
X655449Y330697D02*
Y336197D01*
X536965Y318886D02*
Y330697D01*
Y311449D02*
Y318886D01*
X620392Y300388D02*
Y303138D01*
X615268Y295264D02*
X620392Y300388D01*
X599957Y295264D02*
X615268D01*
X599957D02*
Y307075D01*
Y318886D01*
Y307075D02*
X604331D01*
X579898Y311823D02*
X580709Y311012D01*
X572461Y311823D02*
X579898D01*
X584646Y338571D02*
X588583Y342508D01*
X592957D01*
X706256Y334197D02*
Y342508D01*
X698819Y326760D02*
X706256Y334197D01*
X683097Y326760D02*
X698819D01*
X681097Y328760D02*
X683097Y326760D01*
X681097Y328760D02*
Y337197D01*
X706256Y342508D02*
Y354319D01*
X662949Y346882D02*
Y354319D01*
X672634Y337197D02*
X681097D01*
X662949Y346882D02*
X672634Y337197D01*
X533315Y307800D02*
X536965Y311449D01*
X526856Y307800D02*
X533315D01*
X506343Y318886D02*
Y330697D01*
X489720Y295764D02*
X498032Y304075D01*
Y310075D01*
X506343Y318386D01*
Y318886D01*
X489720Y295264D02*
Y295764D01*
X481971Y303375D02*
X482721D01*
X489720Y296375D01*
Y295764D02*
Y296375D01*
X501968Y330697D02*
X506343D01*
X681097Y337197D02*
Y346997D01*
X706256Y354319D02*
X710630D01*
X675634Y350319D02*
Y354319D01*
X675197Y349882D02*
X675634Y350319D01*
X675197Y343697D02*
Y349882D01*
X639764Y349349D02*
Y354319D01*
X513343Y318886D02*
Y330697D01*
Y334697D01*
X514092Y335447D01*
Y350382D01*
X513343Y318386D02*
Y318886D01*
X508656Y313699D02*
X513343Y318386D01*
X508656Y307800D02*
Y313699D01*
X514092Y350382D02*
Y357943D01*
X655949Y353819D02*
Y354319D01*
X651479Y349349D02*
X655949Y353819D01*
X639764Y349349D02*
X651479D01*
X671260Y354319D02*
X675634D01*
X471693Y330697D02*
Y355539D01*
X474972Y358819D01*
X485720D01*
X489720Y354819D01*
Y354319D02*
Y354819D01*
X504843Y346682D02*
X505592D01*
X497205Y354319D02*
X504843Y346682D01*
X489720Y354319D02*
X497205D01*
X471693Y330697D02*
X482721D01*
X454724Y313729D02*
X471693Y330697D01*
X592957Y295264D02*
Y306575D01*
Y307075D01*
X567461Y306823D02*
Y311823D01*
Y306823D02*
X571146Y303138D01*
X589020D01*
X589396Y303514D01*
X589896D01*
X592957Y306575D01*
X722441Y311012D02*
Y314949D01*
X698819Y287390D02*
X722441Y311012D01*
X594957Y287390D02*
X698819D01*
X592957Y289390D02*
X594957Y287390D01*
X592957Y289390D02*
Y295264D01*
X714567Y314949D02*
X722441D01*
X686997Y343697D02*
Y347424D01*
X689625Y350053D01*
X690582D01*
X693719Y315386D02*
X698819D01*
X690582Y318523D02*
X693719Y315386D01*
X686316Y354319D02*
X690582Y350053D01*
X682634Y354319D02*
X686316D01*
X690582Y350053D02*
Y350382D01*
X698819Y315386D02*
X703193D01*
X706693Y318886D01*
X663449Y325197D02*
Y330697D01*
Y325197D02*
X665823Y322823D01*
X694382D01*
X694819Y322386D01*
X698819D01*
X702819D01*
X703256Y322823D01*
X714567D01*
X517756Y307800D02*
Y312550D01*
X520155Y314949D01*
X526528D01*
X529965Y318386D01*
Y318886D01*
Y330697D01*
X517756Y282800D02*
Y307800D01*
X553150Y346445D02*
X557461Y342134D01*
Y333823D02*
Y342134D01*
X608268Y346445D02*
X619642Y335071D01*
Y330697D02*
Y335071D01*
X529965Y330697D02*
Y331197D01*
X521654Y339508D02*
X529965Y331197D01*
X521654Y339508D02*
Y342508D01*
Y434008D02*
Y437008D01*
Y434008D02*
X529965Y425697D01*
Y425197D02*
Y425697D01*
X619642Y425197D02*
Y429571D01*
X608268Y440945D02*
X619642Y429571D01*
X557461Y428323D02*
Y436634D01*
X553150Y440945D02*
X557461Y436634D01*
X517756Y377300D02*
Y402300D01*
X529965Y413386D02*
Y425197D01*
Y412886D02*
Y413386D01*
X526528Y409449D02*
X529965Y412886D01*
X520155Y409449D02*
X526528D01*
X517756Y407050D02*
X520155Y409449D01*
X517756Y402300D02*
Y407050D01*
X703256Y417323D02*
X714567D01*
X702819Y416886D02*
X703256Y417323D01*
X698819Y416886D02*
X702819D01*
X694819D02*
X698819D01*
X694382Y417323D02*
X694819Y416886D01*
X665823Y417323D02*
X694382D01*
X663449Y419697D02*
X665823Y417323D01*
X663449Y419697D02*
Y425197D01*
X703193Y409886D02*
X706693Y413386D01*
X698819Y409886D02*
X703193D01*
X690582Y444553D02*
Y444882D01*
X682634Y448819D02*
X686316D01*
X690582Y444553D01*
Y413023D02*
X693719Y409886D01*
X698819D01*
X689625Y444553D02*
X690582D01*
X686997Y441924D02*
X689625Y444553D01*
X686997Y438197D02*
Y441924D01*
X714567Y409449D02*
X722441D01*
X592957Y383890D02*
Y389764D01*
Y383890D02*
X594957Y381890D01*
X698819D01*
X722441Y405512D01*
Y409449D01*
X589896Y398014D02*
X592957Y401075D01*
X589396Y398014D02*
X589896D01*
X589020Y397638D02*
X589396Y398014D01*
X571146Y397638D02*
X589020D01*
X567461Y401323D02*
X571146Y397638D01*
X567461Y401323D02*
Y406323D01*
X592957Y401075D02*
Y401575D01*
Y389764D02*
Y401075D01*
X454724Y408229D02*
X471693Y425197D01*
X482721D01*
X489720Y448819D02*
X497205D01*
X504843Y441182D01*
X505592D01*
X489720Y448819D02*
Y449319D01*
X485720Y453319D02*
X489720Y449319D01*
X474972Y453319D02*
X485720D01*
X471693Y450039D02*
X474972Y453319D01*
X471693Y425197D02*
Y450039D01*
X671260Y448819D02*
X675634D01*
X639764Y443849D02*
X651479D01*
X655949Y448319D01*
Y448819D01*
X514092Y444882D02*
Y452443D01*
X508656Y402300D02*
Y408199D01*
X513343Y412886D01*
Y413386D01*
X514092Y429947D02*
Y444882D01*
X513343Y429197D02*
X514092Y429947D01*
X513343Y425197D02*
Y429197D01*
Y413386D02*
Y425197D01*
X639764Y443849D02*
Y448819D01*
X675197Y438197D02*
Y444382D01*
X675634Y444819D01*
Y448819D01*
X706256D02*
X710630D01*
X681097Y431697D02*
Y441497D01*
X501968Y425197D02*
X506343D01*
X489720Y390264D02*
Y390875D01*
X482721Y397875D02*
X489720Y390875D01*
X481971Y397875D02*
X482721D01*
X489720Y389764D02*
Y390264D01*
X506343Y412886D02*
Y413386D01*
X498032Y404575D02*
X506343Y412886D01*
X498032Y398575D02*
Y404575D01*
X489720Y390264D02*
X498032Y398575D01*
X506343Y413386D02*
Y425197D01*
X526856Y402300D02*
X533315D01*
X536965Y405949D01*
X662949Y441382D02*
X672634Y431697D01*
X681097D01*
X662949Y441382D02*
Y448819D01*
X706256Y437008D02*
Y448819D01*
X681097Y423260D02*
Y431697D01*
Y423260D02*
X683097Y421260D01*
X698819D01*
X706256Y428697D01*
Y437008D01*
X588583D02*
X592957D01*
X584646Y433071D02*
X588583Y437008D01*
X572461Y406323D02*
X579898D01*
X580709Y405512D01*
X599957Y401575D02*
X604331D01*
X599957D02*
Y413386D01*
Y389764D02*
Y401575D01*
Y389764D02*
X615268D01*
X620392Y394888D01*
Y397638D01*
X536965Y405949D02*
Y413386D01*
Y425197D01*
X655449D02*
Y430697D01*
X655512Y430760D01*
Y431071D01*
X657512Y433071D01*
X667017D01*
X672230Y427858D01*
X673286D01*
X675197Y425947D01*
Y425197D02*
Y425947D01*
X644134Y425197D02*
X655449D01*
X639764Y429567D02*
X644134Y425197D01*
X639764Y429567D02*
Y430167D01*
D21*
X489720Y141197D02*
Y141697D01*
X482721Y134197D02*
X489720Y141197D01*
X482721Y129886D02*
Y134197D01*
X489720Y141697D02*
Y153508D01*
Y126386D02*
Y129886D01*
Y126386D02*
X490471Y125636D01*
Y118075D02*
Y125636D01*
X478346Y106264D02*
X482721D01*
X474409Y110201D02*
X478346Y106264D01*
X474409Y110201D02*
Y118075D01*
X478109Y121775D01*
X481971D01*
X489720Y94453D02*
Y94953D01*
X482721Y101953D02*
X489720Y94953D01*
X482721Y101953D02*
Y106264D01*
X564524Y165319D02*
X624016D01*
X627953Y169256D01*
X653264D01*
X653327Y169319D01*
X695756D01*
X699256Y165819D01*
Y165319D02*
Y165819D01*
Y153508D02*
Y165319D01*
Y150008D02*
Y153508D01*
X690945Y141697D02*
X699256Y150008D01*
X686997Y141697D02*
X690945D01*
X536965Y165319D02*
X545276D01*
X557524D01*
Y160945D02*
Y165319D01*
Y160945D02*
X562461Y156008D01*
Y144823D02*
Y156008D01*
X454724Y114886D02*
X458974D01*
X479408Y94453D01*
X482721D01*
Y164819D02*
X486221Y161319D01*
X494158D01*
X500545Y154932D01*
X508214D01*
X509093Y155810D01*
Y161581D01*
X508554Y162120D02*
X509093Y161581D01*
X505592Y165082D02*
X508554Y162120D01*
X505592Y165082D02*
Y165082D01*
X482721Y164819D02*
Y165319D01*
Y153508D02*
Y164819D01*
X557461Y122823D02*
Y127822D01*
X539586Y145697D02*
X557461Y127822D01*
X534276Y145697D02*
X539586D01*
X529965Y150008D02*
X534276Y145697D01*
X529965Y150008D02*
Y153508D01*
X557461Y118323D02*
Y122823D01*
Y118323D02*
X557524Y118260D01*
Y106264D02*
Y118260D01*
X611892Y110438D02*
X612642D01*
X616142Y113938D01*
Y116716D01*
X619642Y120216D01*
Y129886D01*
X529965Y164819D02*
Y165319D01*
Y164819D02*
X536965Y157819D01*
Y153508D02*
Y157819D01*
Y153508D02*
X541339D01*
X557087Y137760D01*
X564961D01*
X567461Y140260D01*
Y144823D01*
X592957Y129886D02*
Y141697D01*
X572461Y144823D02*
X574711D01*
X577837Y141697D01*
X592957D01*
X599957D02*
Y153508D01*
Y141697D02*
X612642D01*
Y129886D02*
Y141697D01*
Y126386D02*
Y129886D01*
X611892Y125636D02*
X612642Y126386D01*
X611892Y117838D02*
Y125636D01*
X564524Y106264D02*
Y109764D01*
X562461Y111827D02*
X564524Y109764D01*
X562461Y111827D02*
Y122823D01*
X489720Y235697D02*
Y236197D01*
X482721Y228697D02*
X489720Y235697D01*
X482721Y224386D02*
Y228697D01*
X489720Y236197D02*
Y248008D01*
Y220886D02*
Y224386D01*
Y220886D02*
X490471Y220136D01*
Y212575D02*
Y220136D01*
X478346Y200764D02*
X482721D01*
X474409Y204701D02*
X478346Y200764D01*
X474409Y204701D02*
Y212575D01*
X478109Y216275D01*
X481971D01*
X489720Y188953D02*
Y189453D01*
X482721Y196453D02*
X489720Y189453D01*
X482721Y196453D02*
Y200764D01*
X564524Y259819D02*
X624016D01*
X627953Y263756D01*
X653264D01*
X653327Y263819D01*
X695756D01*
X699256Y260319D01*
Y259819D02*
Y260319D01*
Y248008D02*
Y259819D01*
Y244508D02*
Y248008D01*
X690945Y236197D02*
X699256Y244508D01*
X686997Y236197D02*
X690945D01*
X536965Y259819D02*
X545276D01*
X557524D01*
Y255445D02*
Y259819D01*
Y255445D02*
X562461Y250508D01*
Y239323D02*
Y250508D01*
X454724Y209386D02*
X458974D01*
X479408Y188953D01*
X482721D01*
Y259319D02*
X486221Y255819D01*
X494158D01*
X500545Y249432D01*
X508214D01*
X509093Y250310D01*
Y256081D01*
X508554Y256621D02*
X509093Y256081D01*
X505592Y259581D02*
X508554Y256621D01*
X505592Y259581D02*
Y259582D01*
X482721Y259319D02*
Y259819D01*
Y248008D02*
Y259319D01*
X557461Y217323D02*
Y222322D01*
X539586Y240197D02*
X557461Y222322D01*
X534276Y240197D02*
X539586D01*
X529965Y244508D02*
X534276Y240197D01*
X529965Y244508D02*
Y248008D01*
X557461Y212823D02*
Y217323D01*
Y212823D02*
X557524Y212760D01*
Y200764D02*
Y212760D01*
X611892Y204938D02*
X612642D01*
X616142Y208438D01*
Y211216D01*
X619642Y214716D01*
Y224386D01*
X529965Y259319D02*
Y259819D01*
Y259319D02*
X536965Y252319D01*
Y248008D02*
Y252319D01*
Y248008D02*
X541339D01*
X557087Y232260D01*
X564961D01*
X567461Y234760D01*
Y239323D01*
X592957Y224386D02*
Y236197D01*
X572461Y239323D02*
X574711D01*
X577837Y236197D01*
X592957D01*
X599957D02*
Y248008D01*
Y236197D02*
X612642D01*
Y224386D02*
Y236197D01*
Y220886D02*
Y224386D01*
X611892Y220136D02*
X612642Y220886D01*
X611892Y212338D02*
Y220136D01*
X564524Y200764D02*
Y204264D01*
X562461Y206327D02*
X564524Y204264D01*
X562461Y206327D02*
Y217323D01*
X489720Y330197D02*
Y330697D01*
X482721Y323197D02*
X489720Y330197D01*
X482721Y318886D02*
Y323197D01*
X489720Y330697D02*
Y342508D01*
Y315386D02*
Y318886D01*
Y315386D02*
X490471Y314636D01*
Y307075D02*
Y314636D01*
X478346Y295264D02*
X482721D01*
X474409Y299201D02*
X478346Y295264D01*
X474409Y299201D02*
Y307075D01*
X478109Y310775D01*
X481971D01*
X489720Y283453D02*
Y283953D01*
X482721Y290953D02*
X489720Y283953D01*
X482721Y290953D02*
Y295264D01*
X564524Y354319D02*
X624016D01*
X627953Y358256D01*
X653264D01*
X653327Y358319D01*
X695756D01*
X699256Y354819D01*
Y354319D02*
Y354819D01*
Y342508D02*
Y354319D01*
Y339008D02*
Y342508D01*
X690945Y330697D02*
X699256Y339008D01*
X686997Y330697D02*
X690945D01*
X536965Y354319D02*
X545276D01*
X557524D01*
Y349945D02*
Y354319D01*
Y349945D02*
X562461Y345008D01*
Y333823D02*
Y345008D01*
X454724Y303886D02*
X458974D01*
X479408Y283453D01*
X482721D01*
Y353819D02*
X486221Y350319D01*
X494158D01*
X500545Y343932D01*
X508214D01*
X509093Y344810D01*
Y350581D01*
X508554Y351120D02*
X509093Y350581D01*
X505592Y354082D02*
X508554Y351120D01*
X505592Y354082D02*
Y354082D01*
X482721Y353819D02*
Y354319D01*
Y342508D02*
Y353819D01*
X557461Y311823D02*
Y316822D01*
X539586Y334697D02*
X557461Y316822D01*
X534276Y334697D02*
X539586D01*
X529965Y339008D02*
X534276Y334697D01*
X529965Y339008D02*
Y342508D01*
X557461Y307323D02*
Y311823D01*
Y307323D02*
X557524Y307260D01*
Y295264D02*
Y307260D01*
X611892Y299438D02*
X612642D01*
X616142Y302938D01*
Y305716D01*
X619642Y309216D01*
Y318886D01*
X529965Y353819D02*
Y354319D01*
Y353819D02*
X536965Y346819D01*
Y342508D02*
Y346819D01*
Y342508D02*
X541339D01*
X557087Y326760D01*
X564961D01*
X567461Y329260D01*
Y333823D01*
X592957Y318886D02*
Y330697D01*
X572461Y333823D02*
X574711D01*
X577837Y330697D01*
X592957D01*
X599957D02*
Y342508D01*
Y330697D02*
X612642D01*
Y318886D02*
Y330697D01*
Y315386D02*
Y318886D01*
X611892Y314636D02*
X612642Y315386D01*
X611892Y306838D02*
Y314636D01*
X564524Y295264D02*
Y298764D01*
X562461Y300827D02*
X564524Y298764D01*
X562461Y300827D02*
Y311823D01*
Y395327D02*
Y406323D01*
Y395327D02*
X564524Y393264D01*
Y389764D02*
Y393264D01*
X611892Y401338D02*
Y409136D01*
X612642Y409886D01*
Y413386D01*
Y425197D01*
X599957D02*
X612642D01*
X599957D02*
Y437008D01*
X577837Y425197D02*
X592957D01*
X574711Y428323D02*
X577837Y425197D01*
X572461Y428323D02*
X574711D01*
X592957Y413386D02*
Y425197D01*
X567461Y423760D02*
Y428323D01*
X564961Y421260D02*
X567461Y423760D01*
X557087Y421260D02*
X564961D01*
X541339Y437008D02*
X557087Y421260D01*
X536965Y437008D02*
X541339D01*
X536965D02*
Y441319D01*
X529965Y448319D02*
X536965Y441319D01*
X529965Y448319D02*
Y448819D01*
X619642Y403716D02*
Y413386D01*
X616142Y400216D02*
X619642Y403716D01*
X616142Y397438D02*
Y400216D01*
X612642Y393938D02*
X616142Y397438D01*
X611892Y393938D02*
X612642D01*
X557524Y389764D02*
Y401760D01*
X557461Y401823D02*
X557524Y401760D01*
X557461Y401823D02*
Y406323D01*
X529965Y433508D02*
Y437008D01*
Y433508D02*
X534276Y429197D01*
X539586D01*
X557461Y411322D01*
Y406323D02*
Y411322D01*
X482721Y437008D02*
Y448319D01*
Y448819D01*
X505592Y448582D02*
Y448582D01*
Y448582D02*
X508554Y445620D01*
X509093Y445081D01*
Y439310D02*
Y445081D01*
X508214Y438432D02*
X509093Y439310D01*
X500545Y438432D02*
X508214D01*
X494158Y444819D02*
X500545Y438432D01*
X486221Y444819D02*
X494158D01*
X482721Y448319D02*
X486221Y444819D01*
X479408Y377953D02*
X482721D01*
X458974Y398386D02*
X479408Y377953D01*
X454724Y398386D02*
X458974D01*
X562461Y428323D02*
Y439508D01*
X557524Y444445D02*
X562461Y439508D01*
X557524Y444445D02*
Y448819D01*
X545276D02*
X557524D01*
X536965D02*
X545276D01*
X686997Y425197D02*
X690945D01*
X699256Y433508D01*
Y437008D01*
Y448819D01*
Y449319D01*
X695756Y452819D02*
X699256Y449319D01*
X653327Y452819D02*
X695756D01*
X653264Y452756D02*
X653327Y452819D01*
X627953Y452756D02*
X653264D01*
X624016Y448819D02*
X627953Y452756D01*
X564524Y448819D02*
X624016D01*
X482721Y385453D02*
Y389764D01*
Y385453D02*
X489720Y378453D01*
Y377953D02*
Y378453D01*
X478109Y405275D02*
X481971D01*
X474409Y401575D02*
X478109Y405275D01*
X474409Y393701D02*
Y401575D01*
Y393701D02*
X478346Y389764D01*
X482721D01*
X490471Y401575D02*
Y409136D01*
X489720Y409886D02*
X490471Y409136D01*
X489720Y409886D02*
Y413386D01*
Y425197D02*
Y437008D01*
X482721Y413386D02*
Y417697D01*
X489720Y424697D01*
Y425197D01*
D22*
X437008Y82642D02*
X732283D01*
Y177130D01*
X437008D02*
X732283D01*
X437008Y82642D02*
Y177130D01*
Y177142D02*
X732283D01*
Y271630D01*
X437008D02*
X732283D01*
X437008Y177142D02*
Y271630D01*
Y271642D02*
X732283D01*
Y366130D01*
X437008D02*
X732283D01*
X437008Y271642D02*
Y366130D01*
Y366142D02*
Y460630D01*
X732283D01*
Y366142D02*
Y460630D01*
X437008Y366142D02*
X732283D01*
X440945Y86579D02*
Y173193D01*
X728346D01*
Y86579D02*
Y173193D01*
X440945Y86579D02*
X728346D01*
X440945D02*
Y173193D01*
X728346D01*
Y86579D02*
Y173193D01*
X440945Y86579D02*
X728346D01*
X440945Y181079D02*
Y267693D01*
X728346D01*
Y181079D02*
Y267693D01*
X440945Y181079D02*
X728346D01*
X440945D02*
Y267693D01*
X728346D01*
Y181079D02*
Y267693D01*
X440945Y181079D02*
X728346D01*
X440945Y275579D02*
Y362193D01*
X728346D01*
Y275579D02*
Y362193D01*
X440945Y275579D02*
X728346D01*
X440945D02*
Y362193D01*
X728346D01*
Y275579D02*
Y362193D01*
X440945Y275579D02*
X728346D01*
X440945Y370079D02*
X728346D01*
Y456693D01*
X440945D02*
X728346D01*
X440945Y370079D02*
Y456693D01*
Y370079D02*
X728346D01*
Y456693D01*
X440945D02*
X728346D01*
X440945Y370079D02*
Y456693D01*
D23*
X454724Y114886D02*
D03*
Y209386D02*
D03*
Y303886D02*
D03*
Y398386D02*
D03*
D24*
Y124729D02*
D03*
Y144414D02*
D03*
Y134571D02*
D03*
Y219229D02*
D03*
Y238914D02*
D03*
Y229071D02*
D03*
Y313729D02*
D03*
Y333414D02*
D03*
Y323571D02*
D03*
Y408229D02*
D03*
Y427914D02*
D03*
Y418071D02*
D03*
D25*
X722441Y133823D02*
D03*
Y129886D02*
D03*
Y125949D02*
D03*
Y228323D02*
D03*
Y224386D02*
D03*
Y220449D02*
D03*
Y322823D02*
D03*
Y318886D02*
D03*
Y314949D02*
D03*
Y417323D02*
D03*
Y413386D02*
D03*
Y409449D02*
D03*
D26*
X710630Y165319D02*
D03*
X681097Y157997D02*
D03*
X536965Y122449D02*
D03*
X604331Y118075D02*
D03*
X580709Y122012D02*
D03*
X584646Y149571D02*
D03*
X662949Y157882D02*
D03*
X501968Y141697D02*
D03*
X671260Y165319D02*
D03*
X639764D02*
D03*
X514092Y168943D02*
D03*
X545276Y165319D02*
D03*
X714567Y125949D02*
D03*
X706693Y129886D02*
D03*
X690582Y129523D02*
D03*
Y161382D02*
D03*
X714567Y133823D02*
D03*
X521654Y153508D02*
D03*
X553150Y157445D02*
D03*
X608268D02*
D03*
X710630Y259819D02*
D03*
X681097Y252497D02*
D03*
X536965Y216949D02*
D03*
X604331Y212575D02*
D03*
X580709Y216512D02*
D03*
X584646Y244071D02*
D03*
X662949Y252382D02*
D03*
X501968Y236197D02*
D03*
X671260Y259819D02*
D03*
X639764D02*
D03*
X514092Y263443D02*
D03*
X545276Y259819D02*
D03*
X714567Y220449D02*
D03*
X706693Y224386D02*
D03*
X690582Y224023D02*
D03*
Y255882D02*
D03*
X714567Y228323D02*
D03*
X521654Y248008D02*
D03*
X553150Y251945D02*
D03*
X608268D02*
D03*
X710630Y354319D02*
D03*
X681097Y346997D02*
D03*
X536965Y311449D02*
D03*
X604331Y307075D02*
D03*
X580709Y311012D02*
D03*
X584646Y338571D02*
D03*
X662949Y346882D02*
D03*
X501968Y330697D02*
D03*
X671260Y354319D02*
D03*
X639764D02*
D03*
X514092Y357943D02*
D03*
X545276Y354319D02*
D03*
X714567Y314949D02*
D03*
X706693Y318886D02*
D03*
X690582Y318523D02*
D03*
Y350382D02*
D03*
X714567Y322823D02*
D03*
X521654Y342508D02*
D03*
X553150Y346445D02*
D03*
X608268D02*
D03*
Y440945D02*
D03*
X553150D02*
D03*
X521654Y437008D02*
D03*
X714567Y417323D02*
D03*
X690582Y444882D02*
D03*
Y413023D02*
D03*
X706693Y413386D02*
D03*
X714567Y409449D02*
D03*
X545276Y448819D02*
D03*
X514092Y452443D02*
D03*
X639764Y448819D02*
D03*
X671260D02*
D03*
X501968Y425197D02*
D03*
X662949Y441382D02*
D03*
X584646Y433071D02*
D03*
X580709Y405512D02*
D03*
X604331Y401575D02*
D03*
X536965Y405949D02*
D03*
X681097Y441497D02*
D03*
X710630Y448819D02*
D03*
M02*
