G04 Layer_Color=8388736*
%FSLAX25Y25*%
%MOIN*%
G70*
G01*
G75*
%ADD22C,0.00100*%
%ADD27R,0.03300X0.07800*%
%ADD28R,0.02500X0.04000*%
%ADD29P,0.00974X8X22.5*%
%ADD30R,0.12600X0.07300*%
%ADD31R,0.05300X0.07300*%
%ADD32R,0.04800X0.03300*%
%ADD33R,0.05800X0.04800*%
%ADD34R,0.04800X0.05800*%
%ADD35R,0.03400X0.04600*%
%ADD36R,0.04800X0.08800*%
%ADD37R,0.07300X0.07300*%
%ADD38C,0.07300*%
%ADD39R,0.08800X0.03200*%
%ADD40C,0.03200*%
G36*
X723493Y452286D02*
X724149Y452014D01*
X724740Y451620D01*
X725242Y451118D01*
X725636Y450527D01*
X725908Y449871D01*
X726047Y449174D01*
Y448819D01*
Y448464D01*
X725908Y447767D01*
X725636Y447111D01*
X725242Y446520D01*
X724740Y446018D01*
X724149Y445623D01*
X723493Y445352D01*
X722796Y445213D01*
X722086D01*
X721389Y445352D01*
X720733Y445623D01*
X720142Y446018D01*
X719640Y446520D01*
X719245Y447111D01*
X718974Y447767D01*
X718835Y448464D01*
Y448819D01*
Y449174D01*
X718974Y449871D01*
X719245Y450527D01*
X719640Y451118D01*
X720142Y451620D01*
X720733Y452014D01*
X721389Y452286D01*
X722086Y452425D01*
X722796D01*
X723493Y452286D01*
D02*
G37*
G36*
X447902D02*
X448558Y452014D01*
X449149Y451620D01*
X449651Y451118D01*
X450046Y450527D01*
X450318Y449871D01*
X450456Y449174D01*
Y448819D01*
Y448464D01*
X450318Y447767D01*
X450046Y447111D01*
X449651Y446520D01*
X449149Y446018D01*
X448558Y445623D01*
X447902Y445352D01*
X447205Y445213D01*
X446495D01*
X445799Y445352D01*
X445142Y445623D01*
X444552Y446018D01*
X444050Y446520D01*
X443655Y447111D01*
X443383Y447767D01*
X443245Y448464D01*
Y448819D01*
Y449174D01*
X443383Y449871D01*
X443655Y450527D01*
X444050Y451118D01*
X444552Y451620D01*
X445142Y452014D01*
X445799Y452286D01*
X446495Y452425D01*
X447205D01*
X447902Y452286D01*
D02*
G37*
G36*
X723493Y381420D02*
X724149Y381148D01*
X724740Y380754D01*
X725242Y380251D01*
X725636Y379661D01*
X725908Y379005D01*
X726047Y378308D01*
Y377953D01*
Y377598D01*
X725908Y376901D01*
X725636Y376245D01*
X725242Y375654D01*
X724740Y375152D01*
X724149Y374757D01*
X723493Y374485D01*
X722796Y374347D01*
X722086D01*
X721389Y374485D01*
X720733Y374757D01*
X720142Y375152D01*
X719640Y375654D01*
X719245Y376245D01*
X718974Y376901D01*
X718835Y377598D01*
Y377953D01*
Y378308D01*
X718974Y379005D01*
X719245Y379661D01*
X719640Y380251D01*
X720142Y380754D01*
X720733Y381148D01*
X721389Y381420D01*
X722086Y381559D01*
X722796D01*
X723493Y381420D01*
D02*
G37*
G36*
X447902D02*
X448558Y381148D01*
X449149Y380754D01*
X449651Y380251D01*
X450046Y379661D01*
X450318Y379005D01*
X450456Y378308D01*
Y377953D01*
Y377598D01*
X450318Y376901D01*
X450046Y376245D01*
X449651Y375654D01*
X449149Y375152D01*
X448558Y374757D01*
X447902Y374485D01*
X447205Y374347D01*
X446495D01*
X445799Y374485D01*
X445142Y374757D01*
X444552Y375152D01*
X444050Y375654D01*
X443655Y376245D01*
X443383Y376901D01*
X443245Y377598D01*
Y377953D01*
Y378308D01*
X443383Y379005D01*
X443655Y379661D01*
X444050Y380251D01*
X444552Y380754D01*
X445142Y381148D01*
X445799Y381420D01*
X446495Y381559D01*
X447205D01*
X447902Y381420D01*
D02*
G37*
G36*
X723493Y357786D02*
X724149Y357514D01*
X724740Y357120D01*
X725242Y356617D01*
X725636Y356027D01*
X725908Y355371D01*
X726047Y354674D01*
Y354319D01*
Y353964D01*
X725908Y353267D01*
X725636Y352611D01*
X725242Y352020D01*
X724740Y351518D01*
X724149Y351123D01*
X723493Y350852D01*
X722796Y350713D01*
X722086D01*
X721389Y350852D01*
X720733Y351123D01*
X720142Y351518D01*
X719640Y352020D01*
X719245Y352611D01*
X718974Y353267D01*
X718835Y353964D01*
Y354319D01*
Y354674D01*
X718974Y355371D01*
X719245Y356027D01*
X719640Y356617D01*
X720142Y357120D01*
X720733Y357514D01*
X721389Y357786D01*
X722086Y357925D01*
X722796D01*
X723493Y357786D01*
D02*
G37*
G36*
X447902D02*
X448558Y357514D01*
X449149Y357120D01*
X449651Y356617D01*
X450046Y356027D01*
X450318Y355371D01*
X450456Y354674D01*
Y354319D01*
Y353964D01*
X450318Y353267D01*
X450046Y352611D01*
X449651Y352020D01*
X449149Y351518D01*
X448558Y351123D01*
X447902Y350852D01*
X447205Y350713D01*
X446495D01*
X445799Y350852D01*
X445142Y351123D01*
X444552Y351518D01*
X444050Y352020D01*
X443655Y352611D01*
X443383Y353267D01*
X443245Y353964D01*
Y354319D01*
Y354674D01*
X443383Y355371D01*
X443655Y356027D01*
X444050Y356617D01*
X444552Y357120D01*
X445142Y357514D01*
X445799Y357786D01*
X446495Y357925D01*
X447205D01*
X447902Y357786D01*
D02*
G37*
G36*
X723493Y286920D02*
X724149Y286648D01*
X724740Y286254D01*
X725242Y285751D01*
X725636Y285161D01*
X725908Y284505D01*
X726047Y283808D01*
Y283453D01*
Y283098D01*
X725908Y282401D01*
X725636Y281745D01*
X725242Y281154D01*
X724740Y280652D01*
X724149Y280257D01*
X723493Y279985D01*
X722796Y279847D01*
X722086D01*
X721389Y279985D01*
X720733Y280257D01*
X720142Y280652D01*
X719640Y281154D01*
X719245Y281745D01*
X718974Y282401D01*
X718835Y283098D01*
Y283453D01*
Y283808D01*
X718974Y284505D01*
X719245Y285161D01*
X719640Y285751D01*
X720142Y286254D01*
X720733Y286648D01*
X721389Y286920D01*
X722086Y287059D01*
X722796D01*
X723493Y286920D01*
D02*
G37*
G36*
X447902D02*
X448558Y286648D01*
X449149Y286254D01*
X449651Y285751D01*
X450046Y285161D01*
X450318Y284505D01*
X450456Y283808D01*
Y283453D01*
Y283098D01*
X450318Y282401D01*
X450046Y281745D01*
X449651Y281154D01*
X449149Y280652D01*
X448558Y280257D01*
X447902Y279985D01*
X447205Y279847D01*
X446495D01*
X445799Y279985D01*
X445142Y280257D01*
X444552Y280652D01*
X444050Y281154D01*
X443655Y281745D01*
X443383Y282401D01*
X443245Y283098D01*
Y283453D01*
Y283808D01*
X443383Y284505D01*
X443655Y285161D01*
X444050Y285751D01*
X444552Y286254D01*
X445142Y286648D01*
X445799Y286920D01*
X446495Y287059D01*
X447205D01*
X447902Y286920D01*
D02*
G37*
G36*
X723493Y263286D02*
X724149Y263014D01*
X724740Y262620D01*
X725242Y262118D01*
X725636Y261527D01*
X725908Y260871D01*
X726047Y260174D01*
Y259819D01*
Y259464D01*
X725908Y258767D01*
X725636Y258111D01*
X725242Y257520D01*
X724740Y257018D01*
X724149Y256623D01*
X723493Y256352D01*
X722796Y256213D01*
X722086D01*
X721389Y256352D01*
X720733Y256623D01*
X720142Y257018D01*
X719640Y257520D01*
X719245Y258111D01*
X718974Y258767D01*
X718835Y259464D01*
Y259819D01*
Y260174D01*
X718974Y260871D01*
X719245Y261527D01*
X719640Y262118D01*
X720142Y262620D01*
X720733Y263014D01*
X721389Y263286D01*
X722086Y263425D01*
X722796D01*
X723493Y263286D01*
D02*
G37*
G36*
X447902D02*
X448558Y263014D01*
X449149Y262620D01*
X449651Y262118D01*
X450046Y261527D01*
X450318Y260871D01*
X450456Y260174D01*
Y259819D01*
Y259464D01*
X450318Y258767D01*
X450046Y258111D01*
X449651Y257520D01*
X449149Y257018D01*
X448558Y256623D01*
X447902Y256352D01*
X447205Y256213D01*
X446495D01*
X445799Y256352D01*
X445142Y256623D01*
X444552Y257018D01*
X444050Y257520D01*
X443655Y258111D01*
X443383Y258767D01*
X443245Y259464D01*
Y259819D01*
Y260174D01*
X443383Y260871D01*
X443655Y261527D01*
X444050Y262118D01*
X444552Y262620D01*
X445142Y263014D01*
X445799Y263286D01*
X446495Y263425D01*
X447205D01*
X447902Y263286D01*
D02*
G37*
G36*
X723493Y192420D02*
X724149Y192148D01*
X724740Y191754D01*
X725242Y191251D01*
X725636Y190661D01*
X725908Y190005D01*
X726047Y189308D01*
Y188953D01*
Y188598D01*
X725908Y187901D01*
X725636Y187245D01*
X725242Y186654D01*
X724740Y186152D01*
X724149Y185757D01*
X723493Y185485D01*
X722796Y185347D01*
X722086D01*
X721389Y185485D01*
X720733Y185757D01*
X720142Y186152D01*
X719640Y186654D01*
X719245Y187245D01*
X718974Y187901D01*
X718835Y188598D01*
Y188953D01*
Y189308D01*
X718974Y190005D01*
X719245Y190661D01*
X719640Y191251D01*
X720142Y191754D01*
X720733Y192148D01*
X721389Y192420D01*
X722086Y192559D01*
X722796D01*
X723493Y192420D01*
D02*
G37*
G36*
X447902D02*
X448558Y192148D01*
X449149Y191754D01*
X449651Y191251D01*
X450046Y190661D01*
X450318Y190005D01*
X450456Y189308D01*
Y188953D01*
Y188598D01*
X450318Y187901D01*
X450046Y187245D01*
X449651Y186654D01*
X449149Y186152D01*
X448558Y185757D01*
X447902Y185485D01*
X447205Y185347D01*
X446495D01*
X445799Y185485D01*
X445142Y185757D01*
X444552Y186152D01*
X444050Y186654D01*
X443655Y187245D01*
X443383Y187901D01*
X443245Y188598D01*
Y188953D01*
Y189308D01*
X443383Y190005D01*
X443655Y190661D01*
X444050Y191251D01*
X444552Y191754D01*
X445142Y192148D01*
X445799Y192420D01*
X446495Y192559D01*
X447205D01*
X447902Y192420D01*
D02*
G37*
G36*
X723493Y168786D02*
X724149Y168514D01*
X724740Y168120D01*
X725242Y167617D01*
X725636Y167027D01*
X725908Y166371D01*
X726047Y165674D01*
Y165319D01*
Y164964D01*
X725908Y164267D01*
X725636Y163611D01*
X725242Y163020D01*
X724740Y162518D01*
X724149Y162123D01*
X723493Y161852D01*
X722796Y161713D01*
X722086D01*
X721389Y161852D01*
X720733Y162123D01*
X720142Y162518D01*
X719640Y163020D01*
X719245Y163611D01*
X718974Y164267D01*
X718835Y164964D01*
Y165319D01*
Y165674D01*
X718974Y166371D01*
X719245Y167027D01*
X719640Y167617D01*
X720142Y168120D01*
X720733Y168514D01*
X721389Y168786D01*
X722086Y168925D01*
X722796D01*
X723493Y168786D01*
D02*
G37*
G36*
X447902D02*
X448558Y168514D01*
X449149Y168120D01*
X449651Y167617D01*
X450046Y167027D01*
X450318Y166371D01*
X450456Y165674D01*
Y165319D01*
Y164964D01*
X450318Y164267D01*
X450046Y163611D01*
X449651Y163020D01*
X449149Y162518D01*
X448558Y162123D01*
X447902Y161852D01*
X447205Y161713D01*
X446495D01*
X445799Y161852D01*
X445142Y162123D01*
X444552Y162518D01*
X444050Y163020D01*
X443655Y163611D01*
X443383Y164267D01*
X443245Y164964D01*
Y165319D01*
Y165674D01*
X443383Y166371D01*
X443655Y167027D01*
X444050Y167617D01*
X444552Y168120D01*
X445142Y168514D01*
X445799Y168786D01*
X446495Y168925D01*
X447205D01*
X447902Y168786D01*
D02*
G37*
G36*
X723493Y97920D02*
X724149Y97648D01*
X724740Y97254D01*
X725242Y96751D01*
X725636Y96161D01*
X725908Y95505D01*
X726047Y94808D01*
Y94453D01*
Y94098D01*
X725908Y93401D01*
X725636Y92745D01*
X725242Y92154D01*
X724740Y91652D01*
X724149Y91257D01*
X723493Y90985D01*
X722796Y90847D01*
X722086D01*
X721389Y90985D01*
X720733Y91257D01*
X720142Y91652D01*
X719640Y92154D01*
X719245Y92745D01*
X718974Y93401D01*
X718835Y94098D01*
Y94453D01*
Y94808D01*
X718974Y95505D01*
X719245Y96161D01*
X719640Y96751D01*
X720142Y97254D01*
X720733Y97648D01*
X721389Y97920D01*
X722086Y98059D01*
X722796D01*
X723493Y97920D01*
D02*
G37*
G36*
X447902D02*
X448558Y97648D01*
X449149Y97254D01*
X449651Y96751D01*
X450046Y96161D01*
X450318Y95505D01*
X450456Y94808D01*
Y94453D01*
Y94098D01*
X450318Y93401D01*
X450046Y92745D01*
X449651Y92154D01*
X449149Y91652D01*
X448558Y91257D01*
X447902Y90985D01*
X447205Y90847D01*
X446495D01*
X445799Y90985D01*
X445142Y91257D01*
X444552Y91652D01*
X444050Y92154D01*
X443655Y92745D01*
X443383Y93401D01*
X443245Y94098D01*
Y94453D01*
Y94808D01*
X443383Y95505D01*
X443655Y96161D01*
X444050Y96751D01*
X444552Y97254D01*
X445142Y97648D01*
X445799Y97920D01*
X446495Y98059D01*
X447205D01*
X447902Y97920D01*
D02*
G37*
D22*
X437008Y82642D02*
X732283D01*
Y177130D01*
X437008D02*
X732283D01*
X437008Y82642D02*
Y177130D01*
Y177142D02*
X732283D01*
Y271630D01*
X437008D02*
X732283D01*
X437008Y177142D02*
Y271630D01*
Y271642D02*
X732283D01*
Y366130D01*
X437008D02*
X732283D01*
X437008Y271642D02*
Y366130D01*
Y366142D02*
Y460630D01*
X732283D01*
Y366142D02*
Y460630D01*
X437008Y366142D02*
X732283D01*
D27*
X557461Y144823D02*
D03*
X567461Y122823D02*
D03*
X562461D02*
D03*
X572461Y144823D02*
D03*
X567461D02*
D03*
X557461Y122823D02*
D03*
X562461Y144823D02*
D03*
X572461Y122823D02*
D03*
X557461Y239323D02*
D03*
X567461Y217323D02*
D03*
X562461D02*
D03*
X572461Y239323D02*
D03*
X567461D02*
D03*
X557461Y217323D02*
D03*
X562461Y239323D02*
D03*
X572461Y217323D02*
D03*
X557461Y333823D02*
D03*
X567461Y311823D02*
D03*
X562461D02*
D03*
X572461Y333823D02*
D03*
X567461D02*
D03*
X557461Y311823D02*
D03*
X562461Y333823D02*
D03*
X572461Y311823D02*
D03*
X557461Y428323D02*
D03*
X567461Y406323D02*
D03*
X562461D02*
D03*
X572461Y428323D02*
D03*
X567461D02*
D03*
X557461Y406323D02*
D03*
X562461Y428323D02*
D03*
X572461Y406323D02*
D03*
D28*
X686997Y154697D02*
D03*
Y141697D02*
D03*
X675197Y154697D02*
D03*
Y141697D02*
D03*
X686997Y249197D02*
D03*
Y236197D02*
D03*
X675197Y249197D02*
D03*
Y236197D02*
D03*
X686997Y343697D02*
D03*
Y330697D02*
D03*
X675197Y343697D02*
D03*
Y330697D02*
D03*
X686997Y438197D02*
D03*
Y425197D02*
D03*
X675197Y438197D02*
D03*
Y425197D02*
D03*
D29*
X681097Y148197D02*
D03*
Y242697D02*
D03*
Y337197D02*
D03*
Y431697D02*
D03*
D30*
X517756Y93800D02*
D03*
Y188300D02*
D03*
Y282800D02*
D03*
Y377300D02*
D03*
D31*
Y118800D02*
D03*
X508656D02*
D03*
X526856D02*
D03*
X517756Y213300D02*
D03*
X508656D02*
D03*
X526856D02*
D03*
X517756Y307800D02*
D03*
X508656D02*
D03*
X526856D02*
D03*
X517756Y402300D02*
D03*
X508656D02*
D03*
X526856D02*
D03*
D32*
X611892Y117838D02*
D03*
Y110438D02*
D03*
X620392Y114138D02*
D03*
X481971Y121775D02*
D03*
X490471Y118075D02*
D03*
X481971Y114375D02*
D03*
X505592Y165082D02*
D03*
Y157682D02*
D03*
X514092Y161382D02*
D03*
X611892Y212338D02*
D03*
Y204938D02*
D03*
X620392Y208638D02*
D03*
X481971Y216275D02*
D03*
X490471Y212575D02*
D03*
X481971Y208875D02*
D03*
X505592Y259582D02*
D03*
Y252182D02*
D03*
X514092Y255882D02*
D03*
X611892Y306838D02*
D03*
Y299438D02*
D03*
X620392Y303138D02*
D03*
X481971Y310775D02*
D03*
X490471Y307075D02*
D03*
X481971Y303375D02*
D03*
X505592Y354082D02*
D03*
Y346682D02*
D03*
X514092Y350382D02*
D03*
X505592Y448582D02*
D03*
Y441182D02*
D03*
X514092Y444882D02*
D03*
X481971Y405275D02*
D03*
X490471Y401575D02*
D03*
X481971Y397875D02*
D03*
X611892Y401338D02*
D03*
Y393938D02*
D03*
X620392Y397638D02*
D03*
D33*
X698819Y133386D02*
D03*
Y126386D02*
D03*
Y227886D02*
D03*
Y220886D02*
D03*
Y322386D02*
D03*
Y315386D02*
D03*
Y416886D02*
D03*
Y409886D02*
D03*
D34*
X655949Y165319D02*
D03*
X662949D02*
D03*
X513343Y141697D02*
D03*
X506343D02*
D03*
X592957Y118075D02*
D03*
X599957D02*
D03*
X529965Y141697D02*
D03*
X536965D02*
D03*
X699256Y165319D02*
D03*
X706256D02*
D03*
X529965Y129886D02*
D03*
X536965D02*
D03*
X513343D02*
D03*
X506343D02*
D03*
X482721Y165319D02*
D03*
X489720D02*
D03*
X482721Y94453D02*
D03*
X489720D02*
D03*
X536965Y153508D02*
D03*
X529965D02*
D03*
Y165319D02*
D03*
X536965D02*
D03*
X482721Y106264D02*
D03*
X489720D02*
D03*
X599957Y153508D02*
D03*
X592957D02*
D03*
X557524Y165319D02*
D03*
X564524D02*
D03*
X699256Y153508D02*
D03*
X706256D02*
D03*
X592957Y106264D02*
D03*
X599957D02*
D03*
X682634Y165319D02*
D03*
X675634D02*
D03*
X482721Y141697D02*
D03*
X489720D02*
D03*
Y129886D02*
D03*
X482721D02*
D03*
Y153508D02*
D03*
X489720D02*
D03*
X564524Y106264D02*
D03*
X557524D02*
D03*
X619642Y141697D02*
D03*
X612642D02*
D03*
Y129886D02*
D03*
X619642D02*
D03*
X599957Y141697D02*
D03*
X592957D02*
D03*
Y129886D02*
D03*
X599957D02*
D03*
X655949Y259819D02*
D03*
X662949D02*
D03*
X513343Y236197D02*
D03*
X506343D02*
D03*
X592957Y212575D02*
D03*
X599957D02*
D03*
X529965Y236197D02*
D03*
X536965D02*
D03*
X699256Y259819D02*
D03*
X706256D02*
D03*
X529965Y224386D02*
D03*
X536965D02*
D03*
X513343D02*
D03*
X506343D02*
D03*
X482721Y259819D02*
D03*
X489720D02*
D03*
X482721Y188953D02*
D03*
X489720D02*
D03*
X536965Y248008D02*
D03*
X529965D02*
D03*
Y259819D02*
D03*
X536965D02*
D03*
X482721Y200764D02*
D03*
X489720D02*
D03*
X599957Y248008D02*
D03*
X592957D02*
D03*
X557524Y259819D02*
D03*
X564524D02*
D03*
X699256Y248008D02*
D03*
X706256D02*
D03*
X592957Y200764D02*
D03*
X599957D02*
D03*
X682634Y259819D02*
D03*
X675634D02*
D03*
X482721Y236197D02*
D03*
X489720D02*
D03*
Y224386D02*
D03*
X482721D02*
D03*
Y248008D02*
D03*
X489720D02*
D03*
X564524Y200764D02*
D03*
X557524D02*
D03*
X619642Y236197D02*
D03*
X612642D02*
D03*
Y224386D02*
D03*
X619642D02*
D03*
X599957Y236197D02*
D03*
X592957D02*
D03*
Y224386D02*
D03*
X599957D02*
D03*
X655949Y354319D02*
D03*
X662949D02*
D03*
X513343Y330697D02*
D03*
X506343D02*
D03*
X592957Y307075D02*
D03*
X599957D02*
D03*
X529965Y330697D02*
D03*
X536965D02*
D03*
X699256Y354319D02*
D03*
X706256D02*
D03*
X529965Y318886D02*
D03*
X536965D02*
D03*
X513343D02*
D03*
X506343D02*
D03*
X482721Y354319D02*
D03*
X489720D02*
D03*
X482721Y283453D02*
D03*
X489720D02*
D03*
X536965Y342508D02*
D03*
X529965D02*
D03*
Y354319D02*
D03*
X536965D02*
D03*
X482721Y295264D02*
D03*
X489720D02*
D03*
X599957Y342508D02*
D03*
X592957D02*
D03*
X557524Y354319D02*
D03*
X564524D02*
D03*
X699256Y342508D02*
D03*
X706256D02*
D03*
X592957Y295264D02*
D03*
X599957D02*
D03*
X682634Y354319D02*
D03*
X675634D02*
D03*
X482721Y330697D02*
D03*
X489720D02*
D03*
Y318886D02*
D03*
X482721D02*
D03*
Y342508D02*
D03*
X489720D02*
D03*
X564524Y295264D02*
D03*
X557524D02*
D03*
X619642Y330697D02*
D03*
X612642D02*
D03*
Y318886D02*
D03*
X619642D02*
D03*
X599957Y330697D02*
D03*
X592957D02*
D03*
Y318886D02*
D03*
X599957D02*
D03*
X592957Y413386D02*
D03*
X599957D02*
D03*
Y425197D02*
D03*
X592957D02*
D03*
X612642Y413386D02*
D03*
X619642D02*
D03*
Y425197D02*
D03*
X612642D02*
D03*
X564524Y389764D02*
D03*
X557524D02*
D03*
X482721Y437008D02*
D03*
X489720D02*
D03*
Y413386D02*
D03*
X482721D02*
D03*
Y425197D02*
D03*
X489720D02*
D03*
X682634Y448819D02*
D03*
X675634D02*
D03*
X592957Y389764D02*
D03*
X599957D02*
D03*
X699256Y437008D02*
D03*
X706256D02*
D03*
X557524Y448819D02*
D03*
X564524D02*
D03*
X599957Y437008D02*
D03*
X592957D02*
D03*
X482721Y389764D02*
D03*
X489720D02*
D03*
X529965Y448819D02*
D03*
X536965D02*
D03*
Y437008D02*
D03*
X529965D02*
D03*
X482721Y377953D02*
D03*
X489720D02*
D03*
X482721Y448819D02*
D03*
X489720D02*
D03*
X513343Y413386D02*
D03*
X506343D02*
D03*
X529965D02*
D03*
X536965D02*
D03*
X699256Y448819D02*
D03*
X706256D02*
D03*
X529965Y425197D02*
D03*
X536965D02*
D03*
X592957Y401575D02*
D03*
X599957D02*
D03*
X513343Y425197D02*
D03*
X506343D02*
D03*
X655949Y448819D02*
D03*
X662949D02*
D03*
D35*
X639764Y160349D02*
D03*
Y146667D02*
D03*
Y254849D02*
D03*
Y241167D02*
D03*
Y349349D02*
D03*
Y335667D02*
D03*
Y443849D02*
D03*
Y430167D02*
D03*
D36*
X663449Y141697D02*
D03*
X655449D02*
D03*
X663449Y236197D02*
D03*
X655449D02*
D03*
X663449Y330697D02*
D03*
X655449D02*
D03*
X663449Y425197D02*
D03*
X655449D02*
D03*
D37*
X454724Y114886D02*
D03*
Y209386D02*
D03*
Y303886D02*
D03*
Y398386D02*
D03*
D38*
Y124729D02*
D03*
Y144414D02*
D03*
Y134571D02*
D03*
Y219229D02*
D03*
Y238914D02*
D03*
Y229071D02*
D03*
Y313729D02*
D03*
Y333414D02*
D03*
Y323571D02*
D03*
Y408229D02*
D03*
Y427914D02*
D03*
Y418071D02*
D03*
D39*
X722441Y133823D02*
D03*
Y129886D02*
D03*
Y125949D02*
D03*
Y228323D02*
D03*
Y224386D02*
D03*
Y220449D02*
D03*
Y322823D02*
D03*
Y318886D02*
D03*
Y314949D02*
D03*
Y417323D02*
D03*
Y413386D02*
D03*
Y409449D02*
D03*
D40*
X710630Y165319D02*
D03*
X681097Y157997D02*
D03*
X536965Y122449D02*
D03*
X604331Y118075D02*
D03*
X580709Y122012D02*
D03*
X584646Y149571D02*
D03*
X662949Y157882D02*
D03*
X501968Y141697D02*
D03*
X671260Y165319D02*
D03*
X639764D02*
D03*
X514092Y168943D02*
D03*
X545276Y165319D02*
D03*
X714567Y125949D02*
D03*
X706693Y129886D02*
D03*
X690582Y129523D02*
D03*
Y161382D02*
D03*
X714567Y133823D02*
D03*
X521654Y153508D02*
D03*
X553150Y157445D02*
D03*
X608268D02*
D03*
X710630Y259819D02*
D03*
X681097Y252497D02*
D03*
X536965Y216949D02*
D03*
X604331Y212575D02*
D03*
X580709Y216512D02*
D03*
X584646Y244071D02*
D03*
X662949Y252382D02*
D03*
X501968Y236197D02*
D03*
X671260Y259819D02*
D03*
X639764D02*
D03*
X514092Y263443D02*
D03*
X545276Y259819D02*
D03*
X714567Y220449D02*
D03*
X706693Y224386D02*
D03*
X690582Y224023D02*
D03*
Y255882D02*
D03*
X714567Y228323D02*
D03*
X521654Y248008D02*
D03*
X553150Y251945D02*
D03*
X608268D02*
D03*
X710630Y354319D02*
D03*
X681097Y346997D02*
D03*
X536965Y311449D02*
D03*
X604331Y307075D02*
D03*
X580709Y311012D02*
D03*
X584646Y338571D02*
D03*
X662949Y346882D02*
D03*
X501968Y330697D02*
D03*
X671260Y354319D02*
D03*
X639764D02*
D03*
X514092Y357943D02*
D03*
X545276Y354319D02*
D03*
X714567Y314949D02*
D03*
X706693Y318886D02*
D03*
X690582Y318523D02*
D03*
Y350382D02*
D03*
X714567Y322823D02*
D03*
X521654Y342508D02*
D03*
X553150Y346445D02*
D03*
X608268D02*
D03*
Y440945D02*
D03*
X553150D02*
D03*
X521654Y437008D02*
D03*
X714567Y417323D02*
D03*
X690582Y444882D02*
D03*
Y413023D02*
D03*
X706693Y413386D02*
D03*
X714567Y409449D02*
D03*
X545276Y448819D02*
D03*
X514092Y452443D02*
D03*
X639764Y448819D02*
D03*
X671260D02*
D03*
X501968Y425197D02*
D03*
X662949Y441382D02*
D03*
X584646Y433071D02*
D03*
X580709Y405512D02*
D03*
X604331Y401575D02*
D03*
X536965Y405949D02*
D03*
X681097Y441497D02*
D03*
X710630Y448819D02*
D03*
M02*
