G04 Layer_Physical_Order=2*
G04 Layer_Color=16711680*
%FSLAX25Y25*%
%MOIN*%
G70*
G01*
G75*
%ADD20C,0.02000*%
%ADD21C,0.01000*%
%ADD22C,0.00100*%
%ADD23R,0.06500X0.06500*%
%ADD24C,0.06500*%
%ADD25R,0.08000X0.02400*%
%ADD26C,0.02400*%
G36*
X710630Y452756D02*
X714567Y448819D01*
Y440945D01*
X718504Y437008D01*
X722441D01*
X727276Y432173D01*
Y409449D01*
X726942D01*
Y411150D01*
X717940D01*
Y409449D01*
X716810D01*
X716639Y410307D01*
X716153Y411035D01*
X715687Y411347D01*
X722441D01*
X723221Y411502D01*
X723883Y411944D01*
X724325Y412605D01*
X724480Y413386D01*
X724325Y414166D01*
X723883Y414828D01*
X723221Y415270D01*
X722796Y415354D01*
X723221Y415439D01*
X723883Y415881D01*
X724325Y416542D01*
X724480Y417323D01*
X724325Y418103D01*
X723883Y418765D01*
X723221Y419207D01*
X722441Y419362D01*
X715475D01*
X715425Y419395D01*
X714567Y419566D01*
X713708Y419395D01*
X712981Y418909D01*
X712495Y418181D01*
X712324Y417323D01*
X712495Y416464D01*
X712981Y415737D01*
X713447Y415425D01*
X707601D01*
X707551Y415458D01*
X706693Y415629D01*
X705834Y415458D01*
X705107Y414972D01*
X704621Y414244D01*
X704450Y413386D01*
X704621Y412527D01*
X705107Y411800D01*
X705834Y411313D01*
X706693Y411143D01*
X707551Y411313D01*
X707601Y411347D01*
X713447D01*
X712981Y411035D01*
X712495Y410307D01*
X712324Y409449D01*
X710630D01*
Y401575D01*
X694882Y385827D01*
X604331D01*
X596457Y393701D01*
Y401575D01*
X592520Y405512D01*
X584646D01*
X580709Y401575D01*
X572835D01*
X568898Y405512D01*
Y409449D01*
X576772D01*
X580709Y413386D01*
Y429134D01*
X576772Y433071D01*
X557087D01*
X541339Y417323D01*
Y385827D01*
X526661Y371149D01*
X466535D01*
Y377953D01*
X458661Y385827D01*
X442015D01*
Y433071D01*
X454724D01*
X474409Y452756D01*
Y455622D01*
X710630D01*
Y452756D01*
D02*
G37*
G36*
Y358256D02*
X714567Y354319D01*
Y346445D01*
X718504Y342508D01*
X722441D01*
X727276Y337673D01*
Y314949D01*
X726942D01*
Y316650D01*
X717940D01*
Y314949D01*
X716810D01*
X716639Y315807D01*
X716153Y316535D01*
X715687Y316847D01*
X722441D01*
X723221Y317002D01*
X723883Y317444D01*
X724325Y318106D01*
X724480Y318886D01*
X724325Y319666D01*
X723883Y320328D01*
X723221Y320770D01*
X722796Y320854D01*
X723221Y320939D01*
X723883Y321381D01*
X724325Y322042D01*
X724480Y322823D01*
X724325Y323603D01*
X723883Y324265D01*
X723221Y324707D01*
X722441Y324862D01*
X715475D01*
X715425Y324895D01*
X714567Y325066D01*
X713708Y324895D01*
X712981Y324409D01*
X712495Y323681D01*
X712324Y322823D01*
X712495Y321964D01*
X712981Y321237D01*
X713447Y320925D01*
X707601D01*
X707551Y320958D01*
X706693Y321129D01*
X705834Y320958D01*
X705107Y320472D01*
X704621Y319744D01*
X704450Y318886D01*
X704621Y318027D01*
X705107Y317300D01*
X705834Y316813D01*
X706693Y316643D01*
X707551Y316813D01*
X707601Y316847D01*
X713447D01*
X712981Y316535D01*
X712495Y315807D01*
X712324Y314949D01*
X710630D01*
Y307075D01*
X694882Y291327D01*
X604331D01*
X596457Y299201D01*
Y307075D01*
X592520Y311012D01*
X584646D01*
X580709Y307075D01*
X572835D01*
X568898Y311012D01*
Y314949D01*
X576772D01*
X580709Y318886D01*
Y334634D01*
X576772Y338571D01*
X557087D01*
X541339Y322823D01*
Y291327D01*
X526661Y276649D01*
X466535D01*
Y283453D01*
X458661Y291327D01*
X442015D01*
Y338571D01*
X454724D01*
X474409Y358256D01*
Y361122D01*
X710630D01*
Y358256D01*
D02*
G37*
G36*
Y263756D02*
X714567Y259819D01*
Y251945D01*
X718504Y248008D01*
X722441D01*
X727276Y243173D01*
Y220449D01*
X726942D01*
Y222150D01*
X717940D01*
Y220449D01*
X716810D01*
X716639Y221307D01*
X716153Y222035D01*
X715687Y222347D01*
X722441D01*
X723221Y222502D01*
X723883Y222944D01*
X724325Y223605D01*
X724480Y224386D01*
X724325Y225166D01*
X723883Y225828D01*
X723221Y226270D01*
X722796Y226354D01*
X723221Y226439D01*
X723883Y226881D01*
X724325Y227542D01*
X724480Y228323D01*
X724325Y229103D01*
X723883Y229765D01*
X723221Y230207D01*
X722441Y230362D01*
X715475D01*
X715425Y230395D01*
X714567Y230566D01*
X713708Y230395D01*
X712981Y229909D01*
X712495Y229181D01*
X712324Y228323D01*
X712495Y227464D01*
X712981Y226737D01*
X713447Y226425D01*
X707601D01*
X707551Y226458D01*
X706693Y226629D01*
X705834Y226458D01*
X705107Y225972D01*
X704621Y225244D01*
X704450Y224386D01*
X704621Y223527D01*
X705107Y222800D01*
X705834Y222313D01*
X706693Y222143D01*
X707551Y222313D01*
X707601Y222347D01*
X713447D01*
X712981Y222035D01*
X712495Y221307D01*
X712324Y220449D01*
X710630D01*
Y212575D01*
X694882Y196827D01*
X604331D01*
X596457Y204701D01*
Y212575D01*
X592520Y216512D01*
X584646D01*
X580709Y212575D01*
X572835D01*
X568898Y216512D01*
Y220449D01*
X576772D01*
X580709Y224386D01*
Y240134D01*
X576772Y244071D01*
X557087D01*
X541339Y228323D01*
Y196827D01*
X526661Y182149D01*
X466535D01*
Y188953D01*
X458661Y196827D01*
X442015D01*
Y244071D01*
X454724D01*
X474409Y263756D01*
Y266622D01*
X710630D01*
Y263756D01*
D02*
G37*
G36*
Y169256D02*
X714567Y165319D01*
Y157445D01*
X718504Y153508D01*
X722441D01*
X727276Y148673D01*
Y125949D01*
X726942D01*
Y127650D01*
X717940D01*
Y125949D01*
X716810D01*
X716639Y126807D01*
X716153Y127535D01*
X715687Y127847D01*
X722441D01*
X723221Y128002D01*
X723883Y128444D01*
X724325Y129105D01*
X724480Y129886D01*
X724325Y130666D01*
X723883Y131328D01*
X723221Y131770D01*
X722796Y131854D01*
X723221Y131939D01*
X723883Y132381D01*
X724325Y133043D01*
X724480Y133823D01*
X724325Y134603D01*
X723883Y135265D01*
X723221Y135707D01*
X722441Y135862D01*
X715475D01*
X715425Y135895D01*
X714567Y136066D01*
X713708Y135895D01*
X712981Y135409D01*
X712495Y134681D01*
X712324Y133823D01*
X712495Y132964D01*
X712981Y132237D01*
X713447Y131925D01*
X707601D01*
X707551Y131958D01*
X706693Y132129D01*
X705834Y131958D01*
X705107Y131472D01*
X704621Y130744D01*
X704450Y129886D01*
X704621Y129027D01*
X705107Y128300D01*
X705834Y127813D01*
X706693Y127643D01*
X707551Y127813D01*
X707601Y127847D01*
X713447D01*
X712981Y127535D01*
X712495Y126807D01*
X712324Y125949D01*
X710630D01*
Y118075D01*
X694882Y102327D01*
X604331D01*
X596457Y110201D01*
Y118075D01*
X592520Y122012D01*
X584646D01*
X580709Y118075D01*
X572835D01*
X568898Y122012D01*
Y125949D01*
X576772D01*
X580709Y129886D01*
Y145634D01*
X576772Y149571D01*
X557087D01*
X541339Y133823D01*
Y102327D01*
X526661Y87649D01*
X466535D01*
Y94453D01*
X458661Y102327D01*
X442015D01*
Y149571D01*
X454724D01*
X474409Y169256D01*
Y172122D01*
X710630D01*
Y169256D01*
D02*
G37*
%LPC*%
G36*
X514092Y454686D02*
X513234Y454515D01*
X512506Y454029D01*
X512020Y453301D01*
X511849Y452443D01*
X512020Y451584D01*
X512506Y450857D01*
X513234Y450371D01*
X513346Y450348D01*
X475630D01*
X475141Y450251D01*
X475044Y450232D01*
X474548Y449900D01*
X453643Y428995D01*
X453311Y428499D01*
X453195Y427914D01*
X453311Y427328D01*
X453643Y426832D01*
X454139Y426501D01*
X454724Y426384D01*
X455310Y426501D01*
X455806Y426832D01*
X476263Y447290D01*
X543652D01*
X543689Y447233D01*
X544417Y446747D01*
X545276Y446576D01*
X546134Y446747D01*
X546862Y447233D01*
X547348Y447961D01*
X547519Y448819D01*
X547348Y449677D01*
X546863Y450404D01*
X635295D01*
X637680Y448019D01*
X637691Y447961D01*
X638178Y447233D01*
X638905Y446747D01*
X639764Y446576D01*
X640622Y446747D01*
X641350Y447233D01*
X641836Y447961D01*
X642007Y448819D01*
X641836Y449677D01*
X641351Y450404D01*
X662854D01*
X665881Y447377D01*
X666542Y446935D01*
X667323Y446780D01*
X670352D01*
X670401Y446747D01*
X671260Y446576D01*
X672118Y446747D01*
X672846Y447233D01*
X673332Y447961D01*
X673503Y448819D01*
X673332Y449677D01*
X672846Y450405D01*
X672118Y450891D01*
X671260Y451062D01*
X670401Y450891D01*
X670352Y450858D01*
X668167D01*
X665141Y453885D01*
X664479Y454327D01*
X663699Y454482D01*
X515001D01*
X514951Y454515D01*
X514092Y454686D01*
D02*
G37*
G36*
X608268Y443188D02*
X607409Y443017D01*
X607360Y442984D01*
X554058D01*
X554008Y443017D01*
X553150Y443188D01*
X552291Y443017D01*
X552242Y442984D01*
X525591D01*
X524810Y442829D01*
X524149Y442387D01*
X520854Y439092D01*
X520795Y439080D01*
X520067Y438594D01*
X519581Y437866D01*
X519410Y437008D01*
X519581Y436150D01*
X520067Y435422D01*
X520795Y434936D01*
X521654Y434765D01*
X522512Y434936D01*
X523240Y435422D01*
X523726Y436150D01*
X523737Y436208D01*
X526435Y438906D01*
X552242D01*
X552291Y438872D01*
X553150Y438702D01*
X554008Y438872D01*
X554058Y438906D01*
X607360D01*
X607409Y438872D01*
X608268Y438702D01*
X609126Y438872D01*
X609854Y439359D01*
X610340Y440087D01*
X610511Y440945D01*
X610340Y441803D01*
X609854Y442531D01*
X609126Y443017D01*
X608268Y443188D01*
D02*
G37*
G36*
X454724Y421854D02*
X453745Y421725D01*
X452833Y421347D01*
X452049Y420746D01*
X451448Y419962D01*
X451070Y419050D01*
X450941Y418071D01*
X451070Y417092D01*
X451448Y416179D01*
X452049Y415396D01*
X452833Y414795D01*
X453745Y414417D01*
X454724Y414288D01*
X455704Y414417D01*
X456616Y414795D01*
X457400Y415396D01*
X458001Y416179D01*
X458379Y417092D01*
X458508Y418071D01*
X458379Y419050D01*
X458001Y419962D01*
X457400Y420746D01*
X456616Y421347D01*
X455704Y421725D01*
X454724Y421854D01*
D02*
G37*
G36*
X690582Y447125D02*
X689723Y446954D01*
X688996Y446468D01*
X688510Y445740D01*
X688339Y444882D01*
X688510Y444024D01*
X688543Y443974D01*
Y413931D01*
X688510Y413881D01*
X688339Y413023D01*
X688510Y412164D01*
X688996Y411437D01*
X689723Y410951D01*
X690582Y410780D01*
X691440Y410951D01*
X692168Y411437D01*
X692654Y412164D01*
X692825Y413023D01*
X692654Y413881D01*
X692621Y413931D01*
Y443974D01*
X692654Y444024D01*
X692825Y444882D01*
X692654Y445740D01*
X692168Y446468D01*
X691440Y446954D01*
X690582Y447125D01*
D02*
G37*
G36*
X454724Y412012D02*
X453745Y411883D01*
X452833Y411505D01*
X452049Y410904D01*
X451448Y410120D01*
X451070Y409208D01*
X450941Y408229D01*
X451070Y407250D01*
X451448Y406337D01*
X452049Y405554D01*
X452833Y404952D01*
X453745Y404574D01*
X454724Y404446D01*
X455704Y404574D01*
X456616Y404952D01*
X457400Y405554D01*
X458001Y406337D01*
X458379Y407250D01*
X458508Y408229D01*
X458379Y409208D01*
X458001Y410120D01*
X457400Y410904D01*
X456616Y411505D01*
X455704Y411883D01*
X454724Y412012D01*
D02*
G37*
%LPD*%
G36*
X543652Y450348D02*
X514839D01*
X514951Y450371D01*
X515001Y450404D01*
X543689D01*
X543652Y450348D01*
D02*
G37*
%LPC*%
G36*
X514092Y360186D02*
X513234Y360015D01*
X512506Y359529D01*
X512020Y358801D01*
X511849Y357943D01*
X512020Y357084D01*
X512506Y356357D01*
X513234Y355871D01*
X513346Y355848D01*
X475630D01*
X475141Y355751D01*
X475044Y355732D01*
X474548Y355400D01*
X453643Y334495D01*
X453311Y333999D01*
X453195Y333414D01*
X453311Y332828D01*
X453643Y332332D01*
X454139Y332001D01*
X454724Y331884D01*
X455310Y332001D01*
X455806Y332332D01*
X476263Y352789D01*
X543652D01*
X543689Y352733D01*
X544417Y352246D01*
X545276Y352076D01*
X546134Y352246D01*
X546862Y352733D01*
X547348Y353461D01*
X547519Y354319D01*
X547348Y355177D01*
X546863Y355904D01*
X635295D01*
X637680Y353519D01*
X637691Y353461D01*
X638178Y352733D01*
X638905Y352246D01*
X639764Y352076D01*
X640622Y352246D01*
X641350Y352733D01*
X641836Y353461D01*
X642007Y354319D01*
X641836Y355177D01*
X641351Y355904D01*
X662854D01*
X665881Y352877D01*
X666542Y352435D01*
X667323Y352280D01*
X670352D01*
X670401Y352246D01*
X671260Y352076D01*
X672118Y352246D01*
X672846Y352733D01*
X673332Y353461D01*
X673503Y354319D01*
X673332Y355177D01*
X672846Y355905D01*
X672118Y356391D01*
X671260Y356562D01*
X670401Y356391D01*
X670352Y356358D01*
X668167D01*
X665141Y359385D01*
X664479Y359827D01*
X663699Y359982D01*
X515001D01*
X514951Y360015D01*
X514092Y360186D01*
D02*
G37*
G36*
X608268Y348688D02*
X607409Y348517D01*
X607360Y348484D01*
X554058D01*
X554008Y348517D01*
X553150Y348688D01*
X552291Y348517D01*
X552242Y348484D01*
X525591D01*
X524810Y348329D01*
X524149Y347887D01*
X520854Y344592D01*
X520795Y344580D01*
X520067Y344094D01*
X519581Y343366D01*
X519410Y342508D01*
X519581Y341650D01*
X520067Y340922D01*
X520795Y340436D01*
X521654Y340265D01*
X522512Y340436D01*
X523240Y340922D01*
X523726Y341650D01*
X523737Y341708D01*
X526435Y344406D01*
X552242D01*
X552291Y344373D01*
X553150Y344202D01*
X554008Y344373D01*
X554058Y344406D01*
X607360D01*
X607409Y344373D01*
X608268Y344202D01*
X609126Y344373D01*
X609854Y344859D01*
X610340Y345586D01*
X610511Y346445D01*
X610340Y347303D01*
X609854Y348031D01*
X609126Y348517D01*
X608268Y348688D01*
D02*
G37*
G36*
X454724Y327354D02*
X453745Y327225D01*
X452833Y326847D01*
X452049Y326246D01*
X451448Y325462D01*
X451070Y324550D01*
X450941Y323571D01*
X451070Y322592D01*
X451448Y321679D01*
X452049Y320896D01*
X452833Y320295D01*
X453745Y319917D01*
X454724Y319788D01*
X455704Y319917D01*
X456616Y320295D01*
X457400Y320896D01*
X458001Y321679D01*
X458379Y322592D01*
X458508Y323571D01*
X458379Y324550D01*
X458001Y325462D01*
X457400Y326246D01*
X456616Y326847D01*
X455704Y327225D01*
X454724Y327354D01*
D02*
G37*
G36*
X690582Y352625D02*
X689723Y352454D01*
X688996Y351968D01*
X688510Y351240D01*
X688339Y350382D01*
X688510Y349523D01*
X688543Y349474D01*
Y319431D01*
X688510Y319381D01*
X688339Y318523D01*
X688510Y317664D01*
X688996Y316937D01*
X689723Y316451D01*
X690582Y316280D01*
X691440Y316451D01*
X692168Y316937D01*
X692654Y317664D01*
X692825Y318523D01*
X692654Y319381D01*
X692621Y319431D01*
Y349474D01*
X692654Y349523D01*
X692825Y350382D01*
X692654Y351240D01*
X692168Y351968D01*
X691440Y352454D01*
X690582Y352625D01*
D02*
G37*
G36*
X454724Y317512D02*
X453745Y317383D01*
X452833Y317005D01*
X452049Y316404D01*
X451448Y315620D01*
X451070Y314708D01*
X450941Y313729D01*
X451070Y312750D01*
X451448Y311837D01*
X452049Y311054D01*
X452833Y310452D01*
X453745Y310074D01*
X454724Y309946D01*
X455704Y310074D01*
X456616Y310452D01*
X457400Y311054D01*
X458001Y311837D01*
X458379Y312750D01*
X458508Y313729D01*
X458379Y314708D01*
X458001Y315620D01*
X457400Y316404D01*
X456616Y317005D01*
X455704Y317383D01*
X454724Y317512D01*
D02*
G37*
%LPD*%
G36*
X543652Y355848D02*
X514839D01*
X514951Y355871D01*
X515001Y355904D01*
X543689D01*
X543652Y355848D01*
D02*
G37*
%LPC*%
G36*
X514092Y265686D02*
X513234Y265515D01*
X512506Y265029D01*
X512020Y264301D01*
X511849Y263443D01*
X512020Y262584D01*
X512506Y261857D01*
X513234Y261371D01*
X513346Y261348D01*
X475630D01*
X475141Y261251D01*
X475044Y261232D01*
X474548Y260900D01*
X453643Y239995D01*
X453311Y239499D01*
X453195Y238914D01*
X453311Y238329D01*
X453643Y237832D01*
X454139Y237501D01*
X454724Y237384D01*
X455310Y237501D01*
X455806Y237832D01*
X476263Y258290D01*
X543652D01*
X543689Y258233D01*
X544417Y257747D01*
X545276Y257576D01*
X546134Y257747D01*
X546862Y258233D01*
X547348Y258961D01*
X547519Y259819D01*
X547348Y260677D01*
X546863Y261404D01*
X635295D01*
X637680Y259019D01*
X637691Y258961D01*
X638178Y258233D01*
X638905Y257747D01*
X639764Y257576D01*
X640622Y257747D01*
X641350Y258233D01*
X641836Y258961D01*
X642007Y259819D01*
X641836Y260677D01*
X641351Y261404D01*
X662854D01*
X665881Y258377D01*
X666542Y257935D01*
X667323Y257780D01*
X670352D01*
X670401Y257747D01*
X671260Y257576D01*
X672118Y257747D01*
X672846Y258233D01*
X673332Y258961D01*
X673503Y259819D01*
X673332Y260677D01*
X672846Y261405D01*
X672118Y261891D01*
X671260Y262062D01*
X670401Y261891D01*
X670352Y261858D01*
X668167D01*
X665141Y264885D01*
X664479Y265327D01*
X663699Y265482D01*
X515001D01*
X514951Y265515D01*
X514092Y265686D01*
D02*
G37*
G36*
X608268Y254188D02*
X607409Y254017D01*
X607360Y253984D01*
X554058D01*
X554008Y254017D01*
X553150Y254188D01*
X552291Y254017D01*
X552242Y253984D01*
X525591D01*
X524810Y253829D01*
X524149Y253387D01*
X520854Y250092D01*
X520795Y250080D01*
X520067Y249594D01*
X519581Y248866D01*
X519410Y248008D01*
X519581Y247149D01*
X520067Y246422D01*
X520795Y245936D01*
X521654Y245765D01*
X522512Y245936D01*
X523240Y246422D01*
X523726Y247149D01*
X523737Y247208D01*
X526435Y249906D01*
X552242D01*
X552291Y249872D01*
X553150Y249702D01*
X554008Y249872D01*
X554058Y249906D01*
X607360D01*
X607409Y249872D01*
X608268Y249702D01*
X609126Y249872D01*
X609854Y250359D01*
X610340Y251086D01*
X610511Y251945D01*
X610340Y252803D01*
X609854Y253531D01*
X609126Y254017D01*
X608268Y254188D01*
D02*
G37*
G36*
X454724Y232854D02*
X453745Y232725D01*
X452833Y232347D01*
X452049Y231746D01*
X451448Y230962D01*
X451070Y230050D01*
X450941Y229071D01*
X451070Y228092D01*
X451448Y227179D01*
X452049Y226396D01*
X452833Y225795D01*
X453745Y225417D01*
X454724Y225288D01*
X455704Y225417D01*
X456616Y225795D01*
X457400Y226396D01*
X458001Y227179D01*
X458379Y228092D01*
X458508Y229071D01*
X458379Y230050D01*
X458001Y230962D01*
X457400Y231746D01*
X456616Y232347D01*
X455704Y232725D01*
X454724Y232854D01*
D02*
G37*
G36*
X690582Y258125D02*
X689723Y257954D01*
X688996Y257468D01*
X688510Y256740D01*
X688339Y255882D01*
X688510Y255024D01*
X688543Y254974D01*
Y224931D01*
X688510Y224881D01*
X688339Y224023D01*
X688510Y223164D01*
X688996Y222437D01*
X689723Y221951D01*
X690582Y221780D01*
X691440Y221951D01*
X692168Y222437D01*
X692654Y223164D01*
X692825Y224023D01*
X692654Y224881D01*
X692621Y224931D01*
Y254974D01*
X692654Y255024D01*
X692825Y255882D01*
X692654Y256740D01*
X692168Y257468D01*
X691440Y257954D01*
X690582Y258125D01*
D02*
G37*
G36*
X454724Y223012D02*
X453745Y222883D01*
X452833Y222505D01*
X452049Y221904D01*
X451448Y221120D01*
X451070Y220208D01*
X450941Y219229D01*
X451070Y218250D01*
X451448Y217337D01*
X452049Y216554D01*
X452833Y215952D01*
X453745Y215575D01*
X454724Y215446D01*
X455704Y215575D01*
X456616Y215952D01*
X457400Y216554D01*
X458001Y217337D01*
X458379Y218250D01*
X458508Y219229D01*
X458379Y220208D01*
X458001Y221120D01*
X457400Y221904D01*
X456616Y222505D01*
X455704Y222883D01*
X454724Y223012D01*
D02*
G37*
%LPD*%
G36*
X543652Y261348D02*
X514839D01*
X514951Y261371D01*
X515001Y261404D01*
X543689D01*
X543652Y261348D01*
D02*
G37*
%LPC*%
G36*
X514092Y171186D02*
X513234Y171015D01*
X512506Y170529D01*
X512020Y169801D01*
X511849Y168943D01*
X512020Y168085D01*
X512506Y167357D01*
X513234Y166871D01*
X513346Y166848D01*
X475630D01*
X475141Y166751D01*
X475044Y166732D01*
X474548Y166400D01*
X453643Y145495D01*
X453311Y144999D01*
X453195Y144414D01*
X453311Y143828D01*
X453643Y143332D01*
X454139Y143001D01*
X454724Y142884D01*
X455310Y143001D01*
X455806Y143332D01*
X476263Y163789D01*
X543652D01*
X543689Y163733D01*
X544417Y163247D01*
X545276Y163076D01*
X546134Y163247D01*
X546862Y163733D01*
X547348Y164461D01*
X547519Y165319D01*
X547348Y166177D01*
X546863Y166904D01*
X635295D01*
X637680Y164519D01*
X637691Y164461D01*
X638178Y163733D01*
X638905Y163247D01*
X639764Y163076D01*
X640622Y163247D01*
X641350Y163733D01*
X641836Y164461D01*
X642007Y165319D01*
X641836Y166177D01*
X641351Y166904D01*
X662854D01*
X665881Y163877D01*
X666542Y163435D01*
X667323Y163280D01*
X670352D01*
X670401Y163247D01*
X671260Y163076D01*
X672118Y163247D01*
X672846Y163733D01*
X673332Y164461D01*
X673503Y165319D01*
X673332Y166177D01*
X672846Y166905D01*
X672118Y167391D01*
X671260Y167562D01*
X670401Y167391D01*
X670352Y167358D01*
X668167D01*
X665141Y170385D01*
X664479Y170827D01*
X663699Y170982D01*
X515001D01*
X514951Y171015D01*
X514092Y171186D01*
D02*
G37*
G36*
X608268Y159688D02*
X607409Y159517D01*
X607360Y159484D01*
X554058D01*
X554008Y159517D01*
X553150Y159688D01*
X552291Y159517D01*
X552242Y159484D01*
X525591D01*
X524810Y159329D01*
X524149Y158887D01*
X520854Y155592D01*
X520795Y155580D01*
X520067Y155094D01*
X519581Y154366D01*
X519410Y153508D01*
X519581Y152649D01*
X520067Y151922D01*
X520795Y151435D01*
X521654Y151265D01*
X522512Y151435D01*
X523240Y151922D01*
X523726Y152649D01*
X523737Y152708D01*
X526435Y155406D01*
X552242D01*
X552291Y155373D01*
X553150Y155202D01*
X554008Y155373D01*
X554058Y155406D01*
X607360D01*
X607409Y155373D01*
X608268Y155202D01*
X609126Y155373D01*
X609854Y155859D01*
X610340Y156587D01*
X610511Y157445D01*
X610340Y158303D01*
X609854Y159031D01*
X609126Y159517D01*
X608268Y159688D01*
D02*
G37*
G36*
X454724Y138354D02*
X453745Y138225D01*
X452833Y137847D01*
X452049Y137246D01*
X451448Y136462D01*
X451070Y135550D01*
X450941Y134571D01*
X451070Y133592D01*
X451448Y132679D01*
X452049Y131896D01*
X452833Y131295D01*
X453745Y130917D01*
X454724Y130788D01*
X455704Y130917D01*
X456616Y131295D01*
X457400Y131896D01*
X458001Y132679D01*
X458379Y133592D01*
X458508Y134571D01*
X458379Y135550D01*
X458001Y136462D01*
X457400Y137246D01*
X456616Y137847D01*
X455704Y138225D01*
X454724Y138354D01*
D02*
G37*
G36*
X690582Y163625D02*
X689723Y163454D01*
X688996Y162968D01*
X688510Y162240D01*
X688339Y161382D01*
X688510Y160523D01*
X688543Y160474D01*
Y130431D01*
X688510Y130381D01*
X688339Y129523D01*
X688510Y128664D01*
X688996Y127937D01*
X689723Y127451D01*
X690582Y127280D01*
X691440Y127451D01*
X692168Y127937D01*
X692654Y128664D01*
X692825Y129523D01*
X692654Y130381D01*
X692621Y130431D01*
Y160474D01*
X692654Y160523D01*
X692825Y161382D01*
X692654Y162240D01*
X692168Y162968D01*
X691440Y163454D01*
X690582Y163625D01*
D02*
G37*
G36*
X454724Y128512D02*
X453745Y128383D01*
X452833Y128005D01*
X452049Y127404D01*
X451448Y126620D01*
X451070Y125708D01*
X450941Y124729D01*
X451070Y123750D01*
X451448Y122837D01*
X452049Y122054D01*
X452833Y121452D01*
X453745Y121074D01*
X454724Y120946D01*
X455704Y121074D01*
X456616Y121452D01*
X457400Y122054D01*
X458001Y122837D01*
X458379Y123750D01*
X458508Y124729D01*
X458379Y125708D01*
X458001Y126620D01*
X457400Y127404D01*
X456616Y128005D01*
X455704Y128383D01*
X454724Y128512D01*
D02*
G37*
%LPD*%
G36*
X543652Y166848D02*
X514839D01*
X514951Y166871D01*
X515001Y166904D01*
X543689D01*
X543652Y166848D01*
D02*
G37*
D20*
X454724Y130620D02*
Y134571D01*
Y138522D01*
X450774Y134571D02*
X454724D01*
X458675D01*
X636140Y168943D02*
X663699D01*
X667323Y165319D01*
X671260D01*
X514092Y168943D02*
X636140D01*
X639764Y165319D01*
X690582Y129523D02*
Y161382D01*
X706693Y129886D02*
X722441D01*
X714567Y133823D02*
X722441D01*
X553150Y157445D02*
X608268D01*
X521654Y153508D02*
X525591Y157445D01*
X553150D01*
X454724Y225120D02*
Y229071D01*
Y233022D01*
X450774Y229071D02*
X454724D01*
X458675D01*
X636140Y263443D02*
X663699D01*
X667323Y259819D01*
X671260D01*
X514092Y263443D02*
X636140D01*
X639764Y259819D01*
X690582Y224023D02*
Y255882D01*
X706693Y224386D02*
X722441D01*
X714567Y228323D02*
X722441D01*
X553150Y251945D02*
X608268D01*
X521654Y248008D02*
X525591Y251945D01*
X553150D01*
X454724Y319620D02*
Y323571D01*
Y327522D01*
X450774Y323571D02*
X454724D01*
X458675D01*
X636140Y357943D02*
X663699D01*
X667323Y354319D01*
X671260D01*
X514092Y357943D02*
X636140D01*
X639764Y354319D01*
X690582Y318523D02*
Y350382D01*
X706693Y318886D02*
X722441D01*
X714567Y322823D02*
X722441D01*
X553150Y346445D02*
X608268D01*
X521654Y342508D02*
X525591Y346445D01*
X553150D01*
X525591Y440945D02*
X553150D01*
X521654Y437008D02*
X525591Y440945D01*
X553150D02*
X608268D01*
X714567Y417323D02*
X722441D01*
X706693Y413386D02*
X722441D01*
X690582Y413023D02*
Y444882D01*
X636140Y452443D02*
X639764Y448819D01*
X514092Y452443D02*
X636140D01*
X667323Y448819D02*
X671260D01*
X663699Y452443D02*
X667323Y448819D01*
X636140Y452443D02*
X663699D01*
X454724Y418071D02*
X458675D01*
X450774D02*
X454724D01*
Y422022D01*
Y414120D02*
Y418071D01*
D21*
Y144414D02*
X475630Y165319D01*
X545276D01*
X454724Y238914D02*
X475630Y259819D01*
X545276D01*
X454724Y333414D02*
X475630Y354319D01*
X545276D01*
X475630Y448819D02*
X545276D01*
X454724Y427914D02*
X475630Y448819D01*
D22*
X437008Y82642D02*
X732283D01*
Y177130D01*
X437008D02*
X732283D01*
X437008Y82642D02*
Y177130D01*
Y177142D02*
X732283D01*
Y271630D01*
X437008D02*
X732283D01*
X437008Y177142D02*
Y271630D01*
Y271642D02*
X732283D01*
Y366130D01*
X437008D02*
X732283D01*
X437008Y271642D02*
Y366130D01*
Y366142D02*
Y460630D01*
X732283D01*
Y366142D02*
Y460630D01*
X437008Y366142D02*
X732283D01*
X440945Y86579D02*
Y173193D01*
X728346D01*
Y86579D02*
Y173193D01*
X440945Y86579D02*
X728346D01*
X440945D02*
Y173193D01*
X728346D01*
Y86579D02*
Y173193D01*
X440945Y86579D02*
X728346D01*
X440945Y181079D02*
Y267693D01*
X728346D01*
Y181079D02*
Y267693D01*
X440945Y181079D02*
X728346D01*
X440945D02*
Y267693D01*
X728346D01*
Y181079D02*
Y267693D01*
X440945Y181079D02*
X728346D01*
X440945Y275579D02*
Y362193D01*
X728346D01*
Y275579D02*
Y362193D01*
X440945Y275579D02*
X728346D01*
X440945D02*
Y362193D01*
X728346D01*
Y275579D02*
Y362193D01*
X440945Y275579D02*
X728346D01*
X440945Y370079D02*
X728346D01*
Y456693D01*
X440945D02*
X728346D01*
X440945Y370079D02*
Y456693D01*
Y370079D02*
X728346D01*
Y456693D01*
X440945D02*
X728346D01*
X440945Y370079D02*
Y456693D01*
D23*
X454724Y114886D02*
D03*
Y209386D02*
D03*
Y303886D02*
D03*
Y398386D02*
D03*
D24*
Y124729D02*
D03*
Y144414D02*
D03*
Y134571D02*
D03*
Y219229D02*
D03*
Y238914D02*
D03*
Y229071D02*
D03*
Y313729D02*
D03*
Y333414D02*
D03*
Y323571D02*
D03*
Y408229D02*
D03*
Y427914D02*
D03*
Y418071D02*
D03*
D25*
X722441Y133823D02*
D03*
Y129886D02*
D03*
Y125949D02*
D03*
Y228323D02*
D03*
Y224386D02*
D03*
Y220449D02*
D03*
Y322823D02*
D03*
Y318886D02*
D03*
Y314949D02*
D03*
Y417323D02*
D03*
Y413386D02*
D03*
Y409449D02*
D03*
D26*
X710630Y165319D02*
D03*
X681097Y157997D02*
D03*
X536965Y122449D02*
D03*
X604331Y118075D02*
D03*
X580709Y122012D02*
D03*
X584646Y149571D02*
D03*
X662949Y157882D02*
D03*
X501968Y141697D02*
D03*
X671260Y165319D02*
D03*
X639764D02*
D03*
X514092Y168943D02*
D03*
X545276Y165319D02*
D03*
X714567Y125949D02*
D03*
X706693Y129886D02*
D03*
X690582Y129523D02*
D03*
Y161382D02*
D03*
X714567Y133823D02*
D03*
X521654Y153508D02*
D03*
X553150Y157445D02*
D03*
X608268D02*
D03*
X710630Y259819D02*
D03*
X681097Y252497D02*
D03*
X536965Y216949D02*
D03*
X604331Y212575D02*
D03*
X580709Y216512D02*
D03*
X584646Y244071D02*
D03*
X662949Y252382D02*
D03*
X501968Y236197D02*
D03*
X671260Y259819D02*
D03*
X639764D02*
D03*
X514092Y263443D02*
D03*
X545276Y259819D02*
D03*
X714567Y220449D02*
D03*
X706693Y224386D02*
D03*
X690582Y224023D02*
D03*
Y255882D02*
D03*
X714567Y228323D02*
D03*
X521654Y248008D02*
D03*
X553150Y251945D02*
D03*
X608268D02*
D03*
X710630Y354319D02*
D03*
X681097Y346997D02*
D03*
X536965Y311449D02*
D03*
X604331Y307075D02*
D03*
X580709Y311012D02*
D03*
X584646Y338571D02*
D03*
X662949Y346882D02*
D03*
X501968Y330697D02*
D03*
X671260Y354319D02*
D03*
X639764D02*
D03*
X514092Y357943D02*
D03*
X545276Y354319D02*
D03*
X714567Y314949D02*
D03*
X706693Y318886D02*
D03*
X690582Y318523D02*
D03*
Y350382D02*
D03*
X714567Y322823D02*
D03*
X521654Y342508D02*
D03*
X553150Y346445D02*
D03*
X608268D02*
D03*
Y440945D02*
D03*
X553150D02*
D03*
X521654Y437008D02*
D03*
X714567Y417323D02*
D03*
X690582Y444882D02*
D03*
Y413023D02*
D03*
X706693Y413386D02*
D03*
X714567Y409449D02*
D03*
X545276Y448819D02*
D03*
X514092Y452443D02*
D03*
X639764Y448819D02*
D03*
X671260D02*
D03*
X501968Y425197D02*
D03*
X662949Y441382D02*
D03*
X584646Y433071D02*
D03*
X580709Y405512D02*
D03*
X604331Y401575D02*
D03*
X536965Y405949D02*
D03*
X681097Y441497D02*
D03*
X710630Y448819D02*
D03*
M02*
