G04 Layer_Color=255*
%FSLAX25Y25*%
%MOIN*%
G70*
G01*
G75*
%ADD22C,0.00100*%
%ADD23R,0.06500X0.06500*%
%ADD24C,0.06500*%
%ADD25R,0.08000X0.02400*%
D22*
X437008Y82642D02*
X732283D01*
Y177130D01*
X437008D02*
X732283D01*
X437008Y82642D02*
Y177130D01*
Y177142D02*
X732283D01*
Y271630D01*
X437008D02*
X732283D01*
X437008Y177142D02*
Y271630D01*
Y271642D02*
X732283D01*
Y366130D01*
X437008D02*
X732283D01*
X437008Y271642D02*
Y366130D01*
Y366142D02*
Y460630D01*
X732283D01*
Y366142D02*
Y460630D01*
X437008Y366142D02*
X732283D01*
D23*
X454724Y114886D02*
D03*
Y209386D02*
D03*
Y303886D02*
D03*
Y398386D02*
D03*
D24*
Y124729D02*
D03*
Y144414D02*
D03*
Y134571D02*
D03*
Y219229D02*
D03*
Y238914D02*
D03*
Y229071D02*
D03*
Y313729D02*
D03*
Y333414D02*
D03*
Y323571D02*
D03*
Y408229D02*
D03*
Y427914D02*
D03*
Y418071D02*
D03*
D25*
X722441Y133823D02*
D03*
Y129886D02*
D03*
Y125949D02*
D03*
Y228323D02*
D03*
Y224386D02*
D03*
Y220449D02*
D03*
Y322823D02*
D03*
Y318886D02*
D03*
Y314949D02*
D03*
Y417323D02*
D03*
Y413386D02*
D03*
Y409449D02*
D03*
M02*
