G04 Layer_Color=8421504*
%FSLAX25Y25*%
%MOIN*%
G70*
G01*
G75*
%ADD10R,0.02500X0.07000*%
%ADD11R,0.01700X0.03200*%
%ADD12P,0.00108X8X22.5*%
%ADD13R,0.11800X0.06500*%
%ADD14R,0.04500X0.06500*%
%ADD15R,0.04000X0.02500*%
%ADD16R,0.05000X0.04000*%
%ADD17R,0.04000X0.05000*%
%ADD18R,0.02600X0.03800*%
%ADD19R,0.04000X0.08000*%
%ADD22C,0.00100*%
D10*
X557461Y144823D02*
D03*
X567461Y122823D02*
D03*
X562461D02*
D03*
X572461Y144823D02*
D03*
X567461D02*
D03*
X557461Y122823D02*
D03*
X562461Y144823D02*
D03*
X572461Y122823D02*
D03*
X557461Y239323D02*
D03*
X567461Y217323D02*
D03*
X562461D02*
D03*
X572461Y239323D02*
D03*
X567461D02*
D03*
X557461Y217323D02*
D03*
X562461Y239323D02*
D03*
X572461Y217323D02*
D03*
X557461Y333823D02*
D03*
X567461Y311823D02*
D03*
X562461D02*
D03*
X572461Y333823D02*
D03*
X567461D02*
D03*
X557461Y311823D02*
D03*
X562461Y333823D02*
D03*
X572461Y311823D02*
D03*
X557461Y428323D02*
D03*
X567461Y406323D02*
D03*
X562461D02*
D03*
X572461Y428323D02*
D03*
X567461D02*
D03*
X557461Y406323D02*
D03*
X562461Y428323D02*
D03*
X572461Y406323D02*
D03*
D11*
X686997Y154697D02*
D03*
Y141697D02*
D03*
X675197Y154697D02*
D03*
Y141697D02*
D03*
X686997Y249197D02*
D03*
Y236197D02*
D03*
X675197Y249197D02*
D03*
Y236197D02*
D03*
X686997Y343697D02*
D03*
Y330697D02*
D03*
X675197Y343697D02*
D03*
Y330697D02*
D03*
X686997Y438197D02*
D03*
Y425197D02*
D03*
X675197Y438197D02*
D03*
Y425197D02*
D03*
D12*
X681097Y148197D02*
D03*
Y242697D02*
D03*
Y337197D02*
D03*
Y431697D02*
D03*
D13*
X517756Y93800D02*
D03*
Y188300D02*
D03*
Y282800D02*
D03*
Y377300D02*
D03*
D14*
Y118800D02*
D03*
X508656D02*
D03*
X526856D02*
D03*
X517756Y213300D02*
D03*
X508656D02*
D03*
X526856D02*
D03*
X517756Y307800D02*
D03*
X508656D02*
D03*
X526856D02*
D03*
X517756Y402300D02*
D03*
X508656D02*
D03*
X526856D02*
D03*
D15*
X611892Y117838D02*
D03*
Y110438D02*
D03*
X620392Y114138D02*
D03*
X481971Y121775D02*
D03*
X490471Y118075D02*
D03*
X481971Y114375D02*
D03*
X505592Y165082D02*
D03*
Y157682D02*
D03*
X514092Y161382D02*
D03*
X611892Y212338D02*
D03*
Y204938D02*
D03*
X620392Y208638D02*
D03*
X481971Y216275D02*
D03*
X490471Y212575D02*
D03*
X481971Y208875D02*
D03*
X505592Y259582D02*
D03*
Y252182D02*
D03*
X514092Y255882D02*
D03*
X611892Y306838D02*
D03*
Y299438D02*
D03*
X620392Y303138D02*
D03*
X481971Y310775D02*
D03*
X490471Y307075D02*
D03*
X481971Y303375D02*
D03*
X505592Y354082D02*
D03*
Y346682D02*
D03*
X514092Y350382D02*
D03*
X505592Y448582D02*
D03*
Y441182D02*
D03*
X514092Y444882D02*
D03*
X481971Y405275D02*
D03*
X490471Y401575D02*
D03*
X481971Y397875D02*
D03*
X611892Y401338D02*
D03*
Y393938D02*
D03*
X620392Y397638D02*
D03*
D16*
X698819Y133386D02*
D03*
Y126386D02*
D03*
Y227886D02*
D03*
Y220886D02*
D03*
Y322386D02*
D03*
Y315386D02*
D03*
Y416886D02*
D03*
Y409886D02*
D03*
D17*
X655949Y165319D02*
D03*
X662949D02*
D03*
X513343Y141697D02*
D03*
X506343D02*
D03*
X592957Y118075D02*
D03*
X599957D02*
D03*
X529965Y141697D02*
D03*
X536965D02*
D03*
X699256Y165319D02*
D03*
X706256D02*
D03*
X529965Y129886D02*
D03*
X536965D02*
D03*
X513343D02*
D03*
X506343D02*
D03*
X482721Y165319D02*
D03*
X489720D02*
D03*
X482721Y94453D02*
D03*
X489720D02*
D03*
X536965Y153508D02*
D03*
X529965D02*
D03*
Y165319D02*
D03*
X536965D02*
D03*
X482721Y106264D02*
D03*
X489720D02*
D03*
X599957Y153508D02*
D03*
X592957D02*
D03*
X557524Y165319D02*
D03*
X564524D02*
D03*
X699256Y153508D02*
D03*
X706256D02*
D03*
X592957Y106264D02*
D03*
X599957D02*
D03*
X682634Y165319D02*
D03*
X675634D02*
D03*
X482721Y141697D02*
D03*
X489720D02*
D03*
Y129886D02*
D03*
X482721D02*
D03*
Y153508D02*
D03*
X489720D02*
D03*
X564524Y106264D02*
D03*
X557524D02*
D03*
X619642Y141697D02*
D03*
X612642D02*
D03*
Y129886D02*
D03*
X619642D02*
D03*
X599957Y141697D02*
D03*
X592957D02*
D03*
Y129886D02*
D03*
X599957D02*
D03*
X655949Y259819D02*
D03*
X662949D02*
D03*
X513343Y236197D02*
D03*
X506343D02*
D03*
X592957Y212575D02*
D03*
X599957D02*
D03*
X529965Y236197D02*
D03*
X536965D02*
D03*
X699256Y259819D02*
D03*
X706256D02*
D03*
X529965Y224386D02*
D03*
X536965D02*
D03*
X513343D02*
D03*
X506343D02*
D03*
X482721Y259819D02*
D03*
X489720D02*
D03*
X482721Y188953D02*
D03*
X489720D02*
D03*
X536965Y248008D02*
D03*
X529965D02*
D03*
Y259819D02*
D03*
X536965D02*
D03*
X482721Y200764D02*
D03*
X489720D02*
D03*
X599957Y248008D02*
D03*
X592957D02*
D03*
X557524Y259819D02*
D03*
X564524D02*
D03*
X699256Y248008D02*
D03*
X706256D02*
D03*
X592957Y200764D02*
D03*
X599957D02*
D03*
X682634Y259819D02*
D03*
X675634D02*
D03*
X482721Y236197D02*
D03*
X489720D02*
D03*
Y224386D02*
D03*
X482721D02*
D03*
Y248008D02*
D03*
X489720D02*
D03*
X564524Y200764D02*
D03*
X557524D02*
D03*
X619642Y236197D02*
D03*
X612642D02*
D03*
Y224386D02*
D03*
X619642D02*
D03*
X599957Y236197D02*
D03*
X592957D02*
D03*
Y224386D02*
D03*
X599957D02*
D03*
X655949Y354319D02*
D03*
X662949D02*
D03*
X513343Y330697D02*
D03*
X506343D02*
D03*
X592957Y307075D02*
D03*
X599957D02*
D03*
X529965Y330697D02*
D03*
X536965D02*
D03*
X699256Y354319D02*
D03*
X706256D02*
D03*
X529965Y318886D02*
D03*
X536965D02*
D03*
X513343D02*
D03*
X506343D02*
D03*
X482721Y354319D02*
D03*
X489720D02*
D03*
X482721Y283453D02*
D03*
X489720D02*
D03*
X536965Y342508D02*
D03*
X529965D02*
D03*
Y354319D02*
D03*
X536965D02*
D03*
X482721Y295264D02*
D03*
X489720D02*
D03*
X599957Y342508D02*
D03*
X592957D02*
D03*
X557524Y354319D02*
D03*
X564524D02*
D03*
X699256Y342508D02*
D03*
X706256D02*
D03*
X592957Y295264D02*
D03*
X599957D02*
D03*
X682634Y354319D02*
D03*
X675634D02*
D03*
X482721Y330697D02*
D03*
X489720D02*
D03*
Y318886D02*
D03*
X482721D02*
D03*
Y342508D02*
D03*
X489720D02*
D03*
X564524Y295264D02*
D03*
X557524D02*
D03*
X619642Y330697D02*
D03*
X612642D02*
D03*
Y318886D02*
D03*
X619642D02*
D03*
X599957Y330697D02*
D03*
X592957D02*
D03*
Y318886D02*
D03*
X599957D02*
D03*
X592957Y413386D02*
D03*
X599957D02*
D03*
Y425197D02*
D03*
X592957D02*
D03*
X612642Y413386D02*
D03*
X619642D02*
D03*
Y425197D02*
D03*
X612642D02*
D03*
X564524Y389764D02*
D03*
X557524D02*
D03*
X482721Y437008D02*
D03*
X489720D02*
D03*
Y413386D02*
D03*
X482721D02*
D03*
Y425197D02*
D03*
X489720D02*
D03*
X682634Y448819D02*
D03*
X675634D02*
D03*
X592957Y389764D02*
D03*
X599957D02*
D03*
X699256Y437008D02*
D03*
X706256D02*
D03*
X557524Y448819D02*
D03*
X564524D02*
D03*
X599957Y437008D02*
D03*
X592957D02*
D03*
X482721Y389764D02*
D03*
X489720D02*
D03*
X529965Y448819D02*
D03*
X536965D02*
D03*
Y437008D02*
D03*
X529965D02*
D03*
X482721Y377953D02*
D03*
X489720D02*
D03*
X482721Y448819D02*
D03*
X489720D02*
D03*
X513343Y413386D02*
D03*
X506343D02*
D03*
X529965D02*
D03*
X536965D02*
D03*
X699256Y448819D02*
D03*
X706256D02*
D03*
X529965Y425197D02*
D03*
X536965D02*
D03*
X592957Y401575D02*
D03*
X599957D02*
D03*
X513343Y425197D02*
D03*
X506343D02*
D03*
X655949Y448819D02*
D03*
X662949D02*
D03*
D18*
X639764Y160349D02*
D03*
Y146667D02*
D03*
Y254849D02*
D03*
Y241167D02*
D03*
Y349349D02*
D03*
Y335667D02*
D03*
Y443849D02*
D03*
Y430167D02*
D03*
D19*
X663449Y141697D02*
D03*
X655449D02*
D03*
X663449Y236197D02*
D03*
X655449D02*
D03*
X663449Y330697D02*
D03*
X655449D02*
D03*
X663449Y425197D02*
D03*
X655449D02*
D03*
D22*
X437008Y82642D02*
X732283D01*
Y177130D01*
X437008D02*
X732283D01*
X437008Y82642D02*
Y177130D01*
Y177142D02*
X732283D01*
Y271630D01*
X437008D02*
X732283D01*
X437008Y177142D02*
Y271630D01*
Y271642D02*
X732283D01*
Y366130D01*
X437008D02*
X732283D01*
X437008Y271642D02*
Y366130D01*
Y366142D02*
Y460630D01*
X732283D01*
Y366142D02*
Y460630D01*
X437008Y366142D02*
X732283D01*
M02*
