G04 Layer_Color=16711935*
%FSLAX25Y25*%
%MOIN*%
G70*
G01*
G75*
%ADD22C,0.00100*%
%ADD37R,0.07300X0.07300*%
%ADD38C,0.07300*%
%ADD39R,0.08800X0.03200*%
%ADD40C,0.03200*%
D22*
X437008Y82642D02*
X732283D01*
Y177130D01*
X437008D02*
X732283D01*
X437008Y82642D02*
Y177130D01*
Y177142D02*
X732283D01*
Y271630D01*
X437008D02*
X732283D01*
X437008Y177142D02*
Y271630D01*
Y271642D02*
X732283D01*
Y366130D01*
X437008D02*
X732283D01*
X437008Y271642D02*
Y366130D01*
Y366142D02*
Y460630D01*
X732283D01*
Y366142D02*
Y460630D01*
X437008Y366142D02*
X732283D01*
D37*
X454724Y114886D02*
D03*
Y209386D02*
D03*
Y303886D02*
D03*
Y398386D02*
D03*
D38*
Y124729D02*
D03*
Y144414D02*
D03*
Y134571D02*
D03*
Y219229D02*
D03*
Y238914D02*
D03*
Y229071D02*
D03*
Y313729D02*
D03*
Y333414D02*
D03*
Y323571D02*
D03*
Y408229D02*
D03*
Y427914D02*
D03*
Y418071D02*
D03*
D39*
X722441Y133823D02*
D03*
Y129886D02*
D03*
Y125949D02*
D03*
Y228323D02*
D03*
Y224386D02*
D03*
Y220449D02*
D03*
Y322823D02*
D03*
Y318886D02*
D03*
Y314949D02*
D03*
Y417323D02*
D03*
Y413386D02*
D03*
Y409449D02*
D03*
D40*
X710630Y165319D02*
D03*
X681097Y157997D02*
D03*
X536965Y122449D02*
D03*
X604331Y118075D02*
D03*
X580709Y122012D02*
D03*
X584646Y149571D02*
D03*
X662949Y157882D02*
D03*
X501968Y141697D02*
D03*
X671260Y165319D02*
D03*
X639764D02*
D03*
X514092Y168943D02*
D03*
X545276Y165319D02*
D03*
X714567Y125949D02*
D03*
X706693Y129886D02*
D03*
X690582Y129523D02*
D03*
Y161382D02*
D03*
X714567Y133823D02*
D03*
X521654Y153508D02*
D03*
X553150Y157445D02*
D03*
X608268D02*
D03*
X710630Y259819D02*
D03*
X681097Y252497D02*
D03*
X536965Y216949D02*
D03*
X604331Y212575D02*
D03*
X580709Y216512D02*
D03*
X584646Y244071D02*
D03*
X662949Y252382D02*
D03*
X501968Y236197D02*
D03*
X671260Y259819D02*
D03*
X639764D02*
D03*
X514092Y263443D02*
D03*
X545276Y259819D02*
D03*
X714567Y220449D02*
D03*
X706693Y224386D02*
D03*
X690582Y224023D02*
D03*
Y255882D02*
D03*
X714567Y228323D02*
D03*
X521654Y248008D02*
D03*
X553150Y251945D02*
D03*
X608268D02*
D03*
X710630Y354319D02*
D03*
X681097Y346997D02*
D03*
X536965Y311449D02*
D03*
X604331Y307075D02*
D03*
X580709Y311012D02*
D03*
X584646Y338571D02*
D03*
X662949Y346882D02*
D03*
X501968Y330697D02*
D03*
X671260Y354319D02*
D03*
X639764D02*
D03*
X514092Y357943D02*
D03*
X545276Y354319D02*
D03*
X714567Y314949D02*
D03*
X706693Y318886D02*
D03*
X690582Y318523D02*
D03*
Y350382D02*
D03*
X714567Y322823D02*
D03*
X521654Y342508D02*
D03*
X553150Y346445D02*
D03*
X608268D02*
D03*
Y440945D02*
D03*
X553150D02*
D03*
X521654Y437008D02*
D03*
X714567Y417323D02*
D03*
X690582Y444882D02*
D03*
Y413023D02*
D03*
X706693Y413386D02*
D03*
X714567Y409449D02*
D03*
X545276Y448819D02*
D03*
X514092Y452443D02*
D03*
X639764Y448819D02*
D03*
X671260D02*
D03*
X501968Y425197D02*
D03*
X662949Y441382D02*
D03*
X584646Y433071D02*
D03*
X580709Y405512D02*
D03*
X604331Y401575D02*
D03*
X536965Y405949D02*
D03*
X681097Y441497D02*
D03*
X710630Y448819D02*
D03*
M02*
